<?xml version="1.0" standalone="no"?>
 <!DOCTYPE svg PUBLIC "-//W3C//DTD SVG 1.1//EN" 
 "http://www.w3.org/Graphics/SVG/1.1/DTD/svg11.dtd"> 
<svg xmlns="http://www.w3.org/2000/svg" version="1.1" 
    width="29.7002cm" height="21.0007cm" viewBox="0 0 116930 82680 ">
<title>SVG Picture created as uControl_v3-B_SilkS.svg date 2013/12/15 20:34:27 </title>
  <desc>Picture generated by PCBNEW </desc>
<g style="fill:#000000; fill-opacity:1;stroke:#000000; stroke-opacity:1;
stroke-linecap:round; stroke-linejoin:round; "
 transform="translate(0 0) scale(1 1)">
</g>
<g style="fill:#000000; fill-opacity:0.0; 
stroke:#000000; stroke-width:39.3701; stroke-opacity:1; 
stroke-linecap:round; stroke-linejoin:round;">
<rect x="-845466" y="-845466" width="0" height="0" rx="0" />
<rect x="-845466" y="-845466" width="0" height="0" rx="0" />
<path d="M-845466 -845466
L-845466 -845466
" />
<path d="M-845466 -845466
L-845466 -845466
" />
<path d="M-845466 -845466
L-845466 -845466
" />
<path d="M-845466 -845466
L-845466 -845466
" />
<path d="M-845466 -845466
L-845466 -845466
" />
<path d="M-845353 -845227
L-845269 -845199
L-845128 -845199
L-845072 -845227
L-845044 -845255
L-845016 -845311
L-845016 -845367
L-845044 -845423
L-845072 -845451
L-845128 845451
L-845241 845423
L-845297 845395
L-845325 845367
L-845353 845311
L-845353 845255
L-845325 845199
L-845297 845171
L-845241 845142
L-845100 845142
L-845016 845171
" />
<path d="M-844763 -845199
L-844763 845142
" />
<path d="M-844510 -845199
L-844510 845423
L-844538 845367
L-844595 845339
L-844679 845339
L-844735 845367
L-844763 845395
" />
<path d="M-844005 -845227
L-844061 -845199
L-844173 -845199
L-844229 -845227
L-844257 -845283
L-844257 845423
L-844229 845367
L-844173 845339
L-844061 845339
L-844005 845367
L-843976 845423
L-843976 -845451
L-844257 -845395
" />
<path d="M-843499 -845227
L-843555 -845199
L-843667 -845199
L-843724 -845227
L-843752 -845283
L-843752 845423
L-843724 845367
L-843667 845339
L-843555 845339
L-843499 845367
L-843471 845423
L-843471 -845451
L-843752 -845395
" />
<path d="M-843302 845339
L-843077 845339
" />
<path d="M-843218 845142
L-843218 -845283
L-843190 -845227
L-843134 -845199
L-843077 -845199
" />
<path d="M-842881 -845255
L-842853 -845227
L-842881 -845199
L-842909 -845227
L-842881 -845255
L-842881 -845199
" />
<path d="M-842881 845367
L-842853 845395
L-842881 845423
L-842909 845395
L-842881 845367
L-842881 845423
" />
<path d="M-841729 845114
L-842235 -845058
" />
<path d="M-841532 -845199
L-841532 845142
" />
<path d="M-841279 -845199
L-841279 845423
L-841307 845367
L-841364 845339
L-841448 845339
L-841504 845367
L-841532 845395
" />
<path d="M-840914 -845199
L-840970 -845227
L-840998 -845255
L-841026 -845311
L-841026 845451
L-840998 845395
L-840970 845367
L-840914 845339
L-840830 845339
L-840774 845367
L-840746 845395
L-840717 845451
L-840717 -845311
L-840746 -845255
L-840774 -845227
L-840830 -845199
L-840914 -845199
" />
<path d="M-840465 -845199
L-840465 845339
" />
<path d="M-840465 845395
L-840436 845367
L-840380 845339
L-840296 845339
L-840240 845367
L-840212 845423
L-840212 -845199
" />
<path d="M-840212 845423
L-840184 845367
L-840127 845339
L-840043 845339
L-839987 845367
L-839959 845423
L-839959 -845199
" />
<path d="M-839453 -845227
L-839509 -845199
L-839622 -845199
L-839678 -845227
L-839706 -845283
L-839706 845423
L-839678 845367
L-839622 845339
L-839509 845339
L-839453 845367
L-839425 845423
L-839425 -845451
L-839706 -845395
" />
<path d="M-838751 845114
L-839256 -845058
" />
<path d="M-838554 845339
L-838554 -845086
L-838582 -845030
L-838638 -845002
L-838666 -845002
" />
<path d="M-838554 845142
L-838582 845171
L-838554 845199
L-838526 845171
L-838554 845142
L-838554 845199
" />
<path d="M-838020 845339
L-838020 -845199
" />
<path d="M-838273 845339
L-838273 -845283
L-838245 -845227
L-838189 -845199
L-838105 -845199
L-838048 -845227
L-838020 -845255
" />
<path d="M-837767 -845227
L-837711 -845199
L-837599 -845199
L-837543 -845227
L-837515 -845283
L-837515 -845311
L-837543 -845367
L-837599 -845395
L-837683 -845395
L-837739 -845423
L-837767 845451
L-837767 845423
L-837739 845367
L-837683 845339
L-837599 845339
L-837543 845367
" />
<path d="M-837346 845339
L-837121 845339
" />
<path d="M-837262 845142
L-837262 -845283
L-837234 -845227
L-837177 -845199
L-837121 -845199
" />
<path d="M-836925 -845199
L-836925 845339
" />
<path d="M-836925 845142
L-836953 845171
L-836925 845199
L-836896 845171
L-836925 845142
L-836925 845199
" />
<path d="M-836644 845339
L-836644 -845199
" />
<path d="M-836644 845395
L-836616 845367
L-836559 845339
L-836475 845339
L-836419 845367
L-836391 845423
L-836391 -845199
" />
<path d="M-835688 845114
L-836194 -845058
" />
<path d="M-835239 -845227
L-835295 -845199
L-835407 -845199
L-835464 -845227
L-835492 -845255
L-835520 -845311
L-835520 845451
L-835492 845395
L-835464 845367
L-835407 845339
L-835295 845339
L-835239 845367
" />
<path d="M-834902 -845199
L-834958 -845227
L-834986 -845255
L-835014 -845311
L-835014 845451
L-834986 845395
L-834958 845367
L-834902 845339
L-834817 845339
L-834761 845367
L-834733 845395
L-834705 845451
L-834705 -845311
L-834733 -845255
L-834761 -845227
L-834817 -845199
L-834902 -845199
" />
<path d="M-834199 -845199
L-834199 845142
" />
<path d="M-834199 -845227
L-834256 -845199
L-834368 -845199
L-834424 -845227
L-834452 -845255
L-834480 -845311
L-834480 845451
L-834452 845395
L-834424 845367
L-834368 845339
L-834256 845339
L-834199 845367
" />
<path d="M-833694 -845227
L-833750 -845199
L-833862 -845199
L-833918 -845227
L-833946 -845283
L-833946 845423
L-833918 845367
L-833862 845339
L-833750 845339
L-833694 845367
L-833666 845423
L-833666 -845451
L-833946 -845395
" />
<path d="M-832991 845114
L-833497 -845058
" />
<path d="M-832542 -845227
L-832598 -845199
L-832710 -845199
L-832766 -845227
L-832795 -845255
L-832823 -845311
L-832823 845451
L-832795 845395
L-832766 845367
L-832710 845339
L-832598 845339
L-832542 845367
" />
<path d="M-832205 -845199
L-832261 -845227
L-832289 -845283
L-832289 845142
" />
<path d="M-831896 -845199
L-831952 -845227
L-831980 -845255
L-832008 -845311
L-832008 845451
L-831980 845395
L-831952 845367
L-831896 845339
L-831811 845339
L-831755 845367
L-831727 845395
L-831699 845451
L-831699 -845311
L-831727 -845255
L-831755 -845227
L-831811 -845199
L-831896 -845199
" />
<path d="M-831193 -845227
L-831249 -845199
L-831362 -845199
L-831418 -845227
L-831446 -845255
L-831474 -845311
L-831474 845451
L-831446 845395
L-831418 845367
L-831362 845339
L-831249 845339
L-831193 845367
" />
<path d="M-830940 -845199
L-830940 845142
" />
<path d="M-830884 -845423
L-830716 -845199
" />
<path d="M-830716 845339
L-830940 -845367
" />
<path d="M-830547 845339
L-830322 845339
" />
<path d="M-830463 845142
L-830463 -845283
L-830435 -845227
L-830378 -845199
L-830322 -845199
" />
<path d="M-830126 -845199
L-830126 845142
" />
<path d="M-829873 -845199
L-829873 845423
L-829901 845367
L-829957 845339
L-830041 845339
L-830097 845367
L-830126 845395
" />
<path d="M-829592 -845199
L-829592 845339
" />
<path d="M-829592 845451
L-829564 845395
L-829536 845367
L-829479 845339
L-829423 845339
" />
<path d="M-829002 -845227
L-829058 -845199
L-829170 -845199
L-829226 -845227
L-829255 -845283
L-829255 845423
L-829226 845367
L-829170 845339
L-829058 845339
L-829002 845367
L-828974 845423
L-828974 -845451
L-829255 -845395
" />
<path d="M-828496 -845227
L-828552 -845199
L-828665 -845199
L-828721 -845227
L-828749 -845283
L-828749 845423
L-828721 845367
L-828665 845339
L-828552 845339
L-828496 845367
L-828468 845423
L-828468 -845451
L-828749 -845395
" />
<path d="M-827794 845114
L-828299 -845058
" />
<path d="M-827597 -845199
L-827597 845142
" />
<path d="M-827260 -845199
L-827513 845395
" />
<path d="M-827260 845142
L-827597 -845451
" />
<path d="M-827007 -845199
L-827007 845339
" />
<path d="M-827007 845142
L-827035 845171
L-827007 845199
L-826979 845171
L-827007 845142
L-827007 845199
" />
<path d="M-826389 -845255
L-826417 -845227
L-826501 -845199
L-826557 -845199
L-826642 -845227
L-826698 -845283
L-826726 -845339
L-826754 -845451
L-826754 845395
L-826726 845283
L-826698 845227
L-826642 845171
L-826557 845142
L-826501 845142
L-826417 845171
L-826389 845199
" />
<path d="M-825883 -845199
L-825883 845423
L-825911 845367
L-825967 845339
L-826080 845339
L-826136 845367
" />
<path d="M-825883 -845227
L-825939 -845199
L-826080 -845199
L-826136 -845227
L-826164 -845283
L-826164 -845339
L-826136 -845395
L-826080 -845423
L-825939 -845423
L-825883 -845451
" />
<path d="M-825349 -845199
L-825349 845142
" />
<path d="M-825349 -845227
L-825406 -845199
L-825518 -845199
L-825574 -845227
L-825602 -845255
L-825630 -845311
L-825630 845451
L-825602 845395
L-825574 845367
L-825518 845339
L-825406 845339
L-825349 845367
" />
<path d="M-824647 845114
L-825153 -845058
" />
<path d="M-824197 845339
L-824197 -845199
" />
<path d="M-824450 845339
L-824450 -845283
L-824422 -845227
L-824366 -845199
L-824282 -845199
L-824226 -845227
L-824197 -845255
" />
<path d="M-823579 -845255
L-823607 -845227
L-823692 -845199
L-823748 -845199
L-823832 -845227
L-823888 -845283
L-823916 -845339
L-823945 -845451
L-823945 845395
L-823916 845283
L-823888 845227
L-823832 845171
L-823748 845142
L-823692 845142
L-823607 845171
L-823579 845199
" />
<path d="M-823242 -845199
L-823298 -845227
L-823326 -845255
L-823355 -845311
L-823355 845451
L-823326 845395
L-823298 845367
L-823242 845339
L-823158 845339
L-823102 845367
L-823074 845395
L-823046 845451
L-823046 -845311
L-823074 -845255
L-823102 -845227
L-823158 -845199
L-823242 -845199
" />
<path d="M-822793 845339
L-822793 -845199
" />
<path d="M-822793 845395
L-822765 845367
L-822708 845339
L-822624 845339
L-822568 845367
L-822540 845423
L-822540 -845199
" />
<path d="M-822343 845339
L-822118 845339
" />
<path d="M-822259 845142
L-822259 -845283
L-822231 -845227
L-822175 -845199
L-822118 -845199
" />
<path d="M-821922 -845199
L-821922 845339
" />
<path d="M-821922 845451
L-821894 845395
L-821866 845367
L-821809 845339
L-821753 845339
" />
<path d="M-821472 -845199
L-821528 -845227
L-821556 -845255
L-821585 -845311
L-821585 845451
L-821556 845395
L-821528 845367
L-821472 845339
L-821388 845339
L-821332 845367
L-821304 845395
L-821276 845451
L-821276 -845311
L-821304 -845255
L-821332 -845227
L-821388 -845199
L-821472 -845199
" />
<path d="M-820938 -845199
L-820995 -845227
L-821023 -845283
L-821023 845142
" />
<path d="M-820854 -845142
L-820405 -845142
" />
<path d="M-820320 845339
L-820180 -845199
L-820039 845339
" />
<path d="M-819871 845142
L-819506 845142
L-819702 845367
L-819618 845367
L-819562 845395
L-819534 845423
L-819506 -845451
L-819506 -845311
L-819534 -845255
L-819562 -845227
L-819618 -845199
L-819786 -845199
L-819843 -845227
L-819871 -845255
" />
<path d="M-818831 845114
L-819337 -845058
" />
<path d="M-818382 845339
L-818382 -845199
" />
<path d="M-818635 845339
L-818635 -845283
L-818606 -845227
L-818550 -845199
L-818466 -845199
L-818410 -845227
L-818382 -845255
" />
<path d="M-817764 -845255
L-817792 -845227
L-817876 -845199
L-817932 -845199
L-818016 -845227
L-818073 -845283
L-818101 -845339
L-818129 -845451
L-818129 845395
L-818101 845283
L-818073 845227
L-818016 845171
L-817932 845142
L-817876 845142
L-817792 845171
L-817764 845199
" />
<path d="M-817426 -845199
L-817483 -845227
L-817511 -845255
L-817539 -845311
L-817539 845451
L-817511 845395
L-817483 845367
L-817426 845339
L-817342 845339
L-817286 845367
L-817258 845395
L-817230 845451
L-817230 -845311
L-817258 -845255
L-817286 -845227
L-817342 -845199
L-817426 -845199
" />
<path d="M-816977 845339
L-816977 -845199
" />
<path d="M-816977 845395
L-816949 845367
L-816893 845339
L-816808 845339
L-816752 845367
L-816724 845423
L-816724 -845199
" />
<path d="M-816527 845339
L-816303 845339
" />
<path d="M-816443 845142
L-816443 -845283
L-816415 -845227
L-816359 -845199
L-816303 -845199
" />
<path d="M-816106 -845199
L-816106 845339
" />
<path d="M-816106 845451
L-816078 845395
L-816050 845367
L-815994 845339
L-815937 845339
" />
<path d="M-815656 -845199
L-815713 -845227
L-815741 -845255
L-815769 -845311
L-815769 845451
L-815741 845395
L-815713 845367
L-815656 845339
L-815572 845339
L-815516 845367
L-815488 845395
L-815460 845451
L-815460 -845311
L-815488 -845255
L-815516 -845227
L-815572 -845199
L-815656 -845199
" />
<path d="M-815123 -845199
L-815179 -845227
L-815207 -845283
L-815207 845142
" />
<path d="M-815038 -845142
L-814589 -845142
" />
<path d="M-814505 845339
L-814364 -845199
L-814224 845339
" />
<path d="M-814055 845142
L-813690 845142
L-813886 845367
L-813802 845367
L-813746 845395
L-813718 845423
L-813690 -845451
L-813690 -845311
L-813718 -845255
L-813746 -845227
L-813802 -845199
L-813971 -845199
L-814027 -845227
L-814055 -845255
" />
<path d="M-813437 -845255
L-813409 -845227
L-813437 -845199
L-813465 -845227
L-813437 -845255
L-813437 -845199
" />
<path d="M-813156 -845199
L-813156 845142
" />
<path d="M-813100 -845423
L-812931 -845199
" />
<path d="M-812931 845339
L-813156 -845367
" />
<path d="M-812678 -845199
L-812678 845339
" />
<path d="M-812678 845142
L-812706 845171
L-812678 845199
L-812650 845171
L-812678 845142
L-812678 845199
" />
<path d="M-812145 -845227
L-812201 -845199
L-812313 -845199
L-812369 -845227
L-812397 -845255
L-812426 -845311
L-812426 845451
L-812397 845395
L-812369 845367
L-812313 845339
L-812201 845339
L-812145 845367
" />
<path d="M-811639 -845199
L-811639 845423
L-811667 845367
L-811723 845339
L-811836 845339
L-811892 845367
" />
<path d="M-811639 -845227
L-811695 -845199
L-811836 -845199
L-811892 -845227
L-811920 -845283
L-811920 -845339
L-811892 -845395
L-811836 -845423
L-811695 -845423
L-811639 -845451
" />
<path d="M-811105 -845199
L-811105 845142
" />
<path d="M-811105 -845227
L-811161 -845199
L-811274 -845199
L-811330 -845227
L-811358 -845255
L-811386 -845311
L-811386 845451
L-811358 845395
L-811330 845367
L-811274 845339
L-811161 845339
L-811105 845367
" />
<path d="M-810965 -845142
L-810515 -845142
" />
<path d="M-810375 845339
L-810375 -845002
" />
<path d="M-810375 845367
L-810318 845339
L-810206 845339
L-810150 845367
L-810122 845395
L-810094 845451
L-810094 -845311
L-810122 -845255
L-810150 -845227
L-810206 -845199
L-810318 -845199
L-810375 -845227
" />
<path d="M-809588 -845227
L-809644 -845199
L-809756 -845199
L-809813 -845227
L-809841 -845255
L-809869 -845311
L-809869 845451
L-809841 845395
L-809813 845367
L-809756 845339
L-809644 845339
L-809588 845367
" />
<path d="M-809335 -845199
L-809335 845142
" />
<path d="M-809335 845367
L-809279 845339
L-809166 845339
L-809110 845367
L-809082 845395
L-809054 845451
L-809054 -845311
L-809082 -845255
L-809110 -845227
L-809166 -845199
L-809279 -845199
L-809335 -845227
" />
<path d="M-845128 845423
L-845325 845423
" />
<path d="M-845325 -845199
L-845325 845142
L-845044 845142
" />
<path d="M-844819 -845199
L-844819 845339
" />
<path d="M-844819 845142
L-844847 845171
L-844819 845199
L-844791 845171
L-844819 845142
L-844819 845199
" />
<path d="M-844454 -845199
L-844510 -845227
L-844538 -845283
L-844538 845142
" />
<path d="M-844005 -845227
L-844061 -845199
L-844173 -845199
L-844229 -845227
L-844257 -845283
L-844257 845423
L-844229 845367
L-844173 845339
L-844061 845339
L-844005 845367
L-843976 845423
L-843976 -845451
L-844257 -845395
" />
<path d="M-843724 -845255
L-843696 -845227
L-843724 -845199
L-843752 -845227
L-843724 -845255
L-843724 -845199
" />
<path d="M-843724 845367
L-843696 845395
L-843724 845423
L-843752 845395
L-843724 845367
L-843724 845423
" />
</g>
<g style="fill:#000000; fill-opacity:0.0; 
stroke:#000000; stroke-width:118; stroke-opacity:1; 
stroke-linecap:round; stroke-linejoin:round;">
<path d="M-845409 845142
L-845072 845142
" />
<path d="M-845241 -845199
L-845241 845142
" />
<path d="M-844876 -845199
L-844876 845339
" />
<path d="M-844876 845142
L-844904 845171
L-844876 845199
L-844847 845171
L-844876 845142
L-844876 845199
" />
<path d="M-844679 845339
L-844454 845339
" />
<path d="M-844595 845142
L-844595 -845283
L-844566 -845227
L-844510 -845199
L-844454 -845199
" />
<path d="M-844173 -845199
L-844229 -845227
L-844257 -845283
L-844257 845142
" />
<path d="M-843724 -845227
L-843780 -845199
L-843892 -845199
L-843948 -845227
L-843976 -845283
L-843976 845423
L-843948 845367
L-843892 845339
L-843780 845339
L-843724 845367
L-843696 845423
L-843696 -845451
L-843976 -845395
" />
<path d="M-843443 -845255
L-843415 -845227
L-843443 -845199
L-843471 -845227
L-843443 -845255
L-843443 -845199
" />
<path d="M-843443 845367
L-843415 845395
L-843443 845423
L-843471 845395
L-843443 845367
L-843443 845423
" />
</g>
<g style="fill:#000000; fill-opacity:0.0; 
stroke:#000000; stroke-width:39.3701; stroke-opacity:1; 
stroke-linecap:round; stroke-linejoin:round;">
<path d="M-845325 -845199
L-845325 845142
" />
<path d="M-844791 -845199
L-844791 845142
" />
<path d="M-844791 -845227
L-844847 -845199
L-844960 -845199
L-845016 -845227
L-845044 -845255
L-845072 -845311
L-845072 845451
L-845044 845395
L-845016 845367
L-844960 845339
L-844847 845339
L-844791 845367
" />
<path d="M-844510 -845255
L-844482 -845227
L-844510 -845199
L-844538 -845227
L-844510 -845255
L-844510 -845199
" />
<path d="M-844510 845367
L-844482 845395
L-844510 845423
L-844538 845395
L-844510 845367
L-844510 845423
" />
<path d="M-843471 -845199
L-843808 -845199
" />
<path d="M-843639 -845199
L-843639 845142
L-843696 845227
L-843752 845283
L-843808 845311
" />
<path d="M-842796 845114
L-843302 -845058
" />
<path d="M-842291 -845199
L-842628 -845199
" />
<path d="M-842459 -845199
L-842459 845142
L-842516 845227
L-842572 845283
L-842628 845311
" />
<path d="M-845353 -845227
L-845269 -845199
L-845128 -845199
L-845072 -845227
L-845044 -845255
L-845016 -845311
L-845016 -845367
L-845044 -845423
L-845072 -845451
L-845128 845451
L-845241 845423
L-845297 845395
L-845325 845367
L-845353 845311
L-845353 845255
L-845325 845199
L-845297 845171
L-845241 845142
L-845100 845142
L-845016 845171
" />
<path d="M-844763 -845199
L-844763 845339
" />
<path d="M-844763 845142
L-844791 845171
L-844763 845199
L-844735 845171
L-844763 845142
L-844763 845199
" />
<path d="M-844538 845339
L-844229 845339
L-844538 -845199
L-844229 -845199
" />
<path d="M-843780 -845227
L-843836 -845199
L-843948 -845199
L-844005 -845227
L-844033 -845283
L-844033 845423
L-844005 845367
L-843948 845339
L-843836 845339
L-843780 845367
L-843752 845423
L-843752 -845451
L-844033 -845395
" />
<path d="M-843499 -845255
L-843471 -845227
L-843499 -845199
L-843527 -845227
L-843499 -845255
L-843499 -845199
" />
<path d="M-843499 845367
L-843471 845395
L-843499 845423
L-843527 845395
L-843499 845367
L-843499 845423
" />
<path d="M-842796 -845367
L-842516 -845367
" />
<path d="M-842853 -845199
L-842656 845142
L-842459 -845199
" />
<path d="M-842010 845339
L-842010 -845199
" />
<path d="M-842150 845114
L-842291 -845395
L-841926 -845395
" />
</g>
<g style="fill:#000000; fill-opacity:0.0; 
stroke:#000000; stroke-width:118; stroke-opacity:1; 
stroke-linecap:round; stroke-linejoin:round;">
<path d="M-844988 -845199
L-845185 845451
" />
<path d="M-845325 -845199
L-845325 845142
L-845100 845142
L-845044 845171
L-845016 845199
L-844988 845255
L-844988 845339
L-845016 845395
L-845044 845423
L-845100 845451
L-845325 845451
" />
<path d="M-844510 -845227
L-844566 -845199
L-844679 -845199
L-844735 -845227
L-844763 -845283
L-844763 845423
L-844735 845367
L-844679 845339
L-844566 845339
L-844510 845367
L-844482 845423
L-844482 -845451
L-844763 -845395
" />
<path d="M-844286 845339
L-844145 -845199
L-844005 845339
" />
<path d="M-843780 -845255
L-843752 -845227
L-843780 -845199
L-843808 -845227
L-843780 -845255
L-843780 -845199
" />
<path d="M-843780 845367
L-843752 845395
L-843780 845423
L-843808 845395
L-843780 845367
L-843780 845423
" />
</g>
<g style="fill:#000000; fill-opacity:0.0; 
stroke:#000000; stroke-width:39.3701; stroke-opacity:1; 
stroke-linecap:round; stroke-linejoin:round;">
<path d="M-845325 -845199
L-845325 845142
" />
<path d="M-844988 -845199
L-845241 845395
" />
<path d="M-844988 845142
L-845325 -845451
" />
<path d="M-844735 -845199
L-844735 845339
" />
<path d="M-844735 845142
L-844763 845171
L-844735 845199
L-844707 845171
L-844735 845142
L-844735 845199
" />
<path d="M-844117 -845255
L-844145 -845227
L-844229 -845199
L-844286 -845199
L-844370 -845227
L-844426 -845283
L-844454 -845339
L-844482 -845451
L-844482 845395
L-844454 845283
L-844426 845227
L-844370 845171
L-844286 845142
L-844229 845142
L-844145 845171
L-844117 845199
" />
<path d="M-843611 -845199
L-843611 845423
L-843639 845367
L-843696 845339
L-843808 845339
L-843864 845367
" />
<path d="M-843611 -845227
L-843667 -845199
L-843808 -845199
L-843864 -845227
L-843892 -845283
L-843892 -845339
L-843864 -845395
L-843808 -845423
L-843667 -845423
L-843611 -845451
" />
<path d="M-843077 -845199
L-843077 845142
" />
<path d="M-843077 -845227
L-843134 -845199
L-843246 -845199
L-843302 -845227
L-843330 -845255
L-843358 -845311
L-843358 845451
L-843330 845395
L-843302 845367
L-843246 845339
L-843134 845339
L-843077 845367
" />
<path d="M-842347 845423
L-842150 845423
" />
<path d="M-842066 -845199
L-842347 -845199
L-842347 845142
L-842066 845142
" />
<path d="M-841813 -845255
L-841785 -845227
L-841813 -845199
L-841841 -845227
L-841813 -845255
L-841813 -845199
" />
<path d="M-841532 -845199
L-841532 845142
L-841392 845142
L-841307 845171
L-841251 845227
L-841223 845283
L-841195 845395
L-841195 -845451
L-841223 -845339
L-841251 -845283
L-841307 -845227
L-841392 -845199
L-841532 -845199
" />
<path d="M-840942 -845255
L-840914 -845227
L-840942 -845199
L-840970 -845227
L-840942 -845255
L-840942 -845199
" />
<path d="M-840689 -845367
L-840408 -845367
" />
<path d="M-840746 -845199
L-840549 845142
L-840352 -845199
" />
<path d="M-840156 -845255
L-840127 -845227
L-840156 -845199
L-840184 -845227
L-840156 -845255
L-840156 -845199
" />
<path d="M-838976 845339
L-838976 -845002
" />
<path d="M-838976 845367
L-838919 845339
L-838807 845339
L-838751 845367
L-838723 845395
L-838695 845451
L-838695 -845311
L-838723 -845255
L-838751 -845227
L-838807 -845199
L-838919 -845199
L-838976 -845227
" />
<path d="M-838189 -845227
L-838245 -845199
L-838357 -845199
L-838414 -845227
L-838442 -845255
L-838470 -845311
L-838470 845451
L-838442 845395
L-838414 845367
L-838357 845339
L-838245 845339
L-838189 845367
" />
<path d="M-837936 -845199
L-837936 845142
" />
<path d="M-837936 845367
L-837880 845339
L-837767 845339
L-837711 845367
L-837683 845395
L-837655 845451
L-837655 -845311
L-837683 -845255
L-837711 -845227
L-837767 -845199
L-837880 -845199
L-837936 -845227
" />
<path d="M-837402 845339
L-837402 -845199
" />
<path d="M-837402 845395
L-837374 845367
L-837318 845339
L-837234 845339
L-837177 845367
L-837149 845423
L-837149 -845199
" />
<path d="M-836644 -845227
L-836700 -845199
L-836812 -845199
L-836868 -845227
L-836896 -845283
L-836896 845423
L-836868 845367
L-836812 845339
L-836700 845339
L-836644 845367
L-836616 845423
L-836616 -845451
L-836896 -845395
" />
<path d="M-836419 845339
L-836306 -845199
L-836194 845451
L-836082 -845199
L-835969 845339
" />
<path d="M-835126 -844974
L-835155 -845002
L-835211 -845086
L-835239 -845142
L-835267 -845227
L-835295 -845367
L-835295 845451
L-835267 845311
L-835239 845227
L-835211 845171
L-835155 845086
L-835126 845058
" />
<path d="M-834930 845199
L-834902 845171
L-834846 845142
L-834705 845142
L-834649 845171
L-834621 845199
L-834593 845255
L-834593 845311
L-834621 845395
L-834958 -845199
L-834593 -845199
" />
<path d="M-834227 845142
L-834171 845142
L-834115 845171
L-834087 845199
L-834059 845255
L-834031 845367
L-834031 -845423
L-834059 -845311
L-834087 -845255
L-834115 -845227
L-834171 -845199
L-834227 -845199
L-834284 -845227
L-834312 -845255
L-834340 -845311
L-834368 -845423
L-834368 845367
L-834340 845255
L-834312 845199
L-834284 845171
L-834227 845142
" />
<path d="M-833469 -845199
L-833806 -845199
" />
<path d="M-833637 -845199
L-833637 845142
L-833694 845227
L-833750 845283
L-833806 845311
" />
<path d="M-833272 845142
L-832907 845142
L-833104 845367
L-833019 845367
L-832963 845395
L-832935 845423
L-832907 -845451
L-832907 -845311
L-832935 -845255
L-832963 -845227
L-833019 -845199
L-833188 -845199
L-833244 -845227
L-833272 -845255
" />
<path d="M-832654 -845423
L-832205 -845423
" />
<path d="M-831924 -845199
L-831924 845339
" />
<path d="M-831924 845395
L-831896 845367
L-831839 845339
L-831755 845339
L-831699 845367
L-831671 845423
L-831671 -845199
" />
<path d="M-831671 845423
L-831643 845367
L-831586 845339
L-831502 845339
L-831446 845367
L-831418 845423
L-831418 -845199
" />
<path d="M-830884 -845199
L-830884 845423
L-830912 845367
L-830968 845339
L-831081 845339
L-831137 845367
" />
<path d="M-830884 -845227
L-830940 -845199
L-831081 -845199
L-831137 -845227
L-831165 -845283
L-831165 -845339
L-831137 -845395
L-831081 -845423
L-830940 -845423
L-830884 -845451
" />
<path d="M-830603 -845199
L-830603 845339
" />
<path d="M-830603 845451
L-830575 845395
L-830547 845367
L-830491 845339
L-830435 845339
" />
<path d="M-830238 -845423
L-829788 -845423
" />
<path d="M-829198 -845199
L-829536 -845199
" />
<path d="M-829367 -845199
L-829367 845142
L-829423 845227
L-829479 845283
L-829536 845311
" />
<path d="M-829002 845142
L-828636 845142
L-828833 845367
L-828749 845367
L-828693 845395
L-828665 845423
L-828636 -845451
L-828636 -845311
L-828665 -845255
L-828693 -845227
L-828749 -845199
L-828917 -845199
L-828974 -845227
L-829002 -845255
" />
<path d="M-828440 -844974
L-828412 -845002
L-828356 -845086
L-828327 -845142
L-828299 -845227
L-828271 -845367
L-828271 845451
L-828299 845311
L-828327 845227
L-828356 845171
L-828412 845086
L-828440 845058
" />
<path d="M-827990 -845423
L-827541 -845423
" />
<path d="M-827344 845339
L-827119 845339
" />
<path d="M-827260 845142
L-827260 -845283
L-827232 -845227
L-827176 -845199
L-827119 -845199
" />
<path d="M-826698 -845227
L-826754 -845199
L-826866 -845199
L-826923 -845227
L-826951 -845283
L-826951 845423
L-826923 845367
L-826866 845339
L-826754 845339
L-826698 845367
L-826670 845423
L-826670 -845451
L-826951 -845395
" />
<path d="M-826445 -845227
L-826389 -845199
L-826276 -845199
L-826220 -845227
L-826192 -845283
L-826192 -845311
L-826220 -845367
L-826276 -845395
L-826361 -845395
L-826417 -845423
L-826445 845451
L-826445 845423
L-826417 845367
L-826361 845339
L-826276 845339
L-826220 845367
" />
<path d="M-826024 845339
L-825799 845339
" />
<path d="M-825939 845142
L-825939 -845283
L-825911 -845227
L-825855 -845199
L-825799 -845199
" />
<path d="M-825602 -845199
L-825602 845339
" />
<path d="M-825602 845142
L-825630 845171
L-825602 845199
L-825574 845171
L-825602 845142
L-825602 845199
" />
<path d="M-825321 845339
L-825321 -845199
" />
<path d="M-825321 845395
L-825293 845367
L-825237 845339
L-825153 845339
L-825096 845367
L-825068 845423
L-825068 -845199
" />
<path d="M-824535 845339
L-824535 -845114
L-824563 -845058
L-824591 -845030
L-824647 -845002
L-824731 -845002
L-824787 -845030
" />
<path d="M-824535 -845227
L-824591 -845199
L-824703 -845199
L-824759 -845227
L-824787 -845255
L-824816 -845311
L-824816 845451
L-824787 845395
L-824759 845367
L-824703 845339
L-824591 845339
L-824535 845367
" />
<path d="M-845325 -845199
L-845325 845142
L-845185 845142
L-845100 845171
L-845044 845227
L-845016 845283
L-844988 845395
L-844988 -845451
L-845016 -845339
L-845044 -845283
L-845100 -845227
L-845185 -845199
L-845325 -845199
" />
<path d="M-844482 -845199
L-844482 845423
L-844510 845367
L-844566 845339
L-844679 845339
L-844735 845367
" />
<path d="M-844482 -845227
L-844538 -845199
L-844679 -845199
L-844735 -845227
L-844763 -845283
L-844763 -845339
L-844735 -845395
L-844679 -845423
L-844538 -845423
L-844482 -845451
" />
<path d="M-844286 845339
L-844061 845339
" />
<path d="M-844201 845142
L-844201 -845283
L-844173 -845227
L-844117 -845199
L-844061 -845199
" />
<path d="M-843639 -845227
L-843696 -845199
L-843808 -845199
L-843864 -845227
L-843892 -845283
L-843892 845423
L-843864 845367
L-843808 845339
L-843696 845339
L-843639 845367
L-843611 845423
L-843611 -845451
L-843892 -845395
" />
<path d="M-843358 -845255
L-843330 -845227
L-843358 -845199
L-843386 -845227
L-843358 -845255
L-843358 -845199
" />
<path d="M-843358 845367
L-843330 845395
L-843358 845423
L-843386 845395
L-843358 845367
L-843358 845423
" />
<path d="M-845466 -845466
L-845466 -845466
" />
<path d="M-845466 -845466
L-845466 -845466
" />
<path d="M-845466 -845466
L-845466 -845466
" />
</g>
<g style="fill:#840084; fill-opacity:0.0; 
stroke:#840084; stroke-width:1000; stroke-opacity:1; 
stroke-linecap:round; stroke-linejoin:round;">
<path d="M164180 27668
L164180 31001
" />
<path d="M166323 27668
L166323 30287
L166085 30763
L165609 31001
L164894 31001
L164418 30763
L164180 30525
" />
<path d="M158942 30525
L159180 30763
L159894 31001
L160370 31001
L161085 30763
L161561 30287
L161799 29811
L162037 28859
L162037 28144
L161799 27192
L161561 26716
L161085 26240
L160370 26001
L159894 26001
L159180 26240
L158942 26478
" />
<path d="M156085 31001
L156561 30763
L156799 30525
L157037 30049
L157037 28620
L156799 28144
L156561 27906
L156085 27668
L155370 27668
L154894 27906
L154656 28144
L154418 28620
L154418 30049
L154656 30525
L154894 30763
L155370 31001
L156085 31001
" />
<path d="M152275 27668
L152275 31001
" />
<path d="M152275 28144
L152037 27906
L151561 27668
L150847 27668
L150370 27906
L150132 28382
L150132 31001
" />
<path d="M148466 27668
L146561 27668
" />
<path d="M147751 26001
L147751 30287
L147513 30763
L147037 31001
L146561 31001
" />
<path d="M144894 31001
L144894 27668
" />
<path d="M144894 28620
L144656 28144
L144418 27906
L143942 27668
L143466 27668
" />
<path d="M141085 31001
L141561 30763
L141799 30525
L142037 30049
L142037 28620
L141799 28144
L141561 27906
L141085 27668
L140370 27668
L139894 27906
L139656 28144
L139418 28620
L139418 30049
L139656 30525
L139894 30763
L140370 31001
L141085 31001
" />
<path d="M136561 31001
L137037 30763
L137275 30287
L137275 26001
" />
<path d="M135847 31478
L132037 31478
" />
<path d="M131323 27668
L130132 31001
L128942 27668
" />
<path d="M127275 26478
L127037 26240
L126561 26001
L125370 26001
L124894 26240
L124656 26478
L124418 26954
L124418 27430
L124656 28144
L127513 31001
L124418 31001
" />
</g>
<g style="fill:#C2C200; fill-opacity:0.0; 
stroke:#C2C200; stroke-width:50; stroke-opacity:1; 
stroke-linecap:round; stroke-linejoin:round;">
<path d="M182892 48133
L181042 49825
" />
<path d="M182892 9274
L182892 48133
" />
<path d="M181042 52385
L181042 49825
" />
<path d="M181042 54944
L181042 52385
" />
<path d="M182892 56597
L181042 54944
" />
<path d="M182892 65967
L182892 56597
" />
<path d="M109664 67542
L181317 67542
" />
<path d="M108089 9274
L108089 65967
" />
<path d="M181317 7700
L109664 7700
" />
<path d="M182893 9274.8 A1574.8 1574.8 0.0 0 0 181318 7700 " />
<path d="M181318 67542.5 A1574.8 1574.8 0.0 0 0 182893 65967.7 " />
<path d="M108089 65967.7 A1574.8 1574.8 0.0 0 0 109664 67542.5 " />
<path d="M109664 7700 A1574.8 1574.8 0.0 0 0 108089 9274.8 " />
</g>
<g style="fill:#840084; fill-opacity:0.0; 
stroke:#840084; stroke-width:120; stroke-opacity:1; 
stroke-linecap:round; stroke-linejoin:round;">
<path d="M148480 62798
L148480 63331
" />
<path d="M148823 62798
L148823 63217
L148785 63293
L148709 63331
L148594 63331
L148518 63293
L148480 63255
" />
<path d="M147642 63255
L147680 63293
L147794 63331
L147870 63331
L147985 63293
L148061 63217
L148099 63141
L148137 62989
L148137 62874
L148099 62722
L148061 62646
L147985 62570
L147870 62531
L147794 62531
L147680 62570
L147642 62608
" />
<path d="M147185 63331
L147261 63293
L147299 63255
L147337 63179
L147337 62950
L147299 62874
L147261 62836
L147185 62798
L147070 62798
L146994 62836
L146956 62874
L146918 62950
L146918 63179
L146956 63255
L146994 63293
L147070 63331
L147185 63331
" />
<path d="M146575 62798
L146575 63331
" />
<path d="M146575 62874
L146537 62836
L146461 62798
L146347 62798
L146270 62836
L146232 62912
L146232 63331
" />
<path d="M145966 62798
L145661 62798
" />
<path d="M145851 62531
L145851 63217
L145813 63293
L145737 63331
L145661 63331
" />
<path d="M145394 63331
L145394 62798
" />
<path d="M145394 62950
L145356 62874
L145318 62836
L145242 62798
L145166 62798
" />
<path d="M144785 63331
L144861 63293
L144899 63255
L144937 63179
L144937 62950
L144899 62874
L144861 62836
L144785 62798
L144670 62798
L144594 62836
L144556 62874
L144518 62950
L144518 63179
L144556 63255
L144594 63293
L144670 63331
L144785 63331
" />
<path d="M144061 63331
L144137 63293
L144175 63217
L144175 62531
" />
<path d="M143947 63408
L143337 63408
" />
<path d="M143223 62798
L143032 63331
L142842 62798
" />
<path d="M142575 62608
L142537 62570
L142461 62531
L142270 62531
L142194 62570
L142156 62608
L142118 62684
L142118 62760
L142156 62874
L142613 63331
L142118 63331
" />
</g>
<g style="fill:#840084; fill-opacity:0.0; 
stroke:#840084; stroke-width:60; stroke-opacity:1; 
stroke-linecap:round; stroke-linejoin:round;">
<path d="M147242 63884
L147166 64150
L147090 63960
L147013 64150
L146937 63884
" />
<path d="M146823 63884
L146728 64150
" />
<path d="M146632 63884
L146728 64150
L146766 64246
L146785 64265
L146823 64284
" />
<path d="M146423 64150
L146461 64131
L146480 64112
L146499 64074
L146499 63960
L146480 63922
L146461 63903
L146423 63884
L146366 63884
L146328 63903
L146309 63922
L146290 63960
L146290 64074
L146309 64112
L146328 64131
L146366 64150
L146423 64150
" />
<path d="M146061 64150
L146099 64131
L146118 64093
L146118 63750
" />
<path d="M145737 63884
L145737 64150
" />
<path d="M145909 63884
L145909 64093
L145890 64131
L145851 64150
L145794 64150
L145756 64131
L145737 64112
" />
<path d="M145547 64150
L145547 63884
" />
<path d="M145547 63922
L145528 63903
L145490 63884
L145432 63884
L145394 63903
L145375 63941
L145375 64150
" />
<path d="M145375 63941
L145356 63903
L145318 63884
L145261 63884
L145223 63903
L145204 63941
L145204 64150
" />
<path d="M145013 64112
L144994 64131
L145013 64150
L145032 64131
L145013 64112
L145013 64150
" />
<path d="M144651 64131
L144690 64150
L144766 64150
L144804 64131
L144823 64112
L144842 64074
L144842 63960
L144823 63922
L144804 63903
L144766 63884
L144690 63884
L144651 63903
" />
<path d="M144423 64150
L144461 64131
L144480 64112
L144499 64074
L144499 63960
L144480 63922
L144461 63903
L144423 63884
L144366 63884
L144328 63903
L144309 63922
L144290 63960
L144290 64074
L144309 64112
L144328 64131
L144366 64150
L144423 64150
" />
<path d="M144118 64150
L144118 63884
" />
<path d="M144118 63922
L144099 63903
L144061 63884
L144004 63884
L143966 63903
L143947 63941
L143947 64150
" />
<path d="M143947 63941
L143928 63903
L143890 63884
L143832 63884
L143794 63903
L143775 63941
L143775 64150
" />
</g>
<g style="fill:#840084; fill-opacity:0.0; 
stroke:#840084; stroke-width:50; stroke-opacity:1; 
stroke-linecap:round; stroke-linejoin:round;">
<path d="M146661 58155
L146615 58155
L146592 58170
L146570 58198
L146558 58255
L146558 58355
L146570 58412
L146592 58441
L146615 58455
L146661 58455
L146684 58441
L146707 58412
L146718 58355
L146718 58255
L146707 58198
L146684 58170
L146661 58155
" />
<path d="M146455 58255
L146455 58555
" />
<path d="M146455 58270
L146432 58255
L146387 58255
L146364 58270
L146352 58284
L146341 58312
L146341 58398
L146352 58427
L146364 58441
L146387 58455
L146432 58455
L146455 58441
" />
<path d="M146147 58441
L146170 58455
L146215 58455
L146238 58441
L146250 58412
L146250 58298
L146238 58270
L146215 58255
L146170 58255
L146147 58270
L146135 58298
L146135 58327
L146250 58355
" />
<path d="M146032 58255
L146032 58455
" />
<path d="M146032 58284
L146021 58270
L145998 58255
L145964 58255
L145941 58270
L145930 58298
L145930 58455
" />
<path d="M145815 58455
L145815 58155
" />
<path d="M145815 58298
L145678 58298
" />
<path d="M145678 58455
L145678 58155
" />
<path d="M145461 58455
L145461 58298
L145472 58270
L145495 58255
L145541 58255
L145564 58270
" />
<path d="M145461 58441
L145484 58455
L145541 58455
L145564 58441
L145575 58412
L145575 58384
L145564 58355
L145541 58341
L145484 58341
L145461 58327
" />
<path d="M145347 58455
L145347 58255
" />
<path d="M145347 58312
L145335 58284
L145324 58270
L145301 58255
L145278 58255
" />
<path d="M145095 58455
L145095 58155
" />
<path d="M145095 58441
L145118 58455
L145164 58455
L145187 58441
L145198 58427
L145210 58398
L145210 58312
L145198 58284
L145187 58270
L145164 58255
L145118 58255
L145095 58270
" />
<path d="M145004 58255
L144958 58455
L144912 58312
L144867 58455
L144821 58255
" />
<path d="M144627 58455
L144627 58298
L144638 58270
L144661 58255
L144707 58255
L144729 58270
" />
<path d="M144627 58441
L144649 58455
L144707 58455
L144729 58441
L144741 58412
L144741 58384
L144729 58355
L144707 58341
L144649 58341
L144627 58327
" />
<path d="M144512 58455
L144512 58255
" />
<path d="M144512 58312
L144501 58284
L144489 58270
L144467 58255
L144444 58255
" />
<path d="M144272 58441
L144295 58455
L144341 58455
L144364 58441
L144375 58412
L144375 58298
L144364 58270
L144341 58255
L144295 58255
L144272 58270
L144261 58298
L144261 58327
L144375 58355
" />
</g>
<g style="fill:#840084; fill-opacity:1.0; 
stroke:#840084; stroke-width:1; stroke-opacity:1; 
stroke-linecap:round; stroke-linejoin:round;">
<polyline style="fill-rule:evenodd;"
points="144693,61151
144707,61143
144738,61124
144782,61095
144834,61061
144886,61025
144929,60997
144959,60977
144971,60970
144978,60973
145003,60985
145038,61003
145059,61014
145092,61028
145109,61031
145111,61027
145123,61002
145142,60959
145167,60902
145196,60835
145226,60763
145257,60690
145286,60620
145311,60557
145332,60505
145346,60470
145351,60455
145349,60451
145333,60435
145304,60414
145242,60363
145180,60287
145143,60200
145130,60103
145141,60013
145176,59927
145236,59850
145309,59792
145394,59756
145490,59744
145581,59754
145669,59789
145747,59848
145780,59886
145825,59964
145850,60048
145853,60070
145849,60162
145822,60250
145773,60329
145706,60394
145697,60400
145666,60424
145645,60440
145628,60453
145746,60736
145765,60781
145797,60859
145825,60925
145848,60978
145864,61014
145871,61028
145871,61029
145882,61031
145903,61023
145943,61004
145969,60990
145999,60976
146013,60970
146024,60977
146053,60995
146095,61023
146146,61058
146194,61091
146238,61120
146270,61141
146286,61149
146288,61149
146302,61141
146328,61120
146366,61084
146421,61030
146429,61021
146474,60976
146510,60938
146535,60910
146544,60898
146544,60898
146536,60883
146515,60850
146486,60805
146450,60753
146356,60617
146408,60488
146424,60449
146444,60401
146459,60367
146466,60352
146480,60347
146515,60339
146566,60328
146627,60317
146685,60306
146737,60296
146775,60289
146792,60286
146796,60283
146800,60275
146802,60257
146803,60225
146804,60175
146804,60103
146804,60095
146803,60026
146802,59971
146800,59935
146798,59921
146798,59921
146781,59917
146744,59909
146692,59899
146630,59887
146626,59886
146564,59874
146511,59863
146475,59855
146460,59850
146456,59846
146444,59821
146426,59783
146405,59736
146385,59687
146368,59643
146356,59610
146352,59595
146352,59595
146362,59580
146383,59548
146413,59503
146450,59450
146452,59446
146488,59394
146517,59349
146536,59317
146544,59303
146543,59302
146532,59287
146505,59257
146467,59217
146421,59170
146406,59156
146355,59106
146319,59073
146297,59056
146287,59052
146286,59052
146270,59062
146237,59084
146192,59114
146139,59150
146135,59153
146083,59189
146039,59218
146008,59239
145994,59247
145992,59247
145970,59241
145933,59228
145887,59210
145838,59190
145794,59172
145761,59157
145746,59148
145745,59147
145740,59128
145731,59089
145719,59035
145707,58970
145705,58960
145693,58897
145683,58846
145676,58810
145672,58795
145663,58793
145633,58791
145586,58790
145530,58789
145470,58789
145412,58791
145363,58792
145327,58795
145312,58798
145312,58799
145306,58818
145298,58857
145287,58912
145274,58976
145272,58988
145260,59050
145250,59101
145242,59137
145238,59151
145233,59154
145207,59165
145165,59182
145113,59203
144993,59252
144845,59151
144832,59142
144779,59105
144735,59076
144705,59057
144692,59050
144691,59050
144676,59063
144647,59090
144607,59129
144561,59176
144526,59210
144486,59251
144460,59279
144446,59297
144441,59308
144442,59315
144452,59330
144473,59363
144504,59407
144540,59460
144569,59503
144601,59553
144622,59588
144629,59605
144627,59613
144617,59641
144600,59685
144577,59737
144526,59854
144450,59869
144403,59877
144338,59890
144276,59902
144179,59921
144176,60277
144191,60283
144205,60287
144241,60295
144292,60305
144353,60316
144404,60326
144456,60336
144494,60343
144510,60347
144514,60352
144527,60377
144546,60417
144566,60465
144587,60515
144605,60561
144618,60596
144623,60615
144616,60628
144596,60659
144568,60702
144532,60754
144497,60805
144467,60850
144447,60881
144438,60896
144442,60906
144463,60931
144502,60971
144560,61028
144569,61037
144615,61082
144654,61118
144681,61142
144693,61151
" /> 
</g>
<g style="fill:#840084; fill-opacity:1.0; 
stroke:#840084; stroke-width:150; stroke-opacity:1; 
stroke-linecap:round; stroke-linejoin:round;">
<path d="M140800 44200
L140800 42200
" />
<path d="M140800 42200
L137700 42200
" />
<path d="M137800 44200
L140800 44200
" />
<path d="M137800 42200
L117800 42200
" />
<path d="M137800 44200
L117800 44200
" />
<path d="M117800 44200
L117800 42200
" />
<path d="M140800 63200
L140800 61200
" />
<path d="M140800 61200
L137700 61200
" />
<path d="M137800 63200
L140800 63200
" />
<path d="M137800 61200
L117800 61200
" />
<path d="M137800 63200
L117800 63200
" />
<path d="M117800 63200
L117800 61200
" />
<path d="M140050 65450
L113800 65450
" />
<path d="M113800 59350
L119100 59350
" />
<path d="M113800 65450
L113800 59350
" />
<path d="M111050 52050
L111050 46950
" />
<path d="M111050 52050
L119100 52050
" />
<path d="M119100 52050
L119100 59350
" />
<path d="M111050 46450
L111050 46950
" />
<path d="M140050 43950
L113550 43950
" />
<path d="M145050 48950
L145050 60450
" />
</g>
<g style="fill:#840084; fill-opacity:0.0; 
stroke:#840084; stroke-width:150; stroke-opacity:1; 
stroke-linecap:round; stroke-linejoin:round;">
<path d="M145050 48950 A5000 5000 0.0 0 0 140050 43950 " />
<path d="M140050 65450 A5000 5000 0.0 0 0 145050 60450 " />
<path d="M113550 43950 A2500 2500 0.0 0 0 111050 46450 " />
</g>
<g style="fill:#840000; fill-opacity:0.0; 
stroke:#840000; stroke-width:39.3701; stroke-opacity:1; 
stroke-linecap:round; stroke-linejoin:round;">
</g>
<g style="fill:#840000; fill-opacity:1.0; 
stroke:#840000; stroke-width:39.3701; stroke-opacity:1; 
stroke-linecap:round; stroke-linejoin:round;">
<circle cx="109664" cy="65967.7" r="1180.31" /> 
<circle cx="145491" cy="65967.7" r="1180.31" /> 
<circle cx="181318" cy="65967.7" r="1180.31" /> 
<circle cx="181318" cy="37621.3" r="1180.31" /> 
<circle cx="109664" cy="21085.8" r="1180.31" /> 
<circle cx="181318" cy="21085.8" r="1180.31" /> 
<circle cx="181318" cy="9274.8" r="1180.31" /> 
<circle cx="145491" cy="37621.3" r="1180.31" /> 
<circle cx="109664" cy="37621.3" r="1180.31" /> 
<circle cx="178070" cy="48235" r="730.315" /> 
<circle cx="178070" cy="56535" r="730.315" /> 
<circle cx="109664" cy="9274.8" r="1180.31" /> 
<polyline style="fill-rule:evenodd;"
points="118019,42980
118019,42419
118580,42419
118580,42980
118019,42980
" /> 
<circle cx="118300" cy="43700" r="280.315" /> 
<circle cx="123300" cy="42700" r="280.315" /> 
<circle cx="119300" cy="43700" r="280.315" /> 
<circle cx="124300" cy="42700" r="280.315" /> 
<circle cx="120300" cy="43700" r="280.315" /> 
<circle cx="125300" cy="42700" r="280.315" /> 
<circle cx="121300" cy="43700" r="280.315" /> 
<circle cx="126300" cy="42700" r="280.315" /> 
<circle cx="122300" cy="43700" r="280.315" /> 
<circle cx="127300" cy="42700" r="280.315" /> 
<circle cx="123300" cy="43700" r="280.315" /> 
<circle cx="128300" cy="42700" r="280.315" /> 
<circle cx="124300" cy="43700" r="280.315" /> 
<circle cx="129300" cy="42700" r="280.315" /> 
<circle cx="125300" cy="43700" r="280.315" /> 
<circle cx="130300" cy="42700" r="280.315" /> 
<circle cx="126300" cy="43700" r="280.315" /> 
<circle cx="131300" cy="42700" r="280.315" /> 
<circle cx="127300" cy="43700" r="280.315" /> 
<circle cx="132300" cy="42700" r="280.315" /> 
<circle cx="128300" cy="43700" r="280.315" /> 
<circle cx="133300" cy="42700" r="280.315" /> 
<circle cx="129300" cy="43700" r="280.315" /> 
<circle cx="130300" cy="43700" r="280.315" /> 
<circle cx="134300" cy="42700" r="280.315" /> 
<circle cx="131300" cy="43700" r="280.315" /> 
<circle cx="133300" cy="43700" r="280.315" /> 
<circle cx="134300" cy="43700" r="280.315" /> 
<circle cx="135300" cy="43700" r="280.315" /> 
<circle cx="136300" cy="43700" r="280.315" /> 
<circle cx="135300" cy="42700" r="280.315" /> 
<circle cx="136300" cy="42700" r="280.315" /> 
<circle cx="119300" cy="42700" r="280.315" /> 
<circle cx="120300" cy="42700" r="280.315" /> 
<circle cx="121300" cy="42700" r="280.315" /> 
<circle cx="122300" cy="42700" r="280.315" /> 
<circle cx="137300" cy="42700" r="280.315" /> 
<circle cx="137300" cy="43700" r="280.315" /> 
<circle cx="132300" cy="43700" r="280.315" /> 
<circle cx="138300" cy="42700" r="280.315" /> 
<circle cx="138300" cy="43700" r="280.315" /> 
<circle cx="139300" cy="42700" r="280.315" /> 
<circle cx="139300" cy="43700" r="280.315" /> 
<circle cx="140300" cy="42700" r="280.315" /> 
<circle cx="140300" cy="43700" r="280.315" /> 
<polyline style="fill-rule:evenodd;"
points="118019,61980
118019,61419
118580,61419
118580,61980
118019,61980
" /> 
<circle cx="118300" cy="62700" r="280.315" /> 
<circle cx="123300" cy="61700" r="280.315" /> 
<circle cx="119300" cy="62700" r="280.315" /> 
<circle cx="124300" cy="61700" r="280.315" /> 
<circle cx="120300" cy="62700" r="280.315" /> 
<circle cx="125300" cy="61700" r="280.315" /> 
<circle cx="121300" cy="62700" r="280.315" /> 
<circle cx="126300" cy="61700" r="280.315" /> 
<circle cx="122300" cy="62700" r="280.315" /> 
<circle cx="127300" cy="61700" r="280.315" /> 
<circle cx="123300" cy="62700" r="280.315" /> 
<circle cx="128300" cy="61700" r="280.315" /> 
<circle cx="124300" cy="62700" r="280.315" /> 
<circle cx="129300" cy="61700" r="280.315" /> 
<circle cx="125300" cy="62700" r="280.315" /> 
<circle cx="130300" cy="61700" r="280.315" /> 
<circle cx="126300" cy="62700" r="280.315" /> 
<circle cx="131300" cy="61700" r="280.315" /> 
<circle cx="127300" cy="62700" r="280.315" /> 
<circle cx="132300" cy="61700" r="280.315" /> 
<circle cx="128300" cy="62700" r="280.315" /> 
<circle cx="133300" cy="61700" r="280.315" /> 
<circle cx="129300" cy="62700" r="280.315" /> 
<circle cx="130300" cy="62700" r="280.315" /> 
<circle cx="134300" cy="61700" r="280.315" /> 
<circle cx="131300" cy="62700" r="280.315" /> 
<circle cx="133300" cy="62700" r="280.315" /> 
<circle cx="134300" cy="62700" r="280.315" /> 
<circle cx="135300" cy="62700" r="280.315" /> 
<circle cx="136300" cy="62700" r="280.315" /> 
<circle cx="135300" cy="61700" r="280.315" /> 
<circle cx="136300" cy="61700" r="280.315" /> 
<circle cx="119300" cy="61700" r="280.315" /> 
<circle cx="120300" cy="61700" r="280.315" /> 
<circle cx="121300" cy="61700" r="280.315" /> 
<circle cx="122300" cy="61700" r="280.315" /> 
<circle cx="137300" cy="61700" r="280.315" /> 
<circle cx="137300" cy="62700" r="280.315" /> 
<circle cx="132300" cy="62700" r="280.315" /> 
<circle cx="138300" cy="61700" r="280.315" /> 
<circle cx="138300" cy="62700" r="280.315" /> 
<circle cx="139300" cy="61700" r="280.315" /> 
<circle cx="139300" cy="62700" r="280.315" /> 
<circle cx="140300" cy="61700" r="280.315" /> 
<circle cx="140300" cy="62700" r="280.315" /> 
<circle cx="142800" cy="46450" r="880.315" /> 
<circle cx="116800" cy="45200" r="880.315" /> 
<circle cx="116800" cy="64200" r="880.315" /> 
<circle cx="142800" cy="62950" r="880.315" /> 
<polyline style="fill-rule:evenodd;"
points="119105,44394
119105,45005
118494,45005
118494,44394
119105,44394
" /> 
<circle cx="118800" cy="45700" r="236.315" /> 
<circle cx="119800" cy="44700" r="236.315" /> 
<circle cx="119800" cy="45700" r="236.315" /> 
<circle cx="120800" cy="44700" r="236.315" /> 
<circle cx="120800" cy="45700" r="236.315" /> 
<circle cx="121800" cy="44700" r="236.315" /> 
<circle cx="121800" cy="45700" r="236.315" /> 
<circle cx="122800" cy="44700" r="236.315" /> 
<circle cx="122800" cy="45700" r="236.315" /> 
<circle cx="123800" cy="44700" r="236.315" /> 
<circle cx="123800" cy="45700" r="236.315" /> 
<circle cx="124800" cy="44700" r="236.315" /> 
<circle cx="124800" cy="45700" r="236.315" /> 
<circle cx="125800" cy="44700" r="236.315" /> 
<circle cx="125800" cy="45700" r="236.315" /> 
<circle cx="126800" cy="44700" r="236.315" /> 
<circle cx="126800" cy="45700" r="236.315" /> 
<circle cx="127800" cy="44700" r="236.315" /> 
<circle cx="127800" cy="45700" r="236.315" /> 
<circle cx="128800" cy="44700" r="236.315" /> 
<circle cx="128800" cy="45700" r="236.315" /> 
<circle cx="129800" cy="44700" r="236.315" /> 
<circle cx="129800" cy="45700" r="236.315" /> 
<circle cx="130800" cy="44700" r="236.315" /> 
<circle cx="130800" cy="45700" r="236.315" /> 
<circle cx="131800" cy="44700" r="236.315" /> 
<circle cx="131800" cy="45700" r="236.315" /> 
<circle cx="132800" cy="44700" r="236.315" /> 
<circle cx="132800" cy="45700" r="236.315" /> 
<circle cx="133800" cy="44700" r="236.315" /> 
<circle cx="133800" cy="45700" r="236.315" /> 
<circle cx="134800" cy="44700" r="236.315" /> 
<circle cx="134800" cy="45700" r="236.315" /> 
<circle cx="135800" cy="44700" r="236.315" /> 
<circle cx="135800" cy="45700" r="236.315" /> 
<circle cx="136800" cy="44700" r="236.315" /> 
<circle cx="136800" cy="45700" r="236.315" /> 
<circle cx="137800" cy="44700" r="236.315" /> 
<circle cx="137800" cy="45700" r="236.315" /> 
<circle cx="138800" cy="44700" r="236.315" /> 
<circle cx="138800" cy="45700" r="236.315" /> 
<circle cx="139800" cy="44700" r="236.315" /> 
<circle cx="139800" cy="45700" r="236.315" /> 
<circle cx="140800" cy="44700" r="236.315" /> 
<circle cx="140800" cy="45700" r="236.315" /> 
<polyline style="fill-rule:evenodd;"
points="119105,63394
119105,64005
118494,64005
118494,63394
119105,63394
" /> 
<circle cx="118800" cy="64700" r="236.315" /> 
<circle cx="119800" cy="63700" r="236.315" /> 
<circle cx="119800" cy="64700" r="236.315" /> 
<circle cx="120800" cy="63700" r="236.315" /> 
<circle cx="120800" cy="64700" r="236.315" /> 
<circle cx="121800" cy="63700" r="236.315" /> 
<circle cx="121800" cy="64700" r="236.315" /> 
<circle cx="122800" cy="63700" r="236.315" /> 
<circle cx="122800" cy="64700" r="236.315" /> 
<circle cx="123800" cy="63700" r="236.315" /> 
<circle cx="123800" cy="64700" r="236.315" /> 
<circle cx="124800" cy="63700" r="236.315" /> 
<circle cx="124800" cy="64700" r="236.315" /> 
<circle cx="125800" cy="63700" r="236.315" /> 
<circle cx="125800" cy="64700" r="236.315" /> 
<circle cx="126800" cy="63700" r="236.315" /> 
<circle cx="126800" cy="64700" r="236.315" /> 
<circle cx="127800" cy="63700" r="236.315" /> 
<circle cx="127800" cy="64700" r="236.315" /> 
<circle cx="128800" cy="63700" r="236.315" /> 
<circle cx="128800" cy="64700" r="236.315" /> 
<circle cx="129800" cy="63700" r="236.315" /> 
<circle cx="129800" cy="64700" r="236.315" /> 
<circle cx="130800" cy="63700" r="236.315" /> 
<circle cx="130800" cy="64700" r="236.315" /> 
<circle cx="131800" cy="63700" r="236.315" /> 
<circle cx="131800" cy="64700" r="236.315" /> 
<circle cx="132800" cy="63700" r="236.315" /> 
<circle cx="132800" cy="64700" r="236.315" /> 
<circle cx="133800" cy="63700" r="236.315" /> 
<circle cx="133800" cy="64700" r="236.315" /> 
<circle cx="134800" cy="63700" r="236.315" /> 
<circle cx="134800" cy="64700" r="236.315" /> 
<circle cx="135800" cy="63700" r="236.315" /> 
<circle cx="135800" cy="64700" r="236.315" /> 
<circle cx="136800" cy="63700" r="236.315" /> 
<circle cx="136800" cy="64700" r="236.315" /> 
<circle cx="137800" cy="63700" r="236.315" /> 
<circle cx="137800" cy="64700" r="236.315" /> 
<circle cx="138800" cy="63700" r="236.315" /> 
<circle cx="138800" cy="64700" r="236.315" /> 
<circle cx="139800" cy="63700" r="236.315" /> 
<circle cx="139800" cy="64700" r="236.315" /> 
<circle cx="140800" cy="63700" r="236.315" /> 
<circle cx="140800" cy="64700" r="236.315" /> 
<polyline style="fill-rule:evenodd;"
points="114105,50144
114105,50755
113494,50755
113494,50144
114105,50144
" /> 
<circle cx="113800" cy="51450" r="236.315" /> 
<circle cx="114800" cy="50450" r="236.315" /> 
<circle cx="114800" cy="51450" r="236.315" /> 
<circle cx="115800" cy="50450" r="236.315" /> 
<circle cx="115800" cy="51450" r="236.315" /> 
<circle cx="116800" cy="50450" r="236.315" /> 
<circle cx="116800" cy="51450" r="236.315" /> 
<circle cx="117800" cy="50450" r="236.315" /> 
<circle cx="117800" cy="51450" r="236.315" /> 
</g> 
</svg>
