<?xml version="1.0" standalone="no"?>
 <!DOCTYPE svg PUBLIC "-//W3C//DTD SVG 1.1//EN" 
 "http://www.w3.org/Graphics/SVG/1.1/DTD/svg11.dtd"> 
<svg xmlns="http://www.w3.org/2000/svg" version="1.1" 
    width="29.7002cm" height="21.0007cm" viewBox="0 0 116930 82680 ">
<title>SVG Picture created as uControl_v3-Edge_Cuts.svg date 2013/12/15 12:31:40 </title>
  <desc>Picture generated by PCBNEW </desc>
<g style="fill:#000000; fill-opacity:1;stroke:#000000; stroke-opacity:1;
stroke-linecap:round; stroke-linejoin:round; "
 transform="translate(0 0) scale(1 1)">
</g>
<g style="fill:#000000; fill-opacity:0.0; 
stroke:#000000; stroke-width:50; stroke-opacity:1; 
stroke-linecap:round; stroke-linejoin:round;">
<path d="M84842 50433
L82992 52125
" />
<path d="M84842 11574
L84842 50433
" />
<path d="M82992 54685
L82992 52125
" />
<path d="M82992 57244
L82992 54685
" />
<path d="M84842 58897
L82992 57244
" />
<path d="M84842 68267
L84842 58897
" />
<path d="M11614 69842
L83267 69842
" />
<path d="M10039 11574
L10039 68267
" />
<path d="M83267 10000
L11614 10000
" />
<path d="M84842.5 11574.8 A1574.8 1574.8 0.0 0 0 83267.7 10000 " />
<path d="M83267.7 69842.5 A1574.8 1574.8 0.0 0 0 84842.5 68267.7 " />
<path d="M10039.4 68267.7 A1574.8 1574.8 0.0 0 0 11614.2 69842.5 " />
<path d="M11614.2 10000 A1574.8 1574.8 0.0 0 0 10039.4 11574.8 " />
</g> 
</svg>
