<?xml version="1.0" standalone="no"?>
 <!DOCTYPE svg PUBLIC "-//W3C//DTD SVG 1.1//EN" 
 "http://www.w3.org/Graphics/SVG/1.1/DTD/svg11.dtd"> 
<svg xmlns="http://www.w3.org/2000/svg" version="1.1" 
    width="29.7002cm" height="21.0007cm" viewBox="0 0 116930 82680 ">
<title>SVG Picture created as uControl_v3-Dwgs_User.svg date 2013/12/15 12:31:40 </title>
  <desc>Picture generated by PCBNEW </desc>
<g style="fill:#000000; fill-opacity:1;stroke:#000000; stroke-opacity:1;
stroke-linecap:round; stroke-linejoin:round; "
 transform="translate(0 0) scale(1 1)">
</g>
<g style="fill:#000000; fill-opacity:0.0; 
stroke:#000000; stroke-width:50; stroke-opacity:1; 
stroke-linecap:round; stroke-linejoin:round;">
<path d="M65718 18213
L65701 18196
L65684 18163
L65684 18080
L65701 18046
L65718 18030
L65751 18013
L65784 18013
L65834 18030
L66034 18230
L66034 18013
" />
<path d="M65684 17713
L65684 17780
L65701 17813
L65718 17830
L65768 17863
L65834 17880
L65968 17880
L66001 17863
L66018 17846
L66034 17813
L66034 17746
L66018 17713
L66001 17696
L65968 17680
L65884 17680
L65851 17696
L65834 17713
L65818 17746
L65818 17813
L65834 17846
L65851 17863
L65884 17880
" />
<path d="M66034 17530
L65801 17530
" />
<path d="M65834 17530
L65818 17513
L65801 17480
L65801 17430
L65818 17396
L65851 17380
L66034 17380
" />
<path d="M65851 17380
L65818 17363
L65801 17330
L65801 17280
L65818 17246
L65851 17230
L66034 17230
" />
<path d="M66034 17063
L65801 17063
" />
<path d="M65834 17063
L65818 17046
L65801 17013
L65801 16963
L65818 16930
L65851 16913
L66034 16913
" />
<path d="M65851 16913
L65818 16896
L65801 16863
L65801 16813
L65818 16780
L65851 16763
L66034 16763
" />
<path d="M66151 22598
L66151 12362
" />
<path d="M72834 22598
L65601 22598
" />
<path d="M72834 12362
L65601 12362
" />
<path d="M66151 12362
L66382 12805
" />
<path d="M66151 12362
L65920 12805
" />
<path d="M66151 22598
L66382 22154
" />
<path d="M66151 22598
L65920 22154
" />
<path d="M67250 20096
L67267 20080
L67300 20063
L67384 20063
L67417 20080
L67434 20096
L67450 20130
L67450 20163
L67434 20213
L67234 20413
L67450 20413
" />
<path d="M67784 20413
L67584 20413
" />
<path d="M67684 20413
L67684 20063
L67650 20113
L67617 20146
L67584 20163
" />
<path d="M67934 20380
L67950 20396
L67934 20413
L67917 20396
L67934 20380
L67934 20413
" />
<path d="M68167 20063
L68200 20063
L68234 20080
L68250 20096
L68267 20130
L68284 20196
L68284 20280
L68267 20346
L68250 20380
L68234 20396
L68200 20413
L68167 20413
L68134 20396
L68117 20380
L68100 20346
L68084 20280
L68084 20196
L68100 20130
L68117 20096
L68134 20080
L68167 20063
" />
<path d="M68500 20063
L68534 20063
L68567 20080
L68584 20096
L68600 20130
L68617 20196
L68617 20280
L68600 20346
L68584 20380
L68567 20396
L68534 20413
L68500 20413
L68467 20396
L68450 20380
L68434 20346
L68417 20280
L68417 20196
L68434 20130
L68450 20096
L68467 20080
L68500 20063
" />
<path d="M68834 20063
L68867 20063
L68900 20080
L68917 20096
L68934 20130
L68950 20196
L68950 20280
L68934 20346
L68917 20380
L68900 20396
L68867 20413
L68834 20413
L68800 20396
L68784 20380
L68767 20346
L68750 20280
L68750 20196
L68767 20130
L68784 20096
L68800 20080
L68834 20063
" />
<path d="M69367 20413
L69367 20180
" />
<path d="M69367 20213
L69384 20196
L69417 20180
L69467 20180
L69500 20196
L69517 20230
L69517 20413
" />
<path d="M69517 20230
L69534 20196
L69567 20180
L69617 20180
L69650 20196
L69667 20230
L69667 20413
" />
<path d="M69834 20413
L69834 20180
" />
<path d="M69834 20213
L69850 20196
L69884 20180
L69934 20180
L69967 20196
L69984 20230
L69984 20413
" />
<path d="M69984 20230
L70000 20196
L70034 20180
L70084 20180
L70117 20196
L70134 20230
L70134 20413
" />
<path d="M64566 19980
L72834 19980
" />
<path d="M64566 12362
L64566 20530
" />
<path d="M72834 12362
L72834 20530
" />
<path d="M72834 19980
L72391 20211
" />
<path d="M72834 19980
L72391 19749
" />
<path d="M64566 19980
L65010 20211
" />
<path d="M64566 19980
L65010 19749
" />
<path d="M62417 11581
L62417 11647
L62433 11681
L62450 11697
L62500 11731
L62567 11747
L62700 11747
L62733 11731
L62750 11714
L62767 11681
L62767 11614
L62750 11581
L62733 11564
L62700 11547
L62617 11547
L62583 11564
L62567 11581
L62550 11614
L62550 11681
L62567 11714
L62583 11731
L62617 11747
" />
<path d="M62767 11397
L62533 11397
" />
<path d="M62567 11397
L62550 11381
L62533 11347
L62533 11297
L62550 11264
L62583 11247
L62767 11247
" />
<path d="M62583 11247
L62550 11231
L62533 11197
L62533 11147
L62550 11114
L62583 11097
L62767 11097
" />
<path d="M62767 10931
L62533 10931
" />
<path d="M62567 10931
L62550 10914
L62533 10881
L62533 10831
L62550 10797
L62583 10781
L62767 10781
" />
<path d="M62583 10781
L62550 10764
L62533 10731
L62533 10681
L62550 10647
L62583 10631
L62767 10631
" />
<path d="M62883 12362
L62883 10000
" />
<path d="M64566 12362
L62333 12362
" />
<path d="M64566 10000
L62333 10000
" />
<path d="M62883 10000
L63114 10443
" />
<path d="M62883 10000
L62652 10443
" />
<path d="M62883 12362
L63114 11918
" />
<path d="M62883 12362
L62652 11918
" />
<path d="M36353 14291
L36153 14291
" />
<path d="M36253 14291
L36253 13941
L36219 13991
L36186 14024
L36153 14041
" />
<path d="M36469 13941
L36686 13941
L36569 14074
L36619 14074
L36653 14091
L36669 14108
L36686 14141
L36686 14224
L36669 14258
L36653 14274
L36619 14291
L36519 14291
L36486 14274
L36469 14258
" />
<path d="M36886 14091
L36853 14074
L36836 14058
L36819 14024
L36819 14008
L36836 13974
L36853 13958
L36886 13941
L36953 13941
L36986 13958
L37003 13974
L37019 14008
L37019 14024
L37003 14058
L36986 14074
L36953 14091
L36886 14091
L36853 14108
L36836 14124
L36819 14158
L36819 14224
L36836 14258
L36853 14274
L36886 14291
L36953 14291
L36986 14274
L37003 14258
L37019 14224
L37019 14158
L37003 14124
L36986 14108
L36953 14091
" />
<path d="M37169 14258
L37186 14274
L37169 14291
L37153 14274
L37169 14258
L37169 14291
" />
<path d="M37503 13941
L37336 13941
L37319 14108
L37336 14091
L37369 14074
L37453 14074
L37486 14091
L37503 14108
L37519 14141
L37519 14224
L37503 14258
L37486 14274
L37453 14291
L37369 14291
L37336 14274
L37319 14258
" />
<path d="M37669 14291
L37669 14058
" />
<path d="M37669 14091
L37686 14074
L37719 14058
L37769 14058
L37803 14074
L37819 14108
L37819 14291
" />
<path d="M37819 14108
L37836 14074
L37869 14058
L37919 14058
L37953 14074
L37969 14108
L37969 14291
" />
<path d="M38136 14291
L38136 14058
" />
<path d="M38136 14091
L38153 14074
L38186 14058
L38236 14058
L38269 14074
L38286 14108
L38286 14291
" />
<path d="M38286 14108
L38303 14074
L38336 14058
L38386 14058
L38419 14074
L38436 14108
L38436 14291
" />
<path d="M64566 13858
L10039 13858
" />
<path d="M64566 12362
L64566 14408
" />
<path d="M10039 12362
L10039 14408
" />
<path d="M10039 13858
L10482 13627
" />
<path d="M10039 13858
L10482 14089
" />
<path d="M64566 13858
L64123 13627
" />
<path d="M64566 13858
L64123 14089
" />
<path d="M8037 68655
L7804 68655
" />
<path d="M8170 68571
L7920 68488
L7920 68705
" />
<path d="M7804 68838
L8037 68838
" />
<path d="M8004 68838
L8020 68855
L8037 68888
L8037 68938
L8020 68971
L7987 68988
L7804 68988
" />
<path d="M7987 68988
L8020 69005
L8037 69038
L8037 69088
L8020 69121
L7987 69138
L7804 69138
" />
<path d="M7804 69305
L8037 69305
" />
<path d="M8004 69305
L8020 69321
L8037 69355
L8037 69405
L8020 69438
L7987 69455
L7804 69455
" />
<path d="M7987 69455
L8020 69471
L8037 69505
L8037 69555
L8020 69588
L7987 69605
L7804 69605
" />
<path d="M8602 68267
L8602 69842
" />
<path d="M11614 68267
L8052 68267
" />
<path d="M11614 69842
L8052 69842
" />
<path d="M8602 69842
L8371 69399
" />
<path d="M8602 69842
L8833 69399
" />
<path d="M8602 68267
L8371 68711
" />
<path d="M8602 68267
L8833 68711
" />
<path d="M10426 71854
L10426 72087
" />
<path d="M10343 71720
L10260 71970
L10476 71970
" />
<path d="M10610 72087
L10610 71854
" />
<path d="M10610 71887
L10626 71870
L10660 71854
L10710 71854
L10743 71870
L10760 71904
L10760 72087
" />
<path d="M10760 71904
L10776 71870
L10810 71854
L10860 71854
L10893 71870
L10910 71904
L10910 72087
" />
<path d="M11076 72087
L11076 71854
" />
<path d="M11076 71887
L11093 71870
L11126 71854
L11176 71854
L11210 71870
L11226 71904
L11226 72087
" />
<path d="M11226 71904
L11243 71870
L11276 71854
L11326 71854
L11360 71870
L11376 71904
L11376 72087
" />
<path d="M11614 71279
L10039 71279
" />
<path d="M11614 68267
L11614 71829
" />
<path d="M10039 68267
L10039 71829
" />
<path d="M10039 71279
L10482 71048
" />
<path d="M10039 71279
L10482 71510
" />
<path d="M11614 71279
L11170 71048
" />
<path d="M11614 71279
L11170 71510
" />
<path d="M30723 22235
L30523 22235
" />
<path d="M30623 22235
L30623 21885
L30589 21935
L30556 21969
L30523 21985
" />
<path d="M30939 21885
L30973 21885
L31006 21902
L31023 21919
L31039 21952
L31056 22019
L31056 22102
L31039 22169
L31023 22202
L31006 22219
L30973 22235
L30939 22235
L30906 22219
L30889 22202
L30873 22169
L30856 22102
L30856 22019
L30873 21952
L30889 21919
L30906 21902
L30939 21885
" />
<path d="M31223 22235
L31289 22235
L31323 22219
L31339 22202
L31373 22152
L31389 22085
L31389 21952
L31373 21919
L31356 21902
L31323 21885
L31256 21885
L31223 21902
L31206 21919
L31189 21952
L31189 22035
L31206 22069
L31223 22085
L31256 22102
L31323 22102
L31356 22085
L31373 22069
L31389 22035
" />
<path d="M31539 22202
L31556 22219
L31539 22235
L31523 22219
L31539 22202
L31539 22235
" />
<path d="M31723 22235
L31789 22235
L31823 22219
L31839 22202
L31873 22152
L31889 22085
L31889 21952
L31873 21919
L31856 21902
L31823 21885
L31756 21885
L31723 21902
L31706 21919
L31689 21952
L31689 22035
L31706 22069
L31723 22085
L31756 22102
L31823 22102
L31856 22085
L31873 22069
L31889 22035
" />
<path d="M32039 22235
L32039 22002
" />
<path d="M32039 22035
L32056 22019
L32089 22002
L32139 22002
L32173 22019
L32189 22052
L32189 22235
" />
<path d="M32189 22052
L32206 22019
L32239 22002
L32289 22002
L32323 22019
L32339 22052
L32339 22235
" />
<path d="M32506 22235
L32506 22002
" />
<path d="M32506 22035
L32523 22019
L32556 22002
L32606 22002
L32639 22019
L32656 22052
L32656 22235
" />
<path d="M32656 22052
L32673 22019
L32706 22002
L32756 22002
L32789 22019
L32806 22052
L32806 22235
" />
<path d="M53307 22352
L10039 22352
" />
<path d="M53307 24133
L53307 21802
" />
<path d="M10039 24133
L10039 21802
" />
<path d="M10039 22352
L10482 22121
" />
<path d="M10039 22352
L10482 22583
" />
<path d="M53307 22352
L52863 22121
" />
<path d="M53307 22352
L52863 22583
" />
<path d="M51046 53158
L51062 53124
L51079 53108
L51112 53091
L51129 53091
L51162 53108
L51179 53124
L51196 53158
L51196 53224
L51179 53258
L51162 53274
L51129 53291
L51112 53291
L51079 53274
L51062 53258
L51046 53224
L51046 53158
L51029 53124
L51012 53108
L50979 53091
L50912 53091
L50879 53108
L50862 53124
L50846 53158
L50846 53224
L50862 53258
L50879 53274
L50912 53291
L50979 53291
L51012 53274
L51029 53258
L51046 53224
" />
<path d="M51196 53508
L51196 53541
L51179 53574
L51162 53591
L51129 53608
L51062 53624
L50979 53624
L50912 53608
L50879 53591
L50862 53574
L50846 53541
L50846 53508
L50862 53474
L50879 53458
L50912 53441
L50979 53424
L51062 53424
L51129 53441
L51162 53458
L51179 53474
L51196 53508
" />
<path d="M50879 53774
L50862 53791
L50846 53774
L50862 53758
L50879 53774
L50846 53774
" />
<path d="M50846 54124
L50846 53924
" />
<path d="M50846 54024
L51196 54024
L51146 53991
L51112 53958
L51096 53924
" />
<path d="M50846 54274
L51079 54274
" />
<path d="M51046 54274
L51062 54291
L51079 54324
L51079 54374
L51062 54408
L51029 54424
L50846 54424
" />
<path d="M51029 54424
L51062 54441
L51079 54474
L51079 54524
L51062 54558
L51029 54574
L50846 54574
" />
<path d="M50846 54741
L51079 54741
" />
<path d="M51046 54741
L51062 54758
L51079 54791
L51079 54841
L51062 54874
L51029 54891
L50846 54891
" />
<path d="M51029 54891
L51062 54908
L51079 54941
L51079 54991
L51062 55024
L51029 55041
L50846 55041
" />
<path d="M51279 38307
L51279 69842
" />
<path d="M53307 38307
L50729 38307
" />
<path d="M53307 69842
L50729 69842
" />
<path d="M51279 69842
L51048 69399
" />
<path d="M51279 69842
L51510 69399
" />
<path d="M51279 38307
L51048 38750
" />
<path d="M51279 38307
L51510 38750
" />
<path d="M51196 30470
L51196 30687
L51062 30570
L51062 30620
L51046 30653
L51029 30670
L50996 30687
L50912 30687
L50879 30670
L50862 30653
L50846 30620
L50846 30520
L50862 30487
L50879 30470
" />
<path d="M51196 30987
L51196 30920
L51179 30887
L51162 30870
L51112 30837
L51046 30820
L50912 30820
L50879 30837
L50862 30853
L50846 30887
L50846 30953
L50862 30987
L50879 31003
L50912 31020
L50996 31020
L51029 31003
L51046 30987
L51062 30953
L51062 30887
L51046 30853
L51029 30837
L50996 30820
" />
<path d="M50846 31170
L51079 31170
" />
<path d="M51046 31170
L51062 31187
L51079 31220
L51079 31270
L51062 31303
L51029 31320
L50846 31320
" />
<path d="M51029 31320
L51062 31337
L51079 31370
L51079 31420
L51062 31453
L51029 31470
L50846 31470
" />
<path d="M50846 31637
L51079 31637
" />
<path d="M51046 31637
L51062 31653
L51079 31687
L51079 31737
L51062 31770
L51029 31787
L50846 31787
" />
<path d="M51029 31787
L51062 31803
L51079 31837
L51079 31887
L51062 31920
L51029 31937
L50846 31937
" />
<path d="M51279 24133
L51279 38307
" />
<path d="M53307 24133
L50729 24133
" />
<path d="M53307 38307
L50729 38307
" />
<path d="M51279 38307
L51048 37863
" />
<path d="M51279 38307
L51510 37863
" />
<path d="M51279 24133
L51048 24577
" />
<path d="M51279 24133
L51510 24577
" />
<path d="M67252 22235
L67052 22235
" />
<path d="M67152 22235
L67152 21885
L67118 21935
L67085 21968
L67052 21985
" />
<path d="M67552 22001
L67552 22235
" />
<path d="M67468 21868
L67385 22118
L67602 22118
" />
<path d="M67735 22235
L67735 22001
" />
<path d="M67735 22035
L67752 22018
L67785 22001
L67835 22001
L67868 22018
L67885 22051
L67885 22235
" />
<path d="M67885 22051
L67902 22018
L67935 22001
L67985 22001
L68018 22018
L68035 22051
L68035 22235
" />
<path d="M68202 22235
L68202 22001
" />
<path d="M68202 22035
L68218 22018
L68252 22001
L68302 22001
L68335 22018
L68352 22051
L68352 22235
" />
<path d="M68352 22051
L68368 22018
L68402 22001
L68452 22001
L68485 22018
L68502 22051
L68502 22235
" />
<path d="M64330 22352
L69842 22352
" />
<path d="M64330 24133
L64330 21802
" />
<path d="M69842 24133
L69842 21802
" />
<path d="M69842 22352
L69399 22583
" />
<path d="M69842 22352
L69399 22121
" />
<path d="M64330 22352
L64774 22583
" />
<path d="M64330 22352
L64774 22121
" />
<path d="M61041 22235
L60841 22235
" />
<path d="M60941 22235
L60941 21885
L60908 21935
L60874 21969
L60841 21985
" />
<path d="M61341 22002
L61341 22235
" />
<path d="M61258 21869
L61174 22119
L61391 22119
" />
<path d="M61524 22235
L61524 22002
" />
<path d="M61524 22035
L61541 22019
L61574 22002
L61624 22002
L61658 22019
L61674 22052
L61674 22235
" />
<path d="M61674 22052
L61691 22019
L61724 22002
L61774 22002
L61808 22019
L61824 22052
L61824 22235
" />
<path d="M61991 22235
L61991 22002
" />
<path d="M61991 22035
L62008 22019
L62041 22002
L62091 22002
L62124 22019
L62141 22052
L62141 22235
" />
<path d="M62141 22052
L62158 22019
L62191 22002
L62241 22002
L62274 22019
L62291 22052
L62291 22235
" />
<path d="M58818 22352
L64330 22352
" />
<path d="M58818 24133
L58818 21802
" />
<path d="M64330 24133
L64330 21802
" />
<path d="M64330 22352
L63887 22583
" />
<path d="M64330 22352
L63887 22121
" />
<path d="M58818 22352
L59262 22583
" />
<path d="M58818 22352
L59262 22121
" />
<path d="M55529 22235
L55329 22235
" />
<path d="M55429 22235
L55429 21885
L55396 21935
L55362 21969
L55329 21985
" />
<path d="M55829 22002
L55829 22235
" />
<path d="M55746 21869
L55662 22119
L55879 22119
" />
<path d="M56012 22235
L56012 22002
" />
<path d="M56012 22035
L56029 22019
L56062 22002
L56112 22002
L56146 22019
L56162 22052
L56162 22235
" />
<path d="M56162 22052
L56179 22019
L56212 22002
L56262 22002
L56296 22019
L56312 22052
L56312 22235
" />
<path d="M56479 22235
L56479 22002
" />
<path d="M56479 22035
L56496 22019
L56529 22002
L56579 22002
L56612 22019
L56629 22052
L56629 22235
" />
<path d="M56629 22052
L56646 22019
L56679 22002
L56729 22002
L56762 22019
L56779 22052
L56779 22235
" />
<path d="M53307 22352
L58818 22352
" />
<path d="M53307 24133
L53307 21802
" />
<path d="M58818 24133
L58818 21802
" />
<path d="M58818 22352
L58375 22583
" />
<path d="M58818 22352
L58375 22121
" />
<path d="M53307 22352
L53750 22583
" />
<path d="M53307 22352
L53750 22121
" />
<path d="M25186 58836
L25153 58820
L25136 58803
L25119 58770
L25119 58753
L25136 58720
L25153 58703
L25186 58686
L25253 58686
L25286 58703
L25303 58720
L25319 58753
L25319 58770
L25303 58803
L25286 58820
L25253 58836
L25186 58836
L25153 58853
L25136 58870
L25119 58903
L25119 58970
L25136 59003
L25153 59020
L25186 59036
L25253 59036
L25286 59020
L25303 59003
L25319 58970
L25319 58903
L25303 58870
L25286 58853
L25253 58836
" />
<path d="M25436 58686
L25653 58686
L25536 58820
L25586 58820
L25619 58836
L25636 58853
L25653 58886
L25653 58970
L25636 59003
L25619 59020
L25586 59036
L25486 59036
L25453 59020
L25436 59003
" />
<path d="M25803 59003
L25819 59020
L25803 59036
L25786 59020
L25803 59003
L25803 59036
" />
<path d="M25986 59036
L26053 59036
L26086 59020
L26103 59003
L26136 58953
L26153 58886
L26153 58753
L26136 58720
L26119 58703
L26086 58686
L26019 58686
L25986 58703
L25969 58720
L25953 58753
L25953 58836
L25969 58870
L25986 58886
L26019 58903
L26086 58903
L26119 58886
L26136 58870
L26153 58836
" />
<path d="M26269 58686
L26503 58686
L26353 59036
" />
<path d="M26803 58686
L26636 58686
L26619 58853
L26636 58836
L26669 58820
L26753 58820
L26786 58836
L26803 58853
L26819 58886
L26819 58970
L26803 59003
L26786 59020
L26753 59036
L26669 59036
L26636 59020
L26619 59003
" />
<path d="M27236 59036
L27236 58803
" />
<path d="M27236 58836
L27253 58820
L27286 58803
L27336 58803
L27369 58820
L27386 58853
L27386 59036
" />
<path d="M27386 58853
L27403 58820
L27436 58803
L27486 58803
L27519 58820
L27536 58853
L27536 59036
" />
<path d="M27703 59036
L27703 58803
" />
<path d="M27703 58836
L27719 58820
L27753 58803
L27803 58803
L27836 58820
L27853 58853
L27853 59036
" />
<path d="M27853 58853
L27869 58820
L27903 58803
L27953 58803
L27986 58820
L28003 58853
L28003 59036
" />
<path d="M43100 59153
L10039 59153
" />
<path d="M43100 61820
L43100 58603
" />
<path d="M10039 61820
L10039 58603
" />
<path d="M10039 59153
L10482 58922
" />
<path d="M10039 59153
L10482 59384
" />
<path d="M43100 59153
L42656 58922
" />
<path d="M43100 59153
L42656 59384
" />
<path d="M41202 64381
L41218 64398
L41235 64431
L41235 64515
L41218 64548
L41202 64565
L41168 64581
L41135 64581
L41085 64565
L40885 64365
L40885 64581
" />
<path d="M41235 64798
L41235 64831
L41218 64865
L41202 64881
L41168 64898
L41102 64915
L41018 64915
L40952 64898
L40918 64881
L40902 64865
L40885 64831
L40885 64798
L40902 64765
L40918 64748
L40952 64731
L41018 64715
L41102 64715
L41168 64731
L41202 64748
L41218 64765
L41235 64798
" />
<path d="M40918 65065
L40902 65081
L40885 65065
L40902 65048
L40918 65065
L40885 65065
" />
<path d="M41235 65198
L41235 65415
L41102 65298
L41102 65348
L41085 65381
L41068 65398
L41035 65415
L40952 65415
L40918 65398
L40902 65381
L40885 65348
L40885 65248
L40902 65215
L40918 65198
" />
<path d="M41235 65531
L41235 65765
L40885 65615
" />
<path d="M41235 66065
L41235 65898
L41068 65881
L41085 65898
L41102 65931
L41102 66015
L41085 66048
L41068 66065
L41035 66081
L40952 66081
L40918 66065
L40902 66048
L40885 66015
L40885 65931
L40902 65898
L40918 65881
" />
<path d="M40885 66498
L41118 66498
" />
<path d="M41085 66498
L41102 66515
L41118 66548
L41118 66598
L41102 66631
L41068 66648
L40885 66648
" />
<path d="M41068 66648
L41102 66665
L41118 66698
L41118 66748
L41102 66781
L41068 66798
L40885 66798
" />
<path d="M40885 66965
L41118 66965
" />
<path d="M41085 66965
L41102 66981
L41118 67015
L41118 67065
L41102 67098
L41068 67115
L40885 67115
" />
<path d="M41068 67115
L41102 67131
L41118 67165
L41118 67215
L41102 67248
L41068 67265
L40885 67265
" />
<path d="M41318 61820
L41318 69842
" />
<path d="M43100 61820
L40768 61820
" />
<path d="M43100 69842
L40768 69842
" />
<path d="M41318 69842
L41088 69399
" />
<path d="M41318 69842
L41549 69399
" />
<path d="M41318 61820
L41088 62264
" />
<path d="M41318 61820
L41549 62264
" />
<path d="M18983 59528
L18749 59528
" />
<path d="M19116 59445
L18866 59362
L18866 59578
" />
<path d="M19099 59878
L19099 59712
L18933 59695
L18949 59712
L18966 59745
L18966 59828
L18949 59862
L18933 59878
L18899 59895
L18816 59895
L18783 59878
L18766 59862
L18749 59828
L18749 59745
L18766 59712
L18783 59695
" />
<path d="M18783 60045
L18766 60062
L18749 60045
L18766 60028
L18783 60045
L18749 60045
" />
<path d="M18949 60262
L18966 60228
L18983 60212
L19016 60195
L19033 60195
L19066 60212
L19083 60228
L19099 60262
L19099 60328
L19083 60362
L19066 60378
L19033 60395
L19016 60395
L18983 60378
L18966 60362
L18949 60328
L18949 60262
L18933 60228
L18916 60212
L18883 60195
L18816 60195
L18783 60212
L18766 60228
L18749 60262
L18749 60328
L18766 60362
L18783 60378
L18816 60395
L18883 60395
L18916 60378
L18933 60362
L18949 60328
" />
<path d="M19099 60512
L19099 60745
L18749 60595
" />
<path d="M19099 61045
L19099 60878
L18933 60862
L18949 60878
L18966 60912
L18966 60995
L18949 61028
L18933 61045
L18899 61062
L18816 61062
L18783 61045
L18766 61028
L18749 60995
L18749 60912
L18766 60878
L18783 60862
" />
<path d="M18749 61478
L18983 61478
" />
<path d="M18949 61478
L18966 61495
L18983 61528
L18983 61578
L18966 61612
L18933 61628
L18749 61628
" />
<path d="M18933 61628
L18966 61645
L18983 61678
L18983 61728
L18966 61762
L18933 61778
L18749 61778
" />
<path d="M18749 61945
L18983 61945
" />
<path d="M18949 61945
L18966 61962
L18983 61995
L18983 62045
L18966 62078
L18933 62095
L18749 62095
" />
<path d="M18933 62095
L18966 62112
L18983 62145
L18983 62195
L18966 62228
L18933 62245
L18749 62245
" />
<path d="M19183 51781
L19183 69842
" />
<path d="M21250 51781
L18633 51781
" />
<path d="M21250 69842
L18633 69842
" />
<path d="M19183 69842
L18952 69399
" />
<path d="M19183 69842
L19413 69399
" />
<path d="M19183 51781
L18952 52225
" />
<path d="M19183 51781
L19413 52225
" />
<path d="M14194 49497
L14211 49481
L14244 49464
L14328 49464
L14361 49481
L14378 49497
L14394 49531
L14394 49564
L14378 49614
L14178 49814
L14394 49814
" />
<path d="M14594 49614
L14561 49597
L14544 49581
L14528 49547
L14528 49531
L14544 49497
L14561 49481
L14594 49464
L14661 49464
L14694 49481
L14711 49497
L14728 49531
L14728 49547
L14711 49581
L14694 49597
L14661 49614
L14594 49614
L14561 49631
L14544 49647
L14528 49681
L14528 49747
L14544 49781
L14561 49797
L14594 49814
L14661 49814
L14694 49797
L14711 49781
L14728 49747
L14728 49681
L14711 49647
L14694 49631
L14661 49614
" />
<path d="M14878 49781
L14894 49797
L14878 49814
L14861 49797
L14878 49781
L14878 49814
" />
<path d="M15194 49581
L15194 49814
" />
<path d="M15111 49447
L15028 49697
L15244 49697
" />
<path d="M15344 49464
L15578 49464
L15428 49814
" />
<path d="M15878 49464
L15711 49464
L15694 49631
L15711 49614
L15744 49597
L15828 49597
L15861 49614
L15878 49631
L15894 49664
L15894 49747
L15878 49781
L15861 49797
L15828 49814
L15744 49814
L15711 49797
L15694 49781
" />
<path d="M16311 49814
L16311 49581
" />
<path d="M16311 49614
L16328 49597
L16361 49581
L16411 49581
L16444 49597
L16461 49631
L16461 49814
" />
<path d="M16461 49631
L16478 49597
L16511 49581
L16561 49581
L16594 49597
L16611 49631
L16611 49814
" />
<path d="M16778 49814
L16778 49581
" />
<path d="M16778 49614
L16794 49597
L16828 49581
L16878 49581
L16911 49597
L16928 49631
L16928 49814
" />
<path d="M16928 49631
L16944 49597
L16978 49581
L17028 49581
L17061 49597
L17078 49631
L17078 49814
" />
<path d="M21250 49931
L10039 49931
" />
<path d="M21250 51781
L21250 49381
" />
<path d="M10039 51781
L10039 49381
" />
<path d="M10039 49931
L10482 49700
" />
<path d="M10039 49931
L10482 50161
" />
<path d="M21250 49931
L20806 49700
" />
<path d="M21250 49931
L20806 50161
" />
<path d="M75241 57379
L75241 57213
L75074 57196
L75091 57213
L75108 57246
L75108 57329
L75091 57363
L75074 57379
L75041 57396
L74958 57396
L74924 57379
L74908 57363
L74891 57329
L74891 57246
L74908 57213
L74924 57196
" />
<path d="M75241 57696
L75241 57629
L75224 57596
L75208 57579
L75158 57546
L75091 57529
L74958 57529
L74924 57546
L74908 57563
L74891 57596
L74891 57663
L74908 57696
L74924 57713
L74958 57729
L75041 57729
L75074 57713
L75091 57696
L75108 57663
L75108 57596
L75091 57563
L75074 57546
L75041 57529
" />
<path d="M74924 57879
L74908 57896
L74891 57879
L74908 57863
L74924 57879
L74891 57879
" />
<path d="M75091 58096
L75108 58063
L75124 58046
L75158 58029
L75174 58029
L75208 58046
L75224 58063
L75241 58096
L75241 58163
L75224 58196
L75208 58213
L75174 58229
L75158 58229
L75124 58213
L75108 58196
L75091 58163
L75091 58096
L75074 58063
L75058 58046
L75024 58029
L74958 58029
L74924 58046
L74908 58063
L74891 58096
L74891 58163
L74908 58196
L74924 58213
L74958 58229
L75024 58229
L75058 58213
L75074 58196
L75091 58163
" />
<path d="M75241 58346
L75241 58579
L74891 58429
" />
<path d="M75241 58879
L75241 58713
L75074 58696
L75091 58713
L75108 58746
L75108 58829
L75091 58863
L75074 58879
L75041 58896
L74958 58896
L74924 58879
L74908 58863
L74891 58829
L74891 58746
L74908 58713
L74924 58696
" />
<path d="M74891 59313
L75124 59313
" />
<path d="M75091 59313
L75108 59329
L75124 59363
L75124 59413
L75108 59446
L75074 59463
L74891 59463
" />
<path d="M75074 59463
L75108 59479
L75124 59513
L75124 59563
L75108 59596
L75074 59613
L74891 59613
" />
<path d="M74891 59779
L75124 59779
" />
<path d="M75091 59779
L75108 59796
L75124 59829
L75124 59879
L75108 59913
L75074 59929
L74891 59929
" />
<path d="M75074 59929
L75108 59946
L75124 59979
L75124 60029
L75108 60063
L75074 60079
L74891 60079
" />
<path d="M75324 47450
L75324 69842
" />
<path d="M79124 47450
L74774 47450
" />
<path d="M79124 69842
L74774 69842
" />
<path d="M75324 69842
L75093 69399
" />
<path d="M75324 69842
L75555 69399
" />
<path d="M75324 47450
L75093 47894
" />
<path d="M75324 47450
L75555 47894
" />
<path d="M80733 45385
L80533 45385
" />
<path d="M80633 45385
L80633 45035
L80599 45085
L80566 45118
L80533 45135
" />
<path d="M81033 45151
L81033 45385
" />
<path d="M80949 45018
L80866 45268
L81083 45268
" />
<path d="M81216 45351
L81233 45368
L81216 45385
L81199 45368
L81216 45351
L81216 45385
" />
<path d="M81549 45035
L81383 45035
L81366 45201
L81383 45185
L81416 45168
L81499 45168
L81533 45185
L81549 45201
L81566 45235
L81566 45318
L81549 45351
L81533 45368
L81499 45385
L81416 45385
L81383 45368
L81366 45351
" />
<path d="M81699 45068
L81716 45051
L81749 45035
L81833 45035
L81866 45051
L81883 45068
L81899 45101
L81899 45135
L81883 45185
L81683 45385
L81899 45385
" />
<path d="M82216 45035
L82049 45035
L82033 45201
L82049 45185
L82083 45168
L82166 45168
L82199 45185
L82216 45201
L82233 45235
L82233 45318
L82216 45351
L82199 45368
L82166 45385
L82083 45385
L82049 45368
L82033 45351
" />
<path d="M82649 45385
L82649 45151
" />
<path d="M82649 45185
L82666 45168
L82699 45151
L82749 45151
L82783 45168
L82799 45201
L82799 45385
" />
<path d="M82799 45201
L82816 45168
L82849 45151
L82899 45151
L82933 45168
L82949 45201
L82949 45385
" />
<path d="M83116 45385
L83116 45151
" />
<path d="M83116 45185
L83133 45168
L83166 45151
L83216 45151
L83249 45168
L83266 45201
L83266 45385
" />
<path d="M83266 45201
L83283 45168
L83316 45151
L83366 45151
L83399 45168
L83416 45201
L83416 45385
" />
<path d="M79124 45501
L84842 45501
" />
<path d="M79124 47450
L79124 44951
" />
<path d="M84842 47450
L84842 44951
" />
<path d="M84842 45501
L84399 45732
" />
<path d="M84842 45501
L84399 45271
" />
<path d="M79124 45501
L79567 45732
" />
<path d="M79124 45501
L79567 45271
" />
<path d="M68337 45035
L68171 45035
L68154 45201
L68171 45185
L68204 45168
L68287 45168
L68321 45185
L68337 45201
L68354 45235
L68354 45318
L68337 45351
L68321 45368
L68287 45385
L68204 45385
L68171 45368
L68154 45351
" />
<path d="M68487 45068
L68504 45051
L68537 45035
L68621 45035
L68654 45051
L68671 45068
L68687 45101
L68687 45135
L68671 45185
L68471 45385
L68687 45385
" />
<path d="M68837 45385
L68837 45151
" />
<path d="M68837 45185
L68854 45168
L68887 45151
L68937 45151
L68971 45168
L68987 45201
L68987 45385
" />
<path d="M68987 45201
L69004 45168
L69037 45151
L69087 45151
L69121 45168
L69137 45201
L69137 45385
" />
<path d="M69304 45385
L69304 45151
" />
<path d="M69304 45185
L69321 45168
L69354 45151
L69404 45151
L69437 45168
L69454 45201
L69454 45385
" />
<path d="M69454 45201
L69471 45168
L69504 45151
L69554 45151
L69587 45168
L69604 45201
L69604 45385
" />
<path d="M58651 45501
L79124 45501
" />
<path d="M58651 47450
L58651 44951
" />
<path d="M79124 47450
L79124 44951
" />
<path d="M79124 45501
L78680 45732
" />
<path d="M79124 45501
L78680 45271
" />
<path d="M58651 45501
L59095 45732
" />
<path d="M58651 45501
L59095 45271
" />
<path d="M45310 53344
L45310 53577
L44960 53427
" />
<path d="M45277 53694
L45293 53711
L45310 53744
L45310 53827
L45293 53861
L45277 53877
L45243 53894
L45210 53894
L45160 53877
L44960 53677
L44960 53894
" />
<path d="M44960 54044
L45193 54044
" />
<path d="M45160 54044
L45177 54061
L45193 54094
L45193 54144
L45177 54177
L45143 54194
L44960 54194
" />
<path d="M45143 54194
L45177 54211
L45193 54244
L45193 54294
L45177 54327
L45143 54344
L44960 54344
" />
<path d="M44960 54511
L45193 54511
" />
<path d="M45160 54511
L45177 54527
L45193 54561
L45193 54611
L45177 54644
L45143 54661
L44960 54661
" />
<path d="M45143 54661
L45177 54677
L45193 54711
L45193 54761
L45177 54794
L45143 54811
L44960 54811
" />
<path d="M45393 39921
L45393 68267
" />
<path d="M47440 39921
L44843 39921
" />
<path d="M47440 68267
L44843 68267
" />
<path d="M45393 68267
L45162 67824
" />
<path d="M45393 68267
L45624 67824
" />
<path d="M45393 39921
L45162 40364
" />
<path d="M45393 39921
L45624 40364
" />
<path d="M28827 36340
L28894 36340
L28927 36323
L28944 36306
L28977 36256
L28994 36190
L28994 36056
L28977 36023
L28960 36006
L28927 35990
L28860 35990
L28827 36006
L28810 36023
L28794 36056
L28794 36140
L28810 36173
L28827 36190
L28860 36206
L28927 36206
L28960 36190
L28977 36173
L28994 36140
" />
<path d="M29327 36340
L29127 36340
" />
<path d="M29227 36340
L29227 35990
L29194 36040
L29160 36073
L29127 36090
" />
<path d="M29477 36340
L29477 36106
" />
<path d="M29477 36140
L29494 36123
L29527 36106
L29577 36106
L29610 36123
L29627 36156
L29627 36340
" />
<path d="M29627 36156
L29644 36123
L29677 36106
L29727 36106
L29760 36123
L29777 36156
L29777 36340
" />
<path d="M29944 36340
L29944 36106
" />
<path d="M29944 36140
L29960 36123
L29994 36106
L30044 36106
L30077 36123
L30094 36156
L30094 36340
" />
<path d="M30094 36156
L30110 36123
L30144 36106
L30194 36106
L30227 36123
L30244 36156
L30244 36340
" />
<path d="M11614 36456
L47440 36456
" />
<path d="M11614 39921
L11614 35906
" />
<path d="M47440 39921
L47440 35906
" />
<path d="M47440 36456
L46997 36687
" />
<path d="M47440 36456
L46997 36225
" />
<path d="M11614 36456
L12057 36687
" />
<path d="M11614 36456
L12057 36225
" />
<path d="M64654 71712
L64720 71712
L64754 71696
L64770 71679
L64804 71629
L64820 71562
L64820 71429
L64804 71396
L64787 71379
L64754 71362
L64687 71362
L64654 71379
L64637 71396
L64620 71429
L64620 71512
L64637 71546
L64654 71562
L64687 71579
L64754 71579
L64787 71562
L64804 71546
L64820 71512
" />
<path d="M65154 71712
L64954 71712
" />
<path d="M65054 71712
L65054 71362
L65020 71412
L64987 71446
L64954 71462
" />
<path d="M65304 71712
L65304 71479
" />
<path d="M65304 71512
L65320 71496
L65354 71479
L65404 71479
L65437 71496
L65454 71529
L65454 71712
" />
<path d="M65454 71529
L65470 71496
L65504 71479
L65554 71479
L65587 71496
L65604 71529
L65604 71712
" />
<path d="M65770 71712
L65770 71479
" />
<path d="M65770 71512
L65787 71496
L65820 71479
L65870 71479
L65904 71496
L65920 71529
L65920 71712
" />
<path d="M65920 71529
L65937 71496
L65970 71479
L66020 71479
L66054 71496
L66070 71529
L66070 71712
" />
<path d="M47440 71279
L83267 71279
" />
<path d="M47440 68267
L47440 71829
" />
<path d="M83267 68267
L83267 71829
" />
<path d="M83267 71279
L82824 71510
" />
<path d="M83267 71279
L82824 71048
" />
<path d="M47440 71279
L47884 71510
" />
<path d="M47440 71279
L47884 71048
" />
<path d="M28827 71712
L28894 71712
L28927 71696
L28944 71679
L28977 71629
L28994 71562
L28994 71429
L28977 71396
L28960 71379
L28927 71362
L28860 71362
L28827 71379
L28810 71396
L28794 71429
L28794 71512
L28810 71546
L28827 71562
L28860 71579
L28927 71579
L28960 71562
L28977 71546
L28994 71512
" />
<path d="M29327 71712
L29127 71712
" />
<path d="M29227 71712
L29227 71362
L29194 71412
L29160 71446
L29127 71462
" />
<path d="M29477 71712
L29477 71479
" />
<path d="M29477 71512
L29494 71496
L29527 71479
L29577 71479
L29610 71496
L29627 71529
L29627 71712
" />
<path d="M29627 71529
L29644 71496
L29677 71479
L29727 71479
L29760 71496
L29777 71529
L29777 71712
" />
<path d="M29944 71712
L29944 71479
" />
<path d="M29944 71512
L29960 71496
L29994 71479
L30044 71479
L30077 71496
L30094 71529
L30094 71712
" />
<path d="M30094 71529
L30110 71496
L30144 71479
L30194 71479
L30227 71496
L30244 71529
L30244 71712
" />
<path d="M11614 71279
L47440 71279
" />
<path d="M11614 68267
L11614 71829
" />
<path d="M47440 68267
L47440 71829
" />
<path d="M47440 71279
L46997 71510
" />
<path d="M47440 71279
L46997 71048
" />
<path d="M11614 71279
L12057 71510
" />
<path d="M11614 71279
L12057 71048
" />
<path d="M7534 16730
L7534 16946
L7401 16830
L7401 16880
L7384 16913
L7368 16930
L7334 16946
L7251 16946
L7218 16930
L7201 16913
L7184 16880
L7184 16780
L7201 16746
L7218 16730
" />
<path d="M7534 17163
L7534 17196
L7518 17230
L7501 17246
L7468 17263
L7401 17280
L7318 17280
L7251 17263
L7218 17246
L7201 17230
L7184 17196
L7184 17163
L7201 17130
L7218 17113
L7251 17096
L7318 17080
L7401 17080
L7468 17096
L7501 17113
L7518 17130
L7534 17163
" />
<path d="M7184 17430
L7418 17430
" />
<path d="M7384 17430
L7401 17446
L7418 17480
L7418 17530
L7401 17563
L7368 17580
L7184 17580
" />
<path d="M7368 17580
L7401 17596
L7418 17630
L7418 17680
L7401 17713
L7368 17730
L7184 17730
" />
<path d="M7184 17896
L7418 17896
" />
<path d="M7384 17896
L7401 17913
L7418 17946
L7418 17996
L7401 18030
L7368 18046
L7184 18046
" />
<path d="M7368 18046
L7401 18063
L7418 18096
L7418 18146
L7401 18180
L7368 18196
L7184 18196
" />
<path d="M7618 11574
L7618 23385
" />
<path d="M11614 11574
L7068 11574
" />
<path d="M11614 23385
L7068 23385
" />
<path d="M7618 23385
L7387 22942
" />
<path d="M7618 23385
L7848 22942
" />
<path d="M7618 11574
L7387 12018
" />
<path d="M7618 11574
L7848 12018
" />
<path d="M6501 53344
L6501 53577
L6151 53427
" />
<path d="M6467 53694
L6484 53711
L6501 53744
L6501 53827
L6484 53861
L6467 53877
L6434 53894
L6401 53894
L6351 53877
L6151 53677
L6151 53894
" />
<path d="M6151 54044
L6384 54044
" />
<path d="M6351 54044
L6367 54061
L6384 54094
L6384 54144
L6367 54177
L6334 54194
L6151 54194
" />
<path d="M6334 54194
L6367 54211
L6384 54244
L6384 54294
L6367 54327
L6334 54344
L6151 54344
" />
<path d="M6151 54511
L6384 54511
" />
<path d="M6351 54511
L6367 54527
L6384 54561
L6384 54611
L6367 54644
L6334 54661
L6151 54661
" />
<path d="M6334 54661
L6367 54677
L6384 54711
L6384 54761
L6367 54794
L6334 54811
L6151 54811
" />
<path d="M6584 39921
L6584 68267
" />
<path d="M11614 39921
L6034 39921
" />
<path d="M11614 68267
L6034 68267
" />
<path d="M6584 68267
L6353 67824
" />
<path d="M6584 68267
L6815 67824
" />
<path d="M6584 39921
L6353 40364
" />
<path d="M6584 39921
L6815 40364
" />
<path d="M6501 24998
L6501 25231
L6151 25081
" />
<path d="M6467 25348
L6484 25364
L6501 25398
L6501 25481
L6484 25514
L6467 25531
L6434 25548
L6401 25548
L6351 25531
L6151 25331
L6151 25548
" />
<path d="M6151 25698
L6384 25698
" />
<path d="M6351 25698
L6367 25714
L6384 25748
L6384 25798
L6367 25831
L6334 25848
L6151 25848
" />
<path d="M6334 25848
L6367 25864
L6384 25898
L6384 25948
L6367 25981
L6334 25998
L6151 25998
" />
<path d="M6151 26164
L6384 26164
" />
<path d="M6351 26164
L6367 26181
L6384 26214
L6384 26264
L6367 26298
L6334 26314
L6151 26314
" />
<path d="M6334 26314
L6367 26331
L6384 26364
L6384 26414
L6367 26448
L6334 26464
L6151 26464
" />
<path d="M6584 11574
L6584 39921
" />
<path d="M11614 11574
L6034 11574
" />
<path d="M11614 39921
L6034 39921
" />
<path d="M6584 39921
L6353 39477
" />
<path d="M6584 39921
L6815 39477
" />
<path d="M6584 11574
L6353 12018
" />
<path d="M6584 11574
L6815 12018
" />
<path d="M5334 39221
L5334 39021
" />
<path d="M5334 39121
L5684 39121
L5634 39087
L5601 39054
L5584 39021
" />
<path d="M5684 39537
L5684 39371
L5517 39354
L5534 39371
L5551 39404
L5551 39487
L5534 39521
L5517 39537
L5484 39554
L5401 39554
L5367 39537
L5351 39521
L5334 39487
L5334 39404
L5351 39371
L5367 39354
" />
<path d="M5651 39687
L5667 39704
L5684 39737
L5684 39821
L5667 39854
L5651 39871
L5617 39887
L5584 39887
L5534 39871
L5334 39671
L5334 39887
" />
<path d="M5334 40037
L5567 40037
" />
<path d="M5534 40037
L5551 40054
L5567 40087
L5567 40137
L5551 40171
L5517 40187
L5334 40187
" />
<path d="M5517 40187
L5551 40204
L5567 40237
L5567 40287
L5551 40321
L5517 40337
L5334 40337
" />
<path d="M5334 40504
L5567 40504
" />
<path d="M5534 40504
L5551 40521
L5567 40554
L5567 40604
L5551 40637
L5517 40654
L5334 40654
" />
<path d="M5517 40654
L5551 40671
L5567 40704
L5567 40754
L5551 40787
L5517 40804
L5334 40804
" />
<path d="M5767 9999
L5767 69842
" />
<path d="M11614 10000
L5217 9999
" />
<path d="M11614 69842
L5217 69842
" />
<path d="M5767 69842
L5536 69399
" />
<path d="M5767 69842
L5998 69399
" />
<path d="M5767 9999
L5536 10443
" />
<path d="M5767 9999
L5998 10443
" />
<path d="M46740 6615
L46540 6615
" />
<path d="M46640 6615
L46640 6265
L46607 6315
L46574 6348
L46540 6365
" />
<path d="M46940 6415
L46907 6398
L46890 6382
L46874 6348
L46874 6332
L46890 6298
L46907 6282
L46940 6265
L47007 6265
L47040 6282
L47057 6298
L47074 6332
L47074 6348
L47057 6382
L47040 6398
L47007 6415
L46940 6415
L46907 6432
L46890 6448
L46874 6482
L46874 6548
L46890 6582
L46907 6598
L46940 6615
L47007 6615
L47040 6598
L47057 6582
L47074 6548
L47074 6482
L47057 6448
L47040 6432
L47007 6415
" />
<path d="M47207 6298
L47224 6282
L47257 6265
L47340 6265
L47374 6282
L47390 6298
L47407 6332
L47407 6365
L47390 6415
L47190 6615
L47407 6615
" />
<path d="M47557 6615
L47557 6382
" />
<path d="M47557 6415
L47574 6398
L47607 6382
L47657 6382
L47690 6398
L47707 6432
L47707 6615
" />
<path d="M47707 6432
L47724 6398
L47757 6382
L47807 6382
L47840 6398
L47857 6432
L47857 6615
" />
<path d="M48024 6615
L48024 6382
" />
<path d="M48024 6415
L48040 6398
L48074 6382
L48124 6382
L48157 6398
L48174 6432
L48174 6615
" />
<path d="M48174 6432
L48190 6398
L48224 6382
L48274 6382
L48307 6398
L48324 6432
L48324 6615
" />
<path d="M11614 6732
L83267 6732
" />
<path d="M11614 11574
L11614 6182
" />
<path d="M83267 11574
L83267 6182
" />
<path d="M83267 6732
L82824 6963
" />
<path d="M83267 6732
L82824 6501
" />
<path d="M11614 6732
L12057 6963
" />
<path d="M11614 6732
L12057 6501
" />
<path d="M46740 5769
L46540 5769
" />
<path d="M46640 5769
L46640 5419
L46607 5469
L46574 5502
L46540 5519
" />
<path d="M46907 5769
L46974 5769
L47007 5752
L47024 5735
L47057 5685
L47074 5619
L47074 5485
L47057 5452
L47040 5435
L47007 5419
L46940 5419
L46907 5435
L46890 5452
L46874 5485
L46874 5569
L46890 5602
L46907 5619
L46940 5635
L47007 5635
L47040 5619
L47057 5602
L47074 5569
" />
<path d="M47290 5419
L47324 5419
L47357 5435
L47374 5452
L47390 5485
L47407 5552
L47407 5635
L47390 5702
L47374 5735
L47357 5752
L47324 5769
L47290 5769
L47257 5752
L47240 5735
L47224 5702
L47207 5635
L47207 5552
L47224 5485
L47240 5452
L47257 5435
L47290 5419
" />
<path d="M47557 5769
L47557 5535
" />
<path d="M47557 5569
L47574 5552
L47607 5535
L47657 5535
L47690 5552
L47707 5585
L47707 5769
" />
<path d="M47707 5585
L47724 5552
L47757 5535
L47807 5535
L47840 5552
L47857 5585
L47857 5769
" />
<path d="M48024 5769
L48024 5535
" />
<path d="M48024 5569
L48040 5552
L48074 5535
L48124 5535
L48157 5552
L48174 5585
L48174 5769
" />
<path d="M48174 5585
L48190 5552
L48224 5535
L48274 5535
L48307 5552
L48324 5585
L48324 5769
" />
<path d="M10039 5885
L84842 5885
" />
<path d="M10039 11574
L10039 5335
" />
<path d="M84842 11574
L84842 5335
" />
<path d="M84842 5885
L84399 6116
" />
<path d="M84842 5885
L84399 5654
" />
<path d="M10039 5885
L10482 6116
" />
<path d="M10039 5885
L10482 5654
" />
<path d="M84842 50433
L82992 52125
" />
<path d="M84842 11574
L84842 50433
" />
<path d="M82992 54685
L82992 52125
" />
<path d="M82992 57244
L82992 54685
" />
<path d="M84842 58897
L82992 57244
" />
<path d="M84842 68267
L84842 58897
" />
<path d="M11614 69842
L83267 69842
" />
<path d="M10039 11574
L10039 68267
" />
<path d="M83267 10000
L11614 10000
" />
<path d="M84842.5 11574.8 A1574.8 1574.8 0.0 0 0 83267.7 10000 " />
<path d="M83267.7 69842.5 A1574.8 1574.8 0.0 0 0 84842.5 68267.7 " />
<path d="M10039.4 68267.7 A1574.8 1574.8 0.0 0 0 11614.2 69842.5 " />
<path d="M11614.2 10000 A1574.8 1574.8 0.0 0 0 10039.4 11574.8 " />
</g> 
</svg>
