G04 (created by PCBNEW (2013-07-07 BZR 4022)-stable) date 01-Jan-14 7:39:56 PM*
%MOIN*%
G04 Gerber Fmt 3.4, Leading zero omitted, Abs format*
%FSLAX34Y34*%
G01*
G70*
G90*
G04 APERTURE LIST*
%ADD10C,0.001*%
%ADD11C,0.005*%
G04 APERTURE END LIST*
G54D10*
X4000Y-4000D02*
X112930Y-4000D01*
X112930Y-78680D01*
X4000Y-78680D01*
X4000Y-4000D01*
X4700Y-4700D02*
X112230Y-4700D01*
X112230Y-77980D01*
X4700Y-77980D01*
X4700Y-4700D01*
X25780Y-4000D02*
X25780Y-4700D01*
X15032Y-4552D02*
X14747Y-4552D01*
X14890Y-4552D02*
X14890Y-4052D01*
X14842Y-4123D01*
X14794Y-4171D01*
X14747Y-4195D01*
X25780Y-78680D02*
X25780Y-77980D01*
X15032Y-78532D02*
X14747Y-78532D01*
X14890Y-78532D02*
X14890Y-78032D01*
X14842Y-78103D01*
X14794Y-78151D01*
X14747Y-78175D01*
X47560Y-4000D02*
X47560Y-4700D01*
X36527Y-4100D02*
X36550Y-4076D01*
X36598Y-4052D01*
X36717Y-4052D01*
X36765Y-4076D01*
X36789Y-4100D01*
X36812Y-4147D01*
X36812Y-4195D01*
X36789Y-4266D01*
X36503Y-4552D01*
X36812Y-4552D01*
X47560Y-78680D02*
X47560Y-77980D01*
X36527Y-78080D02*
X36550Y-78056D01*
X36598Y-78032D01*
X36717Y-78032D01*
X36765Y-78056D01*
X36789Y-78080D01*
X36812Y-78127D01*
X36812Y-78175D01*
X36789Y-78246D01*
X36503Y-78532D01*
X36812Y-78532D01*
X69340Y-4000D02*
X69340Y-4700D01*
X58283Y-4052D02*
X58592Y-4052D01*
X58426Y-4242D01*
X58497Y-4242D01*
X58545Y-4266D01*
X58569Y-4290D01*
X58592Y-4338D01*
X58592Y-4457D01*
X58569Y-4504D01*
X58545Y-4528D01*
X58497Y-4552D01*
X58354Y-4552D01*
X58307Y-4528D01*
X58283Y-4504D01*
X69340Y-78680D02*
X69340Y-77980D01*
X58283Y-78032D02*
X58592Y-78032D01*
X58426Y-78222D01*
X58497Y-78222D01*
X58545Y-78246D01*
X58569Y-78270D01*
X58592Y-78318D01*
X58592Y-78437D01*
X58569Y-78484D01*
X58545Y-78508D01*
X58497Y-78532D01*
X58354Y-78532D01*
X58307Y-78508D01*
X58283Y-78484D01*
X91120Y-4000D02*
X91120Y-4700D01*
X80325Y-4219D02*
X80325Y-4552D01*
X80206Y-4028D02*
X80087Y-4385D01*
X80396Y-4385D01*
X91120Y-78680D02*
X91120Y-77980D01*
X80325Y-78199D02*
X80325Y-78532D01*
X80206Y-78008D02*
X80087Y-78365D01*
X80396Y-78365D01*
X102129Y-4052D02*
X101890Y-4052D01*
X101867Y-4290D01*
X101890Y-4266D01*
X101938Y-4242D01*
X102057Y-4242D01*
X102105Y-4266D01*
X102129Y-4290D01*
X102152Y-4338D01*
X102152Y-4457D01*
X102129Y-4504D01*
X102105Y-4528D01*
X102057Y-4552D01*
X101938Y-4552D01*
X101890Y-4528D01*
X101867Y-4504D01*
X102129Y-78032D02*
X101890Y-78032D01*
X101867Y-78270D01*
X101890Y-78246D01*
X101938Y-78222D01*
X102057Y-78222D01*
X102105Y-78246D01*
X102129Y-78270D01*
X102152Y-78318D01*
X102152Y-78437D01*
X102129Y-78484D01*
X102105Y-78508D01*
X102057Y-78532D01*
X101938Y-78532D01*
X101890Y-78508D01*
X101867Y-78484D01*
X4000Y-28890D02*
X4700Y-28890D01*
X4230Y-16509D02*
X4469Y-16509D01*
X4183Y-16652D02*
X4350Y-16152D01*
X4516Y-16652D01*
X112930Y-28890D02*
X112230Y-28890D01*
X112460Y-16509D02*
X112699Y-16509D01*
X112413Y-16652D02*
X112580Y-16152D01*
X112746Y-16652D01*
X4000Y-53780D02*
X4700Y-53780D01*
X4385Y-41280D02*
X4457Y-41304D01*
X4480Y-41328D01*
X4504Y-41375D01*
X4504Y-41447D01*
X4480Y-41494D01*
X4457Y-41518D01*
X4409Y-41542D01*
X4219Y-41542D01*
X4219Y-41042D01*
X4385Y-41042D01*
X4433Y-41066D01*
X4457Y-41090D01*
X4480Y-41137D01*
X4480Y-41185D01*
X4457Y-41232D01*
X4433Y-41256D01*
X4385Y-41280D01*
X4219Y-41280D01*
X112930Y-53780D02*
X112230Y-53780D01*
X112615Y-41280D02*
X112687Y-41304D01*
X112710Y-41328D01*
X112734Y-41375D01*
X112734Y-41447D01*
X112710Y-41494D01*
X112687Y-41518D01*
X112639Y-41542D01*
X112449Y-41542D01*
X112449Y-41042D01*
X112615Y-41042D01*
X112663Y-41066D01*
X112687Y-41090D01*
X112710Y-41137D01*
X112710Y-41185D01*
X112687Y-41232D01*
X112663Y-41256D01*
X112615Y-41280D01*
X112449Y-41280D01*
X4504Y-66384D02*
X4480Y-66408D01*
X4409Y-66432D01*
X4361Y-66432D01*
X4290Y-66408D01*
X4242Y-66360D01*
X4219Y-66313D01*
X4195Y-66218D01*
X4195Y-66146D01*
X4219Y-66051D01*
X4242Y-66003D01*
X4290Y-65956D01*
X4361Y-65932D01*
X4409Y-65932D01*
X4480Y-65956D01*
X4504Y-65980D01*
X112734Y-66384D02*
X112710Y-66408D01*
X112639Y-66432D01*
X112591Y-66432D01*
X112520Y-66408D01*
X112472Y-66360D01*
X112449Y-66313D01*
X112425Y-66218D01*
X112425Y-66146D01*
X112449Y-66051D01*
X112472Y-66003D01*
X112520Y-65956D01*
X112591Y-65932D01*
X112639Y-65932D01*
X112710Y-65956D01*
X112734Y-65980D01*
X79380Y-76422D02*
X79455Y-75822D01*
X79597Y-75822D01*
X79680Y-75851D01*
X79730Y-75908D01*
X79751Y-75965D01*
X79765Y-76080D01*
X79755Y-76165D01*
X79712Y-76280D01*
X79676Y-76337D01*
X79612Y-76394D01*
X79522Y-76422D01*
X79380Y-76422D01*
X80237Y-76422D02*
X80276Y-76108D01*
X80255Y-76051D01*
X80201Y-76022D01*
X80087Y-76022D01*
X80026Y-76051D01*
X80240Y-76394D02*
X80180Y-76422D01*
X80037Y-76422D01*
X79983Y-76394D01*
X79962Y-76337D01*
X79969Y-76280D01*
X80005Y-76222D01*
X80065Y-76194D01*
X80208Y-76194D01*
X80269Y-76165D01*
X80487Y-76022D02*
X80715Y-76022D01*
X80597Y-75822D02*
X80533Y-76337D01*
X80555Y-76394D01*
X80608Y-76422D01*
X80665Y-76422D01*
X81097Y-76394D02*
X81037Y-76422D01*
X80922Y-76422D01*
X80869Y-76394D01*
X80847Y-76337D01*
X80876Y-76108D01*
X80912Y-76051D01*
X80972Y-76022D01*
X81087Y-76022D01*
X81140Y-76051D01*
X81162Y-76108D01*
X81155Y-76165D01*
X80862Y-76222D01*
X81387Y-76365D02*
X81412Y-76394D01*
X81380Y-76422D01*
X81355Y-76394D01*
X81387Y-76365D01*
X81380Y-76422D01*
X81426Y-76051D02*
X81451Y-76080D01*
X81419Y-76108D01*
X81394Y-76080D01*
X81426Y-76051D01*
X81419Y-76108D01*
X82437Y-76422D02*
X82094Y-76422D01*
X82265Y-76422D02*
X82340Y-75822D01*
X82272Y-75908D01*
X82208Y-75965D01*
X82147Y-75994D01*
X83201Y-76022D02*
X83137Y-76537D01*
X83101Y-76594D01*
X83040Y-76622D01*
X83012Y-76622D01*
X83226Y-75822D02*
X83194Y-75851D01*
X83219Y-75880D01*
X83251Y-75851D01*
X83226Y-75822D01*
X83219Y-75880D01*
X83694Y-76422D02*
X83733Y-76108D01*
X83712Y-76051D01*
X83658Y-76022D01*
X83544Y-76022D01*
X83483Y-76051D01*
X83697Y-76394D02*
X83637Y-76422D01*
X83494Y-76422D01*
X83440Y-76394D01*
X83419Y-76337D01*
X83426Y-76280D01*
X83462Y-76222D01*
X83522Y-76194D01*
X83665Y-76194D01*
X83726Y-76165D01*
X84030Y-76022D02*
X83980Y-76422D01*
X84022Y-76080D02*
X84055Y-76051D01*
X84115Y-76022D01*
X84201Y-76022D01*
X84255Y-76051D01*
X84276Y-76108D01*
X84237Y-76422D01*
X85019Y-75880D02*
X85051Y-75851D01*
X85112Y-75822D01*
X85255Y-75822D01*
X85308Y-75851D01*
X85333Y-75880D01*
X85355Y-75937D01*
X85347Y-75994D01*
X85308Y-76080D01*
X84922Y-76422D01*
X85294Y-76422D01*
X85740Y-75822D02*
X85797Y-75822D01*
X85851Y-75851D01*
X85876Y-75880D01*
X85897Y-75937D01*
X85912Y-76051D01*
X85894Y-76194D01*
X85851Y-76308D01*
X85815Y-76365D01*
X85783Y-76394D01*
X85722Y-76422D01*
X85665Y-76422D01*
X85612Y-76394D01*
X85587Y-76365D01*
X85565Y-76308D01*
X85551Y-76194D01*
X85569Y-76051D01*
X85612Y-75937D01*
X85647Y-75880D01*
X85680Y-75851D01*
X85740Y-75822D01*
X86437Y-76422D02*
X86094Y-76422D01*
X86265Y-76422D02*
X86340Y-75822D01*
X86272Y-75908D01*
X86208Y-75965D01*
X86147Y-75994D01*
X87001Y-76022D02*
X86951Y-76422D01*
X86887Y-75794D02*
X86690Y-76222D01*
X87062Y-76222D01*
X70972Y-77622D02*
X70972Y-77022D01*
X71315Y-77622D02*
X71058Y-77280D01*
X71315Y-77022D02*
X70972Y-77365D01*
X71572Y-77622D02*
X71572Y-77222D01*
X71572Y-77022D02*
X71544Y-77051D01*
X71572Y-77080D01*
X71601Y-77051D01*
X71572Y-77022D01*
X71572Y-77080D01*
X72201Y-77565D02*
X72172Y-77594D01*
X72087Y-77622D01*
X72030Y-77622D01*
X71944Y-77594D01*
X71887Y-77537D01*
X71858Y-77480D01*
X71830Y-77365D01*
X71830Y-77280D01*
X71858Y-77165D01*
X71887Y-77108D01*
X71944Y-77051D01*
X72030Y-77022D01*
X72087Y-77022D01*
X72172Y-77051D01*
X72201Y-77080D01*
X72715Y-77622D02*
X72715Y-77308D01*
X72687Y-77251D01*
X72630Y-77222D01*
X72515Y-77222D01*
X72458Y-77251D01*
X72715Y-77594D02*
X72658Y-77622D01*
X72515Y-77622D01*
X72458Y-77594D01*
X72430Y-77537D01*
X72430Y-77480D01*
X72458Y-77422D01*
X72515Y-77394D01*
X72658Y-77394D01*
X72715Y-77365D01*
X73258Y-77622D02*
X73258Y-77022D01*
X73258Y-77594D02*
X73201Y-77622D01*
X73087Y-77622D01*
X73030Y-77594D01*
X73001Y-77565D01*
X72972Y-77508D01*
X72972Y-77337D01*
X73001Y-77280D01*
X73030Y-77251D01*
X73087Y-77222D01*
X73201Y-77222D01*
X73258Y-77251D01*
X74001Y-77308D02*
X74201Y-77308D01*
X74287Y-77622D02*
X74001Y-77622D01*
X74001Y-77022D01*
X74287Y-77022D01*
X74544Y-77565D02*
X74572Y-77594D01*
X74544Y-77622D01*
X74515Y-77594D01*
X74544Y-77565D01*
X74544Y-77622D01*
X74829Y-77622D02*
X74829Y-77022D01*
X74972Y-77022D01*
X75058Y-77051D01*
X75115Y-77108D01*
X75144Y-77165D01*
X75172Y-77280D01*
X75172Y-77365D01*
X75144Y-77480D01*
X75115Y-77537D01*
X75058Y-77594D01*
X74972Y-77622D01*
X74829Y-77622D01*
X75429Y-77565D02*
X75458Y-77594D01*
X75429Y-77622D01*
X75401Y-77594D01*
X75429Y-77565D01*
X75429Y-77622D01*
X75687Y-77451D02*
X75972Y-77451D01*
X75629Y-77622D02*
X75829Y-77022D01*
X76029Y-77622D01*
X76229Y-77565D02*
X76258Y-77594D01*
X76229Y-77622D01*
X76201Y-77594D01*
X76229Y-77565D01*
X76229Y-77622D01*
X104522Y-76422D02*
X104358Y-76137D01*
X104180Y-76422D02*
X104255Y-75822D01*
X104483Y-75822D01*
X104537Y-75851D01*
X104562Y-75880D01*
X104583Y-75937D01*
X104572Y-76022D01*
X104537Y-76080D01*
X104505Y-76108D01*
X104444Y-76137D01*
X104215Y-76137D01*
X105012Y-76394D02*
X104951Y-76422D01*
X104837Y-76422D01*
X104783Y-76394D01*
X104762Y-76337D01*
X104790Y-76108D01*
X104826Y-76051D01*
X104887Y-76022D01*
X105001Y-76022D01*
X105055Y-76051D01*
X105076Y-76108D01*
X105069Y-76165D01*
X104776Y-76222D01*
X105287Y-76022D02*
X105380Y-76422D01*
X105572Y-76022D01*
X105758Y-76365D02*
X105783Y-76394D01*
X105751Y-76422D01*
X105726Y-76394D01*
X105758Y-76365D01*
X105751Y-76422D01*
X105797Y-76051D02*
X105822Y-76080D01*
X105790Y-76108D01*
X105765Y-76080D01*
X105797Y-76051D01*
X105790Y-76108D01*
X70944Y-76394D02*
X71030Y-76422D01*
X71172Y-76422D01*
X71230Y-76394D01*
X71258Y-76365D01*
X71287Y-76308D01*
X71287Y-76251D01*
X71258Y-76194D01*
X71230Y-76165D01*
X71172Y-76137D01*
X71058Y-76108D01*
X71001Y-76080D01*
X70972Y-76051D01*
X70944Y-75994D01*
X70944Y-75937D01*
X70972Y-75880D01*
X71001Y-75851D01*
X71058Y-75822D01*
X71201Y-75822D01*
X71287Y-75851D01*
X71544Y-76422D02*
X71544Y-76022D01*
X71544Y-75822D02*
X71515Y-75851D01*
X71544Y-75880D01*
X71572Y-75851D01*
X71544Y-75822D01*
X71544Y-75880D01*
X71772Y-76022D02*
X72087Y-76022D01*
X71772Y-76422D01*
X72087Y-76422D01*
X72544Y-76394D02*
X72487Y-76422D01*
X72372Y-76422D01*
X72315Y-76394D01*
X72287Y-76337D01*
X72287Y-76108D01*
X72315Y-76051D01*
X72372Y-76022D01*
X72487Y-76022D01*
X72544Y-76051D01*
X72572Y-76108D01*
X72572Y-76165D01*
X72287Y-76222D01*
X72830Y-76365D02*
X72858Y-76394D01*
X72830Y-76422D01*
X72801Y-76394D01*
X72830Y-76365D01*
X72830Y-76422D01*
X72830Y-76051D02*
X72858Y-76080D01*
X72830Y-76108D01*
X72801Y-76080D01*
X72830Y-76051D01*
X72830Y-76108D01*
X73544Y-76251D02*
X73830Y-76251D01*
X73487Y-76422D02*
X73687Y-75822D01*
X73887Y-76422D01*
X74344Y-76022D02*
X74344Y-76422D01*
X74201Y-75794D02*
X74058Y-76222D01*
X74430Y-76222D01*
X104172Y-77622D02*
X104172Y-77022D01*
X104715Y-77622D02*
X104715Y-77022D01*
X104715Y-77594D02*
X104658Y-77622D01*
X104544Y-77622D01*
X104487Y-77594D01*
X104458Y-77565D01*
X104430Y-77508D01*
X104430Y-77337D01*
X104458Y-77280D01*
X104487Y-77251D01*
X104544Y-77222D01*
X104658Y-77222D01*
X104715Y-77251D01*
X105001Y-77565D02*
X105030Y-77594D01*
X105001Y-77622D01*
X104972Y-77594D01*
X105001Y-77565D01*
X105001Y-77622D01*
X105001Y-77251D02*
X105030Y-77280D01*
X105001Y-77308D01*
X104972Y-77280D01*
X105001Y-77251D01*
X105001Y-77308D01*
X106058Y-77622D02*
X105715Y-77622D01*
X105887Y-77622D02*
X105887Y-77022D01*
X105829Y-77108D01*
X105772Y-77165D01*
X105715Y-77194D01*
X106744Y-76994D02*
X106230Y-77765D01*
X107258Y-77622D02*
X106915Y-77622D01*
X107087Y-77622D02*
X107087Y-77022D01*
X107029Y-77108D01*
X106972Y-77165D01*
X106915Y-77194D01*
X70969Y-74622D02*
X71312Y-74622D01*
X71065Y-75222D02*
X71140Y-74622D01*
X71437Y-75222D02*
X71487Y-74822D01*
X71512Y-74622D02*
X71480Y-74651D01*
X71505Y-74680D01*
X71537Y-74651D01*
X71512Y-74622D01*
X71505Y-74680D01*
X71687Y-74822D02*
X71915Y-74822D01*
X71797Y-74622D02*
X71733Y-75137D01*
X71755Y-75194D01*
X71808Y-75222D01*
X71865Y-75222D01*
X72151Y-75222D02*
X72097Y-75194D01*
X72076Y-75137D01*
X72140Y-74622D01*
X72612Y-75194D02*
X72551Y-75222D01*
X72437Y-75222D01*
X72383Y-75194D01*
X72362Y-75137D01*
X72390Y-74908D01*
X72426Y-74851D01*
X72487Y-74822D01*
X72601Y-74822D01*
X72655Y-74851D01*
X72676Y-74908D01*
X72669Y-74965D01*
X72376Y-75022D01*
X72901Y-75165D02*
X72926Y-75194D01*
X72894Y-75222D01*
X72869Y-75194D01*
X72901Y-75165D01*
X72894Y-75222D01*
X72940Y-74851D02*
X72965Y-74880D01*
X72933Y-74908D01*
X72908Y-74880D01*
X72940Y-74851D01*
X72933Y-74908D01*
X73626Y-74622D02*
X73969Y-74622D01*
X73722Y-75222D02*
X73797Y-74622D01*
X74094Y-75222D02*
X74144Y-74822D01*
X74169Y-74622D02*
X74137Y-74651D01*
X74162Y-74680D01*
X74194Y-74651D01*
X74169Y-74622D01*
X74162Y-74680D01*
X74380Y-75222D02*
X74455Y-74622D01*
X74722Y-75222D01*
X74797Y-74622D01*
X75001Y-75051D02*
X75287Y-75051D01*
X74922Y-75222D02*
X75197Y-74622D01*
X75322Y-75222D01*
X76008Y-74994D02*
X76465Y-74994D01*
X77530Y-75165D02*
X77497Y-75194D01*
X77408Y-75222D01*
X77351Y-75222D01*
X77269Y-75194D01*
X77219Y-75137D01*
X77197Y-75080D01*
X77183Y-74965D01*
X77194Y-74880D01*
X77237Y-74765D01*
X77272Y-74708D01*
X77337Y-74651D01*
X77426Y-74622D01*
X77483Y-74622D01*
X77565Y-74651D01*
X77590Y-74680D01*
X77865Y-75222D02*
X77812Y-75194D01*
X77787Y-75165D01*
X77765Y-75108D01*
X77787Y-74937D01*
X77822Y-74880D01*
X77855Y-74851D01*
X77915Y-74822D01*
X78001Y-74822D01*
X78055Y-74851D01*
X78080Y-74880D01*
X78101Y-74937D01*
X78080Y-75108D01*
X78044Y-75165D01*
X78012Y-75194D01*
X77951Y-75222D01*
X77865Y-75222D01*
X78372Y-74822D02*
X78322Y-75222D01*
X78365Y-74880D02*
X78397Y-74851D01*
X78458Y-74822D01*
X78544Y-74822D01*
X78597Y-74851D01*
X78619Y-74908D01*
X78580Y-75222D01*
X78830Y-74822D02*
X79058Y-74822D01*
X78940Y-74622D02*
X78876Y-75137D01*
X78897Y-75194D01*
X78951Y-75222D01*
X79008Y-75222D01*
X79208Y-75222D02*
X79258Y-74822D01*
X79244Y-74937D02*
X79280Y-74880D01*
X79312Y-74851D01*
X79372Y-74822D01*
X79430Y-74822D01*
X79665Y-75222D02*
X79612Y-75194D01*
X79587Y-75165D01*
X79565Y-75108D01*
X79587Y-74937D01*
X79622Y-74880D01*
X79655Y-74851D01*
X79715Y-74822D01*
X79801Y-74822D01*
X79855Y-74851D01*
X79880Y-74880D01*
X79901Y-74937D01*
X79880Y-75108D01*
X79844Y-75165D01*
X79812Y-75194D01*
X79751Y-75222D01*
X79665Y-75222D01*
X80208Y-75222D02*
X80155Y-75194D01*
X80133Y-75137D01*
X80197Y-74622D01*
X80522Y-75222D02*
X80469Y-75194D01*
X80447Y-75137D01*
X80512Y-74622D01*
X80983Y-75194D02*
X80922Y-75222D01*
X80808Y-75222D01*
X80755Y-75194D01*
X80733Y-75137D01*
X80762Y-74908D01*
X80797Y-74851D01*
X80858Y-74822D01*
X80972Y-74822D01*
X81026Y-74851D01*
X81047Y-74908D01*
X81040Y-74965D01*
X80747Y-75022D01*
X81265Y-75222D02*
X81315Y-74822D01*
X81301Y-74937D02*
X81337Y-74880D01*
X81369Y-74851D01*
X81430Y-74822D01*
X81487Y-74822D01*
X82058Y-74822D02*
X82287Y-74822D01*
X82094Y-75222D02*
X82158Y-74708D01*
X82194Y-74651D01*
X82255Y-74622D01*
X82312Y-74622D01*
X82522Y-75222D02*
X82469Y-75194D01*
X82444Y-75165D01*
X82422Y-75108D01*
X82444Y-74937D01*
X82480Y-74880D01*
X82512Y-74851D01*
X82572Y-74822D01*
X82658Y-74822D01*
X82712Y-74851D01*
X82737Y-74880D01*
X82758Y-74937D01*
X82737Y-75108D01*
X82701Y-75165D01*
X82669Y-75194D01*
X82608Y-75222D01*
X82522Y-75222D01*
X82980Y-75222D02*
X83030Y-74822D01*
X83015Y-74937D02*
X83051Y-74880D01*
X83083Y-74851D01*
X83144Y-74822D01*
X83201Y-74822D01*
X83797Y-74622D02*
X84140Y-74622D01*
X83894Y-75222D02*
X83969Y-74622D01*
X84265Y-75222D02*
X84315Y-74822D01*
X84340Y-74622D02*
X84308Y-74651D01*
X84333Y-74680D01*
X84365Y-74651D01*
X84340Y-74622D01*
X84333Y-74680D01*
X84551Y-75222D02*
X84626Y-74622D01*
X84772Y-75051D01*
X85026Y-74622D01*
X84951Y-75222D01*
X71172Y-72508D02*
X70972Y-72508D01*
X70972Y-72822D02*
X70972Y-72222D01*
X71258Y-72222D01*
X71487Y-72822D02*
X71487Y-72422D01*
X71487Y-72222D02*
X71458Y-72251D01*
X71487Y-72280D01*
X71515Y-72251D01*
X71487Y-72222D01*
X71487Y-72280D01*
X71858Y-72822D02*
X71801Y-72794D01*
X71772Y-72737D01*
X71772Y-72222D01*
X72315Y-72794D02*
X72258Y-72822D01*
X72144Y-72822D01*
X72087Y-72794D01*
X72058Y-72737D01*
X72058Y-72508D01*
X72087Y-72451D01*
X72144Y-72422D01*
X72258Y-72422D01*
X72315Y-72451D01*
X72344Y-72508D01*
X72344Y-72565D01*
X72058Y-72622D01*
X72601Y-72765D02*
X72630Y-72794D01*
X72601Y-72822D01*
X72572Y-72794D01*
X72601Y-72765D01*
X72601Y-72822D01*
X72601Y-72451D02*
X72630Y-72480D01*
X72601Y-72508D01*
X72572Y-72480D01*
X72601Y-72451D01*
X72601Y-72508D01*
X73601Y-72422D02*
X73601Y-72822D01*
X73344Y-72422D02*
X73344Y-72737D01*
X73372Y-72794D01*
X73430Y-72822D01*
X73515Y-72822D01*
X73572Y-72794D01*
X73601Y-72765D01*
X74230Y-72765D02*
X74201Y-72794D01*
X74115Y-72822D01*
X74058Y-72822D01*
X73972Y-72794D01*
X73915Y-72737D01*
X73887Y-72680D01*
X73858Y-72565D01*
X73858Y-72480D01*
X73887Y-72365D01*
X73915Y-72308D01*
X73972Y-72251D01*
X74058Y-72222D01*
X74115Y-72222D01*
X74201Y-72251D01*
X74230Y-72280D01*
X74572Y-72822D02*
X74515Y-72794D01*
X74487Y-72765D01*
X74458Y-72708D01*
X74458Y-72537D01*
X74487Y-72480D01*
X74515Y-72451D01*
X74572Y-72422D01*
X74658Y-72422D01*
X74715Y-72451D01*
X74744Y-72480D01*
X74772Y-72537D01*
X74772Y-72708D01*
X74744Y-72765D01*
X74715Y-72794D01*
X74658Y-72822D01*
X74572Y-72822D01*
X75030Y-72422D02*
X75030Y-72822D01*
X75030Y-72480D02*
X75058Y-72451D01*
X75115Y-72422D01*
X75201Y-72422D01*
X75258Y-72451D01*
X75287Y-72508D01*
X75287Y-72822D01*
X75487Y-72422D02*
X75715Y-72422D01*
X75572Y-72222D02*
X75572Y-72737D01*
X75601Y-72794D01*
X75658Y-72822D01*
X75715Y-72822D01*
X75915Y-72822D02*
X75915Y-72422D01*
X75915Y-72537D02*
X75944Y-72480D01*
X75972Y-72451D01*
X76030Y-72422D01*
X76087Y-72422D01*
X76372Y-72822D02*
X76315Y-72794D01*
X76287Y-72765D01*
X76258Y-72708D01*
X76258Y-72537D01*
X76287Y-72480D01*
X76315Y-72451D01*
X76372Y-72422D01*
X76458Y-72422D01*
X76515Y-72451D01*
X76544Y-72480D01*
X76572Y-72537D01*
X76572Y-72708D01*
X76544Y-72765D01*
X76515Y-72794D01*
X76458Y-72822D01*
X76372Y-72822D01*
X76915Y-72822D02*
X76858Y-72794D01*
X76830Y-72737D01*
X76830Y-72222D01*
X77001Y-72880D02*
X77458Y-72880D01*
X77544Y-72422D02*
X77687Y-72822D01*
X77830Y-72422D01*
X78001Y-72222D02*
X78372Y-72222D01*
X78172Y-72451D01*
X78258Y-72451D01*
X78315Y-72480D01*
X78344Y-72508D01*
X78372Y-72565D01*
X78372Y-72708D01*
X78344Y-72765D01*
X78315Y-72794D01*
X78258Y-72822D01*
X78087Y-72822D01*
X78030Y-72794D01*
X78001Y-72765D01*
X78630Y-72765D02*
X78658Y-72794D01*
X78630Y-72822D01*
X78601Y-72794D01*
X78630Y-72765D01*
X78630Y-72822D01*
X78915Y-72822D02*
X78915Y-72222D01*
X78972Y-72594D02*
X79144Y-72822D01*
X79144Y-72422D02*
X78915Y-72651D01*
X79401Y-72822D02*
X79401Y-72422D01*
X79401Y-72222D02*
X79372Y-72251D01*
X79401Y-72280D01*
X79430Y-72251D01*
X79401Y-72222D01*
X79401Y-72280D01*
X79944Y-72794D02*
X79887Y-72822D01*
X79772Y-72822D01*
X79715Y-72794D01*
X79687Y-72765D01*
X79658Y-72708D01*
X79658Y-72537D01*
X79687Y-72480D01*
X79715Y-72451D01*
X79772Y-72422D01*
X79887Y-72422D01*
X79944Y-72451D01*
X80458Y-72822D02*
X80458Y-72508D01*
X80430Y-72451D01*
X80372Y-72422D01*
X80258Y-72422D01*
X80201Y-72451D01*
X80458Y-72794D02*
X80401Y-72822D01*
X80258Y-72822D01*
X80201Y-72794D01*
X80172Y-72737D01*
X80172Y-72680D01*
X80201Y-72622D01*
X80258Y-72594D01*
X80401Y-72594D01*
X80458Y-72565D01*
X81001Y-72822D02*
X81001Y-72222D01*
X81001Y-72794D02*
X80944Y-72822D01*
X80830Y-72822D01*
X80772Y-72794D01*
X80744Y-72765D01*
X80715Y-72708D01*
X80715Y-72537D01*
X80744Y-72480D01*
X80772Y-72451D01*
X80830Y-72422D01*
X80944Y-72422D01*
X81001Y-72451D01*
X81144Y-72880D02*
X81601Y-72880D01*
X81744Y-72422D02*
X81744Y-73022D01*
X81744Y-72451D02*
X81801Y-72422D01*
X81915Y-72422D01*
X81972Y-72451D01*
X82001Y-72480D01*
X82030Y-72537D01*
X82030Y-72708D01*
X82001Y-72765D01*
X81972Y-72794D01*
X81915Y-72822D01*
X81801Y-72822D01*
X81744Y-72794D01*
X82544Y-72794D02*
X82487Y-72822D01*
X82372Y-72822D01*
X82315Y-72794D01*
X82287Y-72765D01*
X82258Y-72708D01*
X82258Y-72537D01*
X82287Y-72480D01*
X82315Y-72451D01*
X82372Y-72422D01*
X82487Y-72422D01*
X82544Y-72451D01*
X82801Y-72822D02*
X82801Y-72222D01*
X82801Y-72451D02*
X82858Y-72422D01*
X82972Y-72422D01*
X83030Y-72451D01*
X83058Y-72480D01*
X83087Y-72537D01*
X83087Y-72708D01*
X83058Y-72765D01*
X83030Y-72794D01*
X82972Y-72822D01*
X82858Y-72822D01*
X82801Y-72794D01*
X70944Y-73994D02*
X71030Y-74022D01*
X71172Y-74022D01*
X71230Y-73994D01*
X71258Y-73965D01*
X71287Y-73908D01*
X71287Y-73851D01*
X71258Y-73794D01*
X71230Y-73765D01*
X71172Y-73737D01*
X71058Y-73708D01*
X71001Y-73680D01*
X70972Y-73651D01*
X70944Y-73594D01*
X70944Y-73537D01*
X70972Y-73480D01*
X71001Y-73451D01*
X71058Y-73422D01*
X71201Y-73422D01*
X71287Y-73451D01*
X71544Y-74022D02*
X71544Y-73422D01*
X71801Y-74022D02*
X71801Y-73708D01*
X71772Y-73651D01*
X71715Y-73622D01*
X71630Y-73622D01*
X71572Y-73651D01*
X71544Y-73680D01*
X72315Y-73994D02*
X72258Y-74022D01*
X72144Y-74022D01*
X72087Y-73994D01*
X72058Y-73937D01*
X72058Y-73708D01*
X72087Y-73651D01*
X72144Y-73622D01*
X72258Y-73622D01*
X72315Y-73651D01*
X72344Y-73708D01*
X72344Y-73765D01*
X72058Y-73822D01*
X72830Y-73994D02*
X72772Y-74022D01*
X72658Y-74022D01*
X72601Y-73994D01*
X72572Y-73937D01*
X72572Y-73708D01*
X72601Y-73651D01*
X72658Y-73622D01*
X72772Y-73622D01*
X72830Y-73651D01*
X72858Y-73708D01*
X72858Y-73765D01*
X72572Y-73822D01*
X73030Y-73622D02*
X73258Y-73622D01*
X73115Y-73422D02*
X73115Y-73937D01*
X73144Y-73994D01*
X73201Y-74022D01*
X73258Y-74022D01*
X73458Y-73965D02*
X73487Y-73994D01*
X73458Y-74022D01*
X73430Y-73994D01*
X73458Y-73965D01*
X73458Y-74022D01*
X73458Y-73651D02*
X73487Y-73680D01*
X73458Y-73708D01*
X73430Y-73680D01*
X73458Y-73651D01*
X73458Y-73708D01*
X70997Y-71022D02*
X71065Y-71622D01*
X71233Y-71194D01*
X71294Y-71622D01*
X71512Y-71022D01*
X71658Y-71222D02*
X71751Y-71622D01*
X71944Y-71222D02*
X71751Y-71622D01*
X71676Y-71765D01*
X71644Y-71794D01*
X71583Y-71822D01*
X72208Y-71622D02*
X72155Y-71594D01*
X72130Y-71565D01*
X72108Y-71508D01*
X72130Y-71337D01*
X72165Y-71280D01*
X72197Y-71251D01*
X72258Y-71222D01*
X72344Y-71222D01*
X72397Y-71251D01*
X72422Y-71280D01*
X72444Y-71337D01*
X72422Y-71508D01*
X72387Y-71565D01*
X72355Y-71594D01*
X72294Y-71622D01*
X72208Y-71622D01*
X72951Y-71622D02*
X72665Y-71622D01*
X72740Y-71022D01*
X73458Y-71222D02*
X73408Y-71622D01*
X73201Y-71222D02*
X73162Y-71537D01*
X73183Y-71594D01*
X73237Y-71622D01*
X73322Y-71622D01*
X73383Y-71594D01*
X73415Y-71565D01*
X73694Y-71622D02*
X73744Y-71222D01*
X73737Y-71280D02*
X73769Y-71251D01*
X73829Y-71222D01*
X73915Y-71222D01*
X73969Y-71251D01*
X73990Y-71308D01*
X73951Y-71622D01*
X73990Y-71308D02*
X74026Y-71251D01*
X74087Y-71222D01*
X74172Y-71222D01*
X74226Y-71251D01*
X74247Y-71308D01*
X74208Y-71622D01*
X70915Y-70022D02*
X71030Y-70422D01*
X71144Y-70137D01*
X71258Y-70422D01*
X71372Y-70022D01*
X71544Y-70022D02*
X71658Y-70422D01*
X71772Y-70137D01*
X71887Y-70422D01*
X72001Y-70022D01*
X72172Y-70022D02*
X72287Y-70422D01*
X72401Y-70137D01*
X72515Y-70422D01*
X72629Y-70022D01*
X72858Y-70365D02*
X72887Y-70394D01*
X72858Y-70422D01*
X72829Y-70394D01*
X72858Y-70365D01*
X72858Y-70422D01*
X73087Y-70022D02*
X73201Y-70422D01*
X73315Y-70137D01*
X73429Y-70422D01*
X73544Y-70022D01*
X73715Y-70022D02*
X73858Y-70422D01*
X74001Y-70022D02*
X73858Y-70422D01*
X73801Y-70565D01*
X73772Y-70594D01*
X73715Y-70622D01*
X74315Y-70422D02*
X74258Y-70394D01*
X74229Y-70365D01*
X74201Y-70308D01*
X74201Y-70137D01*
X74229Y-70080D01*
X74258Y-70051D01*
X74315Y-70022D01*
X74401Y-70022D01*
X74458Y-70051D01*
X74487Y-70080D01*
X74515Y-70137D01*
X74515Y-70308D01*
X74487Y-70365D01*
X74458Y-70394D01*
X74401Y-70422D01*
X74315Y-70422D01*
X74858Y-70422D02*
X74801Y-70394D01*
X74772Y-70337D01*
X74772Y-69822D01*
X75344Y-70022D02*
X75344Y-70422D01*
X75087Y-70022D02*
X75087Y-70337D01*
X75115Y-70394D01*
X75172Y-70422D01*
X75258Y-70422D01*
X75315Y-70394D01*
X75344Y-70365D01*
X75629Y-70422D02*
X75629Y-70022D01*
X75629Y-70080D02*
X75658Y-70051D01*
X75715Y-70022D01*
X75801Y-70022D01*
X75858Y-70051D01*
X75887Y-70108D01*
X75887Y-70422D01*
X75887Y-70108D02*
X75915Y-70051D01*
X75972Y-70022D01*
X76058Y-70022D01*
X76115Y-70051D01*
X76144Y-70108D01*
X76144Y-70422D01*
X76429Y-70365D02*
X76458Y-70394D01*
X76429Y-70422D01*
X76401Y-70394D01*
X76429Y-70365D01*
X76429Y-70422D01*
X76972Y-70394D02*
X76915Y-70422D01*
X76801Y-70422D01*
X76744Y-70394D01*
X76715Y-70365D01*
X76687Y-70308D01*
X76687Y-70137D01*
X76715Y-70080D01*
X76744Y-70051D01*
X76801Y-70022D01*
X76915Y-70022D01*
X76972Y-70051D01*
X77315Y-70422D02*
X77258Y-70394D01*
X77229Y-70365D01*
X77201Y-70308D01*
X77201Y-70137D01*
X77229Y-70080D01*
X77258Y-70051D01*
X77315Y-70022D01*
X77401Y-70022D01*
X77458Y-70051D01*
X77487Y-70080D01*
X77515Y-70137D01*
X77515Y-70308D01*
X77487Y-70365D01*
X77458Y-70394D01*
X77401Y-70422D01*
X77315Y-70422D01*
X77772Y-70422D02*
X77772Y-70022D01*
X77772Y-70080D02*
X77801Y-70051D01*
X77858Y-70022D01*
X77944Y-70022D01*
X78001Y-70051D01*
X78029Y-70108D01*
X78029Y-70422D01*
X78029Y-70108D02*
X78058Y-70051D01*
X78115Y-70022D01*
X78201Y-70022D01*
X78258Y-70051D01*
X78287Y-70108D01*
X78287Y-70422D01*
X70230Y-69580D02*
X70230Y-77980D01*
X70230Y-71980D02*
X112230Y-71980D01*
X70230Y-69580D02*
X112230Y-69580D01*
X70230Y-74380D02*
X112230Y-74380D01*
X103430Y-75580D02*
X103430Y-77980D01*
X70230Y-76780D02*
X112230Y-76780D01*
X70230Y-75580D02*
X112230Y-75580D01*
X76830Y-75580D02*
X76830Y-76780D01*
G54D11*
X63751Y-15913D02*
X63734Y-15896D01*
X63718Y-15863D01*
X63718Y-15780D01*
X63734Y-15746D01*
X63751Y-15730D01*
X63784Y-15713D01*
X63818Y-15713D01*
X63868Y-15730D01*
X64068Y-15930D01*
X64068Y-15713D01*
X63718Y-15413D02*
X63718Y-15480D01*
X63734Y-15513D01*
X63751Y-15530D01*
X63801Y-15563D01*
X63868Y-15580D01*
X64001Y-15580D01*
X64034Y-15563D01*
X64051Y-15546D01*
X64068Y-15513D01*
X64068Y-15446D01*
X64051Y-15413D01*
X64034Y-15396D01*
X64001Y-15380D01*
X63918Y-15380D01*
X63884Y-15396D01*
X63868Y-15413D01*
X63851Y-15446D01*
X63851Y-15513D01*
X63868Y-15546D01*
X63884Y-15563D01*
X63918Y-15580D01*
X64068Y-15230D02*
X63834Y-15230D01*
X63868Y-15230D02*
X63851Y-15213D01*
X63834Y-15180D01*
X63834Y-15130D01*
X63851Y-15096D01*
X63884Y-15080D01*
X64068Y-15080D01*
X63884Y-15080D02*
X63851Y-15063D01*
X63834Y-15030D01*
X63834Y-14980D01*
X63851Y-14946D01*
X63884Y-14930D01*
X64068Y-14930D01*
X64068Y-14763D02*
X63834Y-14763D01*
X63868Y-14763D02*
X63851Y-14746D01*
X63834Y-14713D01*
X63834Y-14663D01*
X63851Y-14630D01*
X63884Y-14613D01*
X64068Y-14613D01*
X63884Y-14613D02*
X63851Y-14596D01*
X63834Y-14563D01*
X63834Y-14513D01*
X63851Y-14480D01*
X63884Y-14463D01*
X64068Y-14463D01*
X64201Y-20298D02*
X64201Y-10062D01*
X70884Y-20298D02*
X63651Y-20298D01*
X70884Y-10062D02*
X63651Y-10062D01*
X64201Y-10062D02*
X64432Y-10505D01*
X64201Y-10062D02*
X63970Y-10505D01*
X64201Y-20298D02*
X64432Y-19854D01*
X64201Y-20298D02*
X63970Y-19854D01*
X65300Y-17780D02*
X65317Y-17763D01*
X65350Y-17746D01*
X65434Y-17746D01*
X65467Y-17763D01*
X65484Y-17780D01*
X65500Y-17813D01*
X65500Y-17846D01*
X65484Y-17896D01*
X65284Y-18096D01*
X65500Y-18096D01*
X65834Y-18096D02*
X65634Y-18096D01*
X65734Y-18096D02*
X65734Y-17746D01*
X65700Y-17796D01*
X65667Y-17830D01*
X65634Y-17846D01*
X65984Y-18063D02*
X66000Y-18080D01*
X65984Y-18096D01*
X65967Y-18080D01*
X65984Y-18063D01*
X65984Y-18096D01*
X66217Y-17746D02*
X66250Y-17746D01*
X66284Y-17763D01*
X66300Y-17780D01*
X66317Y-17813D01*
X66334Y-17880D01*
X66334Y-17963D01*
X66317Y-18030D01*
X66300Y-18063D01*
X66284Y-18080D01*
X66250Y-18096D01*
X66217Y-18096D01*
X66184Y-18080D01*
X66167Y-18063D01*
X66150Y-18030D01*
X66134Y-17963D01*
X66134Y-17880D01*
X66150Y-17813D01*
X66167Y-17780D01*
X66184Y-17763D01*
X66217Y-17746D01*
X66550Y-17746D02*
X66584Y-17746D01*
X66617Y-17763D01*
X66634Y-17780D01*
X66650Y-17813D01*
X66667Y-17880D01*
X66667Y-17963D01*
X66650Y-18030D01*
X66634Y-18063D01*
X66617Y-18080D01*
X66584Y-18096D01*
X66550Y-18096D01*
X66517Y-18080D01*
X66500Y-18063D01*
X66484Y-18030D01*
X66467Y-17963D01*
X66467Y-17880D01*
X66484Y-17813D01*
X66500Y-17780D01*
X66517Y-17763D01*
X66550Y-17746D01*
X66884Y-17746D02*
X66917Y-17746D01*
X66950Y-17763D01*
X66967Y-17780D01*
X66984Y-17813D01*
X67000Y-17880D01*
X67000Y-17963D01*
X66984Y-18030D01*
X66967Y-18063D01*
X66950Y-18080D01*
X66917Y-18096D01*
X66884Y-18096D01*
X66850Y-18080D01*
X66834Y-18063D01*
X66817Y-18030D01*
X66800Y-17963D01*
X66800Y-17880D01*
X66817Y-17813D01*
X66834Y-17780D01*
X66850Y-17763D01*
X66884Y-17746D01*
X67417Y-18096D02*
X67417Y-17863D01*
X67417Y-17896D02*
X67434Y-17880D01*
X67467Y-17863D01*
X67517Y-17863D01*
X67550Y-17880D01*
X67567Y-17913D01*
X67567Y-18096D01*
X67567Y-17913D02*
X67584Y-17880D01*
X67617Y-17863D01*
X67667Y-17863D01*
X67700Y-17880D01*
X67717Y-17913D01*
X67717Y-18096D01*
X67884Y-18096D02*
X67884Y-17863D01*
X67884Y-17896D02*
X67900Y-17880D01*
X67934Y-17863D01*
X67984Y-17863D01*
X68017Y-17880D01*
X68034Y-17913D01*
X68034Y-18096D01*
X68034Y-17913D02*
X68050Y-17880D01*
X68084Y-17863D01*
X68134Y-17863D01*
X68167Y-17880D01*
X68184Y-17913D01*
X68184Y-18096D01*
X62616Y-17680D02*
X70884Y-17680D01*
X62616Y-10062D02*
X62616Y-18230D01*
X70884Y-10062D02*
X70884Y-18230D01*
X70884Y-17680D02*
X70441Y-17911D01*
X70884Y-17680D02*
X70441Y-17449D01*
X62616Y-17680D02*
X63060Y-17911D01*
X62616Y-17680D02*
X63060Y-17449D01*
X60450Y-9281D02*
X60450Y-9347D01*
X60467Y-9381D01*
X60483Y-9397D01*
X60533Y-9431D01*
X60600Y-9447D01*
X60733Y-9447D01*
X60767Y-9431D01*
X60783Y-9414D01*
X60800Y-9381D01*
X60800Y-9314D01*
X60783Y-9281D01*
X60767Y-9264D01*
X60733Y-9247D01*
X60650Y-9247D01*
X60617Y-9264D01*
X60600Y-9281D01*
X60583Y-9314D01*
X60583Y-9381D01*
X60600Y-9414D01*
X60617Y-9431D01*
X60650Y-9447D01*
X60800Y-9097D02*
X60567Y-9097D01*
X60600Y-9097D02*
X60583Y-9081D01*
X60567Y-9047D01*
X60567Y-8997D01*
X60583Y-8964D01*
X60617Y-8947D01*
X60800Y-8947D01*
X60617Y-8947D02*
X60583Y-8931D01*
X60567Y-8897D01*
X60567Y-8847D01*
X60583Y-8814D01*
X60617Y-8797D01*
X60800Y-8797D01*
X60800Y-8631D02*
X60567Y-8631D01*
X60600Y-8631D02*
X60583Y-8614D01*
X60567Y-8581D01*
X60567Y-8531D01*
X60583Y-8497D01*
X60617Y-8481D01*
X60800Y-8481D01*
X60617Y-8481D02*
X60583Y-8464D01*
X60567Y-8431D01*
X60567Y-8381D01*
X60583Y-8347D01*
X60617Y-8331D01*
X60800Y-8331D01*
X60933Y-10062D02*
X60933Y-7700D01*
X62616Y-10062D02*
X60383Y-10062D01*
X62616Y-7700D02*
X60383Y-7700D01*
X60933Y-7700D02*
X61164Y-8143D01*
X60933Y-7700D02*
X60702Y-8143D01*
X60933Y-10062D02*
X61164Y-9618D01*
X60933Y-10062D02*
X60702Y-9618D01*
X34403Y-11974D02*
X34203Y-11974D01*
X34303Y-11974D02*
X34303Y-11624D01*
X34269Y-11674D01*
X34236Y-11708D01*
X34203Y-11724D01*
X34519Y-11624D02*
X34736Y-11624D01*
X34619Y-11758D01*
X34669Y-11758D01*
X34703Y-11774D01*
X34719Y-11791D01*
X34736Y-11824D01*
X34736Y-11908D01*
X34719Y-11941D01*
X34703Y-11958D01*
X34669Y-11974D01*
X34569Y-11974D01*
X34536Y-11958D01*
X34519Y-11941D01*
X34936Y-11774D02*
X34903Y-11758D01*
X34886Y-11741D01*
X34869Y-11708D01*
X34869Y-11691D01*
X34886Y-11658D01*
X34903Y-11641D01*
X34936Y-11624D01*
X35003Y-11624D01*
X35036Y-11641D01*
X35053Y-11658D01*
X35069Y-11691D01*
X35069Y-11708D01*
X35053Y-11741D01*
X35036Y-11758D01*
X35003Y-11774D01*
X34936Y-11774D01*
X34903Y-11791D01*
X34886Y-11808D01*
X34869Y-11841D01*
X34869Y-11908D01*
X34886Y-11941D01*
X34903Y-11958D01*
X34936Y-11974D01*
X35003Y-11974D01*
X35036Y-11958D01*
X35053Y-11941D01*
X35069Y-11908D01*
X35069Y-11841D01*
X35053Y-11808D01*
X35036Y-11791D01*
X35003Y-11774D01*
X35219Y-11941D02*
X35236Y-11958D01*
X35219Y-11974D01*
X35203Y-11958D01*
X35219Y-11941D01*
X35219Y-11974D01*
X35553Y-11624D02*
X35386Y-11624D01*
X35369Y-11791D01*
X35386Y-11774D01*
X35419Y-11758D01*
X35503Y-11758D01*
X35536Y-11774D01*
X35553Y-11791D01*
X35569Y-11824D01*
X35569Y-11908D01*
X35553Y-11941D01*
X35536Y-11958D01*
X35503Y-11974D01*
X35419Y-11974D01*
X35386Y-11958D01*
X35369Y-11941D01*
X35719Y-11974D02*
X35719Y-11741D01*
X35719Y-11774D02*
X35736Y-11758D01*
X35769Y-11741D01*
X35819Y-11741D01*
X35853Y-11758D01*
X35869Y-11791D01*
X35869Y-11974D01*
X35869Y-11791D02*
X35886Y-11758D01*
X35919Y-11741D01*
X35969Y-11741D01*
X36003Y-11758D01*
X36019Y-11791D01*
X36019Y-11974D01*
X36186Y-11974D02*
X36186Y-11741D01*
X36186Y-11774D02*
X36203Y-11758D01*
X36236Y-11741D01*
X36286Y-11741D01*
X36319Y-11758D01*
X36336Y-11791D01*
X36336Y-11974D01*
X36336Y-11791D02*
X36353Y-11758D01*
X36386Y-11741D01*
X36436Y-11741D01*
X36469Y-11758D01*
X36486Y-11791D01*
X36486Y-11974D01*
X62616Y-11558D02*
X8089Y-11558D01*
X62616Y-10062D02*
X62616Y-12108D01*
X8089Y-10062D02*
X8089Y-12108D01*
X8089Y-11558D02*
X8532Y-11327D01*
X8089Y-11558D02*
X8532Y-11789D01*
X62616Y-11558D02*
X62173Y-11327D01*
X62616Y-11558D02*
X62173Y-11789D01*
X6104Y-66355D02*
X5870Y-66355D01*
X6237Y-66271D02*
X5987Y-66188D01*
X5987Y-66405D01*
X5870Y-66538D02*
X6104Y-66538D01*
X6070Y-66538D02*
X6087Y-66555D01*
X6104Y-66588D01*
X6104Y-66638D01*
X6087Y-66671D01*
X6054Y-66688D01*
X5870Y-66688D01*
X6054Y-66688D02*
X6087Y-66705D01*
X6104Y-66738D01*
X6104Y-66788D01*
X6087Y-66821D01*
X6054Y-66838D01*
X5870Y-66838D01*
X5870Y-67005D02*
X6104Y-67005D01*
X6070Y-67005D02*
X6087Y-67021D01*
X6104Y-67055D01*
X6104Y-67105D01*
X6087Y-67138D01*
X6054Y-67155D01*
X5870Y-67155D01*
X6054Y-67155D02*
X6087Y-67171D01*
X6104Y-67205D01*
X6104Y-67255D01*
X6087Y-67288D01*
X6054Y-67305D01*
X5870Y-67305D01*
X6652Y-65967D02*
X6652Y-67542D01*
X9664Y-65967D02*
X6102Y-65967D01*
X9664Y-67542D02*
X6102Y-67542D01*
X6652Y-67542D02*
X6421Y-67099D01*
X6652Y-67542D02*
X6883Y-67099D01*
X6652Y-65967D02*
X6421Y-66411D01*
X6652Y-65967D02*
X6883Y-66411D01*
X8476Y-69537D02*
X8476Y-69770D01*
X8393Y-69404D02*
X8310Y-69654D01*
X8526Y-69654D01*
X8660Y-69770D02*
X8660Y-69537D01*
X8660Y-69570D02*
X8676Y-69554D01*
X8710Y-69537D01*
X8760Y-69537D01*
X8793Y-69554D01*
X8810Y-69587D01*
X8810Y-69770D01*
X8810Y-69587D02*
X8826Y-69554D01*
X8860Y-69537D01*
X8910Y-69537D01*
X8943Y-69554D01*
X8960Y-69587D01*
X8960Y-69770D01*
X9126Y-69770D02*
X9126Y-69537D01*
X9126Y-69570D02*
X9143Y-69554D01*
X9176Y-69537D01*
X9226Y-69537D01*
X9260Y-69554D01*
X9276Y-69587D01*
X9276Y-69770D01*
X9276Y-69587D02*
X9293Y-69554D01*
X9326Y-69537D01*
X9376Y-69537D01*
X9410Y-69554D01*
X9426Y-69587D01*
X9426Y-69770D01*
X9664Y-68979D02*
X8089Y-68979D01*
X9664Y-65967D02*
X9664Y-69529D01*
X8089Y-65967D02*
X8089Y-69529D01*
X8089Y-68979D02*
X8532Y-68748D01*
X8089Y-68979D02*
X8532Y-69210D01*
X9664Y-68979D02*
X9220Y-68748D01*
X9664Y-68979D02*
X9220Y-69210D01*
X28773Y-19919D02*
X28573Y-19919D01*
X28673Y-19919D02*
X28673Y-19569D01*
X28639Y-19619D01*
X28606Y-19652D01*
X28573Y-19669D01*
X28989Y-19569D02*
X29023Y-19569D01*
X29056Y-19585D01*
X29073Y-19602D01*
X29089Y-19635D01*
X29106Y-19702D01*
X29106Y-19785D01*
X29089Y-19852D01*
X29073Y-19885D01*
X29056Y-19902D01*
X29023Y-19919D01*
X28989Y-19919D01*
X28956Y-19902D01*
X28939Y-19885D01*
X28923Y-19852D01*
X28906Y-19785D01*
X28906Y-19702D01*
X28923Y-19635D01*
X28939Y-19602D01*
X28956Y-19585D01*
X28989Y-19569D01*
X29273Y-19919D02*
X29339Y-19919D01*
X29373Y-19902D01*
X29389Y-19885D01*
X29423Y-19835D01*
X29439Y-19769D01*
X29439Y-19635D01*
X29423Y-19602D01*
X29406Y-19585D01*
X29373Y-19569D01*
X29306Y-19569D01*
X29273Y-19585D01*
X29256Y-19602D01*
X29239Y-19635D01*
X29239Y-19719D01*
X29256Y-19752D01*
X29273Y-19769D01*
X29306Y-19785D01*
X29373Y-19785D01*
X29406Y-19769D01*
X29423Y-19752D01*
X29439Y-19719D01*
X29589Y-19885D02*
X29606Y-19902D01*
X29589Y-19919D01*
X29573Y-19902D01*
X29589Y-19885D01*
X29589Y-19919D01*
X29773Y-19919D02*
X29839Y-19919D01*
X29873Y-19902D01*
X29889Y-19885D01*
X29923Y-19835D01*
X29939Y-19769D01*
X29939Y-19635D01*
X29923Y-19602D01*
X29906Y-19585D01*
X29873Y-19569D01*
X29806Y-19569D01*
X29773Y-19585D01*
X29756Y-19602D01*
X29739Y-19635D01*
X29739Y-19719D01*
X29756Y-19752D01*
X29773Y-19769D01*
X29806Y-19785D01*
X29873Y-19785D01*
X29906Y-19769D01*
X29923Y-19752D01*
X29939Y-19719D01*
X30089Y-19919D02*
X30089Y-19685D01*
X30089Y-19719D02*
X30106Y-19702D01*
X30139Y-19685D01*
X30189Y-19685D01*
X30223Y-19702D01*
X30239Y-19735D01*
X30239Y-19919D01*
X30239Y-19735D02*
X30256Y-19702D01*
X30289Y-19685D01*
X30339Y-19685D01*
X30373Y-19702D01*
X30389Y-19735D01*
X30389Y-19919D01*
X30556Y-19919D02*
X30556Y-19685D01*
X30556Y-19719D02*
X30573Y-19702D01*
X30606Y-19685D01*
X30656Y-19685D01*
X30689Y-19702D01*
X30706Y-19735D01*
X30706Y-19919D01*
X30706Y-19735D02*
X30723Y-19702D01*
X30756Y-19685D01*
X30806Y-19685D01*
X30839Y-19702D01*
X30856Y-19735D01*
X30856Y-19919D01*
X51357Y-20052D02*
X8089Y-20052D01*
X51357Y-21833D02*
X51357Y-19502D01*
X8089Y-21833D02*
X8089Y-19502D01*
X8089Y-20052D02*
X8532Y-19821D01*
X8089Y-20052D02*
X8532Y-20283D01*
X51357Y-20052D02*
X50913Y-19821D01*
X51357Y-20052D02*
X50913Y-20283D01*
X49112Y-50858D02*
X49129Y-50824D01*
X49146Y-50808D01*
X49179Y-50791D01*
X49196Y-50791D01*
X49229Y-50808D01*
X49246Y-50824D01*
X49262Y-50858D01*
X49262Y-50924D01*
X49246Y-50958D01*
X49229Y-50974D01*
X49196Y-50991D01*
X49179Y-50991D01*
X49146Y-50974D01*
X49129Y-50958D01*
X49112Y-50924D01*
X49112Y-50858D01*
X49096Y-50824D01*
X49079Y-50808D01*
X49046Y-50791D01*
X48979Y-50791D01*
X48946Y-50808D01*
X48929Y-50824D01*
X48912Y-50858D01*
X48912Y-50924D01*
X48929Y-50958D01*
X48946Y-50974D01*
X48979Y-50991D01*
X49046Y-50991D01*
X49079Y-50974D01*
X49096Y-50958D01*
X49112Y-50924D01*
X49262Y-51208D02*
X49262Y-51241D01*
X49246Y-51274D01*
X49229Y-51291D01*
X49196Y-51308D01*
X49129Y-51324D01*
X49046Y-51324D01*
X48979Y-51308D01*
X48946Y-51291D01*
X48929Y-51274D01*
X48912Y-51241D01*
X48912Y-51208D01*
X48929Y-51174D01*
X48946Y-51158D01*
X48979Y-51141D01*
X49046Y-51124D01*
X49129Y-51124D01*
X49196Y-51141D01*
X49229Y-51158D01*
X49246Y-51174D01*
X49262Y-51208D01*
X48946Y-51474D02*
X48929Y-51491D01*
X48912Y-51474D01*
X48929Y-51458D01*
X48946Y-51474D01*
X48912Y-51474D01*
X48912Y-51824D02*
X48912Y-51624D01*
X48912Y-51724D02*
X49262Y-51724D01*
X49212Y-51691D01*
X49179Y-51658D01*
X49162Y-51624D01*
X48912Y-51974D02*
X49146Y-51974D01*
X49112Y-51974D02*
X49129Y-51991D01*
X49146Y-52024D01*
X49146Y-52074D01*
X49129Y-52108D01*
X49096Y-52124D01*
X48912Y-52124D01*
X49096Y-52124D02*
X49129Y-52141D01*
X49146Y-52174D01*
X49146Y-52224D01*
X49129Y-52258D01*
X49096Y-52274D01*
X48912Y-52274D01*
X48912Y-52441D02*
X49146Y-52441D01*
X49112Y-52441D02*
X49129Y-52458D01*
X49146Y-52491D01*
X49146Y-52541D01*
X49129Y-52574D01*
X49096Y-52591D01*
X48912Y-52591D01*
X49096Y-52591D02*
X49129Y-52608D01*
X49146Y-52641D01*
X49146Y-52691D01*
X49129Y-52724D01*
X49096Y-52741D01*
X48912Y-52741D01*
X49329Y-36007D02*
X49329Y-67542D01*
X51357Y-36007D02*
X48779Y-36007D01*
X51357Y-67542D02*
X48779Y-67542D01*
X49329Y-67542D02*
X49098Y-67099D01*
X49329Y-67542D02*
X49560Y-67099D01*
X49329Y-36007D02*
X49098Y-36450D01*
X49329Y-36007D02*
X49560Y-36450D01*
X49262Y-28170D02*
X49262Y-28387D01*
X49129Y-28270D01*
X49129Y-28320D01*
X49112Y-28353D01*
X49096Y-28370D01*
X49062Y-28387D01*
X48979Y-28387D01*
X48946Y-28370D01*
X48929Y-28353D01*
X48912Y-28320D01*
X48912Y-28220D01*
X48929Y-28187D01*
X48946Y-28170D01*
X49262Y-28687D02*
X49262Y-28620D01*
X49246Y-28587D01*
X49229Y-28570D01*
X49179Y-28537D01*
X49112Y-28520D01*
X48979Y-28520D01*
X48946Y-28537D01*
X48929Y-28553D01*
X48912Y-28587D01*
X48912Y-28653D01*
X48929Y-28687D01*
X48946Y-28703D01*
X48979Y-28720D01*
X49062Y-28720D01*
X49096Y-28703D01*
X49112Y-28687D01*
X49129Y-28653D01*
X49129Y-28587D01*
X49112Y-28553D01*
X49096Y-28537D01*
X49062Y-28520D01*
X48912Y-28870D02*
X49146Y-28870D01*
X49112Y-28870D02*
X49129Y-28887D01*
X49146Y-28920D01*
X49146Y-28970D01*
X49129Y-29003D01*
X49096Y-29020D01*
X48912Y-29020D01*
X49096Y-29020D02*
X49129Y-29037D01*
X49146Y-29070D01*
X49146Y-29120D01*
X49129Y-29153D01*
X49096Y-29170D01*
X48912Y-29170D01*
X48912Y-29337D02*
X49146Y-29337D01*
X49112Y-29337D02*
X49129Y-29353D01*
X49146Y-29387D01*
X49146Y-29437D01*
X49129Y-29470D01*
X49096Y-29487D01*
X48912Y-29487D01*
X49096Y-29487D02*
X49129Y-29503D01*
X49146Y-29537D01*
X49146Y-29587D01*
X49129Y-29620D01*
X49096Y-29637D01*
X48912Y-29637D01*
X49329Y-21833D02*
X49329Y-36007D01*
X51357Y-21833D02*
X48779Y-21833D01*
X51357Y-36007D02*
X48779Y-36007D01*
X49329Y-36007D02*
X49098Y-35563D01*
X49329Y-36007D02*
X49560Y-35563D01*
X49329Y-21833D02*
X49098Y-22277D01*
X49329Y-21833D02*
X49560Y-22277D01*
X65302Y-19918D02*
X65102Y-19918D01*
X65202Y-19918D02*
X65202Y-19568D01*
X65168Y-19618D01*
X65135Y-19651D01*
X65102Y-19668D01*
X65602Y-19685D02*
X65602Y-19918D01*
X65518Y-19551D02*
X65435Y-19801D01*
X65652Y-19801D01*
X65785Y-19918D02*
X65785Y-19685D01*
X65785Y-19718D02*
X65802Y-19701D01*
X65835Y-19685D01*
X65885Y-19685D01*
X65918Y-19701D01*
X65935Y-19735D01*
X65935Y-19918D01*
X65935Y-19735D02*
X65952Y-19701D01*
X65985Y-19685D01*
X66035Y-19685D01*
X66068Y-19701D01*
X66085Y-19735D01*
X66085Y-19918D01*
X66252Y-19918D02*
X66252Y-19685D01*
X66252Y-19718D02*
X66268Y-19701D01*
X66302Y-19685D01*
X66352Y-19685D01*
X66385Y-19701D01*
X66402Y-19735D01*
X66402Y-19918D01*
X66402Y-19735D02*
X66418Y-19701D01*
X66452Y-19685D01*
X66502Y-19685D01*
X66535Y-19701D01*
X66552Y-19735D01*
X66552Y-19918D01*
X62380Y-20052D02*
X67892Y-20052D01*
X62380Y-21833D02*
X62380Y-19502D01*
X67892Y-21833D02*
X67892Y-19502D01*
X67892Y-20052D02*
X67449Y-20283D01*
X67892Y-20052D02*
X67449Y-19821D01*
X62380Y-20052D02*
X62824Y-20283D01*
X62380Y-20052D02*
X62824Y-19821D01*
X59091Y-19919D02*
X58891Y-19919D01*
X58991Y-19919D02*
X58991Y-19569D01*
X58958Y-19619D01*
X58924Y-19652D01*
X58891Y-19669D01*
X59391Y-19685D02*
X59391Y-19919D01*
X59308Y-19552D02*
X59224Y-19802D01*
X59441Y-19802D01*
X59574Y-19919D02*
X59574Y-19685D01*
X59574Y-19719D02*
X59591Y-19702D01*
X59624Y-19685D01*
X59674Y-19685D01*
X59708Y-19702D01*
X59724Y-19735D01*
X59724Y-19919D01*
X59724Y-19735D02*
X59741Y-19702D01*
X59774Y-19685D01*
X59824Y-19685D01*
X59858Y-19702D01*
X59874Y-19735D01*
X59874Y-19919D01*
X60041Y-19919D02*
X60041Y-19685D01*
X60041Y-19719D02*
X60058Y-19702D01*
X60091Y-19685D01*
X60141Y-19685D01*
X60174Y-19702D01*
X60191Y-19735D01*
X60191Y-19919D01*
X60191Y-19735D02*
X60208Y-19702D01*
X60241Y-19685D01*
X60291Y-19685D01*
X60324Y-19702D01*
X60341Y-19735D01*
X60341Y-19919D01*
X56868Y-20052D02*
X62380Y-20052D01*
X56868Y-21833D02*
X56868Y-19502D01*
X62380Y-21833D02*
X62380Y-19502D01*
X62380Y-20052D02*
X61937Y-20283D01*
X62380Y-20052D02*
X61937Y-19821D01*
X56868Y-20052D02*
X57312Y-20283D01*
X56868Y-20052D02*
X57312Y-19821D01*
X53579Y-19919D02*
X53379Y-19919D01*
X53479Y-19919D02*
X53479Y-19569D01*
X53446Y-19619D01*
X53412Y-19652D01*
X53379Y-19669D01*
X53879Y-19685D02*
X53879Y-19919D01*
X53796Y-19552D02*
X53712Y-19802D01*
X53929Y-19802D01*
X54062Y-19919D02*
X54062Y-19685D01*
X54062Y-19719D02*
X54079Y-19702D01*
X54112Y-19685D01*
X54162Y-19685D01*
X54196Y-19702D01*
X54212Y-19735D01*
X54212Y-19919D01*
X54212Y-19735D02*
X54229Y-19702D01*
X54262Y-19685D01*
X54312Y-19685D01*
X54346Y-19702D01*
X54362Y-19735D01*
X54362Y-19919D01*
X54529Y-19919D02*
X54529Y-19685D01*
X54529Y-19719D02*
X54546Y-19702D01*
X54579Y-19685D01*
X54629Y-19685D01*
X54662Y-19702D01*
X54679Y-19735D01*
X54679Y-19919D01*
X54679Y-19735D02*
X54696Y-19702D01*
X54729Y-19685D01*
X54779Y-19685D01*
X54812Y-19702D01*
X54829Y-19735D01*
X54829Y-19919D01*
X51357Y-20052D02*
X56868Y-20052D01*
X51357Y-21833D02*
X51357Y-19502D01*
X56868Y-21833D02*
X56868Y-19502D01*
X56868Y-20052D02*
X56425Y-20283D01*
X56868Y-20052D02*
X56425Y-19821D01*
X51357Y-20052D02*
X51800Y-20283D01*
X51357Y-20052D02*
X51800Y-19821D01*
X23236Y-56520D02*
X23203Y-56503D01*
X23186Y-56486D01*
X23169Y-56453D01*
X23169Y-56436D01*
X23186Y-56403D01*
X23203Y-56386D01*
X23236Y-56370D01*
X23303Y-56370D01*
X23336Y-56386D01*
X23353Y-56403D01*
X23369Y-56436D01*
X23369Y-56453D01*
X23353Y-56486D01*
X23336Y-56503D01*
X23303Y-56520D01*
X23236Y-56520D01*
X23203Y-56536D01*
X23186Y-56553D01*
X23169Y-56586D01*
X23169Y-56653D01*
X23186Y-56686D01*
X23203Y-56703D01*
X23236Y-56720D01*
X23303Y-56720D01*
X23336Y-56703D01*
X23353Y-56686D01*
X23369Y-56653D01*
X23369Y-56586D01*
X23353Y-56553D01*
X23336Y-56536D01*
X23303Y-56520D01*
X23486Y-56370D02*
X23703Y-56370D01*
X23586Y-56503D01*
X23636Y-56503D01*
X23669Y-56520D01*
X23686Y-56536D01*
X23703Y-56570D01*
X23703Y-56653D01*
X23686Y-56686D01*
X23669Y-56703D01*
X23636Y-56720D01*
X23536Y-56720D01*
X23503Y-56703D01*
X23486Y-56686D01*
X23853Y-56686D02*
X23869Y-56703D01*
X23853Y-56720D01*
X23836Y-56703D01*
X23853Y-56686D01*
X23853Y-56720D01*
X24036Y-56720D02*
X24103Y-56720D01*
X24136Y-56703D01*
X24153Y-56686D01*
X24186Y-56636D01*
X24203Y-56570D01*
X24203Y-56436D01*
X24186Y-56403D01*
X24169Y-56386D01*
X24136Y-56370D01*
X24069Y-56370D01*
X24036Y-56386D01*
X24019Y-56403D01*
X24003Y-56436D01*
X24003Y-56520D01*
X24019Y-56553D01*
X24036Y-56570D01*
X24069Y-56586D01*
X24136Y-56586D01*
X24169Y-56570D01*
X24186Y-56553D01*
X24203Y-56520D01*
X24319Y-56370D02*
X24553Y-56370D01*
X24403Y-56720D01*
X24853Y-56370D02*
X24686Y-56370D01*
X24669Y-56536D01*
X24686Y-56520D01*
X24719Y-56503D01*
X24803Y-56503D01*
X24836Y-56520D01*
X24853Y-56536D01*
X24869Y-56570D01*
X24869Y-56653D01*
X24853Y-56686D01*
X24836Y-56703D01*
X24803Y-56720D01*
X24719Y-56720D01*
X24686Y-56703D01*
X24669Y-56686D01*
X25286Y-56720D02*
X25286Y-56486D01*
X25286Y-56520D02*
X25303Y-56503D01*
X25336Y-56486D01*
X25386Y-56486D01*
X25419Y-56503D01*
X25436Y-56536D01*
X25436Y-56720D01*
X25436Y-56536D02*
X25453Y-56503D01*
X25486Y-56486D01*
X25536Y-56486D01*
X25569Y-56503D01*
X25586Y-56536D01*
X25586Y-56720D01*
X25753Y-56720D02*
X25753Y-56486D01*
X25753Y-56520D02*
X25769Y-56503D01*
X25803Y-56486D01*
X25853Y-56486D01*
X25886Y-56503D01*
X25903Y-56536D01*
X25903Y-56720D01*
X25903Y-56536D02*
X25919Y-56503D01*
X25953Y-56486D01*
X26003Y-56486D01*
X26036Y-56503D01*
X26053Y-56536D01*
X26053Y-56720D01*
X41150Y-56853D02*
X8089Y-56853D01*
X41150Y-59520D02*
X41150Y-56303D01*
X8089Y-59520D02*
X8089Y-56303D01*
X8089Y-56853D02*
X8532Y-56622D01*
X8089Y-56853D02*
X8532Y-57084D01*
X41150Y-56853D02*
X40706Y-56622D01*
X41150Y-56853D02*
X40706Y-57084D01*
X39268Y-62081D02*
X39285Y-62098D01*
X39302Y-62131D01*
X39302Y-62215D01*
X39285Y-62248D01*
X39268Y-62265D01*
X39235Y-62281D01*
X39202Y-62281D01*
X39152Y-62265D01*
X38952Y-62065D01*
X38952Y-62281D01*
X39302Y-62498D02*
X39302Y-62531D01*
X39285Y-62565D01*
X39268Y-62581D01*
X39235Y-62598D01*
X39168Y-62615D01*
X39085Y-62615D01*
X39018Y-62598D01*
X38985Y-62581D01*
X38968Y-62565D01*
X38952Y-62531D01*
X38952Y-62498D01*
X38968Y-62465D01*
X38985Y-62448D01*
X39018Y-62431D01*
X39085Y-62415D01*
X39168Y-62415D01*
X39235Y-62431D01*
X39268Y-62448D01*
X39285Y-62465D01*
X39302Y-62498D01*
X38985Y-62765D02*
X38968Y-62781D01*
X38952Y-62765D01*
X38968Y-62748D01*
X38985Y-62765D01*
X38952Y-62765D01*
X39302Y-62898D02*
X39302Y-63115D01*
X39168Y-62998D01*
X39168Y-63048D01*
X39152Y-63081D01*
X39135Y-63098D01*
X39102Y-63115D01*
X39018Y-63115D01*
X38985Y-63098D01*
X38968Y-63081D01*
X38952Y-63048D01*
X38952Y-62948D01*
X38968Y-62915D01*
X38985Y-62898D01*
X39302Y-63231D02*
X39302Y-63465D01*
X38952Y-63315D01*
X39302Y-63765D02*
X39302Y-63598D01*
X39135Y-63581D01*
X39152Y-63598D01*
X39168Y-63631D01*
X39168Y-63715D01*
X39152Y-63748D01*
X39135Y-63765D01*
X39102Y-63781D01*
X39018Y-63781D01*
X38985Y-63765D01*
X38968Y-63748D01*
X38952Y-63715D01*
X38952Y-63631D01*
X38968Y-63598D01*
X38985Y-63581D01*
X38952Y-64198D02*
X39185Y-64198D01*
X39152Y-64198D02*
X39168Y-64215D01*
X39185Y-64248D01*
X39185Y-64298D01*
X39168Y-64331D01*
X39135Y-64348D01*
X38952Y-64348D01*
X39135Y-64348D02*
X39168Y-64365D01*
X39185Y-64398D01*
X39185Y-64448D01*
X39168Y-64481D01*
X39135Y-64498D01*
X38952Y-64498D01*
X38952Y-64665D02*
X39185Y-64665D01*
X39152Y-64665D02*
X39168Y-64681D01*
X39185Y-64715D01*
X39185Y-64765D01*
X39168Y-64798D01*
X39135Y-64815D01*
X38952Y-64815D01*
X39135Y-64815D02*
X39168Y-64831D01*
X39185Y-64865D01*
X39185Y-64915D01*
X39168Y-64948D01*
X39135Y-64965D01*
X38952Y-64965D01*
X39368Y-59520D02*
X39368Y-67542D01*
X41150Y-59520D02*
X38818Y-59520D01*
X41150Y-67542D02*
X38818Y-67542D01*
X39368Y-67542D02*
X39138Y-67099D01*
X39368Y-67542D02*
X39599Y-67099D01*
X39368Y-59520D02*
X39138Y-59964D01*
X39368Y-59520D02*
X39599Y-59964D01*
X17049Y-57228D02*
X16816Y-57228D01*
X17183Y-57145D02*
X16933Y-57062D01*
X16933Y-57278D01*
X17166Y-57578D02*
X17166Y-57412D01*
X16999Y-57395D01*
X17016Y-57412D01*
X17033Y-57445D01*
X17033Y-57528D01*
X17016Y-57562D01*
X16999Y-57578D01*
X16966Y-57595D01*
X16883Y-57595D01*
X16849Y-57578D01*
X16833Y-57562D01*
X16816Y-57528D01*
X16816Y-57445D01*
X16833Y-57412D01*
X16849Y-57395D01*
X16849Y-57745D02*
X16833Y-57762D01*
X16816Y-57745D01*
X16833Y-57728D01*
X16849Y-57745D01*
X16816Y-57745D01*
X17016Y-57962D02*
X17033Y-57928D01*
X17049Y-57912D01*
X17083Y-57895D01*
X17099Y-57895D01*
X17133Y-57912D01*
X17149Y-57928D01*
X17166Y-57962D01*
X17166Y-58028D01*
X17149Y-58062D01*
X17133Y-58078D01*
X17099Y-58095D01*
X17083Y-58095D01*
X17049Y-58078D01*
X17033Y-58062D01*
X17016Y-58028D01*
X17016Y-57962D01*
X16999Y-57928D01*
X16983Y-57912D01*
X16949Y-57895D01*
X16883Y-57895D01*
X16849Y-57912D01*
X16833Y-57928D01*
X16816Y-57962D01*
X16816Y-58028D01*
X16833Y-58062D01*
X16849Y-58078D01*
X16883Y-58095D01*
X16949Y-58095D01*
X16983Y-58078D01*
X16999Y-58062D01*
X17016Y-58028D01*
X17166Y-58212D02*
X17166Y-58445D01*
X16816Y-58295D01*
X17166Y-58745D02*
X17166Y-58578D01*
X16999Y-58562D01*
X17016Y-58578D01*
X17033Y-58612D01*
X17033Y-58695D01*
X17016Y-58728D01*
X16999Y-58745D01*
X16966Y-58762D01*
X16883Y-58762D01*
X16849Y-58745D01*
X16833Y-58728D01*
X16816Y-58695D01*
X16816Y-58612D01*
X16833Y-58578D01*
X16849Y-58562D01*
X16816Y-59178D02*
X17049Y-59178D01*
X17016Y-59178D02*
X17033Y-59195D01*
X17049Y-59228D01*
X17049Y-59278D01*
X17033Y-59312D01*
X16999Y-59328D01*
X16816Y-59328D01*
X16999Y-59328D02*
X17033Y-59345D01*
X17049Y-59378D01*
X17049Y-59428D01*
X17033Y-59462D01*
X16999Y-59478D01*
X16816Y-59478D01*
X16816Y-59645D02*
X17049Y-59645D01*
X17016Y-59645D02*
X17033Y-59662D01*
X17049Y-59695D01*
X17049Y-59745D01*
X17033Y-59778D01*
X16999Y-59795D01*
X16816Y-59795D01*
X16999Y-59795D02*
X17033Y-59812D01*
X17049Y-59845D01*
X17049Y-59895D01*
X17033Y-59928D01*
X16999Y-59945D01*
X16816Y-59945D01*
X17233Y-49481D02*
X17233Y-67542D01*
X19300Y-49481D02*
X16683Y-49481D01*
X19300Y-67542D02*
X16683Y-67542D01*
X17233Y-67542D02*
X17002Y-67099D01*
X17233Y-67542D02*
X17463Y-67099D01*
X17233Y-49481D02*
X17002Y-49925D01*
X17233Y-49481D02*
X17463Y-49925D01*
X12244Y-47181D02*
X12261Y-47164D01*
X12294Y-47147D01*
X12378Y-47147D01*
X12411Y-47164D01*
X12428Y-47181D01*
X12444Y-47214D01*
X12444Y-47247D01*
X12428Y-47297D01*
X12228Y-47497D01*
X12444Y-47497D01*
X12644Y-47297D02*
X12611Y-47281D01*
X12594Y-47264D01*
X12578Y-47231D01*
X12578Y-47214D01*
X12594Y-47181D01*
X12611Y-47164D01*
X12644Y-47147D01*
X12711Y-47147D01*
X12744Y-47164D01*
X12761Y-47181D01*
X12778Y-47214D01*
X12778Y-47231D01*
X12761Y-47264D01*
X12744Y-47281D01*
X12711Y-47297D01*
X12644Y-47297D01*
X12611Y-47314D01*
X12594Y-47331D01*
X12578Y-47364D01*
X12578Y-47431D01*
X12594Y-47464D01*
X12611Y-47481D01*
X12644Y-47497D01*
X12711Y-47497D01*
X12744Y-47481D01*
X12761Y-47464D01*
X12778Y-47431D01*
X12778Y-47364D01*
X12761Y-47331D01*
X12744Y-47314D01*
X12711Y-47297D01*
X12928Y-47464D02*
X12944Y-47481D01*
X12928Y-47497D01*
X12911Y-47481D01*
X12928Y-47464D01*
X12928Y-47497D01*
X13244Y-47264D02*
X13244Y-47497D01*
X13161Y-47131D02*
X13078Y-47381D01*
X13294Y-47381D01*
X13394Y-47147D02*
X13628Y-47147D01*
X13478Y-47497D01*
X13928Y-47147D02*
X13761Y-47147D01*
X13744Y-47314D01*
X13761Y-47297D01*
X13794Y-47281D01*
X13878Y-47281D01*
X13911Y-47297D01*
X13928Y-47314D01*
X13944Y-47347D01*
X13944Y-47431D01*
X13928Y-47464D01*
X13911Y-47481D01*
X13878Y-47497D01*
X13794Y-47497D01*
X13761Y-47481D01*
X13744Y-47464D01*
X14361Y-47497D02*
X14361Y-47264D01*
X14361Y-47297D02*
X14378Y-47281D01*
X14411Y-47264D01*
X14461Y-47264D01*
X14494Y-47281D01*
X14511Y-47314D01*
X14511Y-47497D01*
X14511Y-47314D02*
X14528Y-47281D01*
X14561Y-47264D01*
X14611Y-47264D01*
X14644Y-47281D01*
X14661Y-47314D01*
X14661Y-47497D01*
X14828Y-47497D02*
X14828Y-47264D01*
X14828Y-47297D02*
X14844Y-47281D01*
X14878Y-47264D01*
X14928Y-47264D01*
X14961Y-47281D01*
X14978Y-47314D01*
X14978Y-47497D01*
X14978Y-47314D02*
X14994Y-47281D01*
X15028Y-47264D01*
X15078Y-47264D01*
X15111Y-47281D01*
X15128Y-47314D01*
X15128Y-47497D01*
X19300Y-47631D02*
X8089Y-47631D01*
X19300Y-49481D02*
X19300Y-47081D01*
X8089Y-49481D02*
X8089Y-47081D01*
X8089Y-47631D02*
X8532Y-47400D01*
X8089Y-47631D02*
X8532Y-47861D01*
X19300Y-47631D02*
X18856Y-47400D01*
X19300Y-47631D02*
X18856Y-47861D01*
X73308Y-55079D02*
X73308Y-54913D01*
X73141Y-54896D01*
X73158Y-54913D01*
X73174Y-54946D01*
X73174Y-55029D01*
X73158Y-55063D01*
X73141Y-55079D01*
X73108Y-55096D01*
X73024Y-55096D01*
X72991Y-55079D01*
X72974Y-55063D01*
X72958Y-55029D01*
X72958Y-54946D01*
X72974Y-54913D01*
X72991Y-54896D01*
X73308Y-55396D02*
X73308Y-55329D01*
X73291Y-55296D01*
X73274Y-55279D01*
X73224Y-55246D01*
X73158Y-55229D01*
X73024Y-55229D01*
X72991Y-55246D01*
X72974Y-55263D01*
X72958Y-55296D01*
X72958Y-55363D01*
X72974Y-55396D01*
X72991Y-55413D01*
X73024Y-55429D01*
X73108Y-55429D01*
X73141Y-55413D01*
X73158Y-55396D01*
X73174Y-55363D01*
X73174Y-55296D01*
X73158Y-55263D01*
X73141Y-55246D01*
X73108Y-55229D01*
X72991Y-55579D02*
X72974Y-55596D01*
X72958Y-55579D01*
X72974Y-55563D01*
X72991Y-55579D01*
X72958Y-55579D01*
X73158Y-55796D02*
X73174Y-55763D01*
X73191Y-55746D01*
X73224Y-55729D01*
X73241Y-55729D01*
X73274Y-55746D01*
X73291Y-55763D01*
X73308Y-55796D01*
X73308Y-55863D01*
X73291Y-55896D01*
X73274Y-55913D01*
X73241Y-55929D01*
X73224Y-55929D01*
X73191Y-55913D01*
X73174Y-55896D01*
X73158Y-55863D01*
X73158Y-55796D01*
X73141Y-55763D01*
X73124Y-55746D01*
X73091Y-55729D01*
X73024Y-55729D01*
X72991Y-55746D01*
X72974Y-55763D01*
X72958Y-55796D01*
X72958Y-55863D01*
X72974Y-55896D01*
X72991Y-55913D01*
X73024Y-55929D01*
X73091Y-55929D01*
X73124Y-55913D01*
X73141Y-55896D01*
X73158Y-55863D01*
X73308Y-56046D02*
X73308Y-56279D01*
X72958Y-56129D01*
X73308Y-56579D02*
X73308Y-56413D01*
X73141Y-56396D01*
X73158Y-56413D01*
X73174Y-56446D01*
X73174Y-56529D01*
X73158Y-56563D01*
X73141Y-56579D01*
X73108Y-56596D01*
X73024Y-56596D01*
X72991Y-56579D01*
X72974Y-56563D01*
X72958Y-56529D01*
X72958Y-56446D01*
X72974Y-56413D01*
X72991Y-56396D01*
X72958Y-57013D02*
X73191Y-57013D01*
X73158Y-57013D02*
X73174Y-57029D01*
X73191Y-57063D01*
X73191Y-57113D01*
X73174Y-57146D01*
X73141Y-57163D01*
X72958Y-57163D01*
X73141Y-57163D02*
X73174Y-57179D01*
X73191Y-57213D01*
X73191Y-57263D01*
X73174Y-57296D01*
X73141Y-57313D01*
X72958Y-57313D01*
X72958Y-57479D02*
X73191Y-57479D01*
X73158Y-57479D02*
X73174Y-57496D01*
X73191Y-57529D01*
X73191Y-57579D01*
X73174Y-57613D01*
X73141Y-57629D01*
X72958Y-57629D01*
X73141Y-57629D02*
X73174Y-57646D01*
X73191Y-57679D01*
X73191Y-57729D01*
X73174Y-57763D01*
X73141Y-57779D01*
X72958Y-57779D01*
X73374Y-45150D02*
X73374Y-67542D01*
X77174Y-45150D02*
X72824Y-45150D01*
X77174Y-67542D02*
X72824Y-67542D01*
X73374Y-67542D02*
X73143Y-67099D01*
X73374Y-67542D02*
X73605Y-67099D01*
X73374Y-45150D02*
X73143Y-45594D01*
X73374Y-45150D02*
X73605Y-45594D01*
X78783Y-43068D02*
X78583Y-43068D01*
X78683Y-43068D02*
X78683Y-42718D01*
X78649Y-42768D01*
X78616Y-42801D01*
X78583Y-42818D01*
X79083Y-42835D02*
X79083Y-43068D01*
X78999Y-42701D02*
X78916Y-42951D01*
X79133Y-42951D01*
X79266Y-43035D02*
X79283Y-43051D01*
X79266Y-43068D01*
X79249Y-43051D01*
X79266Y-43035D01*
X79266Y-43068D01*
X79599Y-42718D02*
X79433Y-42718D01*
X79416Y-42885D01*
X79433Y-42868D01*
X79466Y-42851D01*
X79549Y-42851D01*
X79583Y-42868D01*
X79599Y-42885D01*
X79616Y-42918D01*
X79616Y-43001D01*
X79599Y-43035D01*
X79583Y-43051D01*
X79549Y-43068D01*
X79466Y-43068D01*
X79433Y-43051D01*
X79416Y-43035D01*
X79749Y-42751D02*
X79766Y-42735D01*
X79799Y-42718D01*
X79883Y-42718D01*
X79916Y-42735D01*
X79933Y-42751D01*
X79949Y-42785D01*
X79949Y-42818D01*
X79933Y-42868D01*
X79733Y-43068D01*
X79949Y-43068D01*
X80266Y-42718D02*
X80099Y-42718D01*
X80083Y-42885D01*
X80099Y-42868D01*
X80133Y-42851D01*
X80216Y-42851D01*
X80249Y-42868D01*
X80266Y-42885D01*
X80283Y-42918D01*
X80283Y-43001D01*
X80266Y-43035D01*
X80249Y-43051D01*
X80216Y-43068D01*
X80133Y-43068D01*
X80099Y-43051D01*
X80083Y-43035D01*
X80699Y-43068D02*
X80699Y-42835D01*
X80699Y-42868D02*
X80716Y-42851D01*
X80749Y-42835D01*
X80799Y-42835D01*
X80833Y-42851D01*
X80849Y-42885D01*
X80849Y-43068D01*
X80849Y-42885D02*
X80866Y-42851D01*
X80899Y-42835D01*
X80949Y-42835D01*
X80983Y-42851D01*
X80999Y-42885D01*
X80999Y-43068D01*
X81166Y-43068D02*
X81166Y-42835D01*
X81166Y-42868D02*
X81183Y-42851D01*
X81216Y-42835D01*
X81266Y-42835D01*
X81299Y-42851D01*
X81316Y-42885D01*
X81316Y-43068D01*
X81316Y-42885D02*
X81333Y-42851D01*
X81366Y-42835D01*
X81416Y-42835D01*
X81449Y-42851D01*
X81466Y-42885D01*
X81466Y-43068D01*
X77174Y-43201D02*
X82892Y-43201D01*
X77174Y-45150D02*
X77174Y-42651D01*
X82892Y-45150D02*
X82892Y-42651D01*
X82892Y-43201D02*
X82449Y-43432D01*
X82892Y-43201D02*
X82449Y-42971D01*
X77174Y-43201D02*
X77617Y-43432D01*
X77174Y-43201D02*
X77617Y-42971D01*
X66387Y-42718D02*
X66221Y-42718D01*
X66204Y-42885D01*
X66221Y-42868D01*
X66254Y-42851D01*
X66337Y-42851D01*
X66371Y-42868D01*
X66387Y-42885D01*
X66404Y-42918D01*
X66404Y-43001D01*
X66387Y-43035D01*
X66371Y-43051D01*
X66337Y-43068D01*
X66254Y-43068D01*
X66221Y-43051D01*
X66204Y-43035D01*
X66537Y-42751D02*
X66554Y-42735D01*
X66587Y-42718D01*
X66671Y-42718D01*
X66704Y-42735D01*
X66721Y-42751D01*
X66737Y-42785D01*
X66737Y-42818D01*
X66721Y-42868D01*
X66521Y-43068D01*
X66737Y-43068D01*
X66887Y-43068D02*
X66887Y-42835D01*
X66887Y-42868D02*
X66904Y-42851D01*
X66937Y-42835D01*
X66987Y-42835D01*
X67021Y-42851D01*
X67037Y-42885D01*
X67037Y-43068D01*
X67037Y-42885D02*
X67054Y-42851D01*
X67087Y-42835D01*
X67137Y-42835D01*
X67171Y-42851D01*
X67187Y-42885D01*
X67187Y-43068D01*
X67354Y-43068D02*
X67354Y-42835D01*
X67354Y-42868D02*
X67371Y-42851D01*
X67404Y-42835D01*
X67454Y-42835D01*
X67487Y-42851D01*
X67504Y-42885D01*
X67504Y-43068D01*
X67504Y-42885D02*
X67521Y-42851D01*
X67554Y-42835D01*
X67604Y-42835D01*
X67637Y-42851D01*
X67654Y-42885D01*
X67654Y-43068D01*
X56701Y-43201D02*
X77174Y-43201D01*
X56701Y-45150D02*
X56701Y-42651D01*
X77174Y-45150D02*
X77174Y-42651D01*
X77174Y-43201D02*
X76730Y-43432D01*
X77174Y-43201D02*
X76730Y-42971D01*
X56701Y-43201D02*
X57145Y-43432D01*
X56701Y-43201D02*
X57145Y-42971D01*
X43377Y-51044D02*
X43377Y-51277D01*
X43027Y-51127D01*
X43343Y-51394D02*
X43360Y-51411D01*
X43377Y-51444D01*
X43377Y-51527D01*
X43360Y-51561D01*
X43343Y-51577D01*
X43310Y-51594D01*
X43277Y-51594D01*
X43227Y-51577D01*
X43027Y-51377D01*
X43027Y-51594D01*
X43027Y-51744D02*
X43260Y-51744D01*
X43227Y-51744D02*
X43243Y-51761D01*
X43260Y-51794D01*
X43260Y-51844D01*
X43243Y-51877D01*
X43210Y-51894D01*
X43027Y-51894D01*
X43210Y-51894D02*
X43243Y-51911D01*
X43260Y-51944D01*
X43260Y-51994D01*
X43243Y-52027D01*
X43210Y-52044D01*
X43027Y-52044D01*
X43027Y-52211D02*
X43260Y-52211D01*
X43227Y-52211D02*
X43243Y-52227D01*
X43260Y-52261D01*
X43260Y-52311D01*
X43243Y-52344D01*
X43210Y-52361D01*
X43027Y-52361D01*
X43210Y-52361D02*
X43243Y-52377D01*
X43260Y-52411D01*
X43260Y-52461D01*
X43243Y-52494D01*
X43210Y-52511D01*
X43027Y-52511D01*
X43443Y-37621D02*
X43443Y-65967D01*
X45490Y-37621D02*
X42893Y-37621D01*
X45490Y-65967D02*
X42893Y-65967D01*
X43443Y-65967D02*
X43212Y-65524D01*
X43443Y-65967D02*
X43674Y-65524D01*
X43443Y-37621D02*
X43212Y-38064D01*
X43443Y-37621D02*
X43674Y-38064D01*
X26877Y-34023D02*
X26944Y-34023D01*
X26977Y-34006D01*
X26994Y-33990D01*
X27027Y-33940D01*
X27044Y-33873D01*
X27044Y-33740D01*
X27027Y-33706D01*
X27010Y-33690D01*
X26977Y-33673D01*
X26910Y-33673D01*
X26877Y-33690D01*
X26860Y-33706D01*
X26844Y-33740D01*
X26844Y-33823D01*
X26860Y-33856D01*
X26877Y-33873D01*
X26910Y-33890D01*
X26977Y-33890D01*
X27010Y-33873D01*
X27027Y-33856D01*
X27044Y-33823D01*
X27377Y-34023D02*
X27177Y-34023D01*
X27277Y-34023D02*
X27277Y-33673D01*
X27244Y-33723D01*
X27210Y-33756D01*
X27177Y-33773D01*
X27527Y-34023D02*
X27527Y-33790D01*
X27527Y-33823D02*
X27544Y-33806D01*
X27577Y-33790D01*
X27627Y-33790D01*
X27660Y-33806D01*
X27677Y-33840D01*
X27677Y-34023D01*
X27677Y-33840D02*
X27694Y-33806D01*
X27727Y-33790D01*
X27777Y-33790D01*
X27810Y-33806D01*
X27827Y-33840D01*
X27827Y-34023D01*
X27994Y-34023D02*
X27994Y-33790D01*
X27994Y-33823D02*
X28010Y-33806D01*
X28044Y-33790D01*
X28094Y-33790D01*
X28127Y-33806D01*
X28144Y-33840D01*
X28144Y-34023D01*
X28144Y-33840D02*
X28160Y-33806D01*
X28194Y-33790D01*
X28244Y-33790D01*
X28277Y-33806D01*
X28294Y-33840D01*
X28294Y-34023D01*
X9664Y-34156D02*
X45490Y-34156D01*
X9664Y-37621D02*
X9664Y-33606D01*
X45490Y-37621D02*
X45490Y-33606D01*
X45490Y-34156D02*
X45047Y-34387D01*
X45490Y-34156D02*
X45047Y-33925D01*
X9664Y-34156D02*
X10107Y-34387D01*
X9664Y-34156D02*
X10107Y-33925D01*
X62704Y-69396D02*
X62770Y-69396D01*
X62804Y-69379D01*
X62820Y-69362D01*
X62854Y-69312D01*
X62870Y-69246D01*
X62870Y-69112D01*
X62854Y-69079D01*
X62837Y-69062D01*
X62804Y-69046D01*
X62737Y-69046D01*
X62704Y-69062D01*
X62687Y-69079D01*
X62670Y-69112D01*
X62670Y-69196D01*
X62687Y-69229D01*
X62704Y-69246D01*
X62737Y-69262D01*
X62804Y-69262D01*
X62837Y-69246D01*
X62854Y-69229D01*
X62870Y-69196D01*
X63204Y-69396D02*
X63004Y-69396D01*
X63104Y-69396D02*
X63104Y-69046D01*
X63070Y-69096D01*
X63037Y-69129D01*
X63004Y-69146D01*
X63354Y-69396D02*
X63354Y-69162D01*
X63354Y-69196D02*
X63370Y-69179D01*
X63404Y-69162D01*
X63454Y-69162D01*
X63487Y-69179D01*
X63504Y-69212D01*
X63504Y-69396D01*
X63504Y-69212D02*
X63520Y-69179D01*
X63554Y-69162D01*
X63604Y-69162D01*
X63637Y-69179D01*
X63654Y-69212D01*
X63654Y-69396D01*
X63820Y-69396D02*
X63820Y-69162D01*
X63820Y-69196D02*
X63837Y-69179D01*
X63870Y-69162D01*
X63920Y-69162D01*
X63954Y-69179D01*
X63970Y-69212D01*
X63970Y-69396D01*
X63970Y-69212D02*
X63987Y-69179D01*
X64020Y-69162D01*
X64070Y-69162D01*
X64104Y-69179D01*
X64120Y-69212D01*
X64120Y-69396D01*
X45490Y-68979D02*
X81317Y-68979D01*
X45490Y-65967D02*
X45490Y-69529D01*
X81317Y-65967D02*
X81317Y-69529D01*
X81317Y-68979D02*
X80874Y-69210D01*
X81317Y-68979D02*
X80874Y-68748D01*
X45490Y-68979D02*
X45934Y-69210D01*
X45490Y-68979D02*
X45934Y-68748D01*
X26877Y-69396D02*
X26944Y-69396D01*
X26977Y-69379D01*
X26994Y-69362D01*
X27027Y-69312D01*
X27044Y-69246D01*
X27044Y-69112D01*
X27027Y-69079D01*
X27010Y-69062D01*
X26977Y-69046D01*
X26910Y-69046D01*
X26877Y-69062D01*
X26860Y-69079D01*
X26844Y-69112D01*
X26844Y-69196D01*
X26860Y-69229D01*
X26877Y-69246D01*
X26910Y-69262D01*
X26977Y-69262D01*
X27010Y-69246D01*
X27027Y-69229D01*
X27044Y-69196D01*
X27377Y-69396D02*
X27177Y-69396D01*
X27277Y-69396D02*
X27277Y-69046D01*
X27244Y-69096D01*
X27210Y-69129D01*
X27177Y-69146D01*
X27527Y-69396D02*
X27527Y-69162D01*
X27527Y-69196D02*
X27544Y-69179D01*
X27577Y-69162D01*
X27627Y-69162D01*
X27660Y-69179D01*
X27677Y-69212D01*
X27677Y-69396D01*
X27677Y-69212D02*
X27694Y-69179D01*
X27727Y-69162D01*
X27777Y-69162D01*
X27810Y-69179D01*
X27827Y-69212D01*
X27827Y-69396D01*
X27994Y-69396D02*
X27994Y-69162D01*
X27994Y-69196D02*
X28010Y-69179D01*
X28044Y-69162D01*
X28094Y-69162D01*
X28127Y-69179D01*
X28144Y-69212D01*
X28144Y-69396D01*
X28144Y-69212D02*
X28160Y-69179D01*
X28194Y-69162D01*
X28244Y-69162D01*
X28277Y-69179D01*
X28294Y-69212D01*
X28294Y-69396D01*
X9664Y-68979D02*
X45490Y-68979D01*
X9664Y-65967D02*
X9664Y-69529D01*
X45490Y-65967D02*
X45490Y-69529D01*
X45490Y-68979D02*
X45047Y-69210D01*
X45490Y-68979D02*
X45047Y-68748D01*
X9664Y-68979D02*
X10107Y-69210D01*
X9664Y-68979D02*
X10107Y-68748D01*
X5601Y-14430D02*
X5601Y-14646D01*
X5468Y-14530D01*
X5468Y-14580D01*
X5451Y-14613D01*
X5434Y-14630D01*
X5401Y-14646D01*
X5318Y-14646D01*
X5284Y-14630D01*
X5268Y-14613D01*
X5251Y-14580D01*
X5251Y-14480D01*
X5268Y-14446D01*
X5284Y-14430D01*
X5601Y-14863D02*
X5601Y-14896D01*
X5584Y-14930D01*
X5568Y-14946D01*
X5534Y-14963D01*
X5468Y-14980D01*
X5384Y-14980D01*
X5318Y-14963D01*
X5284Y-14946D01*
X5268Y-14930D01*
X5251Y-14896D01*
X5251Y-14863D01*
X5268Y-14830D01*
X5284Y-14813D01*
X5318Y-14796D01*
X5384Y-14780D01*
X5468Y-14780D01*
X5534Y-14796D01*
X5568Y-14813D01*
X5584Y-14830D01*
X5601Y-14863D01*
X5251Y-15130D02*
X5484Y-15130D01*
X5451Y-15130D02*
X5468Y-15146D01*
X5484Y-15180D01*
X5484Y-15230D01*
X5468Y-15263D01*
X5434Y-15280D01*
X5251Y-15280D01*
X5434Y-15280D02*
X5468Y-15296D01*
X5484Y-15330D01*
X5484Y-15380D01*
X5468Y-15413D01*
X5434Y-15430D01*
X5251Y-15430D01*
X5251Y-15596D02*
X5484Y-15596D01*
X5451Y-15596D02*
X5468Y-15613D01*
X5484Y-15646D01*
X5484Y-15696D01*
X5468Y-15730D01*
X5434Y-15746D01*
X5251Y-15746D01*
X5434Y-15746D02*
X5468Y-15763D01*
X5484Y-15796D01*
X5484Y-15846D01*
X5468Y-15880D01*
X5434Y-15896D01*
X5251Y-15896D01*
X5668Y-9274D02*
X5668Y-21085D01*
X9664Y-9274D02*
X5118Y-9274D01*
X9664Y-21085D02*
X5118Y-21085D01*
X5668Y-21085D02*
X5437Y-20642D01*
X5668Y-21085D02*
X5898Y-20642D01*
X5668Y-9274D02*
X5437Y-9718D01*
X5668Y-9274D02*
X5898Y-9718D01*
X4567Y-51044D02*
X4567Y-51277D01*
X4217Y-51127D01*
X4534Y-51394D02*
X4551Y-51411D01*
X4567Y-51444D01*
X4567Y-51527D01*
X4551Y-51561D01*
X4534Y-51577D01*
X4501Y-51594D01*
X4467Y-51594D01*
X4417Y-51577D01*
X4217Y-51377D01*
X4217Y-51594D01*
X4217Y-51744D02*
X4451Y-51744D01*
X4417Y-51744D02*
X4434Y-51761D01*
X4451Y-51794D01*
X4451Y-51844D01*
X4434Y-51877D01*
X4401Y-51894D01*
X4217Y-51894D01*
X4401Y-51894D02*
X4434Y-51911D01*
X4451Y-51944D01*
X4451Y-51994D01*
X4434Y-52027D01*
X4401Y-52044D01*
X4217Y-52044D01*
X4217Y-52211D02*
X4451Y-52211D01*
X4417Y-52211D02*
X4434Y-52227D01*
X4451Y-52261D01*
X4451Y-52311D01*
X4434Y-52344D01*
X4401Y-52361D01*
X4217Y-52361D01*
X4401Y-52361D02*
X4434Y-52377D01*
X4451Y-52411D01*
X4451Y-52461D01*
X4434Y-52494D01*
X4401Y-52511D01*
X4217Y-52511D01*
X4634Y-37621D02*
X4634Y-65967D01*
X9664Y-37621D02*
X4084Y-37621D01*
X9664Y-65967D02*
X4084Y-65967D01*
X4634Y-65967D02*
X4403Y-65524D01*
X4634Y-65967D02*
X4865Y-65524D01*
X4634Y-37621D02*
X4403Y-38064D01*
X4634Y-37621D02*
X4865Y-38064D01*
X4567Y-22698D02*
X4567Y-22931D01*
X4217Y-22781D01*
X4534Y-23048D02*
X4551Y-23064D01*
X4567Y-23098D01*
X4567Y-23181D01*
X4551Y-23214D01*
X4534Y-23231D01*
X4501Y-23248D01*
X4467Y-23248D01*
X4417Y-23231D01*
X4217Y-23031D01*
X4217Y-23248D01*
X4217Y-23398D02*
X4451Y-23398D01*
X4417Y-23398D02*
X4434Y-23414D01*
X4451Y-23448D01*
X4451Y-23498D01*
X4434Y-23531D01*
X4401Y-23548D01*
X4217Y-23548D01*
X4401Y-23548D02*
X4434Y-23564D01*
X4451Y-23598D01*
X4451Y-23648D01*
X4434Y-23681D01*
X4401Y-23698D01*
X4217Y-23698D01*
X4217Y-23864D02*
X4451Y-23864D01*
X4417Y-23864D02*
X4434Y-23881D01*
X4451Y-23914D01*
X4451Y-23964D01*
X4434Y-23998D01*
X4401Y-24014D01*
X4217Y-24014D01*
X4401Y-24014D02*
X4434Y-24031D01*
X4451Y-24064D01*
X4451Y-24114D01*
X4434Y-24148D01*
X4401Y-24164D01*
X4217Y-24164D01*
X4634Y-9274D02*
X4634Y-37621D01*
X9664Y-9274D02*
X4084Y-9274D01*
X9664Y-37621D02*
X4084Y-37621D01*
X4634Y-37621D02*
X4403Y-37177D01*
X4634Y-37621D02*
X4865Y-37177D01*
X4634Y-9274D02*
X4403Y-9718D01*
X4634Y-9274D02*
X4865Y-9718D01*
X3401Y-36921D02*
X3401Y-36721D01*
X3401Y-36821D02*
X3751Y-36821D01*
X3701Y-36787D01*
X3667Y-36754D01*
X3651Y-36721D01*
X3751Y-37237D02*
X3751Y-37071D01*
X3584Y-37054D01*
X3601Y-37071D01*
X3617Y-37104D01*
X3617Y-37187D01*
X3601Y-37221D01*
X3584Y-37237D01*
X3551Y-37254D01*
X3467Y-37254D01*
X3434Y-37237D01*
X3417Y-37221D01*
X3401Y-37187D01*
X3401Y-37104D01*
X3417Y-37071D01*
X3434Y-37054D01*
X3717Y-37387D02*
X3734Y-37404D01*
X3751Y-37437D01*
X3751Y-37521D01*
X3734Y-37554D01*
X3717Y-37571D01*
X3684Y-37587D01*
X3651Y-37587D01*
X3601Y-37571D01*
X3401Y-37371D01*
X3401Y-37587D01*
X3401Y-37737D02*
X3634Y-37737D01*
X3601Y-37737D02*
X3617Y-37754D01*
X3634Y-37787D01*
X3634Y-37837D01*
X3617Y-37871D01*
X3584Y-37887D01*
X3401Y-37887D01*
X3584Y-37887D02*
X3617Y-37904D01*
X3634Y-37937D01*
X3634Y-37987D01*
X3617Y-38021D01*
X3584Y-38037D01*
X3401Y-38037D01*
X3401Y-38204D02*
X3634Y-38204D01*
X3601Y-38204D02*
X3617Y-38221D01*
X3634Y-38254D01*
X3634Y-38304D01*
X3617Y-38337D01*
X3584Y-38354D01*
X3401Y-38354D01*
X3584Y-38354D02*
X3617Y-38371D01*
X3634Y-38404D01*
X3634Y-38454D01*
X3617Y-38487D01*
X3584Y-38504D01*
X3401Y-38504D01*
X3817Y-7699D02*
X3817Y-67542D01*
X9664Y-7700D02*
X3267Y-7699D01*
X9664Y-67542D02*
X3267Y-67542D01*
X3817Y-67542D02*
X3586Y-67099D01*
X3817Y-67542D02*
X4048Y-67099D01*
X3817Y-7699D02*
X3586Y-8143D01*
X3817Y-7699D02*
X4048Y-8143D01*
X44790Y-4298D02*
X44590Y-4298D01*
X44690Y-4298D02*
X44690Y-3948D01*
X44657Y-3998D01*
X44624Y-4032D01*
X44590Y-4048D01*
X44990Y-4098D02*
X44957Y-4082D01*
X44940Y-4065D01*
X44924Y-4032D01*
X44924Y-4015D01*
X44940Y-3982D01*
X44957Y-3965D01*
X44990Y-3948D01*
X45057Y-3948D01*
X45090Y-3965D01*
X45107Y-3982D01*
X45124Y-4015D01*
X45124Y-4032D01*
X45107Y-4065D01*
X45090Y-4082D01*
X45057Y-4098D01*
X44990Y-4098D01*
X44957Y-4115D01*
X44940Y-4132D01*
X44924Y-4165D01*
X44924Y-4232D01*
X44940Y-4265D01*
X44957Y-4282D01*
X44990Y-4298D01*
X45057Y-4298D01*
X45090Y-4282D01*
X45107Y-4265D01*
X45124Y-4232D01*
X45124Y-4165D01*
X45107Y-4132D01*
X45090Y-4115D01*
X45057Y-4098D01*
X45257Y-3982D02*
X45274Y-3965D01*
X45307Y-3948D01*
X45390Y-3948D01*
X45424Y-3965D01*
X45440Y-3982D01*
X45457Y-4015D01*
X45457Y-4048D01*
X45440Y-4098D01*
X45240Y-4298D01*
X45457Y-4298D01*
X45607Y-4298D02*
X45607Y-4065D01*
X45607Y-4098D02*
X45624Y-4082D01*
X45657Y-4065D01*
X45707Y-4065D01*
X45740Y-4082D01*
X45757Y-4115D01*
X45757Y-4298D01*
X45757Y-4115D02*
X45774Y-4082D01*
X45807Y-4065D01*
X45857Y-4065D01*
X45890Y-4082D01*
X45907Y-4115D01*
X45907Y-4298D01*
X46074Y-4298D02*
X46074Y-4065D01*
X46074Y-4098D02*
X46090Y-4082D01*
X46124Y-4065D01*
X46174Y-4065D01*
X46207Y-4082D01*
X46224Y-4115D01*
X46224Y-4298D01*
X46224Y-4115D02*
X46240Y-4082D01*
X46274Y-4065D01*
X46324Y-4065D01*
X46357Y-4082D01*
X46374Y-4115D01*
X46374Y-4298D01*
X9664Y-4432D02*
X81317Y-4432D01*
X9664Y-9274D02*
X9664Y-3882D01*
X81317Y-9274D02*
X81317Y-3882D01*
X81317Y-4432D02*
X80874Y-4663D01*
X81317Y-4432D02*
X80874Y-4201D01*
X9664Y-4432D02*
X10107Y-4663D01*
X9664Y-4432D02*
X10107Y-4201D01*
X44790Y-3452D02*
X44590Y-3452D01*
X44690Y-3452D02*
X44690Y-3102D01*
X44657Y-3152D01*
X44624Y-3185D01*
X44590Y-3202D01*
X44957Y-3452D02*
X45024Y-3452D01*
X45057Y-3435D01*
X45074Y-3419D01*
X45107Y-3369D01*
X45124Y-3302D01*
X45124Y-3169D01*
X45107Y-3135D01*
X45090Y-3119D01*
X45057Y-3102D01*
X44990Y-3102D01*
X44957Y-3119D01*
X44940Y-3135D01*
X44924Y-3169D01*
X44924Y-3252D01*
X44940Y-3285D01*
X44957Y-3302D01*
X44990Y-3319D01*
X45057Y-3319D01*
X45090Y-3302D01*
X45107Y-3285D01*
X45124Y-3252D01*
X45340Y-3102D02*
X45374Y-3102D01*
X45407Y-3119D01*
X45424Y-3135D01*
X45440Y-3169D01*
X45457Y-3235D01*
X45457Y-3319D01*
X45440Y-3385D01*
X45424Y-3419D01*
X45407Y-3435D01*
X45374Y-3452D01*
X45340Y-3452D01*
X45307Y-3435D01*
X45290Y-3419D01*
X45274Y-3385D01*
X45257Y-3319D01*
X45257Y-3235D01*
X45274Y-3169D01*
X45290Y-3135D01*
X45307Y-3119D01*
X45340Y-3102D01*
X45607Y-3452D02*
X45607Y-3219D01*
X45607Y-3252D02*
X45624Y-3235D01*
X45657Y-3219D01*
X45707Y-3219D01*
X45740Y-3235D01*
X45757Y-3269D01*
X45757Y-3452D01*
X45757Y-3269D02*
X45774Y-3235D01*
X45807Y-3219D01*
X45857Y-3219D01*
X45890Y-3235D01*
X45907Y-3269D01*
X45907Y-3452D01*
X46074Y-3452D02*
X46074Y-3219D01*
X46074Y-3252D02*
X46090Y-3235D01*
X46124Y-3219D01*
X46174Y-3219D01*
X46207Y-3235D01*
X46224Y-3269D01*
X46224Y-3452D01*
X46224Y-3269D02*
X46240Y-3235D01*
X46274Y-3219D01*
X46324Y-3219D01*
X46357Y-3235D01*
X46374Y-3269D01*
X46374Y-3452D01*
X8089Y-3585D02*
X82892Y-3585D01*
X8089Y-9274D02*
X8089Y-3035D01*
X82892Y-9274D02*
X82892Y-3035D01*
X82892Y-3585D02*
X82449Y-3816D01*
X82892Y-3585D02*
X82449Y-3354D01*
X8089Y-3585D02*
X8532Y-3816D01*
X8089Y-3585D02*
X8532Y-3354D01*
X82892Y-48133D02*
X81042Y-49825D01*
X82892Y-9274D02*
X82892Y-48133D01*
X81042Y-52385D02*
X81042Y-49825D01*
X81042Y-54944D02*
X81042Y-52385D01*
X82892Y-56597D02*
X81042Y-54944D01*
X82892Y-65967D02*
X82892Y-56597D01*
X9664Y-67542D02*
X81317Y-67542D01*
X8089Y-9274D02*
X8089Y-65967D01*
X81317Y-7700D02*
X9664Y-7700D01*
X82892Y-9274D02*
G75*
G03X81317Y-7700I-1574J0D01*
G74*
G01*
X81317Y-67542D02*
G75*
G03X82892Y-65967I0J1574D01*
G74*
G01*
X8089Y-65967D02*
G75*
G03X9664Y-67542I1574J0D01*
G74*
G01*
X9664Y-7700D02*
G75*
G03X8089Y-9274I0J-1574D01*
G74*
G01*
M02*
