G04 (created by PCBNEW (2013-07-07 BZR 4022)-stable) date 01-Jan-14 7:39:59 PM*
%MOIN*%
G04 Gerber Fmt 3.4, Leading zero omitted, Abs format*
%FSLAX34Y34*%
G01*
G70*
G90*
G04 APERTURE LIST*
%ADD10C,0.005*%
%ADD11C,0.00787402*%
%ADD12C,0.011811*%
G04 APERTURE END LIST*
G54D10*
X82892Y-48133D02*
X81042Y-49825D01*
X82892Y-9274D02*
X82892Y-48133D01*
X81042Y-52385D02*
X81042Y-49825D01*
X81042Y-54944D02*
X81042Y-52385D01*
X82892Y-56597D02*
X81042Y-54944D01*
X82892Y-65967D02*
X82892Y-56597D01*
X9664Y-67542D02*
X81317Y-67542D01*
X8089Y-9274D02*
X8089Y-65967D01*
X81317Y-7700D02*
X9664Y-7700D01*
X82892Y-9274D02*
G75*
G03X81317Y-7700I-1574J0D01*
G74*
G01*
X81317Y-67542D02*
G75*
G03X82892Y-65967I0J1574D01*
G74*
G01*
X8089Y-65967D02*
G75*
G03X9664Y-67542I1574J0D01*
G74*
G01*
X9664Y-7700D02*
G75*
G03X8089Y-9274I0J-1574D01*
G74*
G01*
G54D11*
X62944Y-59473D02*
X63062Y-59591D01*
X63062Y-59473D02*
X62944Y-59591D01*
X62944Y-59808D02*
X63062Y-59926D01*
X63062Y-59808D02*
X62944Y-59926D01*
X63140Y-59640D02*
X63259Y-59759D01*
X63259Y-59640D02*
X63140Y-59759D01*
X63337Y-59473D02*
X63455Y-59591D01*
X63455Y-59473D02*
X63337Y-59591D01*
X63337Y-59808D02*
X63455Y-59926D01*
X63455Y-59808D02*
X63337Y-59926D01*
X71994Y-59473D02*
X72112Y-59591D01*
X72112Y-59473D02*
X71994Y-59591D01*
X71994Y-59808D02*
X72112Y-59926D01*
X72112Y-59808D02*
X71994Y-59926D01*
X72190Y-59640D02*
X72309Y-59759D01*
X72309Y-59640D02*
X72190Y-59759D01*
X72387Y-59473D02*
X72505Y-59591D01*
X72505Y-59473D02*
X72387Y-59591D01*
X72387Y-59808D02*
X72505Y-59926D01*
X72505Y-59808D02*
X72387Y-59926D01*
X17100Y-60500D02*
G75*
G03X17100Y-60500I-125J0D01*
G74*
G01*
X17650Y-56275D02*
G75*
G03X17650Y-56275I-125J0D01*
G74*
G01*
X18125Y-56275D02*
G75*
G03X18125Y-56275I-125J0D01*
G74*
G01*
X19237Y-54186D02*
G75*
G03X19237Y-54186I-125J0D01*
G74*
G01*
X19325Y-41550D02*
G75*
G03X19325Y-41550I-125J0D01*
G74*
G01*
X19513Y-31420D02*
G75*
G03X19513Y-31420I-125J0D01*
G74*
G01*
X20527Y-54186D02*
G75*
G03X20527Y-54186I-125J0D01*
G74*
G01*
X21875Y-55623D02*
G75*
G03X21875Y-55623I-125J0D01*
G74*
G01*
X24325Y-52925D02*
G75*
G03X24325Y-52925I-125J0D01*
G74*
G01*
X25025Y-53925D02*
G75*
G03X25025Y-53925I-125J0D01*
G74*
G01*
X25925Y-42175D02*
G75*
G03X25925Y-42175I-125J0D01*
G74*
G01*
X26425Y-50100D02*
G75*
G03X26425Y-50100I-125J0D01*
G74*
G01*
X26925Y-51000D02*
G75*
G03X26925Y-51000I-125J0D01*
G74*
G01*
X27150Y-53475D02*
G75*
G03X27150Y-53475I-125J0D01*
G74*
G01*
X27425Y-46375D02*
G75*
G03X27425Y-46375I-125J0D01*
G74*
G01*
X27450Y-53925D02*
G75*
G03X27450Y-53925I-125J0D01*
G74*
G01*
X29600Y-38875D02*
G75*
G03X29600Y-38875I-125J0D01*
G74*
G01*
X30035Y-25524D02*
G75*
G03X30035Y-25524I-125J0D01*
G74*
G01*
X30035Y-28812D02*
G75*
G03X30035Y-28812I-125J0D01*
G74*
G01*
X30925Y-46825D02*
G75*
G03X30925Y-46825I-125J0D01*
G74*
G01*
X32425Y-47650D02*
G75*
G03X32425Y-47650I-125J0D01*
G74*
G01*
X32925Y-47225D02*
G75*
G03X32925Y-47225I-125J0D01*
G74*
G01*
X33425Y-48050D02*
G75*
G03X33425Y-48050I-125J0D01*
G74*
G01*
X33925Y-39500D02*
G75*
G03X33925Y-39500I-125J0D01*
G74*
G01*
X36345Y-49862D02*
G75*
G03X36345Y-49862I-125J0D01*
G74*
G01*
X36345Y-50866D02*
G75*
G03X36345Y-50866I-125J0D01*
G74*
G01*
X43854Y-24737D02*
G75*
G03X43854Y-24737I-125J0D01*
G74*
G01*
X44750Y-48700D02*
G75*
G03X44750Y-48700I-125J0D01*
G74*
G01*
X46424Y-58267D02*
G75*
G03X46424Y-58267I-125J0D01*
G74*
G01*
X48545Y-48873D02*
G75*
G03X48545Y-48873I-125J0D01*
G74*
G01*
X48873Y-45918D02*
G75*
G03X48873Y-45918I-125J0D01*
G74*
G01*
X49180Y-52342D02*
G75*
G03X49180Y-52342I-125J0D01*
G74*
G01*
X49497Y-46420D02*
G75*
G03X49497Y-46420I-125J0D01*
G74*
G01*
X49635Y-59960D02*
G75*
G03X49635Y-59960I-125J0D01*
G74*
G01*
X50566Y-48329D02*
G75*
G03X50566Y-48329I-125J0D01*
G74*
G01*
X50891Y-46450D02*
G75*
G03X50891Y-46450I-125J0D01*
G74*
G01*
X51078Y-48221D02*
G75*
G03X51078Y-48221I-125J0D01*
G74*
G01*
X51531Y-46814D02*
G75*
G03X51531Y-46814I-125J0D01*
G74*
G01*
X51718Y-41955D02*
G75*
G03X51718Y-41955I-125J0D01*
G74*
G01*
X51726Y-37936D02*
G75*
G03X51726Y-37936I-125J0D01*
G74*
G01*
X52131Y-46194D02*
G75*
G03X52131Y-46194I-125J0D01*
G74*
G01*
X52446Y-45327D02*
G75*
G03X52446Y-45327I-125J0D01*
G74*
G01*
X52899Y-46036D02*
G75*
G03X52899Y-46036I-125J0D01*
G74*
G01*
X53095Y-60020D02*
G75*
G03X53095Y-60020I-125J0D01*
G74*
G01*
X53348Y-38955D02*
G75*
G03X53348Y-38955I-125J0D01*
G74*
G01*
X53352Y-40957D02*
G75*
G03X53352Y-40957I-125J0D01*
G74*
G01*
X53460Y-46381D02*
G75*
G03X53460Y-46381I-125J0D01*
G74*
G01*
X53525Y-49450D02*
G75*
G03X53525Y-49450I-125J0D01*
G74*
G01*
X53525Y-51150D02*
G75*
G03X53525Y-51150I-125J0D01*
G74*
G01*
X54195Y-39650D02*
G75*
G03X54195Y-39650I-125J0D01*
G74*
G01*
X54195Y-40240D02*
G75*
G03X54195Y-40240I-125J0D01*
G74*
G01*
X54612Y-45219D02*
G75*
G03X54612Y-45219I-125J0D01*
G74*
G01*
X55055Y-60020D02*
G75*
G03X55055Y-60020I-125J0D01*
G74*
G01*
X55281Y-49924D02*
G75*
G03X55281Y-49924I-125J0D01*
G74*
G01*
X55281Y-51951D02*
G75*
G03X55281Y-51951I-125J0D01*
G74*
G01*
X55635Y-50278D02*
G75*
G03X55635Y-50278I-125J0D01*
G74*
G01*
X55635Y-51282D02*
G75*
G03X55635Y-51282I-125J0D01*
G74*
G01*
X55734Y-40455D02*
G75*
G03X55734Y-40455I-125J0D01*
G74*
G01*
X55753Y-49451D02*
G75*
G03X55753Y-49451I-125J0D01*
G74*
G01*
X55753Y-52070D02*
G75*
G03X55753Y-52070I-125J0D01*
G74*
G01*
X55844Y-41955D02*
G75*
G03X55844Y-41955I-125J0D01*
G74*
G01*
X56521Y-49196D02*
G75*
G03X56521Y-49196I-125J0D01*
G74*
G01*
X58565Y-44190D02*
G75*
G03X58565Y-44190I-125J0D01*
G74*
G01*
X58885Y-48730D02*
G75*
G03X58885Y-48730I-125J0D01*
G74*
G01*
X59001Y-47906D02*
G75*
G03X59001Y-47906I-125J0D01*
G74*
G01*
X59965Y-44600D02*
G75*
G03X59965Y-44600I-125J0D01*
G74*
G01*
X60064Y-45306D02*
G75*
G03X60064Y-45306I-125J0D01*
G74*
G01*
X60113Y-50800D02*
G75*
G03X60113Y-50800I-125J0D01*
G74*
G01*
X60195Y-42150D02*
G75*
G03X60195Y-42150I-125J0D01*
G74*
G01*
X60665Y-43780D02*
G75*
G03X60665Y-43780I-125J0D01*
G74*
G01*
X60773Y-47837D02*
G75*
G03X60773Y-47837I-125J0D01*
G74*
G01*
X60881Y-46351D02*
G75*
G03X60881Y-46351I-125J0D01*
G74*
G01*
X61147Y-45839D02*
G75*
G03X61147Y-45839I-125J0D01*
G74*
G01*
X61186Y-48093D02*
G75*
G03X61186Y-48093I-125J0D01*
G74*
G01*
X61186Y-52138D02*
G75*
G03X61186Y-52138I-125J0D01*
G74*
G01*
X61450Y-63475D02*
G75*
G03X61450Y-63475I-125J0D01*
G74*
G01*
X61501Y-52670D02*
G75*
G03X61501Y-52670I-125J0D01*
G74*
G01*
X61610Y-47847D02*
G75*
G03X61610Y-47847I-125J0D01*
G74*
G01*
X61944Y-45839D02*
G75*
G03X61944Y-45839I-125J0D01*
G74*
G01*
X61944Y-52985D02*
G75*
G03X61944Y-52985I-125J0D01*
G74*
G01*
X62112Y-44245D02*
G75*
G03X62112Y-44245I-125J0D01*
G74*
G01*
X62237Y-51511D02*
G75*
G03X62237Y-51511I-125J0D01*
G74*
G01*
X62475Y-45860D02*
G75*
G03X62475Y-45860I-125J0D01*
G74*
G01*
X62525Y-48969D02*
G75*
G03X62525Y-48969I-125J0D01*
G74*
G01*
X62545Y-48221D02*
G75*
G03X62545Y-48221I-125J0D01*
G74*
G01*
X63175Y-42739D02*
G75*
G03X63175Y-42739I-125J0D01*
G74*
G01*
X64178Y-47247D02*
G75*
G03X64178Y-47247I-125J0D01*
G74*
G01*
X64178Y-49196D02*
G75*
G03X64178Y-49196I-125J0D01*
G74*
G01*
X64198Y-48251D02*
G75*
G03X64198Y-48251I-125J0D01*
G74*
G01*
X64529Y-40656D02*
G75*
G03X64529Y-40656I-125J0D01*
G74*
G01*
X64572Y-47739D02*
G75*
G03X64572Y-47739I-125J0D01*
G74*
G01*
X64789Y-45426D02*
G75*
G03X64789Y-45426I-125J0D01*
G74*
G01*
X65369Y-41656D02*
G75*
G03X65369Y-41656I-125J0D01*
G74*
G01*
X65950Y-45810D02*
G75*
G03X65950Y-45810I-125J0D01*
G74*
G01*
X65950Y-47675D02*
G75*
G03X65950Y-47675I-125J0D01*
G74*
G01*
X67810Y-39648D02*
G75*
G03X67810Y-39648I-125J0D01*
G74*
G01*
X67810Y-44442D02*
G75*
G03X67810Y-44442I-125J0D01*
G74*
G01*
X67948Y-51322D02*
G75*
G03X67948Y-51322I-125J0D01*
G74*
G01*
X68883Y-50898D02*
G75*
G03X68883Y-50898I-125J0D01*
G74*
G01*
X68893Y-46302D02*
G75*
G03X68893Y-46302I-125J0D01*
G74*
G01*
X69799Y-49471D02*
G75*
G03X69799Y-49471I-125J0D01*
G74*
G01*
X70500Y-63475D02*
G75*
G03X70500Y-63475I-125J0D01*
G74*
G01*
X71875Y-44501D02*
G75*
G03X71875Y-44501I-125J0D01*
G74*
G01*
X72293Y-43014D02*
G75*
G03X72293Y-43014I-125J0D01*
G74*
G01*
X72545Y-46302D02*
G75*
G03X72545Y-46302I-125J0D01*
G74*
G01*
X73076Y-44501D02*
G75*
G03X73076Y-44501I-125J0D01*
G74*
G01*
X74080Y-43014D02*
G75*
G03X74080Y-43014I-125J0D01*
G74*
G01*
X74101Y-31437D02*
G75*
G03X74101Y-31437I-125J0D01*
G74*
G01*
X74127Y-46345D02*
G75*
G03X74127Y-46345I-125J0D01*
G74*
G01*
X74198Y-46912D02*
G75*
G03X74198Y-46912I-125J0D01*
G74*
G01*
X74198Y-47906D02*
G75*
G03X74198Y-47906I-125J0D01*
G74*
G01*
X74198Y-48881D02*
G75*
G03X74198Y-48881I-125J0D01*
G74*
G01*
X76117Y-32690D02*
G75*
G03X76117Y-32690I-125J0D01*
G74*
G01*
X13800Y-51292D02*
X13800Y-51607D01*
X13642Y-51450D02*
X13957Y-51450D01*
X14800Y-50292D02*
X14800Y-50607D01*
X14642Y-50450D02*
X14957Y-50450D01*
X14800Y-51292D02*
X14800Y-51607D01*
X14642Y-51450D02*
X14957Y-51450D01*
X15800Y-50292D02*
X15800Y-50607D01*
X15642Y-50450D02*
X15957Y-50450D01*
X15800Y-51292D02*
X15800Y-51607D01*
X15642Y-51450D02*
X15957Y-51450D01*
X16800Y-50292D02*
X16800Y-50607D01*
X16642Y-50450D02*
X16957Y-50450D01*
X16800Y-51292D02*
X16800Y-51607D01*
X16642Y-51450D02*
X16957Y-51450D01*
X17800Y-50292D02*
X17800Y-50607D01*
X17642Y-50450D02*
X17957Y-50450D01*
X17800Y-51292D02*
X17800Y-51607D01*
X17642Y-51450D02*
X17957Y-51450D01*
X18800Y-45542D02*
X18800Y-45857D01*
X18642Y-45700D02*
X18957Y-45700D01*
X18800Y-64542D02*
X18800Y-64857D01*
X18642Y-64700D02*
X18957Y-64700D01*
X19800Y-44542D02*
X19800Y-44857D01*
X19642Y-44700D02*
X19957Y-44700D01*
X19800Y-45542D02*
X19800Y-45857D01*
X19642Y-45700D02*
X19957Y-45700D01*
X19800Y-63542D02*
X19800Y-63857D01*
X19642Y-63700D02*
X19957Y-63700D01*
X19800Y-64542D02*
X19800Y-64857D01*
X19642Y-64700D02*
X19957Y-64700D01*
X20800Y-44542D02*
X20800Y-44857D01*
X20642Y-44700D02*
X20957Y-44700D01*
X20800Y-45542D02*
X20800Y-45857D01*
X20642Y-45700D02*
X20957Y-45700D01*
X20800Y-63542D02*
X20800Y-63857D01*
X20642Y-63700D02*
X20957Y-63700D01*
X20800Y-64542D02*
X20800Y-64857D01*
X20642Y-64700D02*
X20957Y-64700D01*
X21800Y-44542D02*
X21800Y-44857D01*
X21642Y-44700D02*
X21957Y-44700D01*
X21800Y-45542D02*
X21800Y-45857D01*
X21642Y-45700D02*
X21957Y-45700D01*
X21800Y-63542D02*
X21800Y-63857D01*
X21642Y-63700D02*
X21957Y-63700D01*
X21800Y-64542D02*
X21800Y-64857D01*
X21642Y-64700D02*
X21957Y-64700D01*
X22800Y-44542D02*
X22800Y-44857D01*
X22642Y-44700D02*
X22957Y-44700D01*
X22800Y-45542D02*
X22800Y-45857D01*
X22642Y-45700D02*
X22957Y-45700D01*
X22800Y-63542D02*
X22800Y-63857D01*
X22642Y-63700D02*
X22957Y-63700D01*
X22800Y-64542D02*
X22800Y-64857D01*
X22642Y-64700D02*
X22957Y-64700D01*
X23800Y-44542D02*
X23800Y-44857D01*
X23642Y-44700D02*
X23957Y-44700D01*
X23800Y-45542D02*
X23800Y-45857D01*
X23642Y-45700D02*
X23957Y-45700D01*
X23800Y-63542D02*
X23800Y-63857D01*
X23642Y-63700D02*
X23957Y-63700D01*
X23800Y-64542D02*
X23800Y-64857D01*
X23642Y-64700D02*
X23957Y-64700D01*
X24800Y-44542D02*
X24800Y-44857D01*
X24642Y-44700D02*
X24957Y-44700D01*
X24800Y-45542D02*
X24800Y-45857D01*
X24642Y-45700D02*
X24957Y-45700D01*
X24800Y-63542D02*
X24800Y-63857D01*
X24642Y-63700D02*
X24957Y-63700D01*
X24800Y-64542D02*
X24800Y-64857D01*
X24642Y-64700D02*
X24957Y-64700D01*
X25800Y-44542D02*
X25800Y-44857D01*
X25642Y-44700D02*
X25957Y-44700D01*
X25800Y-45542D02*
X25800Y-45857D01*
X25642Y-45700D02*
X25957Y-45700D01*
X25800Y-63542D02*
X25800Y-63857D01*
X25642Y-63700D02*
X25957Y-63700D01*
X25800Y-64542D02*
X25800Y-64857D01*
X25642Y-64700D02*
X25957Y-64700D01*
X26800Y-44542D02*
X26800Y-44857D01*
X26642Y-44700D02*
X26957Y-44700D01*
X26800Y-45542D02*
X26800Y-45857D01*
X26642Y-45700D02*
X26957Y-45700D01*
X26800Y-63542D02*
X26800Y-63857D01*
X26642Y-63700D02*
X26957Y-63700D01*
X26800Y-64542D02*
X26800Y-64857D01*
X26642Y-64700D02*
X26957Y-64700D01*
X27800Y-44542D02*
X27800Y-44857D01*
X27642Y-44700D02*
X27957Y-44700D01*
X27800Y-45542D02*
X27800Y-45857D01*
X27642Y-45700D02*
X27957Y-45700D01*
X27800Y-63542D02*
X27800Y-63857D01*
X27642Y-63700D02*
X27957Y-63700D01*
X27800Y-64542D02*
X27800Y-64857D01*
X27642Y-64700D02*
X27957Y-64700D01*
X28800Y-44542D02*
X28800Y-44857D01*
X28642Y-44700D02*
X28957Y-44700D01*
X28800Y-45542D02*
X28800Y-45857D01*
X28642Y-45700D02*
X28957Y-45700D01*
X28800Y-63542D02*
X28800Y-63857D01*
X28642Y-63700D02*
X28957Y-63700D01*
X28800Y-64542D02*
X28800Y-64857D01*
X28642Y-64700D02*
X28957Y-64700D01*
X29800Y-44542D02*
X29800Y-44857D01*
X29642Y-44700D02*
X29957Y-44700D01*
X29800Y-45542D02*
X29800Y-45857D01*
X29642Y-45700D02*
X29957Y-45700D01*
X29800Y-63542D02*
X29800Y-63857D01*
X29642Y-63700D02*
X29957Y-63700D01*
X29800Y-64542D02*
X29800Y-64857D01*
X29642Y-64700D02*
X29957Y-64700D01*
X30800Y-44542D02*
X30800Y-44857D01*
X30642Y-44700D02*
X30957Y-44700D01*
X30800Y-45542D02*
X30800Y-45857D01*
X30642Y-45700D02*
X30957Y-45700D01*
X30800Y-63542D02*
X30800Y-63857D01*
X30642Y-63700D02*
X30957Y-63700D01*
X30800Y-64542D02*
X30800Y-64857D01*
X30642Y-64700D02*
X30957Y-64700D01*
X31800Y-44542D02*
X31800Y-44857D01*
X31642Y-44700D02*
X31957Y-44700D01*
X31800Y-45542D02*
X31800Y-45857D01*
X31642Y-45700D02*
X31957Y-45700D01*
X31800Y-63542D02*
X31800Y-63857D01*
X31642Y-63700D02*
X31957Y-63700D01*
X31800Y-64542D02*
X31800Y-64857D01*
X31642Y-64700D02*
X31957Y-64700D01*
X32800Y-44542D02*
X32800Y-44857D01*
X32642Y-44700D02*
X32957Y-44700D01*
X32800Y-45542D02*
X32800Y-45857D01*
X32642Y-45700D02*
X32957Y-45700D01*
X32800Y-63542D02*
X32800Y-63857D01*
X32642Y-63700D02*
X32957Y-63700D01*
X32800Y-64542D02*
X32800Y-64857D01*
X32642Y-64700D02*
X32957Y-64700D01*
X33800Y-44542D02*
X33800Y-44857D01*
X33642Y-44700D02*
X33957Y-44700D01*
X33800Y-45542D02*
X33800Y-45857D01*
X33642Y-45700D02*
X33957Y-45700D01*
X33800Y-63542D02*
X33800Y-63857D01*
X33642Y-63700D02*
X33957Y-63700D01*
X33800Y-64542D02*
X33800Y-64857D01*
X33642Y-64700D02*
X33957Y-64700D01*
X34800Y-44542D02*
X34800Y-44857D01*
X34642Y-44700D02*
X34957Y-44700D01*
X34800Y-45542D02*
X34800Y-45857D01*
X34642Y-45700D02*
X34957Y-45700D01*
X34800Y-63542D02*
X34800Y-63857D01*
X34642Y-63700D02*
X34957Y-63700D01*
X34800Y-64542D02*
X34800Y-64857D01*
X34642Y-64700D02*
X34957Y-64700D01*
X35800Y-44542D02*
X35800Y-44857D01*
X35642Y-44700D02*
X35957Y-44700D01*
X35800Y-45542D02*
X35800Y-45857D01*
X35642Y-45700D02*
X35957Y-45700D01*
X35800Y-63542D02*
X35800Y-63857D01*
X35642Y-63700D02*
X35957Y-63700D01*
X35800Y-64542D02*
X35800Y-64857D01*
X35642Y-64700D02*
X35957Y-64700D01*
X36800Y-44542D02*
X36800Y-44857D01*
X36642Y-44700D02*
X36957Y-44700D01*
X36800Y-45542D02*
X36800Y-45857D01*
X36642Y-45700D02*
X36957Y-45700D01*
X36800Y-63542D02*
X36800Y-63857D01*
X36642Y-63700D02*
X36957Y-63700D01*
X36800Y-64542D02*
X36800Y-64857D01*
X36642Y-64700D02*
X36957Y-64700D01*
X37800Y-44542D02*
X37800Y-44857D01*
X37642Y-44700D02*
X37957Y-44700D01*
X37800Y-45542D02*
X37800Y-45857D01*
X37642Y-45700D02*
X37957Y-45700D01*
X37800Y-63542D02*
X37800Y-63857D01*
X37642Y-63700D02*
X37957Y-63700D01*
X37800Y-64542D02*
X37800Y-64857D01*
X37642Y-64700D02*
X37957Y-64700D01*
X38800Y-44542D02*
X38800Y-44857D01*
X38642Y-44700D02*
X38957Y-44700D01*
X38800Y-45542D02*
X38800Y-45857D01*
X38642Y-45700D02*
X38957Y-45700D01*
X38800Y-63542D02*
X38800Y-63857D01*
X38642Y-63700D02*
X38957Y-63700D01*
X38800Y-64542D02*
X38800Y-64857D01*
X38642Y-64700D02*
X38957Y-64700D01*
X39800Y-44542D02*
X39800Y-44857D01*
X39642Y-44700D02*
X39957Y-44700D01*
X39800Y-45542D02*
X39800Y-45857D01*
X39642Y-45700D02*
X39957Y-45700D01*
X39800Y-63542D02*
X39800Y-63857D01*
X39642Y-63700D02*
X39957Y-63700D01*
X39800Y-64542D02*
X39800Y-64857D01*
X39642Y-64700D02*
X39957Y-64700D01*
X40800Y-44542D02*
X40800Y-44857D01*
X40642Y-44700D02*
X40957Y-44700D01*
X40800Y-45542D02*
X40800Y-45857D01*
X40642Y-45700D02*
X40957Y-45700D01*
X40800Y-63542D02*
X40800Y-63857D01*
X40642Y-63700D02*
X40957Y-63700D01*
X40800Y-64542D02*
X40800Y-64857D01*
X40642Y-64700D02*
X40957Y-64700D01*
X18413Y-42813D02*
X18413Y-42586D01*
X18186Y-42586D01*
X18186Y-42813D01*
X18413Y-42813D01*
X18413Y-61813D02*
X18413Y-61586D01*
X18186Y-61586D01*
X18186Y-61813D01*
X18413Y-61813D01*
X12715Y-27818D02*
X12912Y-27621D01*
X12715Y-27424D01*
X12518Y-27621D01*
X12715Y-27818D01*
X13002Y-26818D02*
X13199Y-26621D01*
X13002Y-26424D01*
X12805Y-26621D01*
X13002Y-26818D01*
X14002Y-26818D02*
X14199Y-26621D01*
X14002Y-26424D01*
X13805Y-26621D01*
X14002Y-26818D01*
X14290Y-27818D02*
X14487Y-27621D01*
X14290Y-27424D01*
X14093Y-27621D01*
X14290Y-27818D01*
X23920Y-22436D02*
X24116Y-22239D01*
X23920Y-22042D01*
X23723Y-22239D01*
X23920Y-22436D01*
X23920Y-23436D02*
X24116Y-23239D01*
X23920Y-23042D01*
X23723Y-23239D01*
X23920Y-23436D01*
X24920Y-22148D02*
X25116Y-21951D01*
X24920Y-21755D01*
X24723Y-21951D01*
X24920Y-22148D01*
X24920Y-23723D02*
X25116Y-23526D01*
X24920Y-23329D01*
X24723Y-23526D01*
X24920Y-23723D01*
X70845Y-27148D02*
X71042Y-26951D01*
X70845Y-26755D01*
X70648Y-26951D01*
X70845Y-27148D01*
X70845Y-28133D02*
X71042Y-27936D01*
X70845Y-27739D01*
X70648Y-27936D01*
X70845Y-28133D01*
X70845Y-29117D02*
X71042Y-28920D01*
X70845Y-28723D01*
X70648Y-28920D01*
X70845Y-29117D01*
X70845Y-30101D02*
X71042Y-29904D01*
X70845Y-29707D01*
X70648Y-29904D01*
X70845Y-30101D01*
X70845Y-31085D02*
X71042Y-30888D01*
X70845Y-30692D01*
X70648Y-30888D01*
X70845Y-31085D01*
X9800Y-52925D02*
X10200Y-53325D01*
X10200Y-52925D02*
X9800Y-53325D01*
X10200Y-53125D02*
G75*
G03X10200Y-53125I-200J0D01*
G74*
G01*
X9800Y-54675D02*
X10200Y-55075D01*
X10200Y-54675D02*
X9800Y-55075D01*
X10200Y-54875D02*
G75*
G03X10200Y-54875I-200J0D01*
G74*
G01*
X9800Y-56925D02*
X10200Y-57325D01*
X10200Y-56925D02*
X9800Y-57325D01*
X10200Y-57125D02*
G75*
G03X10200Y-57125I-200J0D01*
G74*
G01*
X9800Y-58675D02*
X10200Y-59075D01*
X10200Y-58675D02*
X9800Y-59075D01*
X10200Y-58875D02*
G75*
G03X10200Y-58875I-200J0D01*
G74*
G01*
X9800Y-60925D02*
X10200Y-61325D01*
X10200Y-60925D02*
X9800Y-61325D01*
X10200Y-61125D02*
G75*
G03X10200Y-61125I-200J0D01*
G74*
G01*
X9800Y-62675D02*
X10200Y-63075D01*
X10200Y-62675D02*
X9800Y-63075D01*
X10200Y-62875D02*
G75*
G03X10200Y-62875I-200J0D01*
G74*
G01*
X11600Y-53300D02*
X12000Y-53700D01*
X12000Y-53300D02*
X11600Y-53700D01*
X12000Y-53500D02*
G75*
G03X12000Y-53500I-200J0D01*
G74*
G01*
X11600Y-54300D02*
X12000Y-54700D01*
X12000Y-54300D02*
X11600Y-54700D01*
X12000Y-54500D02*
G75*
G03X12000Y-54500I-200J0D01*
G74*
G01*
X11600Y-57300D02*
X12000Y-57700D01*
X12000Y-57300D02*
X11600Y-57700D01*
X12000Y-57500D02*
G75*
G03X12000Y-57500I-200J0D01*
G74*
G01*
X11600Y-58300D02*
X12000Y-58700D01*
X12000Y-58300D02*
X11600Y-58700D01*
X12000Y-58500D02*
G75*
G03X12000Y-58500I-200J0D01*
G74*
G01*
X11600Y-61300D02*
X12000Y-61700D01*
X12000Y-61300D02*
X11600Y-61700D01*
X12000Y-61500D02*
G75*
G03X12000Y-61500I-200J0D01*
G74*
G01*
X11600Y-62300D02*
X12000Y-62700D01*
X12000Y-62300D02*
X11600Y-62700D01*
X12000Y-62500D02*
G75*
G03X12000Y-62500I-200J0D01*
G74*
G01*
X11902Y-34821D02*
X12302Y-35221D01*
X12302Y-34821D02*
X11902Y-35221D01*
X12302Y-35021D02*
G75*
G03X12302Y-35021I-200J0D01*
G74*
G01*
X12350Y-52925D02*
X12750Y-53325D01*
X12750Y-52925D02*
X12350Y-53325D01*
X12750Y-53125D02*
G75*
G03X12750Y-53125I-200J0D01*
G74*
G01*
X12350Y-54675D02*
X12750Y-55075D01*
X12750Y-54675D02*
X12350Y-55075D01*
X12750Y-54875D02*
G75*
G03X12750Y-54875I-200J0D01*
G74*
G01*
X12350Y-56925D02*
X12750Y-57325D01*
X12750Y-56925D02*
X12350Y-57325D01*
X12750Y-57125D02*
G75*
G03X12750Y-57125I-200J0D01*
G74*
G01*
X12350Y-58675D02*
X12750Y-59075D01*
X12750Y-58675D02*
X12350Y-59075D01*
X12750Y-58875D02*
G75*
G03X12750Y-58875I-200J0D01*
G74*
G01*
X12350Y-60925D02*
X12750Y-61325D01*
X12750Y-60925D02*
X12350Y-61325D01*
X12750Y-61125D02*
G75*
G03X12750Y-61125I-200J0D01*
G74*
G01*
X12350Y-62675D02*
X12750Y-63075D01*
X12750Y-62675D02*
X12350Y-63075D01*
X12750Y-62875D02*
G75*
G03X12750Y-62875I-200J0D01*
G74*
G01*
X13600Y-50250D02*
X14000Y-50650D01*
X14000Y-50250D02*
X13600Y-50650D01*
X14000Y-50450D02*
G75*
G03X14000Y-50450I-200J0D01*
G74*
G01*
X14702Y-34821D02*
X15102Y-35221D01*
X15102Y-34821D02*
X14702Y-35221D01*
X15102Y-35021D02*
G75*
G03X15102Y-35021I-200J0D01*
G74*
G01*
X18100Y-43500D02*
X18500Y-43900D01*
X18500Y-43500D02*
X18100Y-43900D01*
X18500Y-43700D02*
G75*
G03X18500Y-43700I-200J0D01*
G74*
G01*
X18100Y-62500D02*
X18500Y-62900D01*
X18500Y-62500D02*
X18100Y-62900D01*
X18500Y-62700D02*
G75*
G03X18500Y-62700I-200J0D01*
G74*
G01*
X18600Y-44500D02*
X19000Y-44900D01*
X19000Y-44500D02*
X18600Y-44900D01*
X19000Y-44700D02*
G75*
G03X19000Y-44700I-200J0D01*
G74*
G01*
X18600Y-63500D02*
X19000Y-63900D01*
X19000Y-63500D02*
X18600Y-63900D01*
X19000Y-63700D02*
G75*
G03X19000Y-63700I-200J0D01*
G74*
G01*
X19100Y-42500D02*
X19500Y-42900D01*
X19500Y-42500D02*
X19100Y-42900D01*
X19500Y-42700D02*
G75*
G03X19500Y-42700I-200J0D01*
G74*
G01*
X19100Y-43500D02*
X19500Y-43900D01*
X19500Y-43500D02*
X19100Y-43900D01*
X19500Y-43700D02*
G75*
G03X19500Y-43700I-200J0D01*
G74*
G01*
X19100Y-61500D02*
X19500Y-61900D01*
X19500Y-61500D02*
X19100Y-61900D01*
X19500Y-61700D02*
G75*
G03X19500Y-61700I-200J0D01*
G74*
G01*
X19100Y-62500D02*
X19500Y-62900D01*
X19500Y-62500D02*
X19100Y-62900D01*
X19500Y-62700D02*
G75*
G03X19500Y-62700I-200J0D01*
G74*
G01*
X20100Y-42500D02*
X20500Y-42900D01*
X20500Y-42500D02*
X20100Y-42900D01*
X20500Y-42700D02*
G75*
G03X20500Y-42700I-200J0D01*
G74*
G01*
X20100Y-43500D02*
X20500Y-43900D01*
X20500Y-43500D02*
X20100Y-43900D01*
X20500Y-43700D02*
G75*
G03X20500Y-43700I-200J0D01*
G74*
G01*
X20100Y-61500D02*
X20500Y-61900D01*
X20500Y-61500D02*
X20100Y-61900D01*
X20500Y-61700D02*
G75*
G03X20500Y-61700I-200J0D01*
G74*
G01*
X20100Y-62500D02*
X20500Y-62900D01*
X20500Y-62500D02*
X20100Y-62900D01*
X20500Y-62700D02*
G75*
G03X20500Y-62700I-200J0D01*
G74*
G01*
X21100Y-42500D02*
X21500Y-42900D01*
X21500Y-42500D02*
X21100Y-42900D01*
X21500Y-42700D02*
G75*
G03X21500Y-42700I-200J0D01*
G74*
G01*
X21100Y-43500D02*
X21500Y-43900D01*
X21500Y-43500D02*
X21100Y-43900D01*
X21500Y-43700D02*
G75*
G03X21500Y-43700I-200J0D01*
G74*
G01*
X21100Y-61500D02*
X21500Y-61900D01*
X21500Y-61500D02*
X21100Y-61900D01*
X21500Y-61700D02*
G75*
G03X21500Y-61700I-200J0D01*
G74*
G01*
X21100Y-62500D02*
X21500Y-62900D01*
X21500Y-62500D02*
X21100Y-62900D01*
X21500Y-62700D02*
G75*
G03X21500Y-62700I-200J0D01*
G74*
G01*
X21470Y-36290D02*
X21870Y-36690D01*
X21870Y-36290D02*
X21470Y-36690D01*
X21870Y-36490D02*
G75*
G03X21870Y-36490I-200J0D01*
G74*
G01*
X21700Y-50050D02*
X22100Y-50450D01*
X22100Y-50050D02*
X21700Y-50450D01*
X22100Y-50250D02*
G75*
G03X22100Y-50250I-200J0D01*
G74*
G01*
X21700Y-51050D02*
X22100Y-51450D01*
X22100Y-51050D02*
X21700Y-51450D01*
X22100Y-51250D02*
G75*
G03X22100Y-51250I-200J0D01*
G74*
G01*
X22100Y-42500D02*
X22500Y-42900D01*
X22500Y-42500D02*
X22100Y-42900D01*
X22500Y-42700D02*
G75*
G03X22500Y-42700I-200J0D01*
G74*
G01*
X22100Y-43500D02*
X22500Y-43900D01*
X22500Y-43500D02*
X22100Y-43900D01*
X22500Y-43700D02*
G75*
G03X22500Y-43700I-200J0D01*
G74*
G01*
X22100Y-61500D02*
X22500Y-61900D01*
X22500Y-61500D02*
X22100Y-61900D01*
X22500Y-61700D02*
G75*
G03X22500Y-61700I-200J0D01*
G74*
G01*
X22100Y-62500D02*
X22500Y-62900D01*
X22500Y-62500D02*
X22100Y-62900D01*
X22500Y-62700D02*
G75*
G03X22500Y-62700I-200J0D01*
G74*
G01*
X22470Y-36290D02*
X22870Y-36690D01*
X22870Y-36290D02*
X22470Y-36690D01*
X22870Y-36490D02*
G75*
G03X22870Y-36490I-200J0D01*
G74*
G01*
X22700Y-50050D02*
X23100Y-50450D01*
X23100Y-50050D02*
X22700Y-50450D01*
X23100Y-50250D02*
G75*
G03X23100Y-50250I-200J0D01*
G74*
G01*
X22700Y-51050D02*
X23100Y-51450D01*
X23100Y-51050D02*
X22700Y-51450D01*
X23100Y-51250D02*
G75*
G03X23100Y-51250I-200J0D01*
G74*
G01*
X23100Y-42500D02*
X23500Y-42900D01*
X23500Y-42500D02*
X23100Y-42900D01*
X23500Y-42700D02*
G75*
G03X23500Y-42700I-200J0D01*
G74*
G01*
X23100Y-43500D02*
X23500Y-43900D01*
X23500Y-43500D02*
X23100Y-43900D01*
X23500Y-43700D02*
G75*
G03X23500Y-43700I-200J0D01*
G74*
G01*
X23100Y-61500D02*
X23500Y-61900D01*
X23500Y-61500D02*
X23100Y-61900D01*
X23500Y-61700D02*
G75*
G03X23500Y-61700I-200J0D01*
G74*
G01*
X23100Y-62500D02*
X23500Y-62900D01*
X23500Y-62500D02*
X23100Y-62900D01*
X23500Y-62700D02*
G75*
G03X23500Y-62700I-200J0D01*
G74*
G01*
X23470Y-36290D02*
X23870Y-36690D01*
X23870Y-36290D02*
X23470Y-36690D01*
X23870Y-36490D02*
G75*
G03X23870Y-36490I-200J0D01*
G74*
G01*
X24100Y-42500D02*
X24500Y-42900D01*
X24500Y-42500D02*
X24100Y-42900D01*
X24500Y-42700D02*
G75*
G03X24500Y-42700I-200J0D01*
G74*
G01*
X24100Y-43500D02*
X24500Y-43900D01*
X24500Y-43500D02*
X24100Y-43900D01*
X24500Y-43700D02*
G75*
G03X24500Y-43700I-200J0D01*
G74*
G01*
X24100Y-61500D02*
X24500Y-61900D01*
X24500Y-61500D02*
X24100Y-61900D01*
X24500Y-61700D02*
G75*
G03X24500Y-61700I-200J0D01*
G74*
G01*
X24100Y-62500D02*
X24500Y-62900D01*
X24500Y-62500D02*
X24100Y-62900D01*
X24500Y-62700D02*
G75*
G03X24500Y-62700I-200J0D01*
G74*
G01*
X25100Y-42500D02*
X25500Y-42900D01*
X25500Y-42500D02*
X25100Y-42900D01*
X25500Y-42700D02*
G75*
G03X25500Y-42700I-200J0D01*
G74*
G01*
X25100Y-43500D02*
X25500Y-43900D01*
X25500Y-43500D02*
X25100Y-43900D01*
X25500Y-43700D02*
G75*
G03X25500Y-43700I-200J0D01*
G74*
G01*
X25100Y-61500D02*
X25500Y-61900D01*
X25500Y-61500D02*
X25100Y-61900D01*
X25500Y-61700D02*
G75*
G03X25500Y-61700I-200J0D01*
G74*
G01*
X25100Y-62500D02*
X25500Y-62900D01*
X25500Y-62500D02*
X25100Y-62900D01*
X25500Y-62700D02*
G75*
G03X25500Y-62700I-200J0D01*
G74*
G01*
X26100Y-42500D02*
X26500Y-42900D01*
X26500Y-42500D02*
X26100Y-42900D01*
X26500Y-42700D02*
G75*
G03X26500Y-42700I-200J0D01*
G74*
G01*
X26100Y-43500D02*
X26500Y-43900D01*
X26500Y-43500D02*
X26100Y-43900D01*
X26500Y-43700D02*
G75*
G03X26500Y-43700I-200J0D01*
G74*
G01*
X26100Y-61500D02*
X26500Y-61900D01*
X26500Y-61500D02*
X26100Y-61900D01*
X26500Y-61700D02*
G75*
G03X26500Y-61700I-200J0D01*
G74*
G01*
X26100Y-62500D02*
X26500Y-62900D01*
X26500Y-62500D02*
X26100Y-62900D01*
X26500Y-62700D02*
G75*
G03X26500Y-62700I-200J0D01*
G74*
G01*
X27100Y-42500D02*
X27500Y-42900D01*
X27500Y-42500D02*
X27100Y-42900D01*
X27500Y-42700D02*
G75*
G03X27500Y-42700I-200J0D01*
G74*
G01*
X27100Y-43500D02*
X27500Y-43900D01*
X27500Y-43500D02*
X27100Y-43900D01*
X27500Y-43700D02*
G75*
G03X27500Y-43700I-200J0D01*
G74*
G01*
X27100Y-61500D02*
X27500Y-61900D01*
X27500Y-61500D02*
X27100Y-61900D01*
X27500Y-61700D02*
G75*
G03X27500Y-61700I-200J0D01*
G74*
G01*
X27100Y-62500D02*
X27500Y-62900D01*
X27500Y-62500D02*
X27100Y-62900D01*
X27500Y-62700D02*
G75*
G03X27500Y-62700I-200J0D01*
G74*
G01*
X28100Y-42500D02*
X28500Y-42900D01*
X28500Y-42500D02*
X28100Y-42900D01*
X28500Y-42700D02*
G75*
G03X28500Y-42700I-200J0D01*
G74*
G01*
X28100Y-43500D02*
X28500Y-43900D01*
X28500Y-43500D02*
X28100Y-43900D01*
X28500Y-43700D02*
G75*
G03X28500Y-43700I-200J0D01*
G74*
G01*
X28100Y-61500D02*
X28500Y-61900D01*
X28500Y-61500D02*
X28100Y-61900D01*
X28500Y-61700D02*
G75*
G03X28500Y-61700I-200J0D01*
G74*
G01*
X28100Y-62500D02*
X28500Y-62900D01*
X28500Y-62500D02*
X28100Y-62900D01*
X28500Y-62700D02*
G75*
G03X28500Y-62700I-200J0D01*
G74*
G01*
X29100Y-42500D02*
X29500Y-42900D01*
X29500Y-42500D02*
X29100Y-42900D01*
X29500Y-42700D02*
G75*
G03X29500Y-42700I-200J0D01*
G74*
G01*
X29100Y-43500D02*
X29500Y-43900D01*
X29500Y-43500D02*
X29100Y-43900D01*
X29500Y-43700D02*
G75*
G03X29500Y-43700I-200J0D01*
G74*
G01*
X29100Y-61500D02*
X29500Y-61900D01*
X29500Y-61500D02*
X29100Y-61900D01*
X29500Y-61700D02*
G75*
G03X29500Y-61700I-200J0D01*
G74*
G01*
X29100Y-62500D02*
X29500Y-62900D01*
X29500Y-62500D02*
X29100Y-62900D01*
X29500Y-62700D02*
G75*
G03X29500Y-62700I-200J0D01*
G74*
G01*
X30100Y-42500D02*
X30500Y-42900D01*
X30500Y-42500D02*
X30100Y-42900D01*
X30500Y-42700D02*
G75*
G03X30500Y-42700I-200J0D01*
G74*
G01*
X30100Y-43500D02*
X30500Y-43900D01*
X30500Y-43500D02*
X30100Y-43900D01*
X30500Y-43700D02*
G75*
G03X30500Y-43700I-200J0D01*
G74*
G01*
X30100Y-61500D02*
X30500Y-61900D01*
X30500Y-61500D02*
X30100Y-61900D01*
X30500Y-61700D02*
G75*
G03X30500Y-61700I-200J0D01*
G74*
G01*
X30100Y-62500D02*
X30500Y-62900D01*
X30500Y-62500D02*
X30100Y-62900D01*
X30500Y-62700D02*
G75*
G03X30500Y-62700I-200J0D01*
G74*
G01*
X31100Y-42500D02*
X31500Y-42900D01*
X31500Y-42500D02*
X31100Y-42900D01*
X31500Y-42700D02*
G75*
G03X31500Y-42700I-200J0D01*
G74*
G01*
X31100Y-43500D02*
X31500Y-43900D01*
X31500Y-43500D02*
X31100Y-43900D01*
X31500Y-43700D02*
G75*
G03X31500Y-43700I-200J0D01*
G74*
G01*
X31100Y-61500D02*
X31500Y-61900D01*
X31500Y-61500D02*
X31100Y-61900D01*
X31500Y-61700D02*
G75*
G03X31500Y-61700I-200J0D01*
G74*
G01*
X31100Y-62500D02*
X31500Y-62900D01*
X31500Y-62500D02*
X31100Y-62900D01*
X31500Y-62700D02*
G75*
G03X31500Y-62700I-200J0D01*
G74*
G01*
X31590Y-36290D02*
X31990Y-36690D01*
X31990Y-36290D02*
X31590Y-36690D01*
X31990Y-36490D02*
G75*
G03X31990Y-36490I-200J0D01*
G74*
G01*
X32100Y-42500D02*
X32500Y-42900D01*
X32500Y-42500D02*
X32100Y-42900D01*
X32500Y-42700D02*
G75*
G03X32500Y-42700I-200J0D01*
G74*
G01*
X32100Y-43500D02*
X32500Y-43900D01*
X32500Y-43500D02*
X32100Y-43900D01*
X32500Y-43700D02*
G75*
G03X32500Y-43700I-200J0D01*
G74*
G01*
X32100Y-61500D02*
X32500Y-61900D01*
X32500Y-61500D02*
X32100Y-61900D01*
X32500Y-61700D02*
G75*
G03X32500Y-61700I-200J0D01*
G74*
G01*
X32100Y-62500D02*
X32500Y-62900D01*
X32500Y-62500D02*
X32100Y-62900D01*
X32500Y-62700D02*
G75*
G03X32500Y-62700I-200J0D01*
G74*
G01*
X32120Y-21139D02*
X32520Y-21539D01*
X32520Y-21139D02*
X32120Y-21539D01*
X32520Y-21339D02*
G75*
G03X32520Y-21339I-200J0D01*
G74*
G01*
X32120Y-23939D02*
X32520Y-24339D01*
X32520Y-23939D02*
X32120Y-24339D01*
X32520Y-24139D02*
G75*
G03X32520Y-24139I-200J0D01*
G74*
G01*
X32590Y-36290D02*
X32990Y-36690D01*
X32990Y-36290D02*
X32590Y-36690D01*
X32990Y-36490D02*
G75*
G03X32990Y-36490I-200J0D01*
G74*
G01*
X33100Y-42500D02*
X33500Y-42900D01*
X33500Y-42500D02*
X33100Y-42900D01*
X33500Y-42700D02*
G75*
G03X33500Y-42700I-200J0D01*
G74*
G01*
X33100Y-43500D02*
X33500Y-43900D01*
X33500Y-43500D02*
X33100Y-43900D01*
X33500Y-43700D02*
G75*
G03X33500Y-43700I-200J0D01*
G74*
G01*
X33100Y-61500D02*
X33500Y-61900D01*
X33500Y-61500D02*
X33100Y-61900D01*
X33500Y-61700D02*
G75*
G03X33500Y-61700I-200J0D01*
G74*
G01*
X33100Y-62500D02*
X33500Y-62900D01*
X33500Y-62500D02*
X33100Y-62900D01*
X33500Y-62700D02*
G75*
G03X33500Y-62700I-200J0D01*
G74*
G01*
X33590Y-36290D02*
X33990Y-36690D01*
X33990Y-36290D02*
X33590Y-36690D01*
X33990Y-36490D02*
G75*
G03X33990Y-36490I-200J0D01*
G74*
G01*
X34100Y-42500D02*
X34500Y-42900D01*
X34500Y-42500D02*
X34100Y-42900D01*
X34500Y-42700D02*
G75*
G03X34500Y-42700I-200J0D01*
G74*
G01*
X34100Y-43500D02*
X34500Y-43900D01*
X34500Y-43500D02*
X34100Y-43900D01*
X34500Y-43700D02*
G75*
G03X34500Y-43700I-200J0D01*
G74*
G01*
X34100Y-61500D02*
X34500Y-61900D01*
X34500Y-61500D02*
X34100Y-61900D01*
X34500Y-61700D02*
G75*
G03X34500Y-61700I-200J0D01*
G74*
G01*
X34100Y-62500D02*
X34500Y-62900D01*
X34500Y-62500D02*
X34100Y-62900D01*
X34500Y-62700D02*
G75*
G03X34500Y-62700I-200J0D01*
G74*
G01*
X35100Y-42500D02*
X35500Y-42900D01*
X35500Y-42500D02*
X35100Y-42900D01*
X35500Y-42700D02*
G75*
G03X35500Y-42700I-200J0D01*
G74*
G01*
X35100Y-43500D02*
X35500Y-43900D01*
X35500Y-43500D02*
X35100Y-43900D01*
X35500Y-43700D02*
G75*
G03X35500Y-43700I-200J0D01*
G74*
G01*
X35100Y-61500D02*
X35500Y-61900D01*
X35500Y-61500D02*
X35100Y-61900D01*
X35500Y-61700D02*
G75*
G03X35500Y-61700I-200J0D01*
G74*
G01*
X35100Y-62500D02*
X35500Y-62900D01*
X35500Y-62500D02*
X35100Y-62900D01*
X35500Y-62700D02*
G75*
G03X35500Y-62700I-200J0D01*
G74*
G01*
X36100Y-42500D02*
X36500Y-42900D01*
X36500Y-42500D02*
X36100Y-42900D01*
X36500Y-42700D02*
G75*
G03X36500Y-42700I-200J0D01*
G74*
G01*
X36100Y-43500D02*
X36500Y-43900D01*
X36500Y-43500D02*
X36100Y-43900D01*
X36500Y-43700D02*
G75*
G03X36500Y-43700I-200J0D01*
G74*
G01*
X36100Y-61500D02*
X36500Y-61900D01*
X36500Y-61500D02*
X36100Y-61900D01*
X36500Y-61700D02*
G75*
G03X36500Y-61700I-200J0D01*
G74*
G01*
X36100Y-62500D02*
X36500Y-62900D01*
X36500Y-62500D02*
X36100Y-62900D01*
X36500Y-62700D02*
G75*
G03X36500Y-62700I-200J0D01*
G74*
G01*
X37100Y-42500D02*
X37500Y-42900D01*
X37500Y-42500D02*
X37100Y-42900D01*
X37500Y-42700D02*
G75*
G03X37500Y-42700I-200J0D01*
G74*
G01*
X37100Y-43500D02*
X37500Y-43900D01*
X37500Y-43500D02*
X37100Y-43900D01*
X37500Y-43700D02*
G75*
G03X37500Y-43700I-200J0D01*
G74*
G01*
X37100Y-61500D02*
X37500Y-61900D01*
X37500Y-61500D02*
X37100Y-61900D01*
X37500Y-61700D02*
G75*
G03X37500Y-61700I-200J0D01*
G74*
G01*
X37100Y-62500D02*
X37500Y-62900D01*
X37500Y-62500D02*
X37100Y-62900D01*
X37500Y-62700D02*
G75*
G03X37500Y-62700I-200J0D01*
G74*
G01*
X38100Y-42500D02*
X38500Y-42900D01*
X38500Y-42500D02*
X38100Y-42900D01*
X38500Y-42700D02*
G75*
G03X38500Y-42700I-200J0D01*
G74*
G01*
X38100Y-43500D02*
X38500Y-43900D01*
X38500Y-43500D02*
X38100Y-43900D01*
X38500Y-43700D02*
G75*
G03X38500Y-43700I-200J0D01*
G74*
G01*
X38100Y-61500D02*
X38500Y-61900D01*
X38500Y-61500D02*
X38100Y-61900D01*
X38500Y-61700D02*
G75*
G03X38500Y-61700I-200J0D01*
G74*
G01*
X38100Y-62500D02*
X38500Y-62900D01*
X38500Y-62500D02*
X38100Y-62900D01*
X38500Y-62700D02*
G75*
G03X38500Y-62700I-200J0D01*
G74*
G01*
X39100Y-42500D02*
X39500Y-42900D01*
X39500Y-42500D02*
X39100Y-42900D01*
X39500Y-42700D02*
G75*
G03X39500Y-42700I-200J0D01*
G74*
G01*
X39100Y-43500D02*
X39500Y-43900D01*
X39500Y-43500D02*
X39100Y-43900D01*
X39500Y-43700D02*
G75*
G03X39500Y-43700I-200J0D01*
G74*
G01*
X39100Y-61500D02*
X39500Y-61900D01*
X39500Y-61500D02*
X39100Y-61900D01*
X39500Y-61700D02*
G75*
G03X39500Y-61700I-200J0D01*
G74*
G01*
X39100Y-62500D02*
X39500Y-62900D01*
X39500Y-62500D02*
X39100Y-62900D01*
X39500Y-62700D02*
G75*
G03X39500Y-62700I-200J0D01*
G74*
G01*
X40100Y-42500D02*
X40500Y-42900D01*
X40500Y-42500D02*
X40100Y-42900D01*
X40500Y-42700D02*
G75*
G03X40500Y-42700I-200J0D01*
G74*
G01*
X40100Y-43500D02*
X40500Y-43900D01*
X40500Y-43500D02*
X40100Y-43900D01*
X40500Y-43700D02*
G75*
G03X40500Y-43700I-200J0D01*
G74*
G01*
X40100Y-61500D02*
X40500Y-61900D01*
X40500Y-61500D02*
X40100Y-61900D01*
X40500Y-61700D02*
G75*
G03X40500Y-61700I-200J0D01*
G74*
G01*
X40100Y-62500D02*
X40500Y-62900D01*
X40500Y-62500D02*
X40100Y-62900D01*
X40500Y-62700D02*
G75*
G03X40500Y-62700I-200J0D01*
G74*
G01*
X43960Y-42864D02*
X44360Y-43264D01*
X44360Y-42864D02*
X43960Y-43264D01*
X44360Y-43064D02*
G75*
G03X44360Y-43064I-200J0D01*
G74*
G01*
X44960Y-42864D02*
X45360Y-43264D01*
X45360Y-42864D02*
X44960Y-43264D01*
X45360Y-43064D02*
G75*
G03X45360Y-43064I-200J0D01*
G74*
G01*
X45960Y-42864D02*
X46360Y-43264D01*
X46360Y-42864D02*
X45960Y-43264D01*
X46360Y-43064D02*
G75*
G03X46360Y-43064I-200J0D01*
G74*
G01*
X46960Y-42864D02*
X47360Y-43264D01*
X47360Y-42864D02*
X46960Y-43264D01*
X47360Y-43064D02*
G75*
G03X47360Y-43064I-200J0D01*
G74*
G01*
X47960Y-42864D02*
X48360Y-43264D01*
X48360Y-42864D02*
X47960Y-43264D01*
X48360Y-43064D02*
G75*
G03X48360Y-43064I-200J0D01*
G74*
G01*
X49893Y-53405D02*
X50293Y-53805D01*
X50293Y-53405D02*
X49893Y-53805D01*
X50293Y-53605D02*
G75*
G03X50293Y-53605I-200J0D01*
G74*
G01*
X49893Y-57342D02*
X50293Y-57742D01*
X50293Y-57342D02*
X49893Y-57742D01*
X50293Y-57542D02*
G75*
G03X50293Y-57542I-200J0D01*
G74*
G01*
X50893Y-53405D02*
X51293Y-53805D01*
X51293Y-53405D02*
X50893Y-53805D01*
X51293Y-53605D02*
G75*
G03X51293Y-53605I-200J0D01*
G74*
G01*
X50893Y-57342D02*
X51293Y-57742D01*
X51293Y-57342D02*
X50893Y-57742D01*
X51293Y-57542D02*
G75*
G03X51293Y-57542I-200J0D01*
G74*
G01*
X51893Y-53405D02*
X52293Y-53805D01*
X52293Y-53405D02*
X51893Y-53805D01*
X52293Y-53605D02*
G75*
G03X52293Y-53605I-200J0D01*
G74*
G01*
X51893Y-57342D02*
X52293Y-57742D01*
X52293Y-57342D02*
X51893Y-57742D01*
X52293Y-57542D02*
G75*
G03X52293Y-57542I-200J0D01*
G74*
G01*
X52893Y-53405D02*
X53293Y-53805D01*
X53293Y-53405D02*
X52893Y-53805D01*
X53293Y-53605D02*
G75*
G03X53293Y-53605I-200J0D01*
G74*
G01*
X52893Y-57342D02*
X53293Y-57742D01*
X53293Y-57342D02*
X52893Y-57742D01*
X53293Y-57542D02*
G75*
G03X53293Y-57542I-200J0D01*
G74*
G01*
X56987Y-39755D02*
X57387Y-40155D01*
X57387Y-39755D02*
X56987Y-40155D01*
X57387Y-39955D02*
G75*
G03X57387Y-39955I-200J0D01*
G74*
G01*
X56987Y-40755D02*
X57387Y-41155D01*
X57387Y-40755D02*
X56987Y-41155D01*
X57387Y-40955D02*
G75*
G03X57387Y-40955I-200J0D01*
G74*
G01*
X57987Y-39755D02*
X58387Y-40155D01*
X58387Y-39755D02*
X57987Y-40155D01*
X58387Y-39955D02*
G75*
G03X58387Y-39955I-200J0D01*
G74*
G01*
X57987Y-40755D02*
X58387Y-41155D01*
X58387Y-40755D02*
X57987Y-41155D01*
X58387Y-40955D02*
G75*
G03X58387Y-40955I-200J0D01*
G74*
G01*
X58987Y-39755D02*
X59387Y-40155D01*
X59387Y-39755D02*
X58987Y-40155D01*
X59387Y-39955D02*
G75*
G03X59387Y-39955I-200J0D01*
G74*
G01*
X58987Y-40755D02*
X59387Y-41155D01*
X59387Y-40755D02*
X58987Y-41155D01*
X59387Y-40955D02*
G75*
G03X59387Y-40955I-200J0D01*
G74*
G01*
X59250Y-57050D02*
X59650Y-57450D01*
X59650Y-57050D02*
X59250Y-57450D01*
X59650Y-57250D02*
G75*
G03X59650Y-57250I-200J0D01*
G74*
G01*
X59250Y-58050D02*
X59650Y-58450D01*
X59650Y-58050D02*
X59250Y-58450D01*
X59650Y-58250D02*
G75*
G03X59650Y-58250I-200J0D01*
G74*
G01*
X68300Y-57050D02*
X68700Y-57450D01*
X68700Y-57050D02*
X68300Y-57450D01*
X68700Y-57250D02*
G75*
G03X68700Y-57250I-200J0D01*
G74*
G01*
X68300Y-58050D02*
X68700Y-58450D01*
X68700Y-58050D02*
X68300Y-58450D01*
X68700Y-58250D02*
G75*
G03X68700Y-58250I-200J0D01*
G74*
G01*
X73500Y-65500D02*
X73900Y-65900D01*
X73900Y-65500D02*
X73500Y-65900D01*
X73900Y-65700D02*
G75*
G03X73900Y-65700I-200J0D01*
G74*
G01*
X74500Y-65500D02*
X74900Y-65900D01*
X74900Y-65500D02*
X74500Y-65900D01*
X74900Y-65700D02*
G75*
G03X74900Y-65700I-200J0D01*
G74*
G01*
X77583Y-24184D02*
X77983Y-24584D01*
X77983Y-24184D02*
X77583Y-24584D01*
X77983Y-24384D02*
G75*
G03X77983Y-24384I-200J0D01*
G74*
G01*
X77583Y-25934D02*
X77983Y-26334D01*
X77983Y-25934D02*
X77583Y-26334D01*
X77983Y-26134D02*
G75*
G03X77983Y-26134I-200J0D01*
G74*
G01*
X77583Y-28121D02*
X77983Y-28521D01*
X77983Y-28121D02*
X77583Y-28521D01*
X77983Y-28321D02*
G75*
G03X77983Y-28321I-200J0D01*
G74*
G01*
X77583Y-29871D02*
X77983Y-30271D01*
X77983Y-29871D02*
X77583Y-30271D01*
X77983Y-30071D02*
G75*
G03X77983Y-30071I-200J0D01*
G74*
G01*
X77583Y-32058D02*
X77983Y-32458D01*
X77983Y-32058D02*
X77583Y-32458D01*
X77983Y-32258D02*
G75*
G03X77983Y-32258I-200J0D01*
G74*
G01*
X77583Y-33808D02*
X77983Y-34208D01*
X77983Y-33808D02*
X77583Y-34208D01*
X77983Y-34008D02*
G75*
G03X77983Y-34008I-200J0D01*
G74*
G01*
X78333Y-24559D02*
X78733Y-24959D01*
X78733Y-24559D02*
X78333Y-24959D01*
X78733Y-24759D02*
G75*
G03X78733Y-24759I-200J0D01*
G74*
G01*
X78333Y-25559D02*
X78733Y-25959D01*
X78733Y-25559D02*
X78333Y-25959D01*
X78733Y-25759D02*
G75*
G03X78733Y-25759I-200J0D01*
G74*
G01*
X78333Y-28496D02*
X78733Y-28896D01*
X78733Y-28496D02*
X78333Y-28896D01*
X78733Y-28696D02*
G75*
G03X78733Y-28696I-200J0D01*
G74*
G01*
X78333Y-29496D02*
X78733Y-29896D01*
X78733Y-29496D02*
X78333Y-29896D01*
X78733Y-29696D02*
G75*
G03X78733Y-29696I-200J0D01*
G74*
G01*
X78333Y-32433D02*
X78733Y-32833D01*
X78733Y-32433D02*
X78333Y-32833D01*
X78733Y-32633D02*
G75*
G03X78733Y-32633I-200J0D01*
G74*
G01*
X78333Y-33433D02*
X78733Y-33833D01*
X78733Y-33433D02*
X78333Y-33833D01*
X78733Y-33633D02*
G75*
G03X78733Y-33633I-200J0D01*
G74*
G01*
X79346Y-40669D02*
X79746Y-41069D01*
X79746Y-40669D02*
X79346Y-41069D01*
X79746Y-40869D02*
G75*
G03X79746Y-40869I-200J0D01*
G74*
G01*
X79346Y-41669D02*
X79746Y-42069D01*
X79746Y-41669D02*
X79346Y-42069D01*
X79746Y-41869D02*
G75*
G03X79746Y-41869I-200J0D01*
G74*
G01*
X79346Y-42669D02*
X79746Y-43069D01*
X79746Y-42669D02*
X79346Y-43069D01*
X79746Y-42869D02*
G75*
G03X79746Y-42869I-200J0D01*
G74*
G01*
X79346Y-43669D02*
X79746Y-44069D01*
X79746Y-43669D02*
X79346Y-44069D01*
X79746Y-43869D02*
G75*
G03X79746Y-43869I-200J0D01*
G74*
G01*
X79346Y-44669D02*
X79746Y-45069D01*
X79746Y-44669D02*
X79346Y-45069D01*
X79746Y-44869D02*
G75*
G03X79746Y-44869I-200J0D01*
G74*
G01*
X79346Y-45669D02*
X79746Y-46069D01*
X79746Y-45669D02*
X79346Y-46069D01*
X79746Y-45869D02*
G75*
G03X79746Y-45869I-200J0D01*
G74*
G01*
X80133Y-24184D02*
X80533Y-24584D01*
X80533Y-24184D02*
X80133Y-24584D01*
X80533Y-24384D02*
G75*
G03X80533Y-24384I-200J0D01*
G74*
G01*
X80133Y-25934D02*
X80533Y-26334D01*
X80533Y-25934D02*
X80133Y-26334D01*
X80533Y-26134D02*
G75*
G03X80533Y-26134I-200J0D01*
G74*
G01*
X80133Y-28121D02*
X80533Y-28521D01*
X80533Y-28121D02*
X80133Y-28521D01*
X80533Y-28321D02*
G75*
G03X80533Y-28321I-200J0D01*
G74*
G01*
X80133Y-29871D02*
X80533Y-30271D01*
X80533Y-29871D02*
X80133Y-30271D01*
X80533Y-30071D02*
G75*
G03X80533Y-30071I-200J0D01*
G74*
G01*
X80133Y-32058D02*
X80533Y-32458D01*
X80533Y-32058D02*
X80133Y-32458D01*
X80533Y-32258D02*
G75*
G03X80533Y-32258I-200J0D01*
G74*
G01*
X80133Y-33808D02*
X80533Y-34208D01*
X80533Y-33808D02*
X80133Y-34208D01*
X80533Y-34008D02*
G75*
G03X80533Y-34008I-200J0D01*
G74*
G01*
X75439Y-60304D02*
X75899Y-60764D01*
X75899Y-60304D02*
X75439Y-60764D01*
X75669Y-60304D02*
X75669Y-60764D01*
X75439Y-60534D02*
X75899Y-60534D01*
X75860Y-61104D02*
X75860Y-59964D01*
X75479Y-61104D02*
X75479Y-59964D01*
X75860Y-59964D02*
G75*
G03X75479Y-59964I-190J0D01*
G74*
G01*
X75479Y-61104D02*
G75*
G03X75860Y-61104I190J0D01*
G74*
G01*
X76589Y-58304D02*
X77049Y-58764D01*
X77049Y-58304D02*
X76589Y-58764D01*
X76819Y-58304D02*
X76819Y-58764D01*
X76589Y-58534D02*
X77049Y-58534D01*
X77289Y-58344D02*
X76349Y-58344D01*
X77289Y-58725D02*
X76349Y-58725D01*
X76349Y-58344D02*
G75*
G03X76349Y-58725I0J-190D01*
G74*
G01*
X77289Y-58725D02*
G75*
G03X77289Y-58344I0J190D01*
G74*
G01*
X77839Y-60304D02*
X78299Y-60764D01*
X78299Y-60304D02*
X77839Y-60764D01*
X78069Y-60304D02*
X78069Y-60764D01*
X77839Y-60534D02*
X78299Y-60534D01*
X78260Y-61004D02*
X78260Y-60064D01*
X77879Y-61004D02*
X77879Y-60064D01*
X78260Y-60064D02*
G75*
G03X77879Y-60064I-190J0D01*
G74*
G01*
X77879Y-61004D02*
G75*
G03X78260Y-61004I190J0D01*
G74*
G01*
X10750Y-52375D02*
X11250Y-52875D01*
X11250Y-52375D02*
X10750Y-52875D01*
X11176Y-52801D02*
X11176Y-52448D01*
X10823Y-52448D01*
X10823Y-52801D01*
X11176Y-52801D01*
X10750Y-55125D02*
X11250Y-55625D01*
X11250Y-55125D02*
X10750Y-55625D01*
X11176Y-55551D02*
X11176Y-55198D01*
X10823Y-55198D01*
X10823Y-55551D01*
X11176Y-55551D01*
X10750Y-56375D02*
X11250Y-56875D01*
X11250Y-56375D02*
X10750Y-56875D01*
X11176Y-56801D02*
X11176Y-56448D01*
X10823Y-56448D01*
X10823Y-56801D01*
X11176Y-56801D01*
X10750Y-59125D02*
X11250Y-59625D01*
X11250Y-59125D02*
X10750Y-59625D01*
X11176Y-59551D02*
X11176Y-59198D01*
X10823Y-59198D01*
X10823Y-59551D01*
X11176Y-59551D01*
X10750Y-60375D02*
X11250Y-60875D01*
X11250Y-60375D02*
X10750Y-60875D01*
X11176Y-60801D02*
X11176Y-60448D01*
X10823Y-60448D01*
X10823Y-60801D01*
X11176Y-60801D01*
X10750Y-63125D02*
X11250Y-63625D01*
X11250Y-63125D02*
X10750Y-63625D01*
X11176Y-63551D02*
X11176Y-63198D01*
X10823Y-63198D01*
X10823Y-63551D01*
X11176Y-63551D01*
X79083Y-23634D02*
X79583Y-24134D01*
X79583Y-23634D02*
X79083Y-24134D01*
X79510Y-24060D02*
X79510Y-23707D01*
X79156Y-23707D01*
X79156Y-24060D01*
X79510Y-24060D01*
X79083Y-26384D02*
X79583Y-26884D01*
X79583Y-26384D02*
X79083Y-26884D01*
X79510Y-26810D02*
X79510Y-26457D01*
X79156Y-26457D01*
X79156Y-26810D01*
X79510Y-26810D01*
X79083Y-27571D02*
X79583Y-28071D01*
X79583Y-27571D02*
X79083Y-28071D01*
X79510Y-27997D02*
X79510Y-27644D01*
X79156Y-27644D01*
X79156Y-27997D01*
X79510Y-27997D01*
X79083Y-30321D02*
X79583Y-30821D01*
X79583Y-30321D02*
X79083Y-30821D01*
X79510Y-30747D02*
X79510Y-30394D01*
X79156Y-30394D01*
X79156Y-30747D01*
X79510Y-30747D01*
X79083Y-31508D02*
X79583Y-32008D01*
X79583Y-31508D02*
X79083Y-32008D01*
X79510Y-31934D02*
X79510Y-31581D01*
X79156Y-31581D01*
X79156Y-31934D01*
X79510Y-31934D01*
X79083Y-34258D02*
X79583Y-34758D01*
X79583Y-34258D02*
X79083Y-34758D01*
X79510Y-34684D02*
X79510Y-34331D01*
X79156Y-34331D01*
X79156Y-34684D01*
X79510Y-34684D01*
X11622Y-28321D02*
X12222Y-28921D01*
X12222Y-28321D02*
X11622Y-28921D01*
X11922Y-28921D02*
X12222Y-28621D01*
X11922Y-28321D01*
X11622Y-28621D01*
X11922Y-28921D01*
X14782Y-28321D02*
X15382Y-28921D01*
X15382Y-28321D02*
X14782Y-28921D01*
X15082Y-28921D02*
X15382Y-28621D01*
X15082Y-28321D01*
X14782Y-28621D01*
X15082Y-28921D01*
X25620Y-20859D02*
X26220Y-21459D01*
X26220Y-20859D02*
X25620Y-21459D01*
X25920Y-21459D02*
X26220Y-21159D01*
X25920Y-20859D01*
X25620Y-21159D01*
X25920Y-21459D01*
X25620Y-24019D02*
X26220Y-24619D01*
X26220Y-24019D02*
X25620Y-24619D01*
X25920Y-24619D02*
X26220Y-24319D01*
X25920Y-24019D01*
X25620Y-24319D01*
X25920Y-24619D01*
X78069Y-47835D02*
X78069Y-48635D01*
X77669Y-48235D02*
X78469Y-48235D01*
X78469Y-48235D02*
G75*
G03X78469Y-48235I-400J0D01*
G74*
G01*
X78069Y-56135D02*
X78069Y-56935D01*
X77669Y-56535D02*
X78469Y-56535D01*
X78469Y-56535D02*
G75*
G03X78469Y-56535I-400J0D01*
G74*
G01*
X51774Y-22251D02*
X51774Y-21416D01*
X50939Y-21416D01*
X50939Y-22251D01*
X51774Y-22251D01*
X51947Y-21833D02*
G75*
G03X51947Y-21833I-590J0D01*
G74*
G01*
X51774Y-36424D02*
X51774Y-35589D01*
X50939Y-35589D01*
X50939Y-36424D01*
X51774Y-36424D01*
X51947Y-36007D02*
G75*
G03X51947Y-36007I-590J0D01*
G74*
G01*
X57286Y-22251D02*
X57286Y-21416D01*
X56451Y-21416D01*
X56451Y-22251D01*
X57286Y-22251D01*
X57459Y-21833D02*
G75*
G03X57459Y-21833I-590J0D01*
G74*
G01*
X57286Y-36424D02*
X57286Y-35589D01*
X56451Y-35589D01*
X56451Y-36424D01*
X57286Y-36424D01*
X57459Y-36007D02*
G75*
G03X57459Y-36007I-590J0D01*
G74*
G01*
X62798Y-22251D02*
X62798Y-21416D01*
X61963Y-21416D01*
X61963Y-22251D01*
X62798Y-22251D01*
X62971Y-21833D02*
G75*
G03X62971Y-21833I-590J0D01*
G74*
G01*
X62798Y-36424D02*
X62798Y-35589D01*
X61963Y-35589D01*
X61963Y-36424D01*
X62798Y-36424D01*
X62971Y-36007D02*
G75*
G03X62971Y-36007I-590J0D01*
G74*
G01*
X68310Y-22251D02*
X68310Y-21416D01*
X67474Y-21416D01*
X67474Y-22251D01*
X68310Y-22251D01*
X68483Y-21833D02*
G75*
G03X68483Y-21833I-590J0D01*
G74*
G01*
X68310Y-36424D02*
X68310Y-35589D01*
X67474Y-35589D01*
X67474Y-36424D01*
X68310Y-36424D01*
X68483Y-36007D02*
G75*
G03X68483Y-36007I-590J0D01*
G74*
G01*
X9664Y-9874D02*
X10264Y-9274D01*
X9664Y-8674D01*
X9064Y-9274D01*
X9664Y-9874D01*
X10264Y-9274D02*
G75*
G03X10264Y-9274I-600J0D01*
G74*
G01*
X9664Y-21685D02*
X10264Y-21085D01*
X9664Y-20485D01*
X9064Y-21085D01*
X9664Y-21685D01*
X10264Y-21085D02*
G75*
G03X10264Y-21085I-600J0D01*
G74*
G01*
X9664Y-38221D02*
X10264Y-37621D01*
X9664Y-37021D01*
X9064Y-37621D01*
X9664Y-38221D01*
X10264Y-37621D02*
G75*
G03X10264Y-37621I-600J0D01*
G74*
G01*
X9664Y-66567D02*
X10264Y-65967D01*
X9664Y-65367D01*
X9064Y-65967D01*
X9664Y-66567D01*
X10264Y-65967D02*
G75*
G03X10264Y-65967I-600J0D01*
G74*
G01*
X45490Y-38221D02*
X46090Y-37621D01*
X45490Y-37021D01*
X44890Y-37621D01*
X45490Y-38221D01*
X46090Y-37621D02*
G75*
G03X46090Y-37621I-600J0D01*
G74*
G01*
X45490Y-66567D02*
X46090Y-65967D01*
X45490Y-65367D01*
X44890Y-65967D01*
X45490Y-66567D01*
X46090Y-65967D02*
G75*
G03X46090Y-65967I-600J0D01*
G74*
G01*
X81317Y-9874D02*
X81917Y-9274D01*
X81317Y-8674D01*
X80717Y-9274D01*
X81317Y-9874D01*
X81917Y-9274D02*
G75*
G03X81917Y-9274I-600J0D01*
G74*
G01*
X81317Y-21685D02*
X81917Y-21085D01*
X81317Y-20485D01*
X80717Y-21085D01*
X81317Y-21685D01*
X81917Y-21085D02*
G75*
G03X81917Y-21085I-600J0D01*
G74*
G01*
X81317Y-38221D02*
X81917Y-37621D01*
X81317Y-37021D01*
X80717Y-37621D01*
X81317Y-38221D01*
X81917Y-37621D02*
G75*
G03X81917Y-37621I-600J0D01*
G74*
G01*
X81317Y-66567D02*
X81917Y-65967D01*
X81317Y-65367D01*
X80717Y-65967D01*
X81317Y-66567D01*
X81917Y-65967D02*
G75*
G03X81917Y-65967I-600J0D01*
G74*
G01*
X16800Y-44575D02*
X16800Y-45825D01*
X16175Y-45200D02*
X17425Y-45200D01*
X17241Y-45641D02*
X17241Y-44758D01*
X16358Y-44758D01*
X16358Y-45641D01*
X17241Y-45641D01*
X16800Y-63575D02*
X16800Y-64825D01*
X16175Y-64200D02*
X17425Y-64200D01*
X17241Y-64641D02*
X17241Y-63758D01*
X16358Y-63758D01*
X16358Y-64641D01*
X17241Y-64641D01*
X42800Y-45825D02*
X42800Y-47075D01*
X42175Y-46450D02*
X43425Y-46450D01*
X43241Y-46891D02*
X43241Y-46008D01*
X42358Y-46008D01*
X42358Y-46891D01*
X43241Y-46891D01*
X42800Y-62325D02*
X42800Y-63575D01*
X42175Y-62950D02*
X43425Y-62950D01*
X43241Y-63391D02*
X43241Y-62508D01*
X42358Y-62508D01*
X42358Y-63391D01*
X43241Y-63391D01*
X62616Y-9373D02*
X62616Y-10751D01*
X61927Y-10062D02*
X63305Y-10062D01*
X62616Y-10751D02*
X63305Y-10062D01*
X62616Y-9373D01*
X61927Y-10062D01*
X62616Y-10751D01*
X70884Y-19609D02*
X70884Y-20987D01*
X70195Y-20298D02*
X71573Y-20298D01*
X70884Y-20987D02*
X71573Y-20298D01*
X70884Y-19609D01*
X70195Y-20298D01*
X70884Y-20987D01*
G54D12*
X9132Y-69344D02*
X9132Y-68163D01*
X9414Y-68163D01*
X9582Y-68219D01*
X9695Y-68332D01*
X9751Y-68444D01*
X9807Y-68669D01*
X9807Y-68838D01*
X9751Y-69063D01*
X9695Y-69176D01*
X9582Y-69288D01*
X9414Y-69344D01*
X9132Y-69344D01*
X10314Y-69344D02*
X10314Y-68557D01*
X10314Y-68782D02*
X10370Y-68669D01*
X10426Y-68613D01*
X10539Y-68557D01*
X10651Y-68557D01*
X11045Y-69344D02*
X11045Y-68557D01*
X11045Y-68163D02*
X10989Y-68219D01*
X11045Y-68276D01*
X11101Y-68219D01*
X11045Y-68163D01*
X11045Y-68276D01*
X11776Y-69344D02*
X11663Y-69288D01*
X11607Y-69176D01*
X11607Y-68163D01*
X12395Y-69344D02*
X12282Y-69288D01*
X12226Y-69176D01*
X12226Y-68163D01*
X13744Y-69344D02*
X13744Y-68163D01*
X14138Y-69007D01*
X14532Y-68163D01*
X14532Y-69344D01*
X15600Y-69344D02*
X15600Y-68726D01*
X15544Y-68613D01*
X15432Y-68557D01*
X15207Y-68557D01*
X15094Y-68613D01*
X15600Y-69288D02*
X15488Y-69344D01*
X15207Y-69344D01*
X15094Y-69288D01*
X15038Y-69176D01*
X15038Y-69063D01*
X15094Y-68951D01*
X15207Y-68894D01*
X15488Y-68894D01*
X15600Y-68838D01*
X16163Y-68557D02*
X16163Y-69738D01*
X16163Y-68613D02*
X16275Y-68557D01*
X16500Y-68557D01*
X16613Y-68613D01*
X16669Y-68669D01*
X16725Y-68782D01*
X16725Y-69119D01*
X16669Y-69232D01*
X16613Y-69288D01*
X16500Y-69344D01*
X16275Y-69344D01*
X16163Y-69288D01*
X17231Y-69232D02*
X17288Y-69288D01*
X17231Y-69344D01*
X17175Y-69288D01*
X17231Y-69232D01*
X17231Y-69344D01*
X17231Y-68613D02*
X17288Y-68669D01*
X17231Y-68726D01*
X17175Y-68669D01*
X17231Y-68613D01*
X17231Y-68726D01*
X7946Y-71287D02*
X8064Y-71406D01*
X8064Y-71287D02*
X7946Y-71406D01*
X9357Y-70644D02*
X9470Y-70644D01*
X9582Y-70700D01*
X9639Y-70756D01*
X9695Y-70868D01*
X9751Y-71093D01*
X9751Y-71375D01*
X9695Y-71600D01*
X9639Y-71712D01*
X9582Y-71768D01*
X9470Y-71825D01*
X9357Y-71825D01*
X9245Y-71768D01*
X9189Y-71712D01*
X9132Y-71600D01*
X9076Y-71375D01*
X9076Y-71093D01*
X9132Y-70868D01*
X9189Y-70756D01*
X9245Y-70700D01*
X9357Y-70644D01*
X10257Y-71712D02*
X10314Y-71768D01*
X10257Y-71825D01*
X10201Y-71768D01*
X10257Y-71712D01*
X10257Y-71825D01*
X10707Y-70644D02*
X11438Y-70644D01*
X11045Y-71093D01*
X11213Y-71093D01*
X11326Y-71150D01*
X11382Y-71206D01*
X11438Y-71318D01*
X11438Y-71600D01*
X11382Y-71712D01*
X11326Y-71768D01*
X11213Y-71825D01*
X10876Y-71825D01*
X10764Y-71768D01*
X10707Y-71712D01*
X12170Y-70644D02*
X12282Y-70644D01*
X12395Y-70700D01*
X12451Y-70756D01*
X12507Y-70868D01*
X12563Y-71093D01*
X12563Y-71375D01*
X12507Y-71600D01*
X12451Y-71712D01*
X12395Y-71768D01*
X12282Y-71825D01*
X12170Y-71825D01*
X12057Y-71768D01*
X12001Y-71712D01*
X11945Y-71600D01*
X11888Y-71375D01*
X11888Y-71093D01*
X11945Y-70868D01*
X12001Y-70756D01*
X12057Y-70700D01*
X12170Y-70644D01*
X13069Y-71825D02*
X13069Y-71037D01*
X13069Y-71150D02*
X13126Y-71093D01*
X13238Y-71037D01*
X13407Y-71037D01*
X13519Y-71093D01*
X13576Y-71206D01*
X13576Y-71825D01*
X13576Y-71206D02*
X13632Y-71093D01*
X13744Y-71037D01*
X13913Y-71037D01*
X14026Y-71093D01*
X14082Y-71206D01*
X14082Y-71825D01*
X14644Y-71825D02*
X14644Y-71037D01*
X14644Y-71150D02*
X14701Y-71093D01*
X14813Y-71037D01*
X14982Y-71037D01*
X15094Y-71093D01*
X15150Y-71206D01*
X15150Y-71825D01*
X15150Y-71206D02*
X15207Y-71093D01*
X15319Y-71037D01*
X15488Y-71037D01*
X15600Y-71093D01*
X15657Y-71206D01*
X15657Y-71825D01*
X17963Y-70587D02*
X16950Y-72106D01*
X19481Y-70644D02*
X19594Y-70644D01*
X19706Y-70700D01*
X19762Y-70756D01*
X19819Y-70868D01*
X19875Y-71093D01*
X19875Y-71375D01*
X19819Y-71600D01*
X19762Y-71712D01*
X19706Y-71768D01*
X19594Y-71825D01*
X19481Y-71825D01*
X19369Y-71768D01*
X19312Y-71712D01*
X19256Y-71600D01*
X19200Y-71375D01*
X19200Y-71093D01*
X19256Y-70868D01*
X19312Y-70756D01*
X19369Y-70700D01*
X19481Y-70644D01*
X20381Y-71712D02*
X20437Y-71768D01*
X20381Y-71825D01*
X20325Y-71768D01*
X20381Y-71712D01*
X20381Y-71825D01*
X21168Y-70644D02*
X21281Y-70644D01*
X21393Y-70700D01*
X21450Y-70756D01*
X21506Y-70868D01*
X21562Y-71093D01*
X21562Y-71375D01*
X21506Y-71600D01*
X21450Y-71712D01*
X21393Y-71768D01*
X21281Y-71825D01*
X21168Y-71825D01*
X21056Y-71768D01*
X21000Y-71712D01*
X20944Y-71600D01*
X20887Y-71375D01*
X20887Y-71093D01*
X20944Y-70868D01*
X21000Y-70756D01*
X21056Y-70700D01*
X21168Y-70644D01*
X22687Y-71825D02*
X22012Y-71825D01*
X22350Y-71825D02*
X22350Y-70644D01*
X22237Y-70812D01*
X22125Y-70925D01*
X22012Y-70981D01*
X23137Y-70756D02*
X23193Y-70700D01*
X23306Y-70644D01*
X23587Y-70644D01*
X23699Y-70700D01*
X23756Y-70756D01*
X23812Y-70868D01*
X23812Y-70981D01*
X23756Y-71150D01*
X23081Y-71825D01*
X23812Y-71825D01*
X24262Y-70644D02*
X24262Y-70868D01*
X24712Y-70644D02*
X24712Y-70868D01*
X26455Y-72275D02*
X26399Y-72218D01*
X26287Y-72050D01*
X26230Y-71937D01*
X26174Y-71768D01*
X26118Y-71487D01*
X26118Y-71262D01*
X26174Y-70981D01*
X26230Y-70812D01*
X26287Y-70700D01*
X26399Y-70531D01*
X26455Y-70475D01*
X27524Y-71825D02*
X26849Y-71825D01*
X27186Y-71825D02*
X27186Y-70644D01*
X27074Y-70812D01*
X26962Y-70925D01*
X26849Y-70981D01*
X28255Y-70644D02*
X28368Y-70644D01*
X28480Y-70700D01*
X28536Y-70756D01*
X28593Y-70868D01*
X28649Y-71093D01*
X28649Y-71375D01*
X28593Y-71600D01*
X28536Y-71712D01*
X28480Y-71768D01*
X28368Y-71825D01*
X28255Y-71825D01*
X28143Y-71768D01*
X28086Y-71712D01*
X28030Y-71600D01*
X27974Y-71375D01*
X27974Y-71093D01*
X28030Y-70868D01*
X28086Y-70756D01*
X28143Y-70700D01*
X28255Y-70644D01*
X30055Y-71825D02*
X30055Y-70644D01*
X30561Y-71825D02*
X30561Y-71206D01*
X30505Y-71093D01*
X30392Y-71037D01*
X30224Y-71037D01*
X30111Y-71093D01*
X30055Y-71150D01*
X31292Y-71825D02*
X31180Y-71768D01*
X31123Y-71712D01*
X31067Y-71600D01*
X31067Y-71262D01*
X31123Y-71150D01*
X31180Y-71093D01*
X31292Y-71037D01*
X31461Y-71037D01*
X31573Y-71093D01*
X31630Y-71150D01*
X31686Y-71262D01*
X31686Y-71600D01*
X31630Y-71712D01*
X31573Y-71768D01*
X31461Y-71825D01*
X31292Y-71825D01*
X32361Y-71825D02*
X32248Y-71768D01*
X32192Y-71656D01*
X32192Y-70644D01*
X33261Y-71768D02*
X33148Y-71825D01*
X32923Y-71825D01*
X32811Y-71768D01*
X32755Y-71656D01*
X32755Y-71206D01*
X32811Y-71093D01*
X32923Y-71037D01*
X33148Y-71037D01*
X33261Y-71093D01*
X33317Y-71206D01*
X33317Y-71318D01*
X32755Y-71431D01*
X33767Y-71768D02*
X33879Y-71825D01*
X34104Y-71825D01*
X34217Y-71768D01*
X34273Y-71656D01*
X34273Y-71600D01*
X34217Y-71487D01*
X34104Y-71431D01*
X33936Y-71431D01*
X33823Y-71375D01*
X33767Y-71262D01*
X33767Y-71206D01*
X33823Y-71093D01*
X33936Y-71037D01*
X34104Y-71037D01*
X34217Y-71093D01*
X34667Y-72275D02*
X34723Y-72218D01*
X34836Y-72050D01*
X34892Y-71937D01*
X34948Y-71768D01*
X35004Y-71487D01*
X35004Y-71262D01*
X34948Y-70981D01*
X34892Y-70812D01*
X34836Y-70700D01*
X34723Y-70531D01*
X34667Y-70475D01*
G54D11*
X8064Y-72906D02*
G75*
G03X8064Y-72906I-125J0D01*
G74*
G01*
G54D12*
X9357Y-72203D02*
X9470Y-72203D01*
X9582Y-72259D01*
X9639Y-72315D01*
X9695Y-72428D01*
X9751Y-72653D01*
X9751Y-72934D01*
X9695Y-73159D01*
X9639Y-73271D01*
X9582Y-73327D01*
X9470Y-73384D01*
X9357Y-73384D01*
X9245Y-73327D01*
X9189Y-73271D01*
X9132Y-73159D01*
X9076Y-72934D01*
X9076Y-72653D01*
X9132Y-72428D01*
X9189Y-72315D01*
X9245Y-72259D01*
X9357Y-72203D01*
X10257Y-73271D02*
X10314Y-73327D01*
X10257Y-73384D01*
X10201Y-73327D01*
X10257Y-73271D01*
X10257Y-73384D01*
X11326Y-72203D02*
X11101Y-72203D01*
X10989Y-72259D01*
X10932Y-72315D01*
X10820Y-72484D01*
X10764Y-72709D01*
X10764Y-73159D01*
X10820Y-73271D01*
X10876Y-73327D01*
X10989Y-73384D01*
X11213Y-73384D01*
X11326Y-73327D01*
X11382Y-73271D01*
X11438Y-73159D01*
X11438Y-72877D01*
X11382Y-72765D01*
X11326Y-72709D01*
X11213Y-72653D01*
X10989Y-72653D01*
X10876Y-72709D01*
X10820Y-72765D01*
X10764Y-72877D01*
X12451Y-72596D02*
X12451Y-73384D01*
X12170Y-72146D02*
X11888Y-72990D01*
X12620Y-72990D01*
X13069Y-73384D02*
X13069Y-72596D01*
X13069Y-72709D02*
X13126Y-72653D01*
X13238Y-72596D01*
X13407Y-72596D01*
X13519Y-72653D01*
X13576Y-72765D01*
X13576Y-73384D01*
X13576Y-72765D02*
X13632Y-72653D01*
X13744Y-72596D01*
X13913Y-72596D01*
X14026Y-72653D01*
X14082Y-72765D01*
X14082Y-73384D01*
X14644Y-73384D02*
X14644Y-72596D01*
X14644Y-72709D02*
X14701Y-72653D01*
X14813Y-72596D01*
X14982Y-72596D01*
X15094Y-72653D01*
X15150Y-72765D01*
X15150Y-73384D01*
X15150Y-72765D02*
X15207Y-72653D01*
X15319Y-72596D01*
X15488Y-72596D01*
X15600Y-72653D01*
X15657Y-72765D01*
X15657Y-73384D01*
X17963Y-72146D02*
X16950Y-73665D01*
X19481Y-72203D02*
X19594Y-72203D01*
X19706Y-72259D01*
X19762Y-72315D01*
X19819Y-72428D01*
X19875Y-72653D01*
X19875Y-72934D01*
X19819Y-73159D01*
X19762Y-73271D01*
X19706Y-73327D01*
X19594Y-73384D01*
X19481Y-73384D01*
X19369Y-73327D01*
X19312Y-73271D01*
X19256Y-73159D01*
X19200Y-72934D01*
X19200Y-72653D01*
X19256Y-72428D01*
X19312Y-72315D01*
X19369Y-72259D01*
X19481Y-72203D01*
X20381Y-73271D02*
X20437Y-73327D01*
X20381Y-73384D01*
X20325Y-73327D01*
X20381Y-73271D01*
X20381Y-73384D01*
X21168Y-72203D02*
X21281Y-72203D01*
X21393Y-72259D01*
X21450Y-72315D01*
X21506Y-72428D01*
X21562Y-72653D01*
X21562Y-72934D01*
X21506Y-73159D01*
X21450Y-73271D01*
X21393Y-73327D01*
X21281Y-73384D01*
X21168Y-73384D01*
X21056Y-73327D01*
X21000Y-73271D01*
X20944Y-73159D01*
X20887Y-72934D01*
X20887Y-72653D01*
X20944Y-72428D01*
X21000Y-72315D01*
X21056Y-72259D01*
X21168Y-72203D01*
X22012Y-72315D02*
X22068Y-72259D01*
X22181Y-72203D01*
X22462Y-72203D01*
X22575Y-72259D01*
X22631Y-72315D01*
X22687Y-72428D01*
X22687Y-72540D01*
X22631Y-72709D01*
X21956Y-73384D01*
X22687Y-73384D01*
X23756Y-72203D02*
X23193Y-72203D01*
X23137Y-72765D01*
X23193Y-72709D01*
X23306Y-72653D01*
X23587Y-72653D01*
X23699Y-72709D01*
X23756Y-72765D01*
X23812Y-72877D01*
X23812Y-73159D01*
X23756Y-73271D01*
X23699Y-73327D01*
X23587Y-73384D01*
X23306Y-73384D01*
X23193Y-73327D01*
X23137Y-73271D01*
X24262Y-72203D02*
X24262Y-72428D01*
X24712Y-72203D02*
X24712Y-72428D01*
X26455Y-73834D02*
X26399Y-73777D01*
X26287Y-73609D01*
X26230Y-73496D01*
X26174Y-73327D01*
X26118Y-73046D01*
X26118Y-72821D01*
X26174Y-72540D01*
X26230Y-72371D01*
X26287Y-72259D01*
X26399Y-72090D01*
X26455Y-72034D01*
X27524Y-73384D02*
X26849Y-73384D01*
X27186Y-73384D02*
X27186Y-72203D01*
X27074Y-72371D01*
X26962Y-72484D01*
X26849Y-72540D01*
X28649Y-73384D02*
X27974Y-73384D01*
X28311Y-73384D02*
X28311Y-72203D01*
X28199Y-72371D01*
X28086Y-72484D01*
X27974Y-72540D01*
X29042Y-72203D02*
X29774Y-72203D01*
X29380Y-72653D01*
X29549Y-72653D01*
X29661Y-72709D01*
X29717Y-72765D01*
X29774Y-72877D01*
X29774Y-73159D01*
X29717Y-73271D01*
X29661Y-73327D01*
X29549Y-73384D01*
X29211Y-73384D01*
X29099Y-73327D01*
X29042Y-73271D01*
X31180Y-73384D02*
X31180Y-72203D01*
X31686Y-73384D02*
X31686Y-72765D01*
X31630Y-72653D01*
X31517Y-72596D01*
X31348Y-72596D01*
X31236Y-72653D01*
X31180Y-72709D01*
X32417Y-73384D02*
X32305Y-73327D01*
X32248Y-73271D01*
X32192Y-73159D01*
X32192Y-72821D01*
X32248Y-72709D01*
X32305Y-72653D01*
X32417Y-72596D01*
X32586Y-72596D01*
X32698Y-72653D01*
X32755Y-72709D01*
X32811Y-72821D01*
X32811Y-73159D01*
X32755Y-73271D01*
X32698Y-73327D01*
X32586Y-73384D01*
X32417Y-73384D01*
X33486Y-73384D02*
X33373Y-73327D01*
X33317Y-73215D01*
X33317Y-72203D01*
X34386Y-73327D02*
X34273Y-73384D01*
X34048Y-73384D01*
X33936Y-73327D01*
X33879Y-73215D01*
X33879Y-72765D01*
X33936Y-72653D01*
X34048Y-72596D01*
X34273Y-72596D01*
X34386Y-72653D01*
X34442Y-72765D01*
X34442Y-72877D01*
X33879Y-72990D01*
X34892Y-73327D02*
X35004Y-73384D01*
X35229Y-73384D01*
X35342Y-73327D01*
X35398Y-73215D01*
X35398Y-73159D01*
X35342Y-73046D01*
X35229Y-72990D01*
X35060Y-72990D01*
X34948Y-72934D01*
X34892Y-72821D01*
X34892Y-72765D01*
X34948Y-72653D01*
X35060Y-72596D01*
X35229Y-72596D01*
X35342Y-72653D01*
X35792Y-73834D02*
X35848Y-73777D01*
X35960Y-73609D01*
X36017Y-73496D01*
X36073Y-73327D01*
X36129Y-73046D01*
X36129Y-72821D01*
X36073Y-72540D01*
X36017Y-72371D01*
X35960Y-72259D01*
X35848Y-72090D01*
X35792Y-72034D01*
X7906Y-74307D02*
X7906Y-74622D01*
X7749Y-74465D02*
X8064Y-74465D01*
X9357Y-73762D02*
X9470Y-73762D01*
X9582Y-73818D01*
X9639Y-73874D01*
X9695Y-73987D01*
X9751Y-74212D01*
X9751Y-74493D01*
X9695Y-74718D01*
X9639Y-74830D01*
X9582Y-74886D01*
X9470Y-74943D01*
X9357Y-74943D01*
X9245Y-74886D01*
X9189Y-74830D01*
X9132Y-74718D01*
X9076Y-74493D01*
X9076Y-74212D01*
X9132Y-73987D01*
X9189Y-73874D01*
X9245Y-73818D01*
X9357Y-73762D01*
X10257Y-74830D02*
X10314Y-74886D01*
X10257Y-74943D01*
X10201Y-74886D01*
X10257Y-74830D01*
X10257Y-74943D01*
X10989Y-74268D02*
X10876Y-74212D01*
X10820Y-74155D01*
X10764Y-74043D01*
X10764Y-73987D01*
X10820Y-73874D01*
X10876Y-73818D01*
X10989Y-73762D01*
X11213Y-73762D01*
X11326Y-73818D01*
X11382Y-73874D01*
X11438Y-73987D01*
X11438Y-74043D01*
X11382Y-74155D01*
X11326Y-74212D01*
X11213Y-74268D01*
X10989Y-74268D01*
X10876Y-74324D01*
X10820Y-74380D01*
X10764Y-74493D01*
X10764Y-74718D01*
X10820Y-74830D01*
X10876Y-74886D01*
X10989Y-74943D01*
X11213Y-74943D01*
X11326Y-74886D01*
X11382Y-74830D01*
X11438Y-74718D01*
X11438Y-74493D01*
X11382Y-74380D01*
X11326Y-74324D01*
X11213Y-74268D01*
X12170Y-73762D02*
X12282Y-73762D01*
X12395Y-73818D01*
X12451Y-73874D01*
X12507Y-73987D01*
X12563Y-74212D01*
X12563Y-74493D01*
X12507Y-74718D01*
X12451Y-74830D01*
X12395Y-74886D01*
X12282Y-74943D01*
X12170Y-74943D01*
X12057Y-74886D01*
X12001Y-74830D01*
X11945Y-74718D01*
X11888Y-74493D01*
X11888Y-74212D01*
X11945Y-73987D01*
X12001Y-73874D01*
X12057Y-73818D01*
X12170Y-73762D01*
X13069Y-74943D02*
X13069Y-74155D01*
X13069Y-74268D02*
X13126Y-74212D01*
X13238Y-74155D01*
X13407Y-74155D01*
X13519Y-74212D01*
X13576Y-74324D01*
X13576Y-74943D01*
X13576Y-74324D02*
X13632Y-74212D01*
X13744Y-74155D01*
X13913Y-74155D01*
X14026Y-74212D01*
X14082Y-74324D01*
X14082Y-74943D01*
X14644Y-74943D02*
X14644Y-74155D01*
X14644Y-74268D02*
X14701Y-74212D01*
X14813Y-74155D01*
X14982Y-74155D01*
X15094Y-74212D01*
X15150Y-74324D01*
X15150Y-74943D01*
X15150Y-74324D02*
X15207Y-74212D01*
X15319Y-74155D01*
X15488Y-74155D01*
X15600Y-74212D01*
X15657Y-74324D01*
X15657Y-74943D01*
X17963Y-73705D02*
X16950Y-75224D01*
X19481Y-73762D02*
X19594Y-73762D01*
X19706Y-73818D01*
X19762Y-73874D01*
X19819Y-73987D01*
X19875Y-74212D01*
X19875Y-74493D01*
X19819Y-74718D01*
X19762Y-74830D01*
X19706Y-74886D01*
X19594Y-74943D01*
X19481Y-74943D01*
X19369Y-74886D01*
X19312Y-74830D01*
X19256Y-74718D01*
X19200Y-74493D01*
X19200Y-74212D01*
X19256Y-73987D01*
X19312Y-73874D01*
X19369Y-73818D01*
X19481Y-73762D01*
X20381Y-74830D02*
X20437Y-74886D01*
X20381Y-74943D01*
X20325Y-74886D01*
X20381Y-74830D01*
X20381Y-74943D01*
X21168Y-73762D02*
X21281Y-73762D01*
X21393Y-73818D01*
X21450Y-73874D01*
X21506Y-73987D01*
X21562Y-74212D01*
X21562Y-74493D01*
X21506Y-74718D01*
X21450Y-74830D01*
X21393Y-74886D01*
X21281Y-74943D01*
X21168Y-74943D01*
X21056Y-74886D01*
X21000Y-74830D01*
X20944Y-74718D01*
X20887Y-74493D01*
X20887Y-74212D01*
X20944Y-73987D01*
X21000Y-73874D01*
X21056Y-73818D01*
X21168Y-73762D01*
X21956Y-73762D02*
X22687Y-73762D01*
X22293Y-74212D01*
X22462Y-74212D01*
X22575Y-74268D01*
X22631Y-74324D01*
X22687Y-74437D01*
X22687Y-74718D01*
X22631Y-74830D01*
X22575Y-74886D01*
X22462Y-74943D01*
X22125Y-74943D01*
X22012Y-74886D01*
X21956Y-74830D01*
X23137Y-73874D02*
X23193Y-73818D01*
X23306Y-73762D01*
X23587Y-73762D01*
X23699Y-73818D01*
X23756Y-73874D01*
X23812Y-73987D01*
X23812Y-74099D01*
X23756Y-74268D01*
X23081Y-74943D01*
X23812Y-74943D01*
X24262Y-73762D02*
X24262Y-73987D01*
X24712Y-73762D02*
X24712Y-73987D01*
X26455Y-75393D02*
X26399Y-75336D01*
X26287Y-75168D01*
X26230Y-75055D01*
X26174Y-74886D01*
X26118Y-74605D01*
X26118Y-74380D01*
X26174Y-74099D01*
X26230Y-73930D01*
X26287Y-73818D01*
X26399Y-73649D01*
X26455Y-73593D01*
X26962Y-74943D02*
X27186Y-74943D01*
X27299Y-74886D01*
X27355Y-74830D01*
X27468Y-74662D01*
X27524Y-74437D01*
X27524Y-73987D01*
X27468Y-73874D01*
X27411Y-73818D01*
X27299Y-73762D01*
X27074Y-73762D01*
X26962Y-73818D01*
X26905Y-73874D01*
X26849Y-73987D01*
X26849Y-74268D01*
X26905Y-74380D01*
X26962Y-74437D01*
X27074Y-74493D01*
X27299Y-74493D01*
X27411Y-74437D01*
X27468Y-74380D01*
X27524Y-74268D01*
X28086Y-74943D02*
X28311Y-74943D01*
X28424Y-74886D01*
X28480Y-74830D01*
X28593Y-74662D01*
X28649Y-74437D01*
X28649Y-73987D01*
X28593Y-73874D01*
X28536Y-73818D01*
X28424Y-73762D01*
X28199Y-73762D01*
X28086Y-73818D01*
X28030Y-73874D01*
X27974Y-73987D01*
X27974Y-74268D01*
X28030Y-74380D01*
X28086Y-74437D01*
X28199Y-74493D01*
X28424Y-74493D01*
X28536Y-74437D01*
X28593Y-74380D01*
X28649Y-74268D01*
X30055Y-74943D02*
X30055Y-73762D01*
X30561Y-74943D02*
X30561Y-74324D01*
X30505Y-74212D01*
X30392Y-74155D01*
X30224Y-74155D01*
X30111Y-74212D01*
X30055Y-74268D01*
X31292Y-74943D02*
X31180Y-74886D01*
X31123Y-74830D01*
X31067Y-74718D01*
X31067Y-74380D01*
X31123Y-74268D01*
X31180Y-74212D01*
X31292Y-74155D01*
X31461Y-74155D01*
X31573Y-74212D01*
X31630Y-74268D01*
X31686Y-74380D01*
X31686Y-74718D01*
X31630Y-74830D01*
X31573Y-74886D01*
X31461Y-74943D01*
X31292Y-74943D01*
X32361Y-74943D02*
X32248Y-74886D01*
X32192Y-74774D01*
X32192Y-73762D01*
X33261Y-74886D02*
X33148Y-74943D01*
X32923Y-74943D01*
X32811Y-74886D01*
X32755Y-74774D01*
X32755Y-74324D01*
X32811Y-74212D01*
X32923Y-74155D01*
X33148Y-74155D01*
X33261Y-74212D01*
X33317Y-74324D01*
X33317Y-74437D01*
X32755Y-74549D01*
X33767Y-74886D02*
X33879Y-74943D01*
X34104Y-74943D01*
X34217Y-74886D01*
X34273Y-74774D01*
X34273Y-74718D01*
X34217Y-74605D01*
X34104Y-74549D01*
X33936Y-74549D01*
X33823Y-74493D01*
X33767Y-74380D01*
X33767Y-74324D01*
X33823Y-74212D01*
X33936Y-74155D01*
X34104Y-74155D01*
X34217Y-74212D01*
X34667Y-75393D02*
X34723Y-75336D01*
X34836Y-75168D01*
X34892Y-75055D01*
X34948Y-74886D01*
X35004Y-74605D01*
X35004Y-74380D01*
X34948Y-74099D01*
X34892Y-73930D01*
X34836Y-73818D01*
X34723Y-73649D01*
X34667Y-73593D01*
G54D11*
X8017Y-76137D02*
X8017Y-75911D01*
X7791Y-75911D01*
X7791Y-76137D01*
X8017Y-76137D01*
G54D12*
X9357Y-75321D02*
X9470Y-75321D01*
X9582Y-75377D01*
X9639Y-75433D01*
X9695Y-75546D01*
X9751Y-75771D01*
X9751Y-76052D01*
X9695Y-76277D01*
X9639Y-76389D01*
X9582Y-76446D01*
X9470Y-76502D01*
X9357Y-76502D01*
X9245Y-76446D01*
X9189Y-76389D01*
X9132Y-76277D01*
X9076Y-76052D01*
X9076Y-75771D01*
X9132Y-75546D01*
X9189Y-75433D01*
X9245Y-75377D01*
X9357Y-75321D01*
X10257Y-76389D02*
X10314Y-76446D01*
X10257Y-76502D01*
X10201Y-76446D01*
X10257Y-76389D01*
X10257Y-76502D01*
X10989Y-75827D02*
X10876Y-75771D01*
X10820Y-75714D01*
X10764Y-75602D01*
X10764Y-75546D01*
X10820Y-75433D01*
X10876Y-75377D01*
X10989Y-75321D01*
X11213Y-75321D01*
X11326Y-75377D01*
X11382Y-75433D01*
X11438Y-75546D01*
X11438Y-75602D01*
X11382Y-75714D01*
X11326Y-75771D01*
X11213Y-75827D01*
X10989Y-75827D01*
X10876Y-75883D01*
X10820Y-75939D01*
X10764Y-76052D01*
X10764Y-76277D01*
X10820Y-76389D01*
X10876Y-76446D01*
X10989Y-76502D01*
X11213Y-76502D01*
X11326Y-76446D01*
X11382Y-76389D01*
X11438Y-76277D01*
X11438Y-76052D01*
X11382Y-75939D01*
X11326Y-75883D01*
X11213Y-75827D01*
X12563Y-76502D02*
X11888Y-76502D01*
X12226Y-76502D02*
X12226Y-75321D01*
X12113Y-75489D01*
X12001Y-75602D01*
X11888Y-75658D01*
X13069Y-76502D02*
X13069Y-75714D01*
X13069Y-75827D02*
X13126Y-75771D01*
X13238Y-75714D01*
X13407Y-75714D01*
X13519Y-75771D01*
X13576Y-75883D01*
X13576Y-76502D01*
X13576Y-75883D02*
X13632Y-75771D01*
X13744Y-75714D01*
X13913Y-75714D01*
X14026Y-75771D01*
X14082Y-75883D01*
X14082Y-76502D01*
X14644Y-76502D02*
X14644Y-75714D01*
X14644Y-75827D02*
X14701Y-75771D01*
X14813Y-75714D01*
X14982Y-75714D01*
X15094Y-75771D01*
X15150Y-75883D01*
X15150Y-76502D01*
X15150Y-75883D02*
X15207Y-75771D01*
X15319Y-75714D01*
X15488Y-75714D01*
X15600Y-75771D01*
X15657Y-75883D01*
X15657Y-76502D01*
X17963Y-75264D02*
X16950Y-76783D01*
X19481Y-75321D02*
X19594Y-75321D01*
X19706Y-75377D01*
X19762Y-75433D01*
X19819Y-75546D01*
X19875Y-75771D01*
X19875Y-76052D01*
X19819Y-76277D01*
X19762Y-76389D01*
X19706Y-76446D01*
X19594Y-76502D01*
X19481Y-76502D01*
X19369Y-76446D01*
X19312Y-76389D01*
X19256Y-76277D01*
X19200Y-76052D01*
X19200Y-75771D01*
X19256Y-75546D01*
X19312Y-75433D01*
X19369Y-75377D01*
X19481Y-75321D01*
X20381Y-76389D02*
X20437Y-76446D01*
X20381Y-76502D01*
X20325Y-76446D01*
X20381Y-76389D01*
X20381Y-76502D01*
X21168Y-75321D02*
X21281Y-75321D01*
X21393Y-75377D01*
X21450Y-75433D01*
X21506Y-75546D01*
X21562Y-75771D01*
X21562Y-76052D01*
X21506Y-76277D01*
X21450Y-76389D01*
X21393Y-76446D01*
X21281Y-76502D01*
X21168Y-76502D01*
X21056Y-76446D01*
X21000Y-76389D01*
X20944Y-76277D01*
X20887Y-76052D01*
X20887Y-75771D01*
X20944Y-75546D01*
X21000Y-75433D01*
X21056Y-75377D01*
X21168Y-75321D01*
X21956Y-75321D02*
X22687Y-75321D01*
X22293Y-75771D01*
X22462Y-75771D01*
X22575Y-75827D01*
X22631Y-75883D01*
X22687Y-75996D01*
X22687Y-76277D01*
X22631Y-76389D01*
X22575Y-76446D01*
X22462Y-76502D01*
X22125Y-76502D01*
X22012Y-76446D01*
X21956Y-76389D01*
X23137Y-75433D02*
X23193Y-75377D01*
X23306Y-75321D01*
X23587Y-75321D01*
X23699Y-75377D01*
X23756Y-75433D01*
X23812Y-75546D01*
X23812Y-75658D01*
X23756Y-75827D01*
X23081Y-76502D01*
X23812Y-76502D01*
X24262Y-75321D02*
X24262Y-75546D01*
X24712Y-75321D02*
X24712Y-75546D01*
X26455Y-76952D02*
X26399Y-76895D01*
X26287Y-76727D01*
X26230Y-76614D01*
X26174Y-76446D01*
X26118Y-76164D01*
X26118Y-75939D01*
X26174Y-75658D01*
X26230Y-75489D01*
X26287Y-75377D01*
X26399Y-75208D01*
X26455Y-75152D01*
X26849Y-75433D02*
X26905Y-75377D01*
X27018Y-75321D01*
X27299Y-75321D01*
X27411Y-75377D01*
X27468Y-75433D01*
X27524Y-75546D01*
X27524Y-75658D01*
X27468Y-75827D01*
X26793Y-76502D01*
X27524Y-76502D01*
X28930Y-76502D02*
X28930Y-75321D01*
X29436Y-76502D02*
X29436Y-75883D01*
X29380Y-75771D01*
X29267Y-75714D01*
X29099Y-75714D01*
X28986Y-75771D01*
X28930Y-75827D01*
X30167Y-76502D02*
X30055Y-76446D01*
X29999Y-76389D01*
X29942Y-76277D01*
X29942Y-75939D01*
X29999Y-75827D01*
X30055Y-75771D01*
X30167Y-75714D01*
X30336Y-75714D01*
X30449Y-75771D01*
X30505Y-75827D01*
X30561Y-75939D01*
X30561Y-76277D01*
X30505Y-76389D01*
X30449Y-76446D01*
X30336Y-76502D01*
X30167Y-76502D01*
X31236Y-76502D02*
X31123Y-76446D01*
X31067Y-76333D01*
X31067Y-75321D01*
X32136Y-76446D02*
X32023Y-76502D01*
X31798Y-76502D01*
X31686Y-76446D01*
X31630Y-76333D01*
X31630Y-75883D01*
X31686Y-75771D01*
X31798Y-75714D01*
X32023Y-75714D01*
X32136Y-75771D01*
X32192Y-75883D01*
X32192Y-75996D01*
X31630Y-76108D01*
X32642Y-76446D02*
X32755Y-76502D01*
X32980Y-76502D01*
X33092Y-76446D01*
X33148Y-76333D01*
X33148Y-76277D01*
X33092Y-76164D01*
X32980Y-76108D01*
X32811Y-76108D01*
X32698Y-76052D01*
X32642Y-75939D01*
X32642Y-75883D01*
X32698Y-75771D01*
X32811Y-75714D01*
X32980Y-75714D01*
X33092Y-75771D01*
X33542Y-76952D02*
X33598Y-76895D01*
X33711Y-76727D01*
X33767Y-76614D01*
X33823Y-76446D01*
X33879Y-76164D01*
X33879Y-75939D01*
X33823Y-75658D01*
X33767Y-75489D01*
X33711Y-75377D01*
X33598Y-75208D01*
X33542Y-75152D01*
G54D11*
X7867Y-77780D02*
X8064Y-77583D01*
X7867Y-77386D01*
X7670Y-77583D01*
X7867Y-77780D01*
G54D12*
X9751Y-78061D02*
X9076Y-78061D01*
X9414Y-78061D02*
X9414Y-76880D01*
X9301Y-77048D01*
X9189Y-77161D01*
X9076Y-77217D01*
X10257Y-77948D02*
X10314Y-78005D01*
X10257Y-78061D01*
X10201Y-78005D01*
X10257Y-77948D01*
X10257Y-78061D01*
X11045Y-76880D02*
X11157Y-76880D01*
X11270Y-76936D01*
X11326Y-76992D01*
X11382Y-77105D01*
X11438Y-77330D01*
X11438Y-77611D01*
X11382Y-77836D01*
X11326Y-77948D01*
X11270Y-78005D01*
X11157Y-78061D01*
X11045Y-78061D01*
X10932Y-78005D01*
X10876Y-77948D01*
X10820Y-77836D01*
X10764Y-77611D01*
X10764Y-77330D01*
X10820Y-77105D01*
X10876Y-76992D01*
X10932Y-76936D01*
X11045Y-76880D01*
X12170Y-76880D02*
X12282Y-76880D01*
X12395Y-76936D01*
X12451Y-76992D01*
X12507Y-77105D01*
X12563Y-77330D01*
X12563Y-77611D01*
X12507Y-77836D01*
X12451Y-77948D01*
X12395Y-78005D01*
X12282Y-78061D01*
X12170Y-78061D01*
X12057Y-78005D01*
X12001Y-77948D01*
X11945Y-77836D01*
X11888Y-77611D01*
X11888Y-77330D01*
X11945Y-77105D01*
X12001Y-76992D01*
X12057Y-76936D01*
X12170Y-76880D01*
X13069Y-78061D02*
X13069Y-77273D01*
X13069Y-77386D02*
X13126Y-77330D01*
X13238Y-77273D01*
X13407Y-77273D01*
X13519Y-77330D01*
X13576Y-77442D01*
X13576Y-78061D01*
X13576Y-77442D02*
X13632Y-77330D01*
X13744Y-77273D01*
X13913Y-77273D01*
X14026Y-77330D01*
X14082Y-77442D01*
X14082Y-78061D01*
X14644Y-78061D02*
X14644Y-77273D01*
X14644Y-77386D02*
X14701Y-77330D01*
X14813Y-77273D01*
X14982Y-77273D01*
X15094Y-77330D01*
X15150Y-77442D01*
X15150Y-78061D01*
X15150Y-77442D02*
X15207Y-77330D01*
X15319Y-77273D01*
X15488Y-77273D01*
X15600Y-77330D01*
X15657Y-77442D01*
X15657Y-78061D01*
X17963Y-76823D02*
X16950Y-78342D01*
X19481Y-76880D02*
X19594Y-76880D01*
X19706Y-76936D01*
X19762Y-76992D01*
X19819Y-77105D01*
X19875Y-77330D01*
X19875Y-77611D01*
X19819Y-77836D01*
X19762Y-77948D01*
X19706Y-78005D01*
X19594Y-78061D01*
X19481Y-78061D01*
X19369Y-78005D01*
X19312Y-77948D01*
X19256Y-77836D01*
X19200Y-77611D01*
X19200Y-77330D01*
X19256Y-77105D01*
X19312Y-76992D01*
X19369Y-76936D01*
X19481Y-76880D01*
X20381Y-77948D02*
X20437Y-78005D01*
X20381Y-78061D01*
X20325Y-78005D01*
X20381Y-77948D01*
X20381Y-78061D01*
X21168Y-76880D02*
X21281Y-76880D01*
X21393Y-76936D01*
X21450Y-76992D01*
X21506Y-77105D01*
X21562Y-77330D01*
X21562Y-77611D01*
X21506Y-77836D01*
X21450Y-77948D01*
X21393Y-78005D01*
X21281Y-78061D01*
X21168Y-78061D01*
X21056Y-78005D01*
X21000Y-77948D01*
X20944Y-77836D01*
X20887Y-77611D01*
X20887Y-77330D01*
X20944Y-77105D01*
X21000Y-76992D01*
X21056Y-76936D01*
X21168Y-76880D01*
X21956Y-76880D02*
X22687Y-76880D01*
X22293Y-77330D01*
X22462Y-77330D01*
X22575Y-77386D01*
X22631Y-77442D01*
X22687Y-77555D01*
X22687Y-77836D01*
X22631Y-77948D01*
X22575Y-78005D01*
X22462Y-78061D01*
X22125Y-78061D01*
X22012Y-78005D01*
X21956Y-77948D01*
X23249Y-78061D02*
X23474Y-78061D01*
X23587Y-78005D01*
X23643Y-77948D01*
X23756Y-77780D01*
X23812Y-77555D01*
X23812Y-77105D01*
X23756Y-76992D01*
X23699Y-76936D01*
X23587Y-76880D01*
X23362Y-76880D01*
X23249Y-76936D01*
X23193Y-76992D01*
X23137Y-77105D01*
X23137Y-77386D01*
X23193Y-77498D01*
X23249Y-77555D01*
X23362Y-77611D01*
X23587Y-77611D01*
X23699Y-77555D01*
X23756Y-77498D01*
X23812Y-77386D01*
X24262Y-76880D02*
X24262Y-77105D01*
X24712Y-76880D02*
X24712Y-77105D01*
X26455Y-78511D02*
X26399Y-78455D01*
X26287Y-78286D01*
X26230Y-78173D01*
X26174Y-78005D01*
X26118Y-77723D01*
X26118Y-77498D01*
X26174Y-77217D01*
X26230Y-77048D01*
X26287Y-76936D01*
X26399Y-76767D01*
X26455Y-76711D01*
X27524Y-78061D02*
X26849Y-78061D01*
X27186Y-78061D02*
X27186Y-76880D01*
X27074Y-77048D01*
X26962Y-77161D01*
X26849Y-77217D01*
X27918Y-76880D02*
X28649Y-76880D01*
X28255Y-77330D01*
X28424Y-77330D01*
X28536Y-77386D01*
X28593Y-77442D01*
X28649Y-77555D01*
X28649Y-77836D01*
X28593Y-77948D01*
X28536Y-78005D01*
X28424Y-78061D01*
X28086Y-78061D01*
X27974Y-78005D01*
X27918Y-77948D01*
X30055Y-78061D02*
X30055Y-76880D01*
X30561Y-78061D02*
X30561Y-77442D01*
X30505Y-77330D01*
X30392Y-77273D01*
X30224Y-77273D01*
X30111Y-77330D01*
X30055Y-77386D01*
X31292Y-78061D02*
X31180Y-78005D01*
X31123Y-77948D01*
X31067Y-77836D01*
X31067Y-77498D01*
X31123Y-77386D01*
X31180Y-77330D01*
X31292Y-77273D01*
X31461Y-77273D01*
X31573Y-77330D01*
X31630Y-77386D01*
X31686Y-77498D01*
X31686Y-77836D01*
X31630Y-77948D01*
X31573Y-78005D01*
X31461Y-78061D01*
X31292Y-78061D01*
X32361Y-78061D02*
X32248Y-78005D01*
X32192Y-77892D01*
X32192Y-76880D01*
X33261Y-78005D02*
X33148Y-78061D01*
X32923Y-78061D01*
X32811Y-78005D01*
X32755Y-77892D01*
X32755Y-77442D01*
X32811Y-77330D01*
X32923Y-77273D01*
X33148Y-77273D01*
X33261Y-77330D01*
X33317Y-77442D01*
X33317Y-77555D01*
X32755Y-77667D01*
X33767Y-78005D02*
X33879Y-78061D01*
X34104Y-78061D01*
X34217Y-78005D01*
X34273Y-77892D01*
X34273Y-77836D01*
X34217Y-77723D01*
X34104Y-77667D01*
X33936Y-77667D01*
X33823Y-77611D01*
X33767Y-77498D01*
X33767Y-77442D01*
X33823Y-77330D01*
X33936Y-77273D01*
X34104Y-77273D01*
X34217Y-77330D01*
X34667Y-78511D02*
X34723Y-78455D01*
X34836Y-78286D01*
X34892Y-78173D01*
X34948Y-78005D01*
X35004Y-77723D01*
X35004Y-77498D01*
X34948Y-77217D01*
X34892Y-77048D01*
X34836Y-76936D01*
X34723Y-76767D01*
X34667Y-76711D01*
X7664Y-78942D02*
X8064Y-79342D01*
X8064Y-78942D02*
X7664Y-79342D01*
G54D11*
X8064Y-79142D02*
G75*
G03X8064Y-79142I-200J0D01*
G74*
G01*
G54D12*
X9751Y-79620D02*
X9076Y-79620D01*
X9414Y-79620D02*
X9414Y-78439D01*
X9301Y-78608D01*
X9189Y-78720D01*
X9076Y-78776D01*
X10257Y-79507D02*
X10314Y-79564D01*
X10257Y-79620D01*
X10201Y-79564D01*
X10257Y-79507D01*
X10257Y-79620D01*
X11045Y-78439D02*
X11157Y-78439D01*
X11270Y-78495D01*
X11326Y-78551D01*
X11382Y-78664D01*
X11438Y-78889D01*
X11438Y-79170D01*
X11382Y-79395D01*
X11326Y-79507D01*
X11270Y-79564D01*
X11157Y-79620D01*
X11045Y-79620D01*
X10932Y-79564D01*
X10876Y-79507D01*
X10820Y-79395D01*
X10764Y-79170D01*
X10764Y-78889D01*
X10820Y-78664D01*
X10876Y-78551D01*
X10932Y-78495D01*
X11045Y-78439D01*
X11888Y-78551D02*
X11945Y-78495D01*
X12057Y-78439D01*
X12338Y-78439D01*
X12451Y-78495D01*
X12507Y-78551D01*
X12563Y-78664D01*
X12563Y-78776D01*
X12507Y-78945D01*
X11832Y-79620D01*
X12563Y-79620D01*
X13069Y-79620D02*
X13069Y-78832D01*
X13069Y-78945D02*
X13126Y-78889D01*
X13238Y-78832D01*
X13407Y-78832D01*
X13519Y-78889D01*
X13576Y-79001D01*
X13576Y-79620D01*
X13576Y-79001D02*
X13632Y-78889D01*
X13744Y-78832D01*
X13913Y-78832D01*
X14026Y-78889D01*
X14082Y-79001D01*
X14082Y-79620D01*
X14644Y-79620D02*
X14644Y-78832D01*
X14644Y-78945D02*
X14701Y-78889D01*
X14813Y-78832D01*
X14982Y-78832D01*
X15094Y-78889D01*
X15150Y-79001D01*
X15150Y-79620D01*
X15150Y-79001D02*
X15207Y-78889D01*
X15319Y-78832D01*
X15488Y-78832D01*
X15600Y-78889D01*
X15657Y-79001D01*
X15657Y-79620D01*
X17963Y-78383D02*
X16950Y-79901D01*
X19481Y-78439D02*
X19594Y-78439D01*
X19706Y-78495D01*
X19762Y-78551D01*
X19819Y-78664D01*
X19875Y-78889D01*
X19875Y-79170D01*
X19819Y-79395D01*
X19762Y-79507D01*
X19706Y-79564D01*
X19594Y-79620D01*
X19481Y-79620D01*
X19369Y-79564D01*
X19312Y-79507D01*
X19256Y-79395D01*
X19200Y-79170D01*
X19200Y-78889D01*
X19256Y-78664D01*
X19312Y-78551D01*
X19369Y-78495D01*
X19481Y-78439D01*
X20381Y-79507D02*
X20437Y-79564D01*
X20381Y-79620D01*
X20325Y-79564D01*
X20381Y-79507D01*
X20381Y-79620D01*
X21168Y-78439D02*
X21281Y-78439D01*
X21393Y-78495D01*
X21450Y-78551D01*
X21506Y-78664D01*
X21562Y-78889D01*
X21562Y-79170D01*
X21506Y-79395D01*
X21450Y-79507D01*
X21393Y-79564D01*
X21281Y-79620D01*
X21168Y-79620D01*
X21056Y-79564D01*
X21000Y-79507D01*
X20944Y-79395D01*
X20887Y-79170D01*
X20887Y-78889D01*
X20944Y-78664D01*
X21000Y-78551D01*
X21056Y-78495D01*
X21168Y-78439D01*
X22575Y-78832D02*
X22575Y-79620D01*
X22293Y-78383D02*
X22012Y-79226D01*
X22743Y-79226D01*
X23418Y-78439D02*
X23531Y-78439D01*
X23643Y-78495D01*
X23699Y-78551D01*
X23756Y-78664D01*
X23812Y-78889D01*
X23812Y-79170D01*
X23756Y-79395D01*
X23699Y-79507D01*
X23643Y-79564D01*
X23531Y-79620D01*
X23418Y-79620D01*
X23306Y-79564D01*
X23249Y-79507D01*
X23193Y-79395D01*
X23137Y-79170D01*
X23137Y-78889D01*
X23193Y-78664D01*
X23249Y-78551D01*
X23306Y-78495D01*
X23418Y-78439D01*
X24262Y-78439D02*
X24262Y-78664D01*
X24712Y-78439D02*
X24712Y-78664D01*
X26455Y-80070D02*
X26399Y-80014D01*
X26287Y-79845D01*
X26230Y-79732D01*
X26174Y-79564D01*
X26118Y-79282D01*
X26118Y-79057D01*
X26174Y-78776D01*
X26230Y-78608D01*
X26287Y-78495D01*
X26399Y-78326D01*
X26455Y-78270D01*
X27524Y-79620D02*
X26849Y-79620D01*
X27186Y-79620D02*
X27186Y-78439D01*
X27074Y-78608D01*
X26962Y-78720D01*
X26849Y-78776D01*
X27918Y-78439D02*
X28705Y-78439D01*
X28199Y-79620D01*
X29661Y-78832D02*
X29661Y-79620D01*
X29380Y-78383D02*
X29099Y-79226D01*
X29830Y-79226D01*
X31180Y-79620D02*
X31180Y-78439D01*
X31686Y-79620D02*
X31686Y-79001D01*
X31630Y-78889D01*
X31517Y-78832D01*
X31348Y-78832D01*
X31236Y-78889D01*
X31180Y-78945D01*
X32417Y-79620D02*
X32305Y-79564D01*
X32248Y-79507D01*
X32192Y-79395D01*
X32192Y-79057D01*
X32248Y-78945D01*
X32305Y-78889D01*
X32417Y-78832D01*
X32586Y-78832D01*
X32698Y-78889D01*
X32755Y-78945D01*
X32811Y-79057D01*
X32811Y-79395D01*
X32755Y-79507D01*
X32698Y-79564D01*
X32586Y-79620D01*
X32417Y-79620D01*
X33486Y-79620D02*
X33373Y-79564D01*
X33317Y-79451D01*
X33317Y-78439D01*
X34386Y-79564D02*
X34273Y-79620D01*
X34048Y-79620D01*
X33936Y-79564D01*
X33879Y-79451D01*
X33879Y-79001D01*
X33936Y-78889D01*
X34048Y-78832D01*
X34273Y-78832D01*
X34386Y-78889D01*
X34442Y-79001D01*
X34442Y-79114D01*
X33879Y-79226D01*
X34892Y-79564D02*
X35004Y-79620D01*
X35229Y-79620D01*
X35342Y-79564D01*
X35398Y-79451D01*
X35398Y-79395D01*
X35342Y-79282D01*
X35229Y-79226D01*
X35060Y-79226D01*
X34948Y-79170D01*
X34892Y-79057D01*
X34892Y-79001D01*
X34948Y-78889D01*
X35060Y-78832D01*
X35229Y-78832D01*
X35342Y-78889D01*
X35792Y-80070D02*
X35848Y-80014D01*
X35960Y-79845D01*
X36017Y-79732D01*
X36073Y-79564D01*
X36129Y-79282D01*
X36129Y-79057D01*
X36073Y-78776D01*
X36017Y-78608D01*
X35960Y-78495D01*
X35848Y-78326D01*
X35792Y-78270D01*
X7604Y-80471D02*
X8064Y-80931D01*
X8064Y-80471D02*
X7604Y-80931D01*
X7834Y-80471D02*
X7834Y-80931D01*
X7604Y-80701D02*
X8064Y-80701D01*
X9751Y-81179D02*
X9076Y-81179D01*
X9414Y-81179D02*
X9414Y-79998D01*
X9301Y-80167D01*
X9189Y-80279D01*
X9076Y-80335D01*
X10257Y-81066D02*
X10314Y-81123D01*
X10257Y-81179D01*
X10201Y-81123D01*
X10257Y-81066D01*
X10257Y-81179D01*
X11438Y-81179D02*
X10764Y-81179D01*
X11101Y-81179D02*
X11101Y-79998D01*
X10989Y-80167D01*
X10876Y-80279D01*
X10764Y-80335D01*
X11832Y-79998D02*
X12620Y-79998D01*
X12113Y-81179D01*
X13069Y-81179D02*
X13069Y-80392D01*
X13069Y-80504D02*
X13126Y-80448D01*
X13238Y-80392D01*
X13407Y-80392D01*
X13519Y-80448D01*
X13576Y-80560D01*
X13576Y-81179D01*
X13576Y-80560D02*
X13632Y-80448D01*
X13744Y-80392D01*
X13913Y-80392D01*
X14026Y-80448D01*
X14082Y-80560D01*
X14082Y-81179D01*
X14644Y-81179D02*
X14644Y-80392D01*
X14644Y-80504D02*
X14701Y-80448D01*
X14813Y-80392D01*
X14982Y-80392D01*
X15094Y-80448D01*
X15150Y-80560D01*
X15150Y-81179D01*
X15150Y-80560D02*
X15207Y-80448D01*
X15319Y-80392D01*
X15488Y-80392D01*
X15600Y-80448D01*
X15657Y-80560D01*
X15657Y-81179D01*
X17963Y-79942D02*
X16950Y-81460D01*
X19481Y-79998D02*
X19594Y-79998D01*
X19706Y-80054D01*
X19762Y-80110D01*
X19819Y-80223D01*
X19875Y-80448D01*
X19875Y-80729D01*
X19819Y-80954D01*
X19762Y-81066D01*
X19706Y-81123D01*
X19594Y-81179D01*
X19481Y-81179D01*
X19369Y-81123D01*
X19312Y-81066D01*
X19256Y-80954D01*
X19200Y-80729D01*
X19200Y-80448D01*
X19256Y-80223D01*
X19312Y-80110D01*
X19369Y-80054D01*
X19481Y-79998D01*
X20381Y-81066D02*
X20437Y-81123D01*
X20381Y-81179D01*
X20325Y-81123D01*
X20381Y-81066D01*
X20381Y-81179D01*
X21168Y-79998D02*
X21281Y-79998D01*
X21393Y-80054D01*
X21450Y-80110D01*
X21506Y-80223D01*
X21562Y-80448D01*
X21562Y-80729D01*
X21506Y-80954D01*
X21450Y-81066D01*
X21393Y-81123D01*
X21281Y-81179D01*
X21168Y-81179D01*
X21056Y-81123D01*
X21000Y-81066D01*
X20944Y-80954D01*
X20887Y-80729D01*
X20887Y-80448D01*
X20944Y-80223D01*
X21000Y-80110D01*
X21056Y-80054D01*
X21168Y-79998D01*
X22575Y-80392D02*
X22575Y-81179D01*
X22293Y-79942D02*
X22012Y-80785D01*
X22743Y-80785D01*
X23699Y-79998D02*
X23474Y-79998D01*
X23362Y-80054D01*
X23306Y-80110D01*
X23193Y-80279D01*
X23137Y-80504D01*
X23137Y-80954D01*
X23193Y-81066D01*
X23249Y-81123D01*
X23362Y-81179D01*
X23587Y-81179D01*
X23699Y-81123D01*
X23756Y-81066D01*
X23812Y-80954D01*
X23812Y-80673D01*
X23756Y-80560D01*
X23699Y-80504D01*
X23587Y-80448D01*
X23362Y-80448D01*
X23249Y-80504D01*
X23193Y-80560D01*
X23137Y-80673D01*
X24262Y-79998D02*
X24262Y-80223D01*
X24712Y-79998D02*
X24712Y-80223D01*
X26455Y-81629D02*
X26399Y-81573D01*
X26287Y-81404D01*
X26230Y-81291D01*
X26174Y-81123D01*
X26118Y-80841D01*
X26118Y-80617D01*
X26174Y-80335D01*
X26230Y-80167D01*
X26287Y-80054D01*
X26399Y-79885D01*
X26455Y-79829D01*
X27130Y-79998D02*
X27243Y-79998D01*
X27355Y-80054D01*
X27411Y-80110D01*
X27468Y-80223D01*
X27524Y-80448D01*
X27524Y-80729D01*
X27468Y-80954D01*
X27411Y-81066D01*
X27355Y-81123D01*
X27243Y-81179D01*
X27130Y-81179D01*
X27018Y-81123D01*
X26962Y-81066D01*
X26905Y-80954D01*
X26849Y-80729D01*
X26849Y-80448D01*
X26905Y-80223D01*
X26962Y-80110D01*
X27018Y-80054D01*
X27130Y-79998D01*
X28930Y-81179D02*
X28930Y-79998D01*
X29436Y-81179D02*
X29436Y-80560D01*
X29380Y-80448D01*
X29267Y-80392D01*
X29099Y-80392D01*
X28986Y-80448D01*
X28930Y-80504D01*
X30167Y-81179D02*
X30055Y-81123D01*
X29999Y-81066D01*
X29942Y-80954D01*
X29942Y-80617D01*
X29999Y-80504D01*
X30055Y-80448D01*
X30167Y-80392D01*
X30336Y-80392D01*
X30449Y-80448D01*
X30505Y-80504D01*
X30561Y-80617D01*
X30561Y-80954D01*
X30505Y-81066D01*
X30449Y-81123D01*
X30336Y-81179D01*
X30167Y-81179D01*
X31236Y-81179D02*
X31123Y-81123D01*
X31067Y-81010D01*
X31067Y-79998D01*
X32136Y-81123D02*
X32023Y-81179D01*
X31798Y-81179D01*
X31686Y-81123D01*
X31630Y-81010D01*
X31630Y-80560D01*
X31686Y-80448D01*
X31798Y-80392D01*
X32023Y-80392D01*
X32136Y-80448D01*
X32192Y-80560D01*
X32192Y-80673D01*
X31630Y-80785D01*
X32642Y-81123D02*
X32755Y-81179D01*
X32980Y-81179D01*
X33092Y-81123D01*
X33148Y-81010D01*
X33148Y-80954D01*
X33092Y-80841D01*
X32980Y-80785D01*
X32811Y-80785D01*
X32698Y-80729D01*
X32642Y-80617D01*
X32642Y-80560D01*
X32698Y-80448D01*
X32811Y-80392D01*
X32980Y-80392D01*
X33092Y-80448D01*
X34554Y-80729D02*
X35454Y-80729D01*
X35004Y-81179D02*
X35004Y-80279D01*
X36804Y-79998D02*
X37535Y-79998D01*
X37141Y-80448D01*
X37310Y-80448D01*
X37423Y-80504D01*
X37479Y-80560D01*
X37535Y-80673D01*
X37535Y-80954D01*
X37479Y-81066D01*
X37423Y-81123D01*
X37310Y-81179D01*
X36973Y-81179D01*
X36860Y-81123D01*
X36804Y-81066D01*
X38885Y-81123D02*
X38998Y-81179D01*
X39222Y-81179D01*
X39335Y-81123D01*
X39391Y-81010D01*
X39391Y-80954D01*
X39335Y-80841D01*
X39222Y-80785D01*
X39054Y-80785D01*
X38941Y-80729D01*
X38885Y-80617D01*
X38885Y-80560D01*
X38941Y-80448D01*
X39054Y-80392D01*
X39222Y-80392D01*
X39335Y-80448D01*
X40066Y-81179D02*
X39954Y-81123D01*
X39897Y-81010D01*
X39897Y-79998D01*
X40685Y-81179D02*
X40572Y-81123D01*
X40516Y-81066D01*
X40460Y-80954D01*
X40460Y-80617D01*
X40516Y-80504D01*
X40572Y-80448D01*
X40685Y-80392D01*
X40854Y-80392D01*
X40966Y-80448D01*
X41022Y-80504D01*
X41078Y-80617D01*
X41078Y-80954D01*
X41022Y-81066D01*
X40966Y-81123D01*
X40854Y-81179D01*
X40685Y-81179D01*
X41416Y-80392D02*
X41866Y-80392D01*
X41585Y-79998D02*
X41585Y-81010D01*
X41641Y-81123D01*
X41753Y-81179D01*
X41866Y-81179D01*
X42203Y-81123D02*
X42316Y-81179D01*
X42541Y-81179D01*
X42653Y-81123D01*
X42710Y-81010D01*
X42710Y-80954D01*
X42653Y-80841D01*
X42541Y-80785D01*
X42372Y-80785D01*
X42260Y-80729D01*
X42203Y-80617D01*
X42203Y-80560D01*
X42260Y-80448D01*
X42372Y-80392D01*
X42541Y-80392D01*
X42653Y-80448D01*
X43103Y-81629D02*
X43159Y-81573D01*
X43272Y-81404D01*
X43328Y-81291D01*
X43384Y-81123D01*
X43441Y-80841D01*
X43441Y-80617D01*
X43384Y-80335D01*
X43328Y-80167D01*
X43272Y-80054D01*
X43159Y-79885D01*
X43103Y-79829D01*
X7564Y-82010D02*
X8064Y-82510D01*
X8064Y-82010D02*
X7564Y-82510D01*
G54D11*
X7991Y-82437D02*
X7991Y-82083D01*
X7637Y-82083D01*
X7637Y-82437D01*
X7991Y-82437D01*
G54D12*
X9751Y-82738D02*
X9076Y-82738D01*
X9414Y-82738D02*
X9414Y-81557D01*
X9301Y-81726D01*
X9189Y-81838D01*
X9076Y-81894D01*
X10257Y-82626D02*
X10314Y-82682D01*
X10257Y-82738D01*
X10201Y-82682D01*
X10257Y-82626D01*
X10257Y-82738D01*
X10764Y-81669D02*
X10820Y-81613D01*
X10932Y-81557D01*
X11213Y-81557D01*
X11326Y-81613D01*
X11382Y-81669D01*
X11438Y-81782D01*
X11438Y-81894D01*
X11382Y-82063D01*
X10707Y-82738D01*
X11438Y-82738D01*
X11832Y-81557D02*
X12620Y-81557D01*
X12113Y-82738D01*
X13069Y-82738D02*
X13069Y-81951D01*
X13069Y-82063D02*
X13126Y-82007D01*
X13238Y-81951D01*
X13407Y-81951D01*
X13519Y-82007D01*
X13576Y-82119D01*
X13576Y-82738D01*
X13576Y-82119D02*
X13632Y-82007D01*
X13744Y-81951D01*
X13913Y-81951D01*
X14026Y-82007D01*
X14082Y-82119D01*
X14082Y-82738D01*
X14644Y-82738D02*
X14644Y-81951D01*
X14644Y-82063D02*
X14701Y-82007D01*
X14813Y-81951D01*
X14982Y-81951D01*
X15094Y-82007D01*
X15150Y-82119D01*
X15150Y-82738D01*
X15150Y-82119D02*
X15207Y-82007D01*
X15319Y-81951D01*
X15488Y-81951D01*
X15600Y-82007D01*
X15657Y-82119D01*
X15657Y-82738D01*
X17963Y-81501D02*
X16950Y-83019D01*
X19481Y-81557D02*
X19594Y-81557D01*
X19706Y-81613D01*
X19762Y-81669D01*
X19819Y-81782D01*
X19875Y-82007D01*
X19875Y-82288D01*
X19819Y-82513D01*
X19762Y-82626D01*
X19706Y-82682D01*
X19594Y-82738D01*
X19481Y-82738D01*
X19369Y-82682D01*
X19312Y-82626D01*
X19256Y-82513D01*
X19200Y-82288D01*
X19200Y-82007D01*
X19256Y-81782D01*
X19312Y-81669D01*
X19369Y-81613D01*
X19481Y-81557D01*
X20381Y-82626D02*
X20437Y-82682D01*
X20381Y-82738D01*
X20325Y-82682D01*
X20381Y-82626D01*
X20381Y-82738D01*
X21168Y-81557D02*
X21281Y-81557D01*
X21393Y-81613D01*
X21450Y-81669D01*
X21506Y-81782D01*
X21562Y-82007D01*
X21562Y-82288D01*
X21506Y-82513D01*
X21450Y-82626D01*
X21393Y-82682D01*
X21281Y-82738D01*
X21168Y-82738D01*
X21056Y-82682D01*
X21000Y-82626D01*
X20944Y-82513D01*
X20887Y-82288D01*
X20887Y-82007D01*
X20944Y-81782D01*
X21000Y-81669D01*
X21056Y-81613D01*
X21168Y-81557D01*
X22631Y-81557D02*
X22068Y-81557D01*
X22012Y-82119D01*
X22068Y-82063D01*
X22181Y-82007D01*
X22462Y-82007D01*
X22575Y-82063D01*
X22631Y-82119D01*
X22687Y-82232D01*
X22687Y-82513D01*
X22631Y-82626D01*
X22575Y-82682D01*
X22462Y-82738D01*
X22181Y-82738D01*
X22068Y-82682D01*
X22012Y-82626D01*
X23418Y-81557D02*
X23531Y-81557D01*
X23643Y-81613D01*
X23699Y-81669D01*
X23756Y-81782D01*
X23812Y-82007D01*
X23812Y-82288D01*
X23756Y-82513D01*
X23699Y-82626D01*
X23643Y-82682D01*
X23531Y-82738D01*
X23418Y-82738D01*
X23306Y-82682D01*
X23249Y-82626D01*
X23193Y-82513D01*
X23137Y-82288D01*
X23137Y-82007D01*
X23193Y-81782D01*
X23249Y-81669D01*
X23306Y-81613D01*
X23418Y-81557D01*
X24262Y-81557D02*
X24262Y-81782D01*
X24712Y-81557D02*
X24712Y-81782D01*
X26455Y-83188D02*
X26399Y-83132D01*
X26287Y-82963D01*
X26230Y-82850D01*
X26174Y-82682D01*
X26118Y-82401D01*
X26118Y-82176D01*
X26174Y-81894D01*
X26230Y-81726D01*
X26287Y-81613D01*
X26399Y-81444D01*
X26455Y-81388D01*
X27524Y-82738D02*
X26849Y-82738D01*
X27186Y-82738D02*
X27186Y-81557D01*
X27074Y-81726D01*
X26962Y-81838D01*
X26849Y-81894D01*
X27974Y-81669D02*
X28030Y-81613D01*
X28143Y-81557D01*
X28424Y-81557D01*
X28536Y-81613D01*
X28593Y-81669D01*
X28649Y-81782D01*
X28649Y-81894D01*
X28593Y-82063D01*
X27918Y-82738D01*
X28649Y-82738D01*
X30055Y-82738D02*
X30055Y-81557D01*
X30561Y-82738D02*
X30561Y-82119D01*
X30505Y-82007D01*
X30392Y-81951D01*
X30224Y-81951D01*
X30111Y-82007D01*
X30055Y-82063D01*
X31292Y-82738D02*
X31180Y-82682D01*
X31123Y-82626D01*
X31067Y-82513D01*
X31067Y-82176D01*
X31123Y-82063D01*
X31180Y-82007D01*
X31292Y-81951D01*
X31461Y-81951D01*
X31573Y-82007D01*
X31630Y-82063D01*
X31686Y-82176D01*
X31686Y-82513D01*
X31630Y-82626D01*
X31573Y-82682D01*
X31461Y-82738D01*
X31292Y-82738D01*
X32361Y-82738D02*
X32248Y-82682D01*
X32192Y-82569D01*
X32192Y-81557D01*
X33261Y-82682D02*
X33148Y-82738D01*
X32923Y-82738D01*
X32811Y-82682D01*
X32755Y-82569D01*
X32755Y-82119D01*
X32811Y-82007D01*
X32923Y-81951D01*
X33148Y-81951D01*
X33261Y-82007D01*
X33317Y-82119D01*
X33317Y-82232D01*
X32755Y-82344D01*
X33767Y-82682D02*
X33879Y-82738D01*
X34104Y-82738D01*
X34217Y-82682D01*
X34273Y-82569D01*
X34273Y-82513D01*
X34217Y-82401D01*
X34104Y-82344D01*
X33936Y-82344D01*
X33823Y-82288D01*
X33767Y-82176D01*
X33767Y-82119D01*
X33823Y-82007D01*
X33936Y-81951D01*
X34104Y-81951D01*
X34217Y-82007D01*
X34667Y-83188D02*
X34723Y-83132D01*
X34836Y-82963D01*
X34892Y-82850D01*
X34948Y-82682D01*
X35004Y-82401D01*
X35004Y-82176D01*
X34948Y-81894D01*
X34892Y-81726D01*
X34836Y-81613D01*
X34723Y-81444D01*
X34667Y-81388D01*
X7464Y-83519D02*
X8064Y-84119D01*
X8064Y-83519D02*
X7464Y-84119D01*
G54D11*
X7764Y-84119D02*
X8064Y-83819D01*
X7764Y-83519D01*
X7464Y-83819D01*
X7764Y-84119D01*
G54D12*
X9751Y-84297D02*
X9076Y-84297D01*
X9414Y-84297D02*
X9414Y-83116D01*
X9301Y-83285D01*
X9189Y-83397D01*
X9076Y-83453D01*
X10257Y-84185D02*
X10314Y-84241D01*
X10257Y-84297D01*
X10201Y-84241D01*
X10257Y-84185D01*
X10257Y-84297D01*
X11382Y-83116D02*
X10820Y-83116D01*
X10764Y-83678D01*
X10820Y-83622D01*
X10932Y-83566D01*
X11213Y-83566D01*
X11326Y-83622D01*
X11382Y-83678D01*
X11438Y-83791D01*
X11438Y-84072D01*
X11382Y-84185D01*
X11326Y-84241D01*
X11213Y-84297D01*
X10932Y-84297D01*
X10820Y-84241D01*
X10764Y-84185D01*
X11888Y-83228D02*
X11945Y-83172D01*
X12057Y-83116D01*
X12338Y-83116D01*
X12451Y-83172D01*
X12507Y-83228D01*
X12563Y-83341D01*
X12563Y-83453D01*
X12507Y-83622D01*
X11832Y-84297D01*
X12563Y-84297D01*
X13069Y-84297D02*
X13069Y-83510D01*
X13069Y-83622D02*
X13126Y-83566D01*
X13238Y-83510D01*
X13407Y-83510D01*
X13519Y-83566D01*
X13576Y-83678D01*
X13576Y-84297D01*
X13576Y-83678D02*
X13632Y-83566D01*
X13744Y-83510D01*
X13913Y-83510D01*
X14026Y-83566D01*
X14082Y-83678D01*
X14082Y-84297D01*
X14644Y-84297D02*
X14644Y-83510D01*
X14644Y-83622D02*
X14701Y-83566D01*
X14813Y-83510D01*
X14982Y-83510D01*
X15094Y-83566D01*
X15150Y-83678D01*
X15150Y-84297D01*
X15150Y-83678D02*
X15207Y-83566D01*
X15319Y-83510D01*
X15488Y-83510D01*
X15600Y-83566D01*
X15657Y-83678D01*
X15657Y-84297D01*
X17963Y-83060D02*
X16950Y-84578D01*
X19481Y-83116D02*
X19594Y-83116D01*
X19706Y-83172D01*
X19762Y-83228D01*
X19819Y-83341D01*
X19875Y-83566D01*
X19875Y-83847D01*
X19819Y-84072D01*
X19762Y-84185D01*
X19706Y-84241D01*
X19594Y-84297D01*
X19481Y-84297D01*
X19369Y-84241D01*
X19312Y-84185D01*
X19256Y-84072D01*
X19200Y-83847D01*
X19200Y-83566D01*
X19256Y-83341D01*
X19312Y-83228D01*
X19369Y-83172D01*
X19481Y-83116D01*
X20381Y-84185D02*
X20437Y-84241D01*
X20381Y-84297D01*
X20325Y-84241D01*
X20381Y-84185D01*
X20381Y-84297D01*
X21168Y-83116D02*
X21281Y-83116D01*
X21393Y-83172D01*
X21450Y-83228D01*
X21506Y-83341D01*
X21562Y-83566D01*
X21562Y-83847D01*
X21506Y-84072D01*
X21450Y-84185D01*
X21393Y-84241D01*
X21281Y-84297D01*
X21168Y-84297D01*
X21056Y-84241D01*
X21000Y-84185D01*
X20944Y-84072D01*
X20887Y-83847D01*
X20887Y-83566D01*
X20944Y-83341D01*
X21000Y-83228D01*
X21056Y-83172D01*
X21168Y-83116D01*
X22575Y-83116D02*
X22350Y-83116D01*
X22237Y-83172D01*
X22181Y-83228D01*
X22068Y-83397D01*
X22012Y-83622D01*
X22012Y-84072D01*
X22068Y-84185D01*
X22125Y-84241D01*
X22237Y-84297D01*
X22462Y-84297D01*
X22575Y-84241D01*
X22631Y-84185D01*
X22687Y-84072D01*
X22687Y-83791D01*
X22631Y-83678D01*
X22575Y-83622D01*
X22462Y-83566D01*
X22237Y-83566D01*
X22125Y-83622D01*
X22068Y-83678D01*
X22012Y-83791D01*
X23418Y-83116D02*
X23531Y-83116D01*
X23643Y-83172D01*
X23699Y-83228D01*
X23756Y-83341D01*
X23812Y-83566D01*
X23812Y-83847D01*
X23756Y-84072D01*
X23699Y-84185D01*
X23643Y-84241D01*
X23531Y-84297D01*
X23418Y-84297D01*
X23306Y-84241D01*
X23249Y-84185D01*
X23193Y-84072D01*
X23137Y-83847D01*
X23137Y-83566D01*
X23193Y-83341D01*
X23249Y-83228D01*
X23306Y-83172D01*
X23418Y-83116D01*
X24262Y-83116D02*
X24262Y-83341D01*
X24712Y-83116D02*
X24712Y-83341D01*
X26455Y-84747D02*
X26399Y-84691D01*
X26287Y-84522D01*
X26230Y-84410D01*
X26174Y-84241D01*
X26118Y-83960D01*
X26118Y-83735D01*
X26174Y-83453D01*
X26230Y-83285D01*
X26287Y-83172D01*
X26399Y-83003D01*
X26455Y-82947D01*
X27411Y-83510D02*
X27411Y-84297D01*
X27130Y-83060D02*
X26849Y-83903D01*
X27580Y-83903D01*
X28930Y-84297D02*
X28930Y-83116D01*
X29436Y-84297D02*
X29436Y-83678D01*
X29380Y-83566D01*
X29267Y-83510D01*
X29099Y-83510D01*
X28986Y-83566D01*
X28930Y-83622D01*
X30167Y-84297D02*
X30055Y-84241D01*
X29999Y-84185D01*
X29942Y-84072D01*
X29942Y-83735D01*
X29999Y-83622D01*
X30055Y-83566D01*
X30167Y-83510D01*
X30336Y-83510D01*
X30449Y-83566D01*
X30505Y-83622D01*
X30561Y-83735D01*
X30561Y-84072D01*
X30505Y-84185D01*
X30449Y-84241D01*
X30336Y-84297D01*
X30167Y-84297D01*
X31236Y-84297D02*
X31123Y-84241D01*
X31067Y-84128D01*
X31067Y-83116D01*
X32136Y-84241D02*
X32023Y-84297D01*
X31798Y-84297D01*
X31686Y-84241D01*
X31630Y-84128D01*
X31630Y-83678D01*
X31686Y-83566D01*
X31798Y-83510D01*
X32023Y-83510D01*
X32136Y-83566D01*
X32192Y-83678D01*
X32192Y-83791D01*
X31630Y-83903D01*
X32642Y-84241D02*
X32755Y-84297D01*
X32980Y-84297D01*
X33092Y-84241D01*
X33148Y-84128D01*
X33148Y-84072D01*
X33092Y-83960D01*
X32980Y-83903D01*
X32811Y-83903D01*
X32698Y-83847D01*
X32642Y-83735D01*
X32642Y-83678D01*
X32698Y-83566D01*
X32811Y-83510D01*
X32980Y-83510D01*
X33092Y-83566D01*
X33542Y-84747D02*
X33598Y-84691D01*
X33711Y-84522D01*
X33767Y-84410D01*
X33823Y-84241D01*
X33879Y-83960D01*
X33879Y-83735D01*
X33823Y-83453D01*
X33767Y-83285D01*
X33711Y-83172D01*
X33598Y-83003D01*
X33542Y-82947D01*
X7664Y-84978D02*
X7664Y-85778D01*
X7264Y-85378D02*
X8064Y-85378D01*
G54D11*
X8064Y-85378D02*
G75*
G03X8064Y-85378I-400J0D01*
G74*
G01*
G54D12*
X9076Y-84787D02*
X9132Y-84731D01*
X9245Y-84675D01*
X9526Y-84675D01*
X9639Y-84731D01*
X9695Y-84787D01*
X9751Y-84900D01*
X9751Y-85012D01*
X9695Y-85181D01*
X9020Y-85856D01*
X9751Y-85856D01*
X10257Y-85744D02*
X10314Y-85800D01*
X10257Y-85856D01*
X10201Y-85800D01*
X10257Y-85744D01*
X10257Y-85856D01*
X11045Y-84675D02*
X11157Y-84675D01*
X11270Y-84731D01*
X11326Y-84787D01*
X11382Y-84900D01*
X11438Y-85125D01*
X11438Y-85406D01*
X11382Y-85631D01*
X11326Y-85744D01*
X11270Y-85800D01*
X11157Y-85856D01*
X11045Y-85856D01*
X10932Y-85800D01*
X10876Y-85744D01*
X10820Y-85631D01*
X10764Y-85406D01*
X10764Y-85125D01*
X10820Y-84900D01*
X10876Y-84787D01*
X10932Y-84731D01*
X11045Y-84675D01*
X11832Y-84675D02*
X12563Y-84675D01*
X12170Y-85125D01*
X12338Y-85125D01*
X12451Y-85181D01*
X12507Y-85237D01*
X12563Y-85350D01*
X12563Y-85631D01*
X12507Y-85744D01*
X12451Y-85800D01*
X12338Y-85856D01*
X12001Y-85856D01*
X11888Y-85800D01*
X11832Y-85744D01*
X13069Y-85856D02*
X13069Y-85069D01*
X13069Y-85181D02*
X13126Y-85125D01*
X13238Y-85069D01*
X13407Y-85069D01*
X13519Y-85125D01*
X13576Y-85237D01*
X13576Y-85856D01*
X13576Y-85237D02*
X13632Y-85125D01*
X13744Y-85069D01*
X13913Y-85069D01*
X14026Y-85125D01*
X14082Y-85237D01*
X14082Y-85856D01*
X14644Y-85856D02*
X14644Y-85069D01*
X14644Y-85181D02*
X14701Y-85125D01*
X14813Y-85069D01*
X14982Y-85069D01*
X15094Y-85125D01*
X15150Y-85237D01*
X15150Y-85856D01*
X15150Y-85237D02*
X15207Y-85125D01*
X15319Y-85069D01*
X15488Y-85069D01*
X15600Y-85125D01*
X15657Y-85237D01*
X15657Y-85856D01*
X17963Y-84619D02*
X16950Y-86137D01*
X19481Y-84675D02*
X19594Y-84675D01*
X19706Y-84731D01*
X19762Y-84787D01*
X19819Y-84900D01*
X19875Y-85125D01*
X19875Y-85406D01*
X19819Y-85631D01*
X19762Y-85744D01*
X19706Y-85800D01*
X19594Y-85856D01*
X19481Y-85856D01*
X19369Y-85800D01*
X19312Y-85744D01*
X19256Y-85631D01*
X19200Y-85406D01*
X19200Y-85125D01*
X19256Y-84900D01*
X19312Y-84787D01*
X19369Y-84731D01*
X19481Y-84675D01*
X20381Y-85744D02*
X20437Y-85800D01*
X20381Y-85856D01*
X20325Y-85800D01*
X20381Y-85744D01*
X20381Y-85856D01*
X21168Y-84675D02*
X21281Y-84675D01*
X21393Y-84731D01*
X21450Y-84787D01*
X21506Y-84900D01*
X21562Y-85125D01*
X21562Y-85406D01*
X21506Y-85631D01*
X21450Y-85744D01*
X21393Y-85800D01*
X21281Y-85856D01*
X21168Y-85856D01*
X21056Y-85800D01*
X21000Y-85744D01*
X20944Y-85631D01*
X20887Y-85406D01*
X20887Y-85125D01*
X20944Y-84900D01*
X21000Y-84787D01*
X21056Y-84731D01*
X21168Y-84675D01*
X22237Y-85181D02*
X22125Y-85125D01*
X22068Y-85069D01*
X22012Y-84956D01*
X22012Y-84900D01*
X22068Y-84787D01*
X22125Y-84731D01*
X22237Y-84675D01*
X22462Y-84675D01*
X22575Y-84731D01*
X22631Y-84787D01*
X22687Y-84900D01*
X22687Y-84956D01*
X22631Y-85069D01*
X22575Y-85125D01*
X22462Y-85181D01*
X22237Y-85181D01*
X22125Y-85237D01*
X22068Y-85294D01*
X22012Y-85406D01*
X22012Y-85631D01*
X22068Y-85744D01*
X22125Y-85800D01*
X22237Y-85856D01*
X22462Y-85856D01*
X22575Y-85800D01*
X22631Y-85744D01*
X22687Y-85631D01*
X22687Y-85406D01*
X22631Y-85294D01*
X22575Y-85237D01*
X22462Y-85181D01*
X23418Y-84675D02*
X23531Y-84675D01*
X23643Y-84731D01*
X23699Y-84787D01*
X23756Y-84900D01*
X23812Y-85125D01*
X23812Y-85406D01*
X23756Y-85631D01*
X23699Y-85744D01*
X23643Y-85800D01*
X23531Y-85856D01*
X23418Y-85856D01*
X23306Y-85800D01*
X23249Y-85744D01*
X23193Y-85631D01*
X23137Y-85406D01*
X23137Y-85125D01*
X23193Y-84900D01*
X23249Y-84787D01*
X23306Y-84731D01*
X23418Y-84675D01*
X24262Y-84675D02*
X24262Y-84900D01*
X24712Y-84675D02*
X24712Y-84900D01*
X26455Y-86306D02*
X26399Y-86250D01*
X26287Y-86081D01*
X26230Y-85969D01*
X26174Y-85800D01*
X26118Y-85519D01*
X26118Y-85294D01*
X26174Y-85012D01*
X26230Y-84844D01*
X26287Y-84731D01*
X26399Y-84563D01*
X26455Y-84506D01*
X26849Y-84787D02*
X26905Y-84731D01*
X27018Y-84675D01*
X27299Y-84675D01*
X27411Y-84731D01*
X27468Y-84787D01*
X27524Y-84900D01*
X27524Y-85012D01*
X27468Y-85181D01*
X26793Y-85856D01*
X27524Y-85856D01*
X28930Y-85856D02*
X28930Y-84675D01*
X29436Y-85856D02*
X29436Y-85237D01*
X29380Y-85125D01*
X29267Y-85069D01*
X29099Y-85069D01*
X28986Y-85125D01*
X28930Y-85181D01*
X30167Y-85856D02*
X30055Y-85800D01*
X29999Y-85744D01*
X29942Y-85631D01*
X29942Y-85294D01*
X29999Y-85181D01*
X30055Y-85125D01*
X30167Y-85069D01*
X30336Y-85069D01*
X30449Y-85125D01*
X30505Y-85181D01*
X30561Y-85294D01*
X30561Y-85631D01*
X30505Y-85744D01*
X30449Y-85800D01*
X30336Y-85856D01*
X30167Y-85856D01*
X31236Y-85856D02*
X31123Y-85800D01*
X31067Y-85687D01*
X31067Y-84675D01*
X32136Y-85800D02*
X32023Y-85856D01*
X31798Y-85856D01*
X31686Y-85800D01*
X31630Y-85687D01*
X31630Y-85237D01*
X31686Y-85125D01*
X31798Y-85069D01*
X32023Y-85069D01*
X32136Y-85125D01*
X32192Y-85237D01*
X32192Y-85350D01*
X31630Y-85462D01*
X32642Y-85800D02*
X32755Y-85856D01*
X32980Y-85856D01*
X33092Y-85800D01*
X33148Y-85687D01*
X33148Y-85631D01*
X33092Y-85519D01*
X32980Y-85462D01*
X32811Y-85462D01*
X32698Y-85406D01*
X32642Y-85294D01*
X32642Y-85237D01*
X32698Y-85125D01*
X32811Y-85069D01*
X32980Y-85069D01*
X33092Y-85125D01*
X33542Y-86306D02*
X33598Y-86250D01*
X33711Y-86081D01*
X33767Y-85969D01*
X33823Y-85800D01*
X33879Y-85519D01*
X33879Y-85294D01*
X33823Y-85012D01*
X33767Y-84844D01*
X33711Y-84731D01*
X33598Y-84563D01*
X33542Y-84506D01*
G54D11*
X7891Y-87355D02*
X7891Y-86520D01*
X7056Y-86520D01*
X7056Y-87355D01*
X7891Y-87355D01*
X8064Y-86937D02*
G75*
G03X8064Y-86937I-590J0D01*
G74*
G01*
G54D12*
X9020Y-86234D02*
X9751Y-86234D01*
X9357Y-86684D01*
X9526Y-86684D01*
X9639Y-86740D01*
X9695Y-86796D01*
X9751Y-86909D01*
X9751Y-87190D01*
X9695Y-87303D01*
X9639Y-87359D01*
X9526Y-87415D01*
X9189Y-87415D01*
X9076Y-87359D01*
X9020Y-87303D01*
X10257Y-87303D02*
X10314Y-87359D01*
X10257Y-87415D01*
X10201Y-87359D01*
X10257Y-87303D01*
X10257Y-87415D01*
X11045Y-86234D02*
X11157Y-86234D01*
X11270Y-86290D01*
X11326Y-86347D01*
X11382Y-86459D01*
X11438Y-86684D01*
X11438Y-86965D01*
X11382Y-87190D01*
X11326Y-87303D01*
X11270Y-87359D01*
X11157Y-87415D01*
X11045Y-87415D01*
X10932Y-87359D01*
X10876Y-87303D01*
X10820Y-87190D01*
X10764Y-86965D01*
X10764Y-86684D01*
X10820Y-86459D01*
X10876Y-86347D01*
X10932Y-86290D01*
X11045Y-86234D01*
X12170Y-86234D02*
X12282Y-86234D01*
X12395Y-86290D01*
X12451Y-86347D01*
X12507Y-86459D01*
X12563Y-86684D01*
X12563Y-86965D01*
X12507Y-87190D01*
X12451Y-87303D01*
X12395Y-87359D01*
X12282Y-87415D01*
X12170Y-87415D01*
X12057Y-87359D01*
X12001Y-87303D01*
X11945Y-87190D01*
X11888Y-86965D01*
X11888Y-86684D01*
X11945Y-86459D01*
X12001Y-86347D01*
X12057Y-86290D01*
X12170Y-86234D01*
X13069Y-87415D02*
X13069Y-86628D01*
X13069Y-86740D02*
X13126Y-86684D01*
X13238Y-86628D01*
X13407Y-86628D01*
X13519Y-86684D01*
X13576Y-86796D01*
X13576Y-87415D01*
X13576Y-86796D02*
X13632Y-86684D01*
X13744Y-86628D01*
X13913Y-86628D01*
X14026Y-86684D01*
X14082Y-86796D01*
X14082Y-87415D01*
X14644Y-87415D02*
X14644Y-86628D01*
X14644Y-86740D02*
X14701Y-86684D01*
X14813Y-86628D01*
X14982Y-86628D01*
X15094Y-86684D01*
X15150Y-86796D01*
X15150Y-87415D01*
X15150Y-86796D02*
X15207Y-86684D01*
X15319Y-86628D01*
X15488Y-86628D01*
X15600Y-86684D01*
X15657Y-86796D01*
X15657Y-87415D01*
X17963Y-86178D02*
X16950Y-87696D01*
X19481Y-86234D02*
X19594Y-86234D01*
X19706Y-86290D01*
X19762Y-86347D01*
X19819Y-86459D01*
X19875Y-86684D01*
X19875Y-86965D01*
X19819Y-87190D01*
X19762Y-87303D01*
X19706Y-87359D01*
X19594Y-87415D01*
X19481Y-87415D01*
X19369Y-87359D01*
X19312Y-87303D01*
X19256Y-87190D01*
X19200Y-86965D01*
X19200Y-86684D01*
X19256Y-86459D01*
X19312Y-86347D01*
X19369Y-86290D01*
X19481Y-86234D01*
X20381Y-87303D02*
X20437Y-87359D01*
X20381Y-87415D01*
X20325Y-87359D01*
X20381Y-87303D01*
X20381Y-87415D01*
X21562Y-87415D02*
X20887Y-87415D01*
X21225Y-87415D02*
X21225Y-86234D01*
X21112Y-86403D01*
X21000Y-86515D01*
X20887Y-86572D01*
X22687Y-87415D02*
X22012Y-87415D01*
X22350Y-87415D02*
X22350Y-86234D01*
X22237Y-86403D01*
X22125Y-86515D01*
X22012Y-86572D01*
X23362Y-86740D02*
X23249Y-86684D01*
X23193Y-86628D01*
X23137Y-86515D01*
X23137Y-86459D01*
X23193Y-86347D01*
X23249Y-86290D01*
X23362Y-86234D01*
X23587Y-86234D01*
X23699Y-86290D01*
X23756Y-86347D01*
X23812Y-86459D01*
X23812Y-86515D01*
X23756Y-86628D01*
X23699Y-86684D01*
X23587Y-86740D01*
X23362Y-86740D01*
X23249Y-86796D01*
X23193Y-86853D01*
X23137Y-86965D01*
X23137Y-87190D01*
X23193Y-87303D01*
X23249Y-87359D01*
X23362Y-87415D01*
X23587Y-87415D01*
X23699Y-87359D01*
X23756Y-87303D01*
X23812Y-87190D01*
X23812Y-86965D01*
X23756Y-86853D01*
X23699Y-86796D01*
X23587Y-86740D01*
X24262Y-86234D02*
X24262Y-86459D01*
X24712Y-86234D02*
X24712Y-86459D01*
X26455Y-87865D02*
X26399Y-87809D01*
X26287Y-87640D01*
X26230Y-87528D01*
X26174Y-87359D01*
X26118Y-87078D01*
X26118Y-86853D01*
X26174Y-86572D01*
X26230Y-86403D01*
X26287Y-86290D01*
X26399Y-86122D01*
X26455Y-86065D01*
X27074Y-86740D02*
X26962Y-86684D01*
X26905Y-86628D01*
X26849Y-86515D01*
X26849Y-86459D01*
X26905Y-86347D01*
X26962Y-86290D01*
X27074Y-86234D01*
X27299Y-86234D01*
X27411Y-86290D01*
X27468Y-86347D01*
X27524Y-86459D01*
X27524Y-86515D01*
X27468Y-86628D01*
X27411Y-86684D01*
X27299Y-86740D01*
X27074Y-86740D01*
X26962Y-86796D01*
X26905Y-86853D01*
X26849Y-86965D01*
X26849Y-87190D01*
X26905Y-87303D01*
X26962Y-87359D01*
X27074Y-87415D01*
X27299Y-87415D01*
X27411Y-87359D01*
X27468Y-87303D01*
X27524Y-87190D01*
X27524Y-86965D01*
X27468Y-86853D01*
X27411Y-86796D01*
X27299Y-86740D01*
X28930Y-87415D02*
X28930Y-86234D01*
X29436Y-87415D02*
X29436Y-86796D01*
X29380Y-86684D01*
X29267Y-86628D01*
X29099Y-86628D01*
X28986Y-86684D01*
X28930Y-86740D01*
X30167Y-87415D02*
X30055Y-87359D01*
X29999Y-87303D01*
X29942Y-87190D01*
X29942Y-86853D01*
X29999Y-86740D01*
X30055Y-86684D01*
X30167Y-86628D01*
X30336Y-86628D01*
X30449Y-86684D01*
X30505Y-86740D01*
X30561Y-86853D01*
X30561Y-87190D01*
X30505Y-87303D01*
X30449Y-87359D01*
X30336Y-87415D01*
X30167Y-87415D01*
X31236Y-87415D02*
X31123Y-87359D01*
X31067Y-87246D01*
X31067Y-86234D01*
X32136Y-87359D02*
X32023Y-87415D01*
X31798Y-87415D01*
X31686Y-87359D01*
X31630Y-87246D01*
X31630Y-86796D01*
X31686Y-86684D01*
X31798Y-86628D01*
X32023Y-86628D01*
X32136Y-86684D01*
X32192Y-86796D01*
X32192Y-86909D01*
X31630Y-87021D01*
X32642Y-87359D02*
X32755Y-87415D01*
X32980Y-87415D01*
X33092Y-87359D01*
X33148Y-87246D01*
X33148Y-87190D01*
X33092Y-87078D01*
X32980Y-87021D01*
X32811Y-87021D01*
X32698Y-86965D01*
X32642Y-86853D01*
X32642Y-86796D01*
X32698Y-86684D01*
X32811Y-86628D01*
X32980Y-86628D01*
X33092Y-86684D01*
X33542Y-87865D02*
X33598Y-87809D01*
X33711Y-87640D01*
X33767Y-87528D01*
X33823Y-87359D01*
X33879Y-87078D01*
X33879Y-86853D01*
X33823Y-86572D01*
X33767Y-86403D01*
X33711Y-86290D01*
X33598Y-86122D01*
X33542Y-86065D01*
G54D11*
X7464Y-89230D02*
X8064Y-88630D01*
X7464Y-88030D01*
X6864Y-88630D01*
X7464Y-89230D01*
X8064Y-88630D02*
G75*
G03X8064Y-88630I-600J0D01*
G74*
G01*
G54D12*
X9020Y-87927D02*
X9751Y-87927D01*
X9357Y-88377D01*
X9526Y-88377D01*
X9639Y-88433D01*
X9695Y-88489D01*
X9751Y-88602D01*
X9751Y-88883D01*
X9695Y-88996D01*
X9639Y-89052D01*
X9526Y-89108D01*
X9189Y-89108D01*
X9076Y-89052D01*
X9020Y-88996D01*
X10257Y-88996D02*
X10314Y-89052D01*
X10257Y-89108D01*
X10201Y-89052D01*
X10257Y-88996D01*
X10257Y-89108D01*
X11045Y-87927D02*
X11157Y-87927D01*
X11270Y-87983D01*
X11326Y-88039D01*
X11382Y-88152D01*
X11438Y-88377D01*
X11438Y-88658D01*
X11382Y-88883D01*
X11326Y-88996D01*
X11270Y-89052D01*
X11157Y-89108D01*
X11045Y-89108D01*
X10932Y-89052D01*
X10876Y-88996D01*
X10820Y-88883D01*
X10764Y-88658D01*
X10764Y-88377D01*
X10820Y-88152D01*
X10876Y-88039D01*
X10932Y-87983D01*
X11045Y-87927D01*
X12507Y-87927D02*
X11945Y-87927D01*
X11888Y-88489D01*
X11945Y-88433D01*
X12057Y-88377D01*
X12338Y-88377D01*
X12451Y-88433D01*
X12507Y-88489D01*
X12563Y-88602D01*
X12563Y-88883D01*
X12507Y-88996D01*
X12451Y-89052D01*
X12338Y-89108D01*
X12057Y-89108D01*
X11945Y-89052D01*
X11888Y-88996D01*
X13069Y-89108D02*
X13069Y-88321D01*
X13069Y-88433D02*
X13126Y-88377D01*
X13238Y-88321D01*
X13407Y-88321D01*
X13519Y-88377D01*
X13576Y-88489D01*
X13576Y-89108D01*
X13576Y-88489D02*
X13632Y-88377D01*
X13744Y-88321D01*
X13913Y-88321D01*
X14026Y-88377D01*
X14082Y-88489D01*
X14082Y-89108D01*
X14644Y-89108D02*
X14644Y-88321D01*
X14644Y-88433D02*
X14701Y-88377D01*
X14813Y-88321D01*
X14982Y-88321D01*
X15094Y-88377D01*
X15150Y-88489D01*
X15150Y-89108D01*
X15150Y-88489D02*
X15207Y-88377D01*
X15319Y-88321D01*
X15488Y-88321D01*
X15600Y-88377D01*
X15657Y-88489D01*
X15657Y-89108D01*
X17963Y-87871D02*
X16950Y-89389D01*
X19481Y-87927D02*
X19594Y-87927D01*
X19706Y-87983D01*
X19762Y-88039D01*
X19819Y-88152D01*
X19875Y-88377D01*
X19875Y-88658D01*
X19819Y-88883D01*
X19762Y-88996D01*
X19706Y-89052D01*
X19594Y-89108D01*
X19481Y-89108D01*
X19369Y-89052D01*
X19312Y-88996D01*
X19256Y-88883D01*
X19200Y-88658D01*
X19200Y-88377D01*
X19256Y-88152D01*
X19312Y-88039D01*
X19369Y-87983D01*
X19481Y-87927D01*
X20381Y-88996D02*
X20437Y-89052D01*
X20381Y-89108D01*
X20325Y-89052D01*
X20381Y-88996D01*
X20381Y-89108D01*
X21562Y-89108D02*
X20887Y-89108D01*
X21225Y-89108D02*
X21225Y-87927D01*
X21112Y-88096D01*
X21000Y-88208D01*
X20887Y-88264D01*
X22012Y-88039D02*
X22068Y-87983D01*
X22181Y-87927D01*
X22462Y-87927D01*
X22575Y-87983D01*
X22631Y-88039D01*
X22687Y-88152D01*
X22687Y-88264D01*
X22631Y-88433D01*
X21956Y-89108D01*
X22687Y-89108D01*
X23418Y-87927D02*
X23531Y-87927D01*
X23643Y-87983D01*
X23699Y-88039D01*
X23756Y-88152D01*
X23812Y-88377D01*
X23812Y-88658D01*
X23756Y-88883D01*
X23699Y-88996D01*
X23643Y-89052D01*
X23531Y-89108D01*
X23418Y-89108D01*
X23306Y-89052D01*
X23249Y-88996D01*
X23193Y-88883D01*
X23137Y-88658D01*
X23137Y-88377D01*
X23193Y-88152D01*
X23249Y-88039D01*
X23306Y-87983D01*
X23418Y-87927D01*
X24262Y-87927D02*
X24262Y-88152D01*
X24712Y-87927D02*
X24712Y-88152D01*
X26455Y-89558D02*
X26399Y-89502D01*
X26287Y-89333D01*
X26230Y-89221D01*
X26174Y-89052D01*
X26118Y-88771D01*
X26118Y-88546D01*
X26174Y-88264D01*
X26230Y-88096D01*
X26287Y-87983D01*
X26399Y-87814D01*
X26455Y-87758D01*
X27524Y-89108D02*
X26849Y-89108D01*
X27186Y-89108D02*
X27186Y-87927D01*
X27074Y-88096D01*
X26962Y-88208D01*
X26849Y-88264D01*
X28255Y-87927D02*
X28368Y-87927D01*
X28480Y-87983D01*
X28536Y-88039D01*
X28593Y-88152D01*
X28649Y-88377D01*
X28649Y-88658D01*
X28593Y-88883D01*
X28536Y-88996D01*
X28480Y-89052D01*
X28368Y-89108D01*
X28255Y-89108D01*
X28143Y-89052D01*
X28086Y-88996D01*
X28030Y-88883D01*
X27974Y-88658D01*
X27974Y-88377D01*
X28030Y-88152D01*
X28086Y-88039D01*
X28143Y-87983D01*
X28255Y-87927D01*
X30055Y-89108D02*
X30055Y-87927D01*
X30561Y-89108D02*
X30561Y-88489D01*
X30505Y-88377D01*
X30392Y-88321D01*
X30224Y-88321D01*
X30111Y-88377D01*
X30055Y-88433D01*
X31292Y-89108D02*
X31180Y-89052D01*
X31123Y-88996D01*
X31067Y-88883D01*
X31067Y-88546D01*
X31123Y-88433D01*
X31180Y-88377D01*
X31292Y-88321D01*
X31461Y-88321D01*
X31573Y-88377D01*
X31630Y-88433D01*
X31686Y-88546D01*
X31686Y-88883D01*
X31630Y-88996D01*
X31573Y-89052D01*
X31461Y-89108D01*
X31292Y-89108D01*
X32361Y-89108D02*
X32248Y-89052D01*
X32192Y-88939D01*
X32192Y-87927D01*
X33261Y-89052D02*
X33148Y-89108D01*
X32923Y-89108D01*
X32811Y-89052D01*
X32755Y-88939D01*
X32755Y-88489D01*
X32811Y-88377D01*
X32923Y-88321D01*
X33148Y-88321D01*
X33261Y-88377D01*
X33317Y-88489D01*
X33317Y-88602D01*
X32755Y-88714D01*
X33767Y-89052D02*
X33879Y-89108D01*
X34104Y-89108D01*
X34217Y-89052D01*
X34273Y-88939D01*
X34273Y-88883D01*
X34217Y-88771D01*
X34104Y-88714D01*
X33936Y-88714D01*
X33823Y-88658D01*
X33767Y-88546D01*
X33767Y-88489D01*
X33823Y-88377D01*
X33936Y-88321D01*
X34104Y-88321D01*
X34217Y-88377D01*
X34667Y-89558D02*
X34723Y-89502D01*
X34836Y-89333D01*
X34892Y-89221D01*
X34948Y-89052D01*
X35004Y-88771D01*
X35004Y-88546D01*
X34948Y-88264D01*
X34892Y-88096D01*
X34836Y-87983D01*
X34723Y-87814D01*
X34667Y-87758D01*
X7439Y-89717D02*
X7439Y-90967D01*
X6814Y-90342D02*
X8064Y-90342D01*
G54D11*
X7881Y-90784D02*
X7881Y-89900D01*
X6997Y-89900D01*
X6997Y-90784D01*
X7881Y-90784D01*
G54D12*
X9020Y-89639D02*
X9751Y-89639D01*
X9357Y-90089D01*
X9526Y-90089D01*
X9639Y-90145D01*
X9695Y-90201D01*
X9751Y-90314D01*
X9751Y-90595D01*
X9695Y-90707D01*
X9639Y-90764D01*
X9526Y-90820D01*
X9189Y-90820D01*
X9076Y-90764D01*
X9020Y-90707D01*
X10257Y-90707D02*
X10314Y-90764D01*
X10257Y-90820D01*
X10201Y-90764D01*
X10257Y-90707D01*
X10257Y-90820D01*
X11438Y-90820D02*
X10764Y-90820D01*
X11101Y-90820D02*
X11101Y-89639D01*
X10989Y-89808D01*
X10876Y-89920D01*
X10764Y-89976D01*
X11832Y-89639D02*
X12620Y-89639D01*
X12113Y-90820D01*
X13069Y-90820D02*
X13069Y-90032D01*
X13069Y-90145D02*
X13126Y-90089D01*
X13238Y-90032D01*
X13407Y-90032D01*
X13519Y-90089D01*
X13576Y-90201D01*
X13576Y-90820D01*
X13576Y-90201D02*
X13632Y-90089D01*
X13744Y-90032D01*
X13913Y-90032D01*
X14026Y-90089D01*
X14082Y-90201D01*
X14082Y-90820D01*
X14644Y-90820D02*
X14644Y-90032D01*
X14644Y-90145D02*
X14701Y-90089D01*
X14813Y-90032D01*
X14982Y-90032D01*
X15094Y-90089D01*
X15150Y-90201D01*
X15150Y-90820D01*
X15150Y-90201D02*
X15207Y-90089D01*
X15319Y-90032D01*
X15488Y-90032D01*
X15600Y-90089D01*
X15657Y-90201D01*
X15657Y-90820D01*
X17963Y-89583D02*
X16950Y-91101D01*
X19481Y-89639D02*
X19594Y-89639D01*
X19706Y-89695D01*
X19762Y-89751D01*
X19819Y-89864D01*
X19875Y-90089D01*
X19875Y-90370D01*
X19819Y-90595D01*
X19762Y-90707D01*
X19706Y-90764D01*
X19594Y-90820D01*
X19481Y-90820D01*
X19369Y-90764D01*
X19312Y-90707D01*
X19256Y-90595D01*
X19200Y-90370D01*
X19200Y-90089D01*
X19256Y-89864D01*
X19312Y-89751D01*
X19369Y-89695D01*
X19481Y-89639D01*
X20381Y-90707D02*
X20437Y-90764D01*
X20381Y-90820D01*
X20325Y-90764D01*
X20381Y-90707D01*
X20381Y-90820D01*
X21562Y-90820D02*
X20887Y-90820D01*
X21225Y-90820D02*
X21225Y-89639D01*
X21112Y-89808D01*
X21000Y-89920D01*
X20887Y-89976D01*
X22012Y-89751D02*
X22068Y-89695D01*
X22181Y-89639D01*
X22462Y-89639D01*
X22575Y-89695D01*
X22631Y-89751D01*
X22687Y-89864D01*
X22687Y-89976D01*
X22631Y-90145D01*
X21956Y-90820D01*
X22687Y-90820D01*
X23756Y-89639D02*
X23193Y-89639D01*
X23137Y-90201D01*
X23193Y-90145D01*
X23306Y-90089D01*
X23587Y-90089D01*
X23699Y-90145D01*
X23756Y-90201D01*
X23812Y-90314D01*
X23812Y-90595D01*
X23756Y-90707D01*
X23699Y-90764D01*
X23587Y-90820D01*
X23306Y-90820D01*
X23193Y-90764D01*
X23137Y-90707D01*
X24262Y-89639D02*
X24262Y-89864D01*
X24712Y-89639D02*
X24712Y-89864D01*
X26455Y-91270D02*
X26399Y-91214D01*
X26287Y-91045D01*
X26230Y-90932D01*
X26174Y-90764D01*
X26118Y-90482D01*
X26118Y-90257D01*
X26174Y-89976D01*
X26230Y-89808D01*
X26287Y-89695D01*
X26399Y-89526D01*
X26455Y-89470D01*
X27411Y-90032D02*
X27411Y-90820D01*
X27130Y-89583D02*
X26849Y-90426D01*
X27580Y-90426D01*
X28930Y-90820D02*
X28930Y-89639D01*
X29436Y-90820D02*
X29436Y-90201D01*
X29380Y-90089D01*
X29267Y-90032D01*
X29099Y-90032D01*
X28986Y-90089D01*
X28930Y-90145D01*
X30167Y-90820D02*
X30055Y-90764D01*
X29999Y-90707D01*
X29942Y-90595D01*
X29942Y-90257D01*
X29999Y-90145D01*
X30055Y-90089D01*
X30167Y-90032D01*
X30336Y-90032D01*
X30449Y-90089D01*
X30505Y-90145D01*
X30561Y-90257D01*
X30561Y-90595D01*
X30505Y-90707D01*
X30449Y-90764D01*
X30336Y-90820D01*
X30167Y-90820D01*
X31236Y-90820D02*
X31123Y-90764D01*
X31067Y-90651D01*
X31067Y-89639D01*
X32136Y-90764D02*
X32023Y-90820D01*
X31798Y-90820D01*
X31686Y-90764D01*
X31630Y-90651D01*
X31630Y-90201D01*
X31686Y-90089D01*
X31798Y-90032D01*
X32023Y-90032D01*
X32136Y-90089D01*
X32192Y-90201D01*
X32192Y-90314D01*
X31630Y-90426D01*
X32642Y-90764D02*
X32755Y-90820D01*
X32980Y-90820D01*
X33092Y-90764D01*
X33148Y-90651D01*
X33148Y-90595D01*
X33092Y-90482D01*
X32980Y-90426D01*
X32811Y-90426D01*
X32698Y-90370D01*
X32642Y-90257D01*
X32642Y-90201D01*
X32698Y-90089D01*
X32811Y-90032D01*
X32980Y-90032D01*
X33092Y-90089D01*
X33542Y-91270D02*
X33598Y-91214D01*
X33711Y-91045D01*
X33767Y-90932D01*
X33823Y-90764D01*
X33879Y-90482D01*
X33879Y-90257D01*
X33823Y-89976D01*
X33767Y-89808D01*
X33711Y-89695D01*
X33598Y-89526D01*
X33542Y-89470D01*
X7375Y-91415D02*
X7375Y-92793D01*
X6686Y-92104D02*
X8064Y-92104D01*
G54D11*
X7375Y-92793D02*
X8064Y-92104D01*
X7375Y-91415D01*
X6686Y-92104D01*
X7375Y-92793D01*
G54D12*
X9020Y-91401D02*
X9751Y-91401D01*
X9357Y-91851D01*
X9526Y-91851D01*
X9639Y-91907D01*
X9695Y-91963D01*
X9751Y-92076D01*
X9751Y-92357D01*
X9695Y-92469D01*
X9639Y-92525D01*
X9526Y-92582D01*
X9189Y-92582D01*
X9076Y-92525D01*
X9020Y-92469D01*
X10257Y-92469D02*
X10314Y-92525D01*
X10257Y-92582D01*
X10201Y-92525D01*
X10257Y-92469D01*
X10257Y-92582D01*
X11382Y-91401D02*
X10820Y-91401D01*
X10764Y-91963D01*
X10820Y-91907D01*
X10932Y-91851D01*
X11213Y-91851D01*
X11326Y-91907D01*
X11382Y-91963D01*
X11438Y-92076D01*
X11438Y-92357D01*
X11382Y-92469D01*
X11326Y-92525D01*
X11213Y-92582D01*
X10932Y-92582D01*
X10820Y-92525D01*
X10764Y-92469D01*
X12170Y-91401D02*
X12282Y-91401D01*
X12395Y-91457D01*
X12451Y-91513D01*
X12507Y-91626D01*
X12563Y-91851D01*
X12563Y-92132D01*
X12507Y-92357D01*
X12451Y-92469D01*
X12395Y-92525D01*
X12282Y-92582D01*
X12170Y-92582D01*
X12057Y-92525D01*
X12001Y-92469D01*
X11945Y-92357D01*
X11888Y-92132D01*
X11888Y-91851D01*
X11945Y-91626D01*
X12001Y-91513D01*
X12057Y-91457D01*
X12170Y-91401D01*
X13069Y-92582D02*
X13069Y-91794D01*
X13069Y-91907D02*
X13126Y-91851D01*
X13238Y-91794D01*
X13407Y-91794D01*
X13519Y-91851D01*
X13576Y-91963D01*
X13576Y-92582D01*
X13576Y-91963D02*
X13632Y-91851D01*
X13744Y-91794D01*
X13913Y-91794D01*
X14026Y-91851D01*
X14082Y-91963D01*
X14082Y-92582D01*
X14644Y-92582D02*
X14644Y-91794D01*
X14644Y-91907D02*
X14701Y-91851D01*
X14813Y-91794D01*
X14982Y-91794D01*
X15094Y-91851D01*
X15150Y-91963D01*
X15150Y-92582D01*
X15150Y-91963D02*
X15207Y-91851D01*
X15319Y-91794D01*
X15488Y-91794D01*
X15600Y-91851D01*
X15657Y-91963D01*
X15657Y-92582D01*
X17963Y-91344D02*
X16950Y-92863D01*
X19481Y-91401D02*
X19594Y-91401D01*
X19706Y-91457D01*
X19762Y-91513D01*
X19819Y-91626D01*
X19875Y-91851D01*
X19875Y-92132D01*
X19819Y-92357D01*
X19762Y-92469D01*
X19706Y-92525D01*
X19594Y-92582D01*
X19481Y-92582D01*
X19369Y-92525D01*
X19312Y-92469D01*
X19256Y-92357D01*
X19200Y-92132D01*
X19200Y-91851D01*
X19256Y-91626D01*
X19312Y-91513D01*
X19369Y-91457D01*
X19481Y-91401D01*
X20381Y-92469D02*
X20437Y-92525D01*
X20381Y-92582D01*
X20325Y-92525D01*
X20381Y-92469D01*
X20381Y-92582D01*
X21562Y-92582D02*
X20887Y-92582D01*
X21225Y-92582D02*
X21225Y-91401D01*
X21112Y-91569D01*
X21000Y-91682D01*
X20887Y-91738D01*
X21956Y-91401D02*
X22687Y-91401D01*
X22293Y-91851D01*
X22462Y-91851D01*
X22575Y-91907D01*
X22631Y-91963D01*
X22687Y-92076D01*
X22687Y-92357D01*
X22631Y-92469D01*
X22575Y-92525D01*
X22462Y-92582D01*
X22125Y-92582D01*
X22012Y-92525D01*
X21956Y-92469D01*
X23362Y-91907D02*
X23249Y-91851D01*
X23193Y-91794D01*
X23137Y-91682D01*
X23137Y-91626D01*
X23193Y-91513D01*
X23249Y-91457D01*
X23362Y-91401D01*
X23587Y-91401D01*
X23699Y-91457D01*
X23756Y-91513D01*
X23812Y-91626D01*
X23812Y-91682D01*
X23756Y-91794D01*
X23699Y-91851D01*
X23587Y-91907D01*
X23362Y-91907D01*
X23249Y-91963D01*
X23193Y-92019D01*
X23137Y-92132D01*
X23137Y-92357D01*
X23193Y-92469D01*
X23249Y-92525D01*
X23362Y-92582D01*
X23587Y-92582D01*
X23699Y-92525D01*
X23756Y-92469D01*
X23812Y-92357D01*
X23812Y-92132D01*
X23756Y-92019D01*
X23699Y-91963D01*
X23587Y-91907D01*
X24262Y-91401D02*
X24262Y-91626D01*
X24712Y-91401D02*
X24712Y-91626D01*
X26455Y-93032D02*
X26399Y-92975D01*
X26287Y-92807D01*
X26230Y-92694D01*
X26174Y-92525D01*
X26118Y-92244D01*
X26118Y-92019D01*
X26174Y-91738D01*
X26230Y-91569D01*
X26287Y-91457D01*
X26399Y-91288D01*
X26455Y-91232D01*
X26849Y-91513D02*
X26905Y-91457D01*
X27018Y-91401D01*
X27299Y-91401D01*
X27411Y-91457D01*
X27468Y-91513D01*
X27524Y-91626D01*
X27524Y-91738D01*
X27468Y-91907D01*
X26793Y-92582D01*
X27524Y-92582D01*
X28930Y-92582D02*
X28930Y-91401D01*
X29436Y-92582D02*
X29436Y-91963D01*
X29380Y-91851D01*
X29267Y-91794D01*
X29099Y-91794D01*
X28986Y-91851D01*
X28930Y-91907D01*
X30167Y-92582D02*
X30055Y-92525D01*
X29999Y-92469D01*
X29942Y-92357D01*
X29942Y-92019D01*
X29999Y-91907D01*
X30055Y-91851D01*
X30167Y-91794D01*
X30336Y-91794D01*
X30449Y-91851D01*
X30505Y-91907D01*
X30561Y-92019D01*
X30561Y-92357D01*
X30505Y-92469D01*
X30449Y-92525D01*
X30336Y-92582D01*
X30167Y-92582D01*
X31236Y-92582D02*
X31123Y-92525D01*
X31067Y-92413D01*
X31067Y-91401D01*
X32136Y-92525D02*
X32023Y-92582D01*
X31798Y-92582D01*
X31686Y-92525D01*
X31630Y-92413D01*
X31630Y-91963D01*
X31686Y-91851D01*
X31798Y-91794D01*
X32023Y-91794D01*
X32136Y-91851D01*
X32192Y-91963D01*
X32192Y-92076D01*
X31630Y-92188D01*
X32642Y-92525D02*
X32755Y-92582D01*
X32980Y-92582D01*
X33092Y-92525D01*
X33148Y-92413D01*
X33148Y-92357D01*
X33092Y-92244D01*
X32980Y-92188D01*
X32811Y-92188D01*
X32698Y-92132D01*
X32642Y-92019D01*
X32642Y-91963D01*
X32698Y-91851D01*
X32811Y-91794D01*
X32980Y-91794D01*
X33092Y-91851D01*
X33542Y-93032D02*
X33598Y-92975D01*
X33711Y-92807D01*
X33767Y-92694D01*
X33823Y-92525D01*
X33879Y-92244D01*
X33879Y-92019D01*
X33823Y-91738D01*
X33767Y-91569D01*
X33711Y-91457D01*
X33598Y-91288D01*
X33542Y-91232D01*
M02*
