M48
INCH,TZ
T1C0.012
T2C0.025
T3C0.032
T4C0.032
T5C0.039
T6C0.040
T7C0.046
T8C0.050
T9C0.060
T10C0.080
T11C0.118
T12C0.120
T13C0.125
T14C0.138
%
G90
G05
T1
X063003Y-059533
X063003Y-059867
X063200Y-059700
X063397Y-059533
X063397Y-059867
X072053Y-059533
X072053Y-059867
X072250Y-059700
X072447Y-059533
X072447Y-059867
T2
X016975Y-060500
X017525Y-056275
X018000Y-056275
X019113Y-054186
X019200Y-041550
X019389Y-031420
X020402Y-054186
X021751Y-055623
X024200Y-052925
X024900Y-053925
X025800Y-042175
X026300Y-050100
X026800Y-051000
X027025Y-053475
X027300Y-046375
X027325Y-053925
X029475Y-038875
X029910Y-025525
X029910Y-028812
X030800Y-046825
X032300Y-047650
X032800Y-047225
X033300Y-048050
X033800Y-039500
X036220Y-049862
X036220Y-050866
X043729Y-024737
X044625Y-048700
X046299Y-058268
X048420Y-048873
X048749Y-045919
X049055Y-052343
X049373Y-046420
X049510Y-059960
X050442Y-048330
X050767Y-046450
X050954Y-048222
X051406Y-046814
X051593Y-041956
X051601Y-037936
X052007Y-046194
X052322Y-045328
X052774Y-046037
X052970Y-060020
X053223Y-038956
X053227Y-040958
X053335Y-046381
X053400Y-049450
X053400Y-051150
X054070Y-039650
X054070Y-040240
X054487Y-045220
X054930Y-060020
X055156Y-049924
X055156Y-051952
X055511Y-050279
X055511Y-051283
X055609Y-040456
X055629Y-049452
X055629Y-052070
X055719Y-041956
X056396Y-049196
X058440Y-044190
X058760Y-048730
X058877Y-047907
X059840Y-044600
X059940Y-045306
X059989Y-050800
X060070Y-042150
X060540Y-043780
X060648Y-047838
X060757Y-046352
X061022Y-045840
X061062Y-048094
X061062Y-052139
X061325Y-063475
X061377Y-052670
X061485Y-047848
X061820Y-045840
X061820Y-052985
X061987Y-044245
X062113Y-051511
X062350Y-045860
X062400Y-048970
X062420Y-048222
X063050Y-042739
X064054Y-047247
X064054Y-049196
X064074Y-048251
X064404Y-040657
X064448Y-047739
X064664Y-045426
X065245Y-041657
X065826Y-045810
X065826Y-047675
X067686Y-039649
X067686Y-044442
X067824Y-051322
X068759Y-050899
X068769Y-046302
X069674Y-049472
X070375Y-063475
X071751Y-044501
X072168Y-043015
X072420Y-046302
X072952Y-044501
X073956Y-043015
X073976Y-031437
X074003Y-046346
X074074Y-046913
X074074Y-047907
X074074Y-048881
X075993Y-032690
T3
X013800Y-051450
X014800Y-050450
X014800Y-051450
X015800Y-050450
X015800Y-051450
X016800Y-050450
X016800Y-051450
X017800Y-050450
X017800Y-051450
X018800Y-045700
X018800Y-064700
X019800Y-044700
X019800Y-045700
X019800Y-063700
X019800Y-064700
X020800Y-044700
X020800Y-045700
X020800Y-063700
X020800Y-064700
X021800Y-044700
X021800Y-045700
X021800Y-063700
X021800Y-064700
X022800Y-044700
X022800Y-045700
X022800Y-063700
X022800Y-064700
X023800Y-044700
X023800Y-045700
X023800Y-063700
X023800Y-064700
X024800Y-044700
X024800Y-045700
X024800Y-063700
X024800Y-064700
X025800Y-044700
X025800Y-045700
X025800Y-063700
X025800Y-064700
X026800Y-044700
X026800Y-045700
X026800Y-063700
X026800Y-064700
X027800Y-044700
X027800Y-045700
X027800Y-063700
X027800Y-064700
X028800Y-044700
X028800Y-045700
X028800Y-063700
X028800Y-064700
X029800Y-044700
X029800Y-045700
X029800Y-063700
X029800Y-064700
X030800Y-044700
X030800Y-045700
X030800Y-063700
X030800Y-064700
X031800Y-044700
X031800Y-045700
X031800Y-063700
X031800Y-064700
X032800Y-044700
X032800Y-045700
X032800Y-063700
X032800Y-064700
X033800Y-044700
X033800Y-045700
X033800Y-063700
X033800Y-064700
X034800Y-044700
X034800Y-045700
X034800Y-063700
X034800Y-064700
X035800Y-044700
X035800Y-045700
X035800Y-063700
X035800Y-064700
X036800Y-044700
X036800Y-045700
X036800Y-063700
X036800Y-064700
X037800Y-044700
X037800Y-045700
X037800Y-063700
X037800Y-064700
X038800Y-044700
X038800Y-045700
X038800Y-063700
X038800Y-064700
X039800Y-044700
X039800Y-045700
X039800Y-063700
X039800Y-064700
X040800Y-044700
X040800Y-045700
X040800Y-063700
X040800Y-064700
T4
X018300Y-042700
X018300Y-061700
T5
X012715Y-027621
X013003Y-026621
X014003Y-026621
X014290Y-027621
X023920Y-022239
X023920Y-023239
X024920Y-021952
X024920Y-023527
X070845Y-026952
X070845Y-027936
X070845Y-028920
X070845Y-029905
X070845Y-030889
T6
X010000Y-053125
X010000Y-054875
X010000Y-057125
X010000Y-058875
X010000Y-061125
X010000Y-062875
X011800Y-053500
X011800Y-054500
X011800Y-057500
X011800Y-058500
X011800Y-061500
X011800Y-062500
X012103Y-035021
X012550Y-053125
X012550Y-054875
X012550Y-057125
X012550Y-058875
X012550Y-061125
X012550Y-062875
X013800Y-050450
X014903Y-035021
X018300Y-043700
X018300Y-062700
X018800Y-044700
X018800Y-063700
X019300Y-042700
X019300Y-043700
X019300Y-061700
X019300Y-062700
X020300Y-042700
X020300Y-043700
X020300Y-061700
X020300Y-062700
X021300Y-042700
X021300Y-043700
X021300Y-061700
X021300Y-062700
X021670Y-036490
X021900Y-050250
X021900Y-051250
X022300Y-042700
X022300Y-043700
X022300Y-061700
X022300Y-062700
X022670Y-036490
X022900Y-050250
X022900Y-051250
X023300Y-042700
X023300Y-043700
X023300Y-061700
X023300Y-062700
X023670Y-036490
X024300Y-042700
X024300Y-043700
X024300Y-061700
X024300Y-062700
X025300Y-042700
X025300Y-043700
X025300Y-061700
X025300Y-062700
X026300Y-042700
X026300Y-043700
X026300Y-061700
X026300Y-062700
X027300Y-042700
X027300Y-043700
X027300Y-061700
X027300Y-062700
X028300Y-042700
X028300Y-043700
X028300Y-061700
X028300Y-062700
X029300Y-042700
X029300Y-043700
X029300Y-061700
X029300Y-062700
X030300Y-042700
X030300Y-043700
X030300Y-061700
X030300Y-062700
X031300Y-042700
X031300Y-043700
X031300Y-061700
X031300Y-062700
X031790Y-036490
X032300Y-042700
X032300Y-043700
X032300Y-061700
X032300Y-062700
X032320Y-021339
X032320Y-024139
X032790Y-036490
X033300Y-042700
X033300Y-043700
X033300Y-061700
X033300Y-062700
X033790Y-036490
X034300Y-042700
X034300Y-043700
X034300Y-061700
X034300Y-062700
X035300Y-042700
X035300Y-043700
X035300Y-061700
X035300Y-062700
X036300Y-042700
X036300Y-043700
X036300Y-061700
X036300Y-062700
X037300Y-042700
X037300Y-043700
X037300Y-061700
X037300Y-062700
X038300Y-042700
X038300Y-043700
X038300Y-061700
X038300Y-062700
X039300Y-042700
X039300Y-043700
X039300Y-061700
X039300Y-062700
X040300Y-042700
X040300Y-043700
X040300Y-061700
X040300Y-062700
X044160Y-043064
X045160Y-043064
X046160Y-043064
X047160Y-043064
X048160Y-043064
X050093Y-053606
X050093Y-057543
X051093Y-053606
X051093Y-057543
X052093Y-053606
X052093Y-057543
X053093Y-053606
X053093Y-057543
X057188Y-039956
X057188Y-040956
X058188Y-039956
X058188Y-040956
X059188Y-039956
X059188Y-040956
X059450Y-057250
X059450Y-058250
X068500Y-057250
X068500Y-058250
X073700Y-065700
X074700Y-065700
X077783Y-024384
X077783Y-026134
X077783Y-028321
X077783Y-030071
X077783Y-032258
X077783Y-034008
X078533Y-024759
X078533Y-025759
X078533Y-028696
X078533Y-029696
X078533Y-032633
X078533Y-033633
X079546Y-040869
X079546Y-041869
X079546Y-042869
X079546Y-043869
X079546Y-044869
X079546Y-045869
X080333Y-024384
X080333Y-026134
X080333Y-028321
X080333Y-030071
X080333Y-032258
X080333Y-034008
T8
X011000Y-052625
X011000Y-055375
X011000Y-056625
X011000Y-059375
X011000Y-060625
X011000Y-063375
X079333Y-023884
X079333Y-026634
X079333Y-027821
X079333Y-030571
X079333Y-031758
X079333Y-034508
T9
X011923Y-028621
X015083Y-028621
X025920Y-021159
X025920Y-024319
T10
X078070Y-048235
X078070Y-056535
T11
X051357Y-021834
X051357Y-036007
X056869Y-021834
X056869Y-036007
X062381Y-021834
X062381Y-036007
X067893Y-021834
X067893Y-036007
T12
X009664Y-009275
X009664Y-021086
X009664Y-037621
X009664Y-065968
X045491Y-037621
X045491Y-065968
X081318Y-009275
X081318Y-021086
X081318Y-037621
X081318Y-065968
T13
X016800Y-045200
X016800Y-064200
X042800Y-046450
X042800Y-062950
T14
X062617Y-010062
X070885Y-020298
T7
X075670Y-061105G85X075670Y-059965
G05
X077290Y-058535G85X076350Y-058535
G05
X078070Y-061005G85X078070Y-060065
G05
T0
M30
