G04 (created by PCBNEW (2013-07-07 BZR 4022)-stable) date 01-Jan-14 7:39:55 PM*
%MOIN*%
G04 Gerber Fmt 3.4, Leading zero omitted, Abs format*
%FSLAX34Y34*%
G01*
G70*
G90*
G04 APERTURE LIST*
%ADD10C,0.001*%
%ADD11C,0.005*%
%ADD12R,0.0385827X0.133858*%
%ADD13R,0.071X0.063*%
%ADD14R,0.106X0.063*%
%ADD15O,0.0110236X0.0334646*%
%ADD16O,0.0334646X0.0110236*%
%ADD17R,0.0610236X0.0531496*%
%ADD18R,0.064X0.12*%
%ADD19R,0.059X0.0512*%
%ADD20R,0.0787X0.0236*%
%ADD21R,0.0165X0.0579*%
%ADD22R,0.12X0.024*%
%ADD23R,0.061X0.0235*%
%ADD24C,0.551181*%
%ADD25R,0.12X0.064*%
%ADD26R,0.0472441X0.125984*%
%ADD27R,0.0669291X0.208661*%
%ADD28R,0.05X0.04*%
%ADD29R,0.0787X0.0177*%
%ADD30R,0.0177X0.0787*%
%ADD31R,0.0433071X0.0452756*%
%ADD32R,0.0216535X0.0450787*%
%ADD33R,0.0450787X0.0216535*%
%ADD34R,0.024X0.12*%
%ADD35R,0.0551181X0.0472441*%
%ADD36R,0.0551181X0.0551181*%
%ADD37R,0.08X0.15*%
%ADD38R,0.08X0.06*%
%ADD39R,0.0452756X0.0570866*%
%ADD40R,0.0393701X0.0570866*%
%ADD41R,0.0570866X0.0452756*%
%ADD42R,0.0570866X0.0393701*%
%ADD43R,0.024X0.08*%
%ADD44R,0.0984252X0.0669291*%
%ADD45R,0.0669291X0.0984252*%
%ADD46R,0.0236X0.0394*%
G04 APERTURE END LIST*
G54D10*
X4000Y-4000D02*
X112930Y-4000D01*
X112930Y-78680D01*
X4000Y-78680D01*
X4000Y-4000D01*
X4700Y-4700D02*
X112230Y-4700D01*
X112230Y-77980D01*
X4700Y-77980D01*
X4700Y-4700D01*
X25780Y-4000D02*
X25780Y-4700D01*
X15032Y-4552D02*
X14747Y-4552D01*
X14890Y-4552D02*
X14890Y-4052D01*
X14842Y-4123D01*
X14794Y-4171D01*
X14747Y-4195D01*
X25780Y-78680D02*
X25780Y-77980D01*
X15032Y-78532D02*
X14747Y-78532D01*
X14890Y-78532D02*
X14890Y-78032D01*
X14842Y-78103D01*
X14794Y-78151D01*
X14747Y-78175D01*
X47560Y-4000D02*
X47560Y-4700D01*
X36527Y-4100D02*
X36550Y-4076D01*
X36598Y-4052D01*
X36717Y-4052D01*
X36765Y-4076D01*
X36789Y-4100D01*
X36812Y-4147D01*
X36812Y-4195D01*
X36789Y-4266D01*
X36503Y-4552D01*
X36812Y-4552D01*
X47560Y-78680D02*
X47560Y-77980D01*
X36527Y-78080D02*
X36550Y-78056D01*
X36598Y-78032D01*
X36717Y-78032D01*
X36765Y-78056D01*
X36789Y-78080D01*
X36812Y-78127D01*
X36812Y-78175D01*
X36789Y-78246D01*
X36503Y-78532D01*
X36812Y-78532D01*
X69340Y-4000D02*
X69340Y-4700D01*
X58283Y-4052D02*
X58592Y-4052D01*
X58426Y-4242D01*
X58497Y-4242D01*
X58545Y-4266D01*
X58569Y-4290D01*
X58592Y-4338D01*
X58592Y-4457D01*
X58569Y-4504D01*
X58545Y-4528D01*
X58497Y-4552D01*
X58354Y-4552D01*
X58307Y-4528D01*
X58283Y-4504D01*
X69340Y-78680D02*
X69340Y-77980D01*
X58283Y-78032D02*
X58592Y-78032D01*
X58426Y-78222D01*
X58497Y-78222D01*
X58545Y-78246D01*
X58569Y-78270D01*
X58592Y-78318D01*
X58592Y-78437D01*
X58569Y-78484D01*
X58545Y-78508D01*
X58497Y-78532D01*
X58354Y-78532D01*
X58307Y-78508D01*
X58283Y-78484D01*
X91120Y-4000D02*
X91120Y-4700D01*
X80325Y-4219D02*
X80325Y-4552D01*
X80206Y-4028D02*
X80087Y-4385D01*
X80396Y-4385D01*
X91120Y-78680D02*
X91120Y-77980D01*
X80325Y-78199D02*
X80325Y-78532D01*
X80206Y-78008D02*
X80087Y-78365D01*
X80396Y-78365D01*
X102129Y-4052D02*
X101890Y-4052D01*
X101867Y-4290D01*
X101890Y-4266D01*
X101938Y-4242D01*
X102057Y-4242D01*
X102105Y-4266D01*
X102129Y-4290D01*
X102152Y-4338D01*
X102152Y-4457D01*
X102129Y-4504D01*
X102105Y-4528D01*
X102057Y-4552D01*
X101938Y-4552D01*
X101890Y-4528D01*
X101867Y-4504D01*
X102129Y-78032D02*
X101890Y-78032D01*
X101867Y-78270D01*
X101890Y-78246D01*
X101938Y-78222D01*
X102057Y-78222D01*
X102105Y-78246D01*
X102129Y-78270D01*
X102152Y-78318D01*
X102152Y-78437D01*
X102129Y-78484D01*
X102105Y-78508D01*
X102057Y-78532D01*
X101938Y-78532D01*
X101890Y-78508D01*
X101867Y-78484D01*
X4000Y-28890D02*
X4700Y-28890D01*
X4230Y-16509D02*
X4469Y-16509D01*
X4183Y-16652D02*
X4350Y-16152D01*
X4516Y-16652D01*
X112930Y-28890D02*
X112230Y-28890D01*
X112460Y-16509D02*
X112699Y-16509D01*
X112413Y-16652D02*
X112580Y-16152D01*
X112746Y-16652D01*
X4000Y-53780D02*
X4700Y-53780D01*
X4385Y-41280D02*
X4457Y-41304D01*
X4480Y-41328D01*
X4504Y-41375D01*
X4504Y-41447D01*
X4480Y-41494D01*
X4457Y-41518D01*
X4409Y-41542D01*
X4219Y-41542D01*
X4219Y-41042D01*
X4385Y-41042D01*
X4433Y-41066D01*
X4457Y-41090D01*
X4480Y-41137D01*
X4480Y-41185D01*
X4457Y-41232D01*
X4433Y-41256D01*
X4385Y-41280D01*
X4219Y-41280D01*
X112930Y-53780D02*
X112230Y-53780D01*
X112615Y-41280D02*
X112687Y-41304D01*
X112710Y-41328D01*
X112734Y-41375D01*
X112734Y-41447D01*
X112710Y-41494D01*
X112687Y-41518D01*
X112639Y-41542D01*
X112449Y-41542D01*
X112449Y-41042D01*
X112615Y-41042D01*
X112663Y-41066D01*
X112687Y-41090D01*
X112710Y-41137D01*
X112710Y-41185D01*
X112687Y-41232D01*
X112663Y-41256D01*
X112615Y-41280D01*
X112449Y-41280D01*
X4504Y-66384D02*
X4480Y-66408D01*
X4409Y-66432D01*
X4361Y-66432D01*
X4290Y-66408D01*
X4242Y-66360D01*
X4219Y-66313D01*
X4195Y-66218D01*
X4195Y-66146D01*
X4219Y-66051D01*
X4242Y-66003D01*
X4290Y-65956D01*
X4361Y-65932D01*
X4409Y-65932D01*
X4480Y-65956D01*
X4504Y-65980D01*
X112734Y-66384D02*
X112710Y-66408D01*
X112639Y-66432D01*
X112591Y-66432D01*
X112520Y-66408D01*
X112472Y-66360D01*
X112449Y-66313D01*
X112425Y-66218D01*
X112425Y-66146D01*
X112449Y-66051D01*
X112472Y-66003D01*
X112520Y-65956D01*
X112591Y-65932D01*
X112639Y-65932D01*
X112710Y-65956D01*
X112734Y-65980D01*
X79380Y-76422D02*
X79455Y-75822D01*
X79597Y-75822D01*
X79680Y-75851D01*
X79730Y-75908D01*
X79751Y-75965D01*
X79765Y-76080D01*
X79755Y-76165D01*
X79712Y-76280D01*
X79676Y-76337D01*
X79612Y-76394D01*
X79522Y-76422D01*
X79380Y-76422D01*
X80237Y-76422D02*
X80276Y-76108D01*
X80255Y-76051D01*
X80201Y-76022D01*
X80087Y-76022D01*
X80026Y-76051D01*
X80240Y-76394D02*
X80180Y-76422D01*
X80037Y-76422D01*
X79983Y-76394D01*
X79962Y-76337D01*
X79969Y-76280D01*
X80005Y-76222D01*
X80065Y-76194D01*
X80208Y-76194D01*
X80269Y-76165D01*
X80487Y-76022D02*
X80715Y-76022D01*
X80597Y-75822D02*
X80533Y-76337D01*
X80555Y-76394D01*
X80608Y-76422D01*
X80665Y-76422D01*
X81097Y-76394D02*
X81037Y-76422D01*
X80922Y-76422D01*
X80869Y-76394D01*
X80847Y-76337D01*
X80876Y-76108D01*
X80912Y-76051D01*
X80972Y-76022D01*
X81087Y-76022D01*
X81140Y-76051D01*
X81162Y-76108D01*
X81155Y-76165D01*
X80862Y-76222D01*
X81387Y-76365D02*
X81412Y-76394D01*
X81380Y-76422D01*
X81355Y-76394D01*
X81387Y-76365D01*
X81380Y-76422D01*
X81426Y-76051D02*
X81451Y-76080D01*
X81419Y-76108D01*
X81394Y-76080D01*
X81426Y-76051D01*
X81419Y-76108D01*
X82437Y-76422D02*
X82094Y-76422D01*
X82265Y-76422D02*
X82340Y-75822D01*
X82272Y-75908D01*
X82208Y-75965D01*
X82147Y-75994D01*
X83201Y-76022D02*
X83137Y-76537D01*
X83101Y-76594D01*
X83040Y-76622D01*
X83012Y-76622D01*
X83226Y-75822D02*
X83194Y-75851D01*
X83219Y-75880D01*
X83251Y-75851D01*
X83226Y-75822D01*
X83219Y-75880D01*
X83694Y-76422D02*
X83733Y-76108D01*
X83712Y-76051D01*
X83658Y-76022D01*
X83544Y-76022D01*
X83483Y-76051D01*
X83697Y-76394D02*
X83637Y-76422D01*
X83494Y-76422D01*
X83440Y-76394D01*
X83419Y-76337D01*
X83426Y-76280D01*
X83462Y-76222D01*
X83522Y-76194D01*
X83665Y-76194D01*
X83726Y-76165D01*
X84030Y-76022D02*
X83980Y-76422D01*
X84022Y-76080D02*
X84055Y-76051D01*
X84115Y-76022D01*
X84201Y-76022D01*
X84255Y-76051D01*
X84276Y-76108D01*
X84237Y-76422D01*
X85019Y-75880D02*
X85051Y-75851D01*
X85112Y-75822D01*
X85255Y-75822D01*
X85308Y-75851D01*
X85333Y-75880D01*
X85355Y-75937D01*
X85347Y-75994D01*
X85308Y-76080D01*
X84922Y-76422D01*
X85294Y-76422D01*
X85740Y-75822D02*
X85797Y-75822D01*
X85851Y-75851D01*
X85876Y-75880D01*
X85897Y-75937D01*
X85912Y-76051D01*
X85894Y-76194D01*
X85851Y-76308D01*
X85815Y-76365D01*
X85783Y-76394D01*
X85722Y-76422D01*
X85665Y-76422D01*
X85612Y-76394D01*
X85587Y-76365D01*
X85565Y-76308D01*
X85551Y-76194D01*
X85569Y-76051D01*
X85612Y-75937D01*
X85647Y-75880D01*
X85680Y-75851D01*
X85740Y-75822D01*
X86437Y-76422D02*
X86094Y-76422D01*
X86265Y-76422D02*
X86340Y-75822D01*
X86272Y-75908D01*
X86208Y-75965D01*
X86147Y-75994D01*
X87001Y-76022D02*
X86951Y-76422D01*
X86887Y-75794D02*
X86690Y-76222D01*
X87062Y-76222D01*
X70972Y-77622D02*
X70972Y-77022D01*
X71315Y-77622D02*
X71058Y-77280D01*
X71315Y-77022D02*
X70972Y-77365D01*
X71572Y-77622D02*
X71572Y-77222D01*
X71572Y-77022D02*
X71544Y-77051D01*
X71572Y-77080D01*
X71601Y-77051D01*
X71572Y-77022D01*
X71572Y-77080D01*
X72201Y-77565D02*
X72172Y-77594D01*
X72087Y-77622D01*
X72030Y-77622D01*
X71944Y-77594D01*
X71887Y-77537D01*
X71858Y-77480D01*
X71830Y-77365D01*
X71830Y-77280D01*
X71858Y-77165D01*
X71887Y-77108D01*
X71944Y-77051D01*
X72030Y-77022D01*
X72087Y-77022D01*
X72172Y-77051D01*
X72201Y-77080D01*
X72715Y-77622D02*
X72715Y-77308D01*
X72687Y-77251D01*
X72630Y-77222D01*
X72515Y-77222D01*
X72458Y-77251D01*
X72715Y-77594D02*
X72658Y-77622D01*
X72515Y-77622D01*
X72458Y-77594D01*
X72430Y-77537D01*
X72430Y-77480D01*
X72458Y-77422D01*
X72515Y-77394D01*
X72658Y-77394D01*
X72715Y-77365D01*
X73258Y-77622D02*
X73258Y-77022D01*
X73258Y-77594D02*
X73201Y-77622D01*
X73087Y-77622D01*
X73030Y-77594D01*
X73001Y-77565D01*
X72972Y-77508D01*
X72972Y-77337D01*
X73001Y-77280D01*
X73030Y-77251D01*
X73087Y-77222D01*
X73201Y-77222D01*
X73258Y-77251D01*
X74001Y-77308D02*
X74201Y-77308D01*
X74287Y-77622D02*
X74001Y-77622D01*
X74001Y-77022D01*
X74287Y-77022D01*
X74544Y-77565D02*
X74572Y-77594D01*
X74544Y-77622D01*
X74515Y-77594D01*
X74544Y-77565D01*
X74544Y-77622D01*
X74829Y-77622D02*
X74829Y-77022D01*
X74972Y-77022D01*
X75058Y-77051D01*
X75115Y-77108D01*
X75144Y-77165D01*
X75172Y-77280D01*
X75172Y-77365D01*
X75144Y-77480D01*
X75115Y-77537D01*
X75058Y-77594D01*
X74972Y-77622D01*
X74829Y-77622D01*
X75429Y-77565D02*
X75458Y-77594D01*
X75429Y-77622D01*
X75401Y-77594D01*
X75429Y-77565D01*
X75429Y-77622D01*
X75687Y-77451D02*
X75972Y-77451D01*
X75629Y-77622D02*
X75829Y-77022D01*
X76029Y-77622D01*
X76229Y-77565D02*
X76258Y-77594D01*
X76229Y-77622D01*
X76201Y-77594D01*
X76229Y-77565D01*
X76229Y-77622D01*
X104522Y-76422D02*
X104358Y-76137D01*
X104180Y-76422D02*
X104255Y-75822D01*
X104483Y-75822D01*
X104537Y-75851D01*
X104562Y-75880D01*
X104583Y-75937D01*
X104572Y-76022D01*
X104537Y-76080D01*
X104505Y-76108D01*
X104444Y-76137D01*
X104215Y-76137D01*
X105012Y-76394D02*
X104951Y-76422D01*
X104837Y-76422D01*
X104783Y-76394D01*
X104762Y-76337D01*
X104790Y-76108D01*
X104826Y-76051D01*
X104887Y-76022D01*
X105001Y-76022D01*
X105055Y-76051D01*
X105076Y-76108D01*
X105069Y-76165D01*
X104776Y-76222D01*
X105287Y-76022D02*
X105380Y-76422D01*
X105572Y-76022D01*
X105758Y-76365D02*
X105783Y-76394D01*
X105751Y-76422D01*
X105726Y-76394D01*
X105758Y-76365D01*
X105751Y-76422D01*
X105797Y-76051D02*
X105822Y-76080D01*
X105790Y-76108D01*
X105765Y-76080D01*
X105797Y-76051D01*
X105790Y-76108D01*
X70944Y-76394D02*
X71030Y-76422D01*
X71172Y-76422D01*
X71230Y-76394D01*
X71258Y-76365D01*
X71287Y-76308D01*
X71287Y-76251D01*
X71258Y-76194D01*
X71230Y-76165D01*
X71172Y-76137D01*
X71058Y-76108D01*
X71001Y-76080D01*
X70972Y-76051D01*
X70944Y-75994D01*
X70944Y-75937D01*
X70972Y-75880D01*
X71001Y-75851D01*
X71058Y-75822D01*
X71201Y-75822D01*
X71287Y-75851D01*
X71544Y-76422D02*
X71544Y-76022D01*
X71544Y-75822D02*
X71515Y-75851D01*
X71544Y-75880D01*
X71572Y-75851D01*
X71544Y-75822D01*
X71544Y-75880D01*
X71772Y-76022D02*
X72087Y-76022D01*
X71772Y-76422D01*
X72087Y-76422D01*
X72544Y-76394D02*
X72487Y-76422D01*
X72372Y-76422D01*
X72315Y-76394D01*
X72287Y-76337D01*
X72287Y-76108D01*
X72315Y-76051D01*
X72372Y-76022D01*
X72487Y-76022D01*
X72544Y-76051D01*
X72572Y-76108D01*
X72572Y-76165D01*
X72287Y-76222D01*
X72830Y-76365D02*
X72858Y-76394D01*
X72830Y-76422D01*
X72801Y-76394D01*
X72830Y-76365D01*
X72830Y-76422D01*
X72830Y-76051D02*
X72858Y-76080D01*
X72830Y-76108D01*
X72801Y-76080D01*
X72830Y-76051D01*
X72830Y-76108D01*
X73544Y-76251D02*
X73830Y-76251D01*
X73487Y-76422D02*
X73687Y-75822D01*
X73887Y-76422D01*
X74344Y-76022D02*
X74344Y-76422D01*
X74201Y-75794D02*
X74058Y-76222D01*
X74430Y-76222D01*
X104172Y-77622D02*
X104172Y-77022D01*
X104715Y-77622D02*
X104715Y-77022D01*
X104715Y-77594D02*
X104658Y-77622D01*
X104544Y-77622D01*
X104487Y-77594D01*
X104458Y-77565D01*
X104430Y-77508D01*
X104430Y-77337D01*
X104458Y-77280D01*
X104487Y-77251D01*
X104544Y-77222D01*
X104658Y-77222D01*
X104715Y-77251D01*
X105001Y-77565D02*
X105030Y-77594D01*
X105001Y-77622D01*
X104972Y-77594D01*
X105001Y-77565D01*
X105001Y-77622D01*
X105001Y-77251D02*
X105030Y-77280D01*
X105001Y-77308D01*
X104972Y-77280D01*
X105001Y-77251D01*
X105001Y-77308D01*
X106058Y-77622D02*
X105715Y-77622D01*
X105887Y-77622D02*
X105887Y-77022D01*
X105829Y-77108D01*
X105772Y-77165D01*
X105715Y-77194D01*
X106744Y-76994D02*
X106230Y-77765D01*
X107258Y-77622D02*
X106915Y-77622D01*
X107087Y-77622D02*
X107087Y-77022D01*
X107029Y-77108D01*
X106972Y-77165D01*
X106915Y-77194D01*
X70969Y-74622D02*
X71312Y-74622D01*
X71065Y-75222D02*
X71140Y-74622D01*
X71437Y-75222D02*
X71487Y-74822D01*
X71512Y-74622D02*
X71480Y-74651D01*
X71505Y-74680D01*
X71537Y-74651D01*
X71512Y-74622D01*
X71505Y-74680D01*
X71687Y-74822D02*
X71915Y-74822D01*
X71797Y-74622D02*
X71733Y-75137D01*
X71755Y-75194D01*
X71808Y-75222D01*
X71865Y-75222D01*
X72151Y-75222D02*
X72097Y-75194D01*
X72076Y-75137D01*
X72140Y-74622D01*
X72612Y-75194D02*
X72551Y-75222D01*
X72437Y-75222D01*
X72383Y-75194D01*
X72362Y-75137D01*
X72390Y-74908D01*
X72426Y-74851D01*
X72487Y-74822D01*
X72601Y-74822D01*
X72655Y-74851D01*
X72676Y-74908D01*
X72669Y-74965D01*
X72376Y-75022D01*
X72901Y-75165D02*
X72926Y-75194D01*
X72894Y-75222D01*
X72869Y-75194D01*
X72901Y-75165D01*
X72894Y-75222D01*
X72940Y-74851D02*
X72965Y-74880D01*
X72933Y-74908D01*
X72908Y-74880D01*
X72940Y-74851D01*
X72933Y-74908D01*
X73626Y-74622D02*
X73969Y-74622D01*
X73722Y-75222D02*
X73797Y-74622D01*
X74094Y-75222D02*
X74144Y-74822D01*
X74169Y-74622D02*
X74137Y-74651D01*
X74162Y-74680D01*
X74194Y-74651D01*
X74169Y-74622D01*
X74162Y-74680D01*
X74380Y-75222D02*
X74455Y-74622D01*
X74722Y-75222D01*
X74797Y-74622D01*
X75001Y-75051D02*
X75287Y-75051D01*
X74922Y-75222D02*
X75197Y-74622D01*
X75322Y-75222D01*
X76008Y-74994D02*
X76465Y-74994D01*
X77530Y-75165D02*
X77497Y-75194D01*
X77408Y-75222D01*
X77351Y-75222D01*
X77269Y-75194D01*
X77219Y-75137D01*
X77197Y-75080D01*
X77183Y-74965D01*
X77194Y-74880D01*
X77237Y-74765D01*
X77272Y-74708D01*
X77337Y-74651D01*
X77426Y-74622D01*
X77483Y-74622D01*
X77565Y-74651D01*
X77590Y-74680D01*
X77865Y-75222D02*
X77812Y-75194D01*
X77787Y-75165D01*
X77765Y-75108D01*
X77787Y-74937D01*
X77822Y-74880D01*
X77855Y-74851D01*
X77915Y-74822D01*
X78001Y-74822D01*
X78055Y-74851D01*
X78080Y-74880D01*
X78101Y-74937D01*
X78080Y-75108D01*
X78044Y-75165D01*
X78012Y-75194D01*
X77951Y-75222D01*
X77865Y-75222D01*
X78372Y-74822D02*
X78322Y-75222D01*
X78365Y-74880D02*
X78397Y-74851D01*
X78458Y-74822D01*
X78544Y-74822D01*
X78597Y-74851D01*
X78619Y-74908D01*
X78580Y-75222D01*
X78830Y-74822D02*
X79058Y-74822D01*
X78940Y-74622D02*
X78876Y-75137D01*
X78897Y-75194D01*
X78951Y-75222D01*
X79008Y-75222D01*
X79208Y-75222D02*
X79258Y-74822D01*
X79244Y-74937D02*
X79280Y-74880D01*
X79312Y-74851D01*
X79372Y-74822D01*
X79430Y-74822D01*
X79665Y-75222D02*
X79612Y-75194D01*
X79587Y-75165D01*
X79565Y-75108D01*
X79587Y-74937D01*
X79622Y-74880D01*
X79655Y-74851D01*
X79715Y-74822D01*
X79801Y-74822D01*
X79855Y-74851D01*
X79880Y-74880D01*
X79901Y-74937D01*
X79880Y-75108D01*
X79844Y-75165D01*
X79812Y-75194D01*
X79751Y-75222D01*
X79665Y-75222D01*
X80208Y-75222D02*
X80155Y-75194D01*
X80133Y-75137D01*
X80197Y-74622D01*
X80522Y-75222D02*
X80469Y-75194D01*
X80447Y-75137D01*
X80512Y-74622D01*
X80983Y-75194D02*
X80922Y-75222D01*
X80808Y-75222D01*
X80755Y-75194D01*
X80733Y-75137D01*
X80762Y-74908D01*
X80797Y-74851D01*
X80858Y-74822D01*
X80972Y-74822D01*
X81026Y-74851D01*
X81047Y-74908D01*
X81040Y-74965D01*
X80747Y-75022D01*
X81265Y-75222D02*
X81315Y-74822D01*
X81301Y-74937D02*
X81337Y-74880D01*
X81369Y-74851D01*
X81430Y-74822D01*
X81487Y-74822D01*
X82058Y-74822D02*
X82287Y-74822D01*
X82094Y-75222D02*
X82158Y-74708D01*
X82194Y-74651D01*
X82255Y-74622D01*
X82312Y-74622D01*
X82522Y-75222D02*
X82469Y-75194D01*
X82444Y-75165D01*
X82422Y-75108D01*
X82444Y-74937D01*
X82480Y-74880D01*
X82512Y-74851D01*
X82572Y-74822D01*
X82658Y-74822D01*
X82712Y-74851D01*
X82737Y-74880D01*
X82758Y-74937D01*
X82737Y-75108D01*
X82701Y-75165D01*
X82669Y-75194D01*
X82608Y-75222D01*
X82522Y-75222D01*
X82980Y-75222D02*
X83030Y-74822D01*
X83015Y-74937D02*
X83051Y-74880D01*
X83083Y-74851D01*
X83144Y-74822D01*
X83201Y-74822D01*
X83797Y-74622D02*
X84140Y-74622D01*
X83894Y-75222D02*
X83969Y-74622D01*
X84265Y-75222D02*
X84315Y-74822D01*
X84340Y-74622D02*
X84308Y-74651D01*
X84333Y-74680D01*
X84365Y-74651D01*
X84340Y-74622D01*
X84333Y-74680D01*
X84551Y-75222D02*
X84626Y-74622D01*
X84772Y-75051D01*
X85026Y-74622D01*
X84951Y-75222D01*
X71172Y-72508D02*
X70972Y-72508D01*
X70972Y-72822D02*
X70972Y-72222D01*
X71258Y-72222D01*
X71487Y-72822D02*
X71487Y-72422D01*
X71487Y-72222D02*
X71458Y-72251D01*
X71487Y-72280D01*
X71515Y-72251D01*
X71487Y-72222D01*
X71487Y-72280D01*
X71858Y-72822D02*
X71801Y-72794D01*
X71772Y-72737D01*
X71772Y-72222D01*
X72315Y-72794D02*
X72258Y-72822D01*
X72144Y-72822D01*
X72087Y-72794D01*
X72058Y-72737D01*
X72058Y-72508D01*
X72087Y-72451D01*
X72144Y-72422D01*
X72258Y-72422D01*
X72315Y-72451D01*
X72344Y-72508D01*
X72344Y-72565D01*
X72058Y-72622D01*
X72601Y-72765D02*
X72630Y-72794D01*
X72601Y-72822D01*
X72572Y-72794D01*
X72601Y-72765D01*
X72601Y-72822D01*
X72601Y-72451D02*
X72630Y-72480D01*
X72601Y-72508D01*
X72572Y-72480D01*
X72601Y-72451D01*
X72601Y-72508D01*
X73601Y-72422D02*
X73601Y-72822D01*
X73344Y-72422D02*
X73344Y-72737D01*
X73372Y-72794D01*
X73430Y-72822D01*
X73515Y-72822D01*
X73572Y-72794D01*
X73601Y-72765D01*
X74230Y-72765D02*
X74201Y-72794D01*
X74115Y-72822D01*
X74058Y-72822D01*
X73972Y-72794D01*
X73915Y-72737D01*
X73887Y-72680D01*
X73858Y-72565D01*
X73858Y-72480D01*
X73887Y-72365D01*
X73915Y-72308D01*
X73972Y-72251D01*
X74058Y-72222D01*
X74115Y-72222D01*
X74201Y-72251D01*
X74230Y-72280D01*
X74572Y-72822D02*
X74515Y-72794D01*
X74487Y-72765D01*
X74458Y-72708D01*
X74458Y-72537D01*
X74487Y-72480D01*
X74515Y-72451D01*
X74572Y-72422D01*
X74658Y-72422D01*
X74715Y-72451D01*
X74744Y-72480D01*
X74772Y-72537D01*
X74772Y-72708D01*
X74744Y-72765D01*
X74715Y-72794D01*
X74658Y-72822D01*
X74572Y-72822D01*
X75030Y-72422D02*
X75030Y-72822D01*
X75030Y-72480D02*
X75058Y-72451D01*
X75115Y-72422D01*
X75201Y-72422D01*
X75258Y-72451D01*
X75287Y-72508D01*
X75287Y-72822D01*
X75487Y-72422D02*
X75715Y-72422D01*
X75572Y-72222D02*
X75572Y-72737D01*
X75601Y-72794D01*
X75658Y-72822D01*
X75715Y-72822D01*
X75915Y-72822D02*
X75915Y-72422D01*
X75915Y-72537D02*
X75944Y-72480D01*
X75972Y-72451D01*
X76030Y-72422D01*
X76087Y-72422D01*
X76372Y-72822D02*
X76315Y-72794D01*
X76287Y-72765D01*
X76258Y-72708D01*
X76258Y-72537D01*
X76287Y-72480D01*
X76315Y-72451D01*
X76372Y-72422D01*
X76458Y-72422D01*
X76515Y-72451D01*
X76544Y-72480D01*
X76572Y-72537D01*
X76572Y-72708D01*
X76544Y-72765D01*
X76515Y-72794D01*
X76458Y-72822D01*
X76372Y-72822D01*
X76915Y-72822D02*
X76858Y-72794D01*
X76830Y-72737D01*
X76830Y-72222D01*
X77001Y-72880D02*
X77458Y-72880D01*
X77544Y-72422D02*
X77687Y-72822D01*
X77830Y-72422D01*
X78001Y-72222D02*
X78372Y-72222D01*
X78172Y-72451D01*
X78258Y-72451D01*
X78315Y-72480D01*
X78344Y-72508D01*
X78372Y-72565D01*
X78372Y-72708D01*
X78344Y-72765D01*
X78315Y-72794D01*
X78258Y-72822D01*
X78087Y-72822D01*
X78030Y-72794D01*
X78001Y-72765D01*
X78630Y-72765D02*
X78658Y-72794D01*
X78630Y-72822D01*
X78601Y-72794D01*
X78630Y-72765D01*
X78630Y-72822D01*
X78915Y-72822D02*
X78915Y-72222D01*
X78972Y-72594D02*
X79144Y-72822D01*
X79144Y-72422D02*
X78915Y-72651D01*
X79401Y-72822D02*
X79401Y-72422D01*
X79401Y-72222D02*
X79372Y-72251D01*
X79401Y-72280D01*
X79430Y-72251D01*
X79401Y-72222D01*
X79401Y-72280D01*
X79944Y-72794D02*
X79887Y-72822D01*
X79772Y-72822D01*
X79715Y-72794D01*
X79687Y-72765D01*
X79658Y-72708D01*
X79658Y-72537D01*
X79687Y-72480D01*
X79715Y-72451D01*
X79772Y-72422D01*
X79887Y-72422D01*
X79944Y-72451D01*
X80458Y-72822D02*
X80458Y-72508D01*
X80430Y-72451D01*
X80372Y-72422D01*
X80258Y-72422D01*
X80201Y-72451D01*
X80458Y-72794D02*
X80401Y-72822D01*
X80258Y-72822D01*
X80201Y-72794D01*
X80172Y-72737D01*
X80172Y-72680D01*
X80201Y-72622D01*
X80258Y-72594D01*
X80401Y-72594D01*
X80458Y-72565D01*
X81001Y-72822D02*
X81001Y-72222D01*
X81001Y-72794D02*
X80944Y-72822D01*
X80830Y-72822D01*
X80772Y-72794D01*
X80744Y-72765D01*
X80715Y-72708D01*
X80715Y-72537D01*
X80744Y-72480D01*
X80772Y-72451D01*
X80830Y-72422D01*
X80944Y-72422D01*
X81001Y-72451D01*
X81144Y-72880D02*
X81601Y-72880D01*
X81744Y-72422D02*
X81744Y-73022D01*
X81744Y-72451D02*
X81801Y-72422D01*
X81915Y-72422D01*
X81972Y-72451D01*
X82001Y-72480D01*
X82030Y-72537D01*
X82030Y-72708D01*
X82001Y-72765D01*
X81972Y-72794D01*
X81915Y-72822D01*
X81801Y-72822D01*
X81744Y-72794D01*
X82544Y-72794D02*
X82487Y-72822D01*
X82372Y-72822D01*
X82315Y-72794D01*
X82287Y-72765D01*
X82258Y-72708D01*
X82258Y-72537D01*
X82287Y-72480D01*
X82315Y-72451D01*
X82372Y-72422D01*
X82487Y-72422D01*
X82544Y-72451D01*
X82801Y-72822D02*
X82801Y-72222D01*
X82801Y-72451D02*
X82858Y-72422D01*
X82972Y-72422D01*
X83030Y-72451D01*
X83058Y-72480D01*
X83087Y-72537D01*
X83087Y-72708D01*
X83058Y-72765D01*
X83030Y-72794D01*
X82972Y-72822D01*
X82858Y-72822D01*
X82801Y-72794D01*
X70944Y-73994D02*
X71030Y-74022D01*
X71172Y-74022D01*
X71230Y-73994D01*
X71258Y-73965D01*
X71287Y-73908D01*
X71287Y-73851D01*
X71258Y-73794D01*
X71230Y-73765D01*
X71172Y-73737D01*
X71058Y-73708D01*
X71001Y-73680D01*
X70972Y-73651D01*
X70944Y-73594D01*
X70944Y-73537D01*
X70972Y-73480D01*
X71001Y-73451D01*
X71058Y-73422D01*
X71201Y-73422D01*
X71287Y-73451D01*
X71544Y-74022D02*
X71544Y-73422D01*
X71801Y-74022D02*
X71801Y-73708D01*
X71772Y-73651D01*
X71715Y-73622D01*
X71630Y-73622D01*
X71572Y-73651D01*
X71544Y-73680D01*
X72315Y-73994D02*
X72258Y-74022D01*
X72144Y-74022D01*
X72087Y-73994D01*
X72058Y-73937D01*
X72058Y-73708D01*
X72087Y-73651D01*
X72144Y-73622D01*
X72258Y-73622D01*
X72315Y-73651D01*
X72344Y-73708D01*
X72344Y-73765D01*
X72058Y-73822D01*
X72830Y-73994D02*
X72772Y-74022D01*
X72658Y-74022D01*
X72601Y-73994D01*
X72572Y-73937D01*
X72572Y-73708D01*
X72601Y-73651D01*
X72658Y-73622D01*
X72772Y-73622D01*
X72830Y-73651D01*
X72858Y-73708D01*
X72858Y-73765D01*
X72572Y-73822D01*
X73030Y-73622D02*
X73258Y-73622D01*
X73115Y-73422D02*
X73115Y-73937D01*
X73144Y-73994D01*
X73201Y-74022D01*
X73258Y-74022D01*
X73458Y-73965D02*
X73487Y-73994D01*
X73458Y-74022D01*
X73430Y-73994D01*
X73458Y-73965D01*
X73458Y-74022D01*
X73458Y-73651D02*
X73487Y-73680D01*
X73458Y-73708D01*
X73430Y-73680D01*
X73458Y-73651D01*
X73458Y-73708D01*
X70997Y-71022D02*
X71065Y-71622D01*
X71233Y-71194D01*
X71294Y-71622D01*
X71512Y-71022D01*
X71658Y-71222D02*
X71751Y-71622D01*
X71944Y-71222D02*
X71751Y-71622D01*
X71676Y-71765D01*
X71644Y-71794D01*
X71583Y-71822D01*
X72208Y-71622D02*
X72155Y-71594D01*
X72130Y-71565D01*
X72108Y-71508D01*
X72130Y-71337D01*
X72165Y-71280D01*
X72197Y-71251D01*
X72258Y-71222D01*
X72344Y-71222D01*
X72397Y-71251D01*
X72422Y-71280D01*
X72444Y-71337D01*
X72422Y-71508D01*
X72387Y-71565D01*
X72355Y-71594D01*
X72294Y-71622D01*
X72208Y-71622D01*
X72951Y-71622D02*
X72665Y-71622D01*
X72740Y-71022D01*
X73458Y-71222D02*
X73408Y-71622D01*
X73201Y-71222D02*
X73162Y-71537D01*
X73183Y-71594D01*
X73237Y-71622D01*
X73322Y-71622D01*
X73383Y-71594D01*
X73415Y-71565D01*
X73694Y-71622D02*
X73744Y-71222D01*
X73737Y-71280D02*
X73769Y-71251D01*
X73829Y-71222D01*
X73915Y-71222D01*
X73969Y-71251D01*
X73990Y-71308D01*
X73951Y-71622D01*
X73990Y-71308D02*
X74026Y-71251D01*
X74087Y-71222D01*
X74172Y-71222D01*
X74226Y-71251D01*
X74247Y-71308D01*
X74208Y-71622D01*
X70915Y-70022D02*
X71030Y-70422D01*
X71144Y-70137D01*
X71258Y-70422D01*
X71372Y-70022D01*
X71544Y-70022D02*
X71658Y-70422D01*
X71772Y-70137D01*
X71887Y-70422D01*
X72001Y-70022D01*
X72172Y-70022D02*
X72287Y-70422D01*
X72401Y-70137D01*
X72515Y-70422D01*
X72629Y-70022D01*
X72858Y-70365D02*
X72887Y-70394D01*
X72858Y-70422D01*
X72829Y-70394D01*
X72858Y-70365D01*
X72858Y-70422D01*
X73087Y-70022D02*
X73201Y-70422D01*
X73315Y-70137D01*
X73429Y-70422D01*
X73544Y-70022D01*
X73715Y-70022D02*
X73858Y-70422D01*
X74001Y-70022D02*
X73858Y-70422D01*
X73801Y-70565D01*
X73772Y-70594D01*
X73715Y-70622D01*
X74315Y-70422D02*
X74258Y-70394D01*
X74229Y-70365D01*
X74201Y-70308D01*
X74201Y-70137D01*
X74229Y-70080D01*
X74258Y-70051D01*
X74315Y-70022D01*
X74401Y-70022D01*
X74458Y-70051D01*
X74487Y-70080D01*
X74515Y-70137D01*
X74515Y-70308D01*
X74487Y-70365D01*
X74458Y-70394D01*
X74401Y-70422D01*
X74315Y-70422D01*
X74858Y-70422D02*
X74801Y-70394D01*
X74772Y-70337D01*
X74772Y-69822D01*
X75344Y-70022D02*
X75344Y-70422D01*
X75087Y-70022D02*
X75087Y-70337D01*
X75115Y-70394D01*
X75172Y-70422D01*
X75258Y-70422D01*
X75315Y-70394D01*
X75344Y-70365D01*
X75629Y-70422D02*
X75629Y-70022D01*
X75629Y-70080D02*
X75658Y-70051D01*
X75715Y-70022D01*
X75801Y-70022D01*
X75858Y-70051D01*
X75887Y-70108D01*
X75887Y-70422D01*
X75887Y-70108D02*
X75915Y-70051D01*
X75972Y-70022D01*
X76058Y-70022D01*
X76115Y-70051D01*
X76144Y-70108D01*
X76144Y-70422D01*
X76429Y-70365D02*
X76458Y-70394D01*
X76429Y-70422D01*
X76401Y-70394D01*
X76429Y-70365D01*
X76429Y-70422D01*
X76972Y-70394D02*
X76915Y-70422D01*
X76801Y-70422D01*
X76744Y-70394D01*
X76715Y-70365D01*
X76687Y-70308D01*
X76687Y-70137D01*
X76715Y-70080D01*
X76744Y-70051D01*
X76801Y-70022D01*
X76915Y-70022D01*
X76972Y-70051D01*
X77315Y-70422D02*
X77258Y-70394D01*
X77229Y-70365D01*
X77201Y-70308D01*
X77201Y-70137D01*
X77229Y-70080D01*
X77258Y-70051D01*
X77315Y-70022D01*
X77401Y-70022D01*
X77458Y-70051D01*
X77487Y-70080D01*
X77515Y-70137D01*
X77515Y-70308D01*
X77487Y-70365D01*
X77458Y-70394D01*
X77401Y-70422D01*
X77315Y-70422D01*
X77772Y-70422D02*
X77772Y-70022D01*
X77772Y-70080D02*
X77801Y-70051D01*
X77858Y-70022D01*
X77944Y-70022D01*
X78001Y-70051D01*
X78029Y-70108D01*
X78029Y-70422D01*
X78029Y-70108D02*
X78058Y-70051D01*
X78115Y-70022D01*
X78201Y-70022D01*
X78258Y-70051D01*
X78287Y-70108D01*
X78287Y-70422D01*
X70230Y-69580D02*
X70230Y-77980D01*
X70230Y-71980D02*
X112230Y-71980D01*
X70230Y-69580D02*
X112230Y-69580D01*
X70230Y-74380D02*
X112230Y-74380D01*
X103430Y-75580D02*
X103430Y-77980D01*
X70230Y-76780D02*
X112230Y-76780D01*
X70230Y-75580D02*
X112230Y-75580D01*
X76830Y-75580D02*
X76830Y-76780D01*
G54D11*
X82892Y-48133D02*
X81042Y-49825D01*
X82892Y-9274D02*
X82892Y-48133D01*
X81042Y-52385D02*
X81042Y-49825D01*
X81042Y-54944D02*
X81042Y-52385D01*
X82892Y-56597D02*
X81042Y-54944D01*
X82892Y-65967D02*
X82892Y-56597D01*
X9664Y-67542D02*
X81317Y-67542D01*
X8089Y-9274D02*
X8089Y-65967D01*
X81317Y-7700D02*
X9664Y-7700D01*
X82892Y-9274D02*
G75*
G03X81317Y-7700I-1574J0D01*
G74*
G01*
X81317Y-67542D02*
G75*
G03X82892Y-65967I0J1574D01*
G74*
G01*
X8089Y-65967D02*
G75*
G03X9664Y-67542I1574J0D01*
G74*
G01*
X9664Y-7700D02*
G75*
G03X8089Y-9274I0J-1574D01*
G74*
G01*
G54D12*
X64981Y-57650D03*
X65918Y-57650D03*
G54D13*
X59425Y-60450D03*
X59425Y-59350D03*
G54D14*
X61650Y-57100D03*
X61650Y-58200D03*
G54D15*
X63298Y-59109D03*
X63495Y-59109D03*
X63101Y-59109D03*
X62904Y-59109D03*
G54D16*
X62609Y-59404D03*
X62609Y-59601D03*
X62609Y-59798D03*
X62609Y-59995D03*
G54D15*
X62904Y-60290D03*
X63101Y-60290D03*
X63298Y-60290D03*
X63495Y-60290D03*
G54D16*
X63790Y-59995D03*
X63790Y-59798D03*
X63790Y-59601D03*
X63790Y-59404D03*
G54D17*
X61725Y-59506D03*
X61725Y-60293D03*
X62900Y-58043D03*
X62900Y-57256D03*
X60575Y-59506D03*
X60575Y-60293D03*
G54D18*
X62550Y-61675D03*
X62575Y-63475D03*
X60075Y-61675D03*
X60100Y-63475D03*
G54D19*
X63975Y-58025D03*
X63975Y-57275D03*
G54D20*
X72420Y-50473D03*
X72420Y-49973D03*
X72420Y-49473D03*
X72420Y-48973D03*
X72420Y-48473D03*
X72420Y-47973D03*
X72420Y-47473D03*
X72420Y-46973D03*
X68758Y-46973D03*
X68758Y-47473D03*
X68758Y-47973D03*
X68758Y-48473D03*
X68758Y-48973D03*
X68758Y-49473D03*
X68758Y-49973D03*
X68758Y-50473D03*
G54D21*
X51465Y-49825D03*
X51721Y-49825D03*
X51977Y-49825D03*
X52233Y-49825D03*
X50697Y-47621D03*
X50697Y-49825D03*
X50953Y-49825D03*
X51209Y-49825D03*
X52489Y-47621D03*
X52233Y-47621D03*
X51977Y-47621D03*
X51721Y-47621D03*
X51465Y-47621D03*
X51209Y-47621D03*
X52489Y-49825D03*
X50953Y-47621D03*
X50441Y-49825D03*
X52745Y-49825D03*
X52745Y-47621D03*
X50441Y-47621D03*
G54D22*
X63161Y-39652D03*
X63161Y-40652D03*
X63161Y-41652D03*
X68961Y-41652D03*
X68961Y-40652D03*
X68961Y-39652D03*
G54D23*
X52600Y-40955D03*
X52600Y-41455D03*
X52600Y-41955D03*
X54720Y-40955D03*
X52600Y-39455D03*
X52600Y-39955D03*
X52600Y-40455D03*
X54720Y-39955D03*
X54720Y-39455D03*
X54720Y-38955D03*
X54720Y-41455D03*
X52600Y-38955D03*
X54720Y-41955D03*
X54720Y-40455D03*
G54D24*
X78069Y-52385D03*
G54D25*
X74450Y-23800D03*
X76250Y-23775D03*
G54D26*
X74329Y-41637D03*
X73539Y-41637D03*
X72749Y-41637D03*
X71959Y-41637D03*
G54D27*
X75333Y-39471D03*
X70963Y-39471D03*
G54D28*
X49970Y-63150D03*
X49970Y-63950D03*
G54D29*
X59900Y-49825D03*
X59900Y-49510D03*
X59900Y-49195D03*
X59900Y-48880D03*
X59900Y-48566D03*
X59900Y-48251D03*
X59900Y-47936D03*
X59900Y-47621D03*
X63168Y-47621D03*
X63168Y-49825D03*
X63168Y-49510D03*
X63168Y-49195D03*
X63168Y-48880D03*
X63168Y-48566D03*
X63168Y-48251D03*
X63168Y-47936D03*
G54D30*
X60432Y-47089D03*
X60747Y-47089D03*
X61062Y-47089D03*
X61377Y-47089D03*
X61691Y-47089D03*
X62006Y-47089D03*
X62321Y-47089D03*
X62636Y-47089D03*
X60432Y-50357D03*
X60747Y-50357D03*
X61062Y-50357D03*
X61377Y-50357D03*
X61691Y-50357D03*
X62006Y-50357D03*
X62321Y-50357D03*
X62636Y-50357D03*
G54D31*
X58896Y-49707D03*
X58896Y-50416D03*
X56396Y-50416D03*
X56396Y-49707D03*
G54D28*
X51970Y-63150D03*
X51970Y-63950D03*
X50970Y-63150D03*
X50970Y-63950D03*
X52970Y-63150D03*
X52970Y-63950D03*
G54D32*
X20097Y-57138D03*
X19782Y-57138D03*
X18522Y-57138D03*
X18837Y-57138D03*
X19152Y-57138D03*
X19467Y-57138D03*
X19467Y-56272D03*
X19152Y-56272D03*
X18837Y-56272D03*
X18522Y-56272D03*
X19782Y-56272D03*
X20097Y-56272D03*
G54D33*
X20136Y-56705D03*
X18483Y-56705D03*
G54D18*
X22675Y-56711D03*
X22700Y-58511D03*
G54D34*
X44431Y-27477D03*
X43431Y-27477D03*
X42431Y-27477D03*
X41431Y-27477D03*
X41431Y-33277D03*
X42431Y-33277D03*
X43431Y-33277D03*
X44431Y-33277D03*
G54D35*
X58069Y-49786D03*
X57203Y-50416D03*
X58069Y-50416D03*
X57203Y-49786D03*
G54D10*
G36*
X19325Y-41600D02*
X19325Y-41500D01*
X19925Y-41300D01*
X19925Y-41800D01*
X19325Y-41600D01*
X19325Y-41600D01*
G37*
G36*
X20675Y-41800D02*
X20675Y-41300D01*
X21275Y-41500D01*
X21275Y-41600D01*
X20675Y-41800D01*
X20675Y-41800D01*
G37*
G54D36*
X20300Y-41550D03*
G54D10*
G36*
X24500Y-52975D02*
X24500Y-52875D01*
X25100Y-52675D01*
X25100Y-53175D01*
X24500Y-52975D01*
X24500Y-52975D01*
G37*
G36*
X25850Y-53175D02*
X25850Y-52675D01*
X26450Y-52875D01*
X26450Y-52975D01*
X25850Y-53175D01*
X25850Y-53175D01*
G37*
G54D36*
X25475Y-52925D03*
G54D10*
G36*
X19408Y-54903D02*
X19408Y-55003D01*
X18808Y-55203D01*
X18808Y-54703D01*
X19408Y-54903D01*
X19408Y-54903D01*
G37*
G36*
X18058Y-54703D02*
X18058Y-55203D01*
X17458Y-55003D01*
X17458Y-54903D01*
X18058Y-54703D01*
X18058Y-54703D01*
G37*
G54D36*
X18433Y-54953D03*
G54D10*
G36*
X20106Y-55003D02*
X20106Y-54903D01*
X20706Y-54703D01*
X20706Y-55203D01*
X20106Y-55003D01*
X20106Y-55003D01*
G37*
G36*
X21456Y-55203D02*
X21456Y-54703D01*
X22056Y-54903D01*
X22056Y-55003D01*
X21456Y-55203D01*
X21456Y-55203D01*
G37*
G54D36*
X21081Y-54953D03*
G54D10*
G36*
X18807Y-53566D02*
X18807Y-53466D01*
X19407Y-53266D01*
X19407Y-53766D01*
X18807Y-53566D01*
X18807Y-53566D01*
G37*
G36*
X20157Y-53766D02*
X20157Y-53266D01*
X20757Y-53466D01*
X20757Y-53566D01*
X20157Y-53766D01*
X20157Y-53766D01*
G37*
G54D36*
X19782Y-53516D03*
G54D37*
X41275Y-49600D03*
G54D38*
X43775Y-49600D03*
X43775Y-48700D03*
X43775Y-50500D03*
G54D37*
X16878Y-33920D03*
G54D38*
X19378Y-33920D03*
X19378Y-33020D03*
X19378Y-34820D03*
G54D37*
X73492Y-29422D03*
G54D38*
X75992Y-29422D03*
X75992Y-28522D03*
X75992Y-30322D03*
G54D37*
X27410Y-26961D03*
G54D38*
X29910Y-26961D03*
X29910Y-26061D03*
X29910Y-27861D03*
G54D10*
G36*
X65204Y-47906D02*
X65304Y-47906D01*
X65504Y-48506D01*
X65004Y-48506D01*
X65204Y-47906D01*
X65204Y-47906D01*
G37*
G36*
X65004Y-49256D02*
X65504Y-49256D01*
X65304Y-49856D01*
X65204Y-49856D01*
X65004Y-49256D01*
X65004Y-49256D01*
G37*
G54D36*
X65254Y-48881D03*
G54D39*
X29354Y-49050D03*
X28645Y-49050D03*
G54D40*
X24800Y-50100D03*
X25549Y-50100D03*
X24800Y-51000D03*
X25549Y-51000D03*
X24800Y-51900D03*
X25549Y-51900D03*
X29374Y-48050D03*
X28625Y-48050D03*
X29374Y-47150D03*
X28625Y-47150D03*
G54D41*
X66219Y-49550D03*
X66219Y-48841D03*
G54D39*
X78319Y-45870D03*
X77610Y-45870D03*
G54D41*
X61534Y-40298D03*
X61534Y-41007D03*
X54250Y-38251D03*
X54250Y-37542D03*
X53069Y-38251D03*
X53069Y-37542D03*
G54D39*
X51238Y-55150D03*
X51947Y-55150D03*
X44437Y-26164D03*
X43729Y-26164D03*
X51238Y-56450D03*
X51947Y-56450D03*
X72794Y-43014D03*
X73502Y-43014D03*
X30618Y-25072D03*
X29910Y-25072D03*
X46967Y-46518D03*
X47675Y-46518D03*
X74945Y-22000D03*
X75654Y-22000D03*
G54D41*
X67646Y-49550D03*
X67646Y-48841D03*
G54D39*
X57400Y-48251D03*
X58109Y-48251D03*
X74495Y-31450D03*
X75204Y-31450D03*
X20087Y-31951D03*
X19378Y-31951D03*
X51406Y-45820D03*
X50697Y-45820D03*
X48414Y-49825D03*
X49122Y-49825D03*
G54D41*
X18522Y-58054D03*
X18522Y-58762D03*
X20097Y-58054D03*
X20097Y-58762D03*
G54D42*
X61376Y-44570D03*
X61376Y-45318D03*
X52085Y-60278D03*
X52085Y-59530D03*
X51101Y-60278D03*
X51101Y-59530D03*
G54D40*
X53286Y-42818D03*
X54034Y-42818D03*
X75224Y-32650D03*
X74475Y-32650D03*
X46534Y-48881D03*
X45786Y-48881D03*
G54D42*
X51970Y-61675D03*
X51970Y-62424D03*
X50970Y-61675D03*
X50970Y-62424D03*
X52970Y-61675D03*
X52970Y-62424D03*
G54D40*
X70963Y-52030D03*
X70215Y-52030D03*
G54D42*
X49970Y-61675D03*
X49970Y-62424D03*
G54D40*
X25475Y-53925D03*
X26224Y-53925D03*
G54D42*
X60431Y-45327D03*
X60431Y-44579D03*
G54D40*
X57380Y-47414D03*
X58128Y-47414D03*
G54D43*
X26300Y-47150D03*
X26300Y-49050D03*
X26800Y-47150D03*
X27300Y-47150D03*
X27800Y-47150D03*
X26800Y-49050D03*
X27300Y-49050D03*
X27800Y-49050D03*
G54D19*
X73025Y-58025D03*
X73025Y-57275D03*
G54D18*
X69125Y-61675D03*
X69150Y-63475D03*
X71600Y-61675D03*
X71625Y-63475D03*
G54D17*
X69625Y-59506D03*
X69625Y-60293D03*
X71950Y-58043D03*
X71950Y-57256D03*
X70775Y-59506D03*
X70775Y-60293D03*
G54D15*
X72348Y-59109D03*
X72545Y-59109D03*
X72151Y-59109D03*
X71954Y-59109D03*
G54D16*
X71659Y-59404D03*
X71659Y-59601D03*
X71659Y-59798D03*
X71659Y-59995D03*
G54D15*
X71954Y-60290D03*
X72151Y-60290D03*
X72348Y-60290D03*
X72545Y-60290D03*
G54D16*
X72840Y-59995D03*
X72840Y-59798D03*
X72840Y-59601D03*
X72840Y-59404D03*
G54D14*
X70700Y-57100D03*
X70700Y-58200D03*
G54D13*
X68475Y-60450D03*
X68475Y-59350D03*
G54D12*
X74031Y-57650D03*
X74968Y-57650D03*
G54D40*
X16374Y-61000D03*
X15625Y-61000D03*
X16374Y-60000D03*
X15625Y-60000D03*
X14674Y-61000D03*
X13925Y-61000D03*
X14674Y-60000D03*
X13925Y-60000D03*
G54D42*
X32775Y-50866D03*
X32775Y-50118D03*
X33779Y-50866D03*
X33779Y-50118D03*
G54D44*
X14290Y-23477D03*
X12715Y-23477D03*
X46947Y-47700D03*
X45372Y-47700D03*
G54D45*
X22459Y-21951D03*
X22459Y-23526D03*
X74015Y-61811D03*
X74015Y-63385D03*
G54D46*
X35315Y-50767D03*
X34803Y-50767D03*
X35059Y-50019D03*
M02*
