G04 (created by PCBNEW (2013-07-07 BZR 4022)-stable) date 01-Jan-14 7:39:55 PM*
%MOIN*%
G04 Gerber Fmt 3.4, Leading zero omitted, Abs format*
%FSLAX34Y34*%
G01*
G70*
G90*
G04 APERTURE LIST*
%ADD10C,0.001*%
%ADD11C,0.005*%
%ADD12R,0.0385827X0.133858*%
%ADD13R,0.071X0.063*%
%ADD14R,0.106X0.063*%
%ADD15O,0.0110236X0.0334646*%
%ADD16O,0.0334646X0.0110236*%
%ADD17R,0.019685X0.0669291*%
%ADD18R,0.0275591X0.0334646*%
%ADD19R,0.0610236X0.0531496*%
%ADD20R,0.064X0.12*%
%ADD21R,0.059X0.0512*%
%ADD22C,0.06*%
%ADD23C,0.07*%
%ADD24R,0.07X0.07*%
%ADD25C,0.24*%
%ADD26O,0.12X0.18*%
%ADD27R,0.12X0.18*%
%ADD28O,0.18X0.12*%
%ADD29R,0.0787X0.0236*%
%ADD30R,0.0165X0.0579*%
%ADD31R,0.12X0.024*%
%ADD32R,0.061X0.0235*%
%ADD33R,0.06X0.06*%
%ADD34C,0.08*%
%ADD35C,0.15*%
%ADD36C,0.551181*%
%ADD37R,0.12X0.064*%
%ADD38R,0.0472441X0.125984*%
%ADD39R,0.0669291X0.208661*%
%ADD40R,0.05X0.04*%
%ADD41R,0.0787X0.0177*%
%ADD42R,0.0177X0.0787*%
%ADD43R,0.0433071X0.0452756*%
%ADD44R,0.0216535X0.0450787*%
%ADD45R,0.0450787X0.0216535*%
%ADD46R,0.024X0.12*%
%ADD47R,0.0551181X0.0472441*%
%ADD48R,0.0551181X0.0551181*%
%ADD49R,0.08X0.15*%
%ADD50R,0.08X0.06*%
%ADD51C,0.04*%
%ADD52C,0.1*%
%ADD53C,0.0708661*%
%ADD54R,0.0452756X0.0570866*%
%ADD55R,0.0393701X0.0570866*%
%ADD56C,0.18*%
%ADD57R,0.065X0.065*%
%ADD58C,0.0512*%
%ADD59R,0.0570866X0.0452756*%
%ADD60C,0.0787402*%
%ADD61C,0.23622*%
%ADD62R,0.0570866X0.0393701*%
%ADD63R,0.024X0.08*%
%ADD64R,0.0984252X0.0669291*%
%ADD65R,0.0669291X0.0984252*%
%ADD66R,0.0236X0.0394*%
%ADD67C,0.19685*%
%ADD68C,0.035*%
%ADD69C,0.01*%
%ADD70C,0.03*%
%ADD71C,0.015*%
%ADD72C,0.011*%
%ADD73C,0.02*%
G04 APERTURE END LIST*
G54D10*
X4000Y-4000D02*
X112930Y-4000D01*
X112930Y-78680D01*
X4000Y-78680D01*
X4000Y-4000D01*
X4700Y-4700D02*
X112230Y-4700D01*
X112230Y-77980D01*
X4700Y-77980D01*
X4700Y-4700D01*
X25780Y-4000D02*
X25780Y-4700D01*
X15032Y-4552D02*
X14747Y-4552D01*
X14890Y-4552D02*
X14890Y-4052D01*
X14842Y-4123D01*
X14794Y-4171D01*
X14747Y-4195D01*
X25780Y-78680D02*
X25780Y-77980D01*
X15032Y-78532D02*
X14747Y-78532D01*
X14890Y-78532D02*
X14890Y-78032D01*
X14842Y-78103D01*
X14794Y-78151D01*
X14747Y-78175D01*
X47560Y-4000D02*
X47560Y-4700D01*
X36527Y-4100D02*
X36550Y-4076D01*
X36598Y-4052D01*
X36717Y-4052D01*
X36765Y-4076D01*
X36789Y-4100D01*
X36812Y-4147D01*
X36812Y-4195D01*
X36789Y-4266D01*
X36503Y-4552D01*
X36812Y-4552D01*
X47560Y-78680D02*
X47560Y-77980D01*
X36527Y-78080D02*
X36550Y-78056D01*
X36598Y-78032D01*
X36717Y-78032D01*
X36765Y-78056D01*
X36789Y-78080D01*
X36812Y-78127D01*
X36812Y-78175D01*
X36789Y-78246D01*
X36503Y-78532D01*
X36812Y-78532D01*
X69340Y-4000D02*
X69340Y-4700D01*
X58283Y-4052D02*
X58592Y-4052D01*
X58426Y-4242D01*
X58497Y-4242D01*
X58545Y-4266D01*
X58569Y-4290D01*
X58592Y-4338D01*
X58592Y-4457D01*
X58569Y-4504D01*
X58545Y-4528D01*
X58497Y-4552D01*
X58354Y-4552D01*
X58307Y-4528D01*
X58283Y-4504D01*
X69340Y-78680D02*
X69340Y-77980D01*
X58283Y-78032D02*
X58592Y-78032D01*
X58426Y-78222D01*
X58497Y-78222D01*
X58545Y-78246D01*
X58569Y-78270D01*
X58592Y-78318D01*
X58592Y-78437D01*
X58569Y-78484D01*
X58545Y-78508D01*
X58497Y-78532D01*
X58354Y-78532D01*
X58307Y-78508D01*
X58283Y-78484D01*
X91120Y-4000D02*
X91120Y-4700D01*
X80325Y-4219D02*
X80325Y-4552D01*
X80206Y-4028D02*
X80087Y-4385D01*
X80396Y-4385D01*
X91120Y-78680D02*
X91120Y-77980D01*
X80325Y-78199D02*
X80325Y-78532D01*
X80206Y-78008D02*
X80087Y-78365D01*
X80396Y-78365D01*
X102129Y-4052D02*
X101890Y-4052D01*
X101867Y-4290D01*
X101890Y-4266D01*
X101938Y-4242D01*
X102057Y-4242D01*
X102105Y-4266D01*
X102129Y-4290D01*
X102152Y-4338D01*
X102152Y-4457D01*
X102129Y-4504D01*
X102105Y-4528D01*
X102057Y-4552D01*
X101938Y-4552D01*
X101890Y-4528D01*
X101867Y-4504D01*
X102129Y-78032D02*
X101890Y-78032D01*
X101867Y-78270D01*
X101890Y-78246D01*
X101938Y-78222D01*
X102057Y-78222D01*
X102105Y-78246D01*
X102129Y-78270D01*
X102152Y-78318D01*
X102152Y-78437D01*
X102129Y-78484D01*
X102105Y-78508D01*
X102057Y-78532D01*
X101938Y-78532D01*
X101890Y-78508D01*
X101867Y-78484D01*
X4000Y-28890D02*
X4700Y-28890D01*
X4230Y-16509D02*
X4469Y-16509D01*
X4183Y-16652D02*
X4350Y-16152D01*
X4516Y-16652D01*
X112930Y-28890D02*
X112230Y-28890D01*
X112460Y-16509D02*
X112699Y-16509D01*
X112413Y-16652D02*
X112580Y-16152D01*
X112746Y-16652D01*
X4000Y-53780D02*
X4700Y-53780D01*
X4385Y-41280D02*
X4457Y-41304D01*
X4480Y-41328D01*
X4504Y-41375D01*
X4504Y-41447D01*
X4480Y-41494D01*
X4457Y-41518D01*
X4409Y-41542D01*
X4219Y-41542D01*
X4219Y-41042D01*
X4385Y-41042D01*
X4433Y-41066D01*
X4457Y-41090D01*
X4480Y-41137D01*
X4480Y-41185D01*
X4457Y-41232D01*
X4433Y-41256D01*
X4385Y-41280D01*
X4219Y-41280D01*
X112930Y-53780D02*
X112230Y-53780D01*
X112615Y-41280D02*
X112687Y-41304D01*
X112710Y-41328D01*
X112734Y-41375D01*
X112734Y-41447D01*
X112710Y-41494D01*
X112687Y-41518D01*
X112639Y-41542D01*
X112449Y-41542D01*
X112449Y-41042D01*
X112615Y-41042D01*
X112663Y-41066D01*
X112687Y-41090D01*
X112710Y-41137D01*
X112710Y-41185D01*
X112687Y-41232D01*
X112663Y-41256D01*
X112615Y-41280D01*
X112449Y-41280D01*
X4504Y-66384D02*
X4480Y-66408D01*
X4409Y-66432D01*
X4361Y-66432D01*
X4290Y-66408D01*
X4242Y-66360D01*
X4219Y-66313D01*
X4195Y-66218D01*
X4195Y-66146D01*
X4219Y-66051D01*
X4242Y-66003D01*
X4290Y-65956D01*
X4361Y-65932D01*
X4409Y-65932D01*
X4480Y-65956D01*
X4504Y-65980D01*
X112734Y-66384D02*
X112710Y-66408D01*
X112639Y-66432D01*
X112591Y-66432D01*
X112520Y-66408D01*
X112472Y-66360D01*
X112449Y-66313D01*
X112425Y-66218D01*
X112425Y-66146D01*
X112449Y-66051D01*
X112472Y-66003D01*
X112520Y-65956D01*
X112591Y-65932D01*
X112639Y-65932D01*
X112710Y-65956D01*
X112734Y-65980D01*
X79380Y-76422D02*
X79455Y-75822D01*
X79597Y-75822D01*
X79680Y-75851D01*
X79730Y-75908D01*
X79751Y-75965D01*
X79765Y-76080D01*
X79755Y-76165D01*
X79712Y-76280D01*
X79676Y-76337D01*
X79612Y-76394D01*
X79522Y-76422D01*
X79380Y-76422D01*
X80237Y-76422D02*
X80276Y-76108D01*
X80255Y-76051D01*
X80201Y-76022D01*
X80087Y-76022D01*
X80026Y-76051D01*
X80240Y-76394D02*
X80180Y-76422D01*
X80037Y-76422D01*
X79983Y-76394D01*
X79962Y-76337D01*
X79969Y-76280D01*
X80005Y-76222D01*
X80065Y-76194D01*
X80208Y-76194D01*
X80269Y-76165D01*
X80487Y-76022D02*
X80715Y-76022D01*
X80597Y-75822D02*
X80533Y-76337D01*
X80555Y-76394D01*
X80608Y-76422D01*
X80665Y-76422D01*
X81097Y-76394D02*
X81037Y-76422D01*
X80922Y-76422D01*
X80869Y-76394D01*
X80847Y-76337D01*
X80876Y-76108D01*
X80912Y-76051D01*
X80972Y-76022D01*
X81087Y-76022D01*
X81140Y-76051D01*
X81162Y-76108D01*
X81155Y-76165D01*
X80862Y-76222D01*
X81387Y-76365D02*
X81412Y-76394D01*
X81380Y-76422D01*
X81355Y-76394D01*
X81387Y-76365D01*
X81380Y-76422D01*
X81426Y-76051D02*
X81451Y-76080D01*
X81419Y-76108D01*
X81394Y-76080D01*
X81426Y-76051D01*
X81419Y-76108D01*
X82437Y-76422D02*
X82094Y-76422D01*
X82265Y-76422D02*
X82340Y-75822D01*
X82272Y-75908D01*
X82208Y-75965D01*
X82147Y-75994D01*
X83201Y-76022D02*
X83137Y-76537D01*
X83101Y-76594D01*
X83040Y-76622D01*
X83012Y-76622D01*
X83226Y-75822D02*
X83194Y-75851D01*
X83219Y-75880D01*
X83251Y-75851D01*
X83226Y-75822D01*
X83219Y-75880D01*
X83694Y-76422D02*
X83733Y-76108D01*
X83712Y-76051D01*
X83658Y-76022D01*
X83544Y-76022D01*
X83483Y-76051D01*
X83697Y-76394D02*
X83637Y-76422D01*
X83494Y-76422D01*
X83440Y-76394D01*
X83419Y-76337D01*
X83426Y-76280D01*
X83462Y-76222D01*
X83522Y-76194D01*
X83665Y-76194D01*
X83726Y-76165D01*
X84030Y-76022D02*
X83980Y-76422D01*
X84022Y-76080D02*
X84055Y-76051D01*
X84115Y-76022D01*
X84201Y-76022D01*
X84255Y-76051D01*
X84276Y-76108D01*
X84237Y-76422D01*
X85019Y-75880D02*
X85051Y-75851D01*
X85112Y-75822D01*
X85255Y-75822D01*
X85308Y-75851D01*
X85333Y-75880D01*
X85355Y-75937D01*
X85347Y-75994D01*
X85308Y-76080D01*
X84922Y-76422D01*
X85294Y-76422D01*
X85740Y-75822D02*
X85797Y-75822D01*
X85851Y-75851D01*
X85876Y-75880D01*
X85897Y-75937D01*
X85912Y-76051D01*
X85894Y-76194D01*
X85851Y-76308D01*
X85815Y-76365D01*
X85783Y-76394D01*
X85722Y-76422D01*
X85665Y-76422D01*
X85612Y-76394D01*
X85587Y-76365D01*
X85565Y-76308D01*
X85551Y-76194D01*
X85569Y-76051D01*
X85612Y-75937D01*
X85647Y-75880D01*
X85680Y-75851D01*
X85740Y-75822D01*
X86437Y-76422D02*
X86094Y-76422D01*
X86265Y-76422D02*
X86340Y-75822D01*
X86272Y-75908D01*
X86208Y-75965D01*
X86147Y-75994D01*
X87001Y-76022D02*
X86951Y-76422D01*
X86887Y-75794D02*
X86690Y-76222D01*
X87062Y-76222D01*
X70972Y-77622D02*
X70972Y-77022D01*
X71315Y-77622D02*
X71058Y-77280D01*
X71315Y-77022D02*
X70972Y-77365D01*
X71572Y-77622D02*
X71572Y-77222D01*
X71572Y-77022D02*
X71544Y-77051D01*
X71572Y-77080D01*
X71601Y-77051D01*
X71572Y-77022D01*
X71572Y-77080D01*
X72201Y-77565D02*
X72172Y-77594D01*
X72087Y-77622D01*
X72030Y-77622D01*
X71944Y-77594D01*
X71887Y-77537D01*
X71858Y-77480D01*
X71830Y-77365D01*
X71830Y-77280D01*
X71858Y-77165D01*
X71887Y-77108D01*
X71944Y-77051D01*
X72030Y-77022D01*
X72087Y-77022D01*
X72172Y-77051D01*
X72201Y-77080D01*
X72715Y-77622D02*
X72715Y-77308D01*
X72687Y-77251D01*
X72630Y-77222D01*
X72515Y-77222D01*
X72458Y-77251D01*
X72715Y-77594D02*
X72658Y-77622D01*
X72515Y-77622D01*
X72458Y-77594D01*
X72430Y-77537D01*
X72430Y-77480D01*
X72458Y-77422D01*
X72515Y-77394D01*
X72658Y-77394D01*
X72715Y-77365D01*
X73258Y-77622D02*
X73258Y-77022D01*
X73258Y-77594D02*
X73201Y-77622D01*
X73087Y-77622D01*
X73030Y-77594D01*
X73001Y-77565D01*
X72972Y-77508D01*
X72972Y-77337D01*
X73001Y-77280D01*
X73030Y-77251D01*
X73087Y-77222D01*
X73201Y-77222D01*
X73258Y-77251D01*
X74001Y-77308D02*
X74201Y-77308D01*
X74287Y-77622D02*
X74001Y-77622D01*
X74001Y-77022D01*
X74287Y-77022D01*
X74544Y-77565D02*
X74572Y-77594D01*
X74544Y-77622D01*
X74515Y-77594D01*
X74544Y-77565D01*
X74544Y-77622D01*
X74829Y-77622D02*
X74829Y-77022D01*
X74972Y-77022D01*
X75058Y-77051D01*
X75115Y-77108D01*
X75144Y-77165D01*
X75172Y-77280D01*
X75172Y-77365D01*
X75144Y-77480D01*
X75115Y-77537D01*
X75058Y-77594D01*
X74972Y-77622D01*
X74829Y-77622D01*
X75429Y-77565D02*
X75458Y-77594D01*
X75429Y-77622D01*
X75401Y-77594D01*
X75429Y-77565D01*
X75429Y-77622D01*
X75687Y-77451D02*
X75972Y-77451D01*
X75629Y-77622D02*
X75829Y-77022D01*
X76029Y-77622D01*
X76229Y-77565D02*
X76258Y-77594D01*
X76229Y-77622D01*
X76201Y-77594D01*
X76229Y-77565D01*
X76229Y-77622D01*
X104522Y-76422D02*
X104358Y-76137D01*
X104180Y-76422D02*
X104255Y-75822D01*
X104483Y-75822D01*
X104537Y-75851D01*
X104562Y-75880D01*
X104583Y-75937D01*
X104572Y-76022D01*
X104537Y-76080D01*
X104505Y-76108D01*
X104444Y-76137D01*
X104215Y-76137D01*
X105012Y-76394D02*
X104951Y-76422D01*
X104837Y-76422D01*
X104783Y-76394D01*
X104762Y-76337D01*
X104790Y-76108D01*
X104826Y-76051D01*
X104887Y-76022D01*
X105001Y-76022D01*
X105055Y-76051D01*
X105076Y-76108D01*
X105069Y-76165D01*
X104776Y-76222D01*
X105287Y-76022D02*
X105380Y-76422D01*
X105572Y-76022D01*
X105758Y-76365D02*
X105783Y-76394D01*
X105751Y-76422D01*
X105726Y-76394D01*
X105758Y-76365D01*
X105751Y-76422D01*
X105797Y-76051D02*
X105822Y-76080D01*
X105790Y-76108D01*
X105765Y-76080D01*
X105797Y-76051D01*
X105790Y-76108D01*
X70944Y-76394D02*
X71030Y-76422D01*
X71172Y-76422D01*
X71230Y-76394D01*
X71258Y-76365D01*
X71287Y-76308D01*
X71287Y-76251D01*
X71258Y-76194D01*
X71230Y-76165D01*
X71172Y-76137D01*
X71058Y-76108D01*
X71001Y-76080D01*
X70972Y-76051D01*
X70944Y-75994D01*
X70944Y-75937D01*
X70972Y-75880D01*
X71001Y-75851D01*
X71058Y-75822D01*
X71201Y-75822D01*
X71287Y-75851D01*
X71544Y-76422D02*
X71544Y-76022D01*
X71544Y-75822D02*
X71515Y-75851D01*
X71544Y-75880D01*
X71572Y-75851D01*
X71544Y-75822D01*
X71544Y-75880D01*
X71772Y-76022D02*
X72087Y-76022D01*
X71772Y-76422D01*
X72087Y-76422D01*
X72544Y-76394D02*
X72487Y-76422D01*
X72372Y-76422D01*
X72315Y-76394D01*
X72287Y-76337D01*
X72287Y-76108D01*
X72315Y-76051D01*
X72372Y-76022D01*
X72487Y-76022D01*
X72544Y-76051D01*
X72572Y-76108D01*
X72572Y-76165D01*
X72287Y-76222D01*
X72830Y-76365D02*
X72858Y-76394D01*
X72830Y-76422D01*
X72801Y-76394D01*
X72830Y-76365D01*
X72830Y-76422D01*
X72830Y-76051D02*
X72858Y-76080D01*
X72830Y-76108D01*
X72801Y-76080D01*
X72830Y-76051D01*
X72830Y-76108D01*
X73544Y-76251D02*
X73830Y-76251D01*
X73487Y-76422D02*
X73687Y-75822D01*
X73887Y-76422D01*
X74344Y-76022D02*
X74344Y-76422D01*
X74201Y-75794D02*
X74058Y-76222D01*
X74430Y-76222D01*
X104172Y-77622D02*
X104172Y-77022D01*
X104715Y-77622D02*
X104715Y-77022D01*
X104715Y-77594D02*
X104658Y-77622D01*
X104544Y-77622D01*
X104487Y-77594D01*
X104458Y-77565D01*
X104430Y-77508D01*
X104430Y-77337D01*
X104458Y-77280D01*
X104487Y-77251D01*
X104544Y-77222D01*
X104658Y-77222D01*
X104715Y-77251D01*
X105001Y-77565D02*
X105030Y-77594D01*
X105001Y-77622D01*
X104972Y-77594D01*
X105001Y-77565D01*
X105001Y-77622D01*
X105001Y-77251D02*
X105030Y-77280D01*
X105001Y-77308D01*
X104972Y-77280D01*
X105001Y-77251D01*
X105001Y-77308D01*
X106058Y-77622D02*
X105715Y-77622D01*
X105887Y-77622D02*
X105887Y-77022D01*
X105829Y-77108D01*
X105772Y-77165D01*
X105715Y-77194D01*
X106744Y-76994D02*
X106230Y-77765D01*
X107258Y-77622D02*
X106915Y-77622D01*
X107087Y-77622D02*
X107087Y-77022D01*
X107029Y-77108D01*
X106972Y-77165D01*
X106915Y-77194D01*
X70969Y-74622D02*
X71312Y-74622D01*
X71065Y-75222D02*
X71140Y-74622D01*
X71437Y-75222D02*
X71487Y-74822D01*
X71512Y-74622D02*
X71480Y-74651D01*
X71505Y-74680D01*
X71537Y-74651D01*
X71512Y-74622D01*
X71505Y-74680D01*
X71687Y-74822D02*
X71915Y-74822D01*
X71797Y-74622D02*
X71733Y-75137D01*
X71755Y-75194D01*
X71808Y-75222D01*
X71865Y-75222D01*
X72151Y-75222D02*
X72097Y-75194D01*
X72076Y-75137D01*
X72140Y-74622D01*
X72612Y-75194D02*
X72551Y-75222D01*
X72437Y-75222D01*
X72383Y-75194D01*
X72362Y-75137D01*
X72390Y-74908D01*
X72426Y-74851D01*
X72487Y-74822D01*
X72601Y-74822D01*
X72655Y-74851D01*
X72676Y-74908D01*
X72669Y-74965D01*
X72376Y-75022D01*
X72901Y-75165D02*
X72926Y-75194D01*
X72894Y-75222D01*
X72869Y-75194D01*
X72901Y-75165D01*
X72894Y-75222D01*
X72940Y-74851D02*
X72965Y-74880D01*
X72933Y-74908D01*
X72908Y-74880D01*
X72940Y-74851D01*
X72933Y-74908D01*
X73626Y-74622D02*
X73969Y-74622D01*
X73722Y-75222D02*
X73797Y-74622D01*
X74094Y-75222D02*
X74144Y-74822D01*
X74169Y-74622D02*
X74137Y-74651D01*
X74162Y-74680D01*
X74194Y-74651D01*
X74169Y-74622D01*
X74162Y-74680D01*
X74380Y-75222D02*
X74455Y-74622D01*
X74722Y-75222D01*
X74797Y-74622D01*
X75001Y-75051D02*
X75287Y-75051D01*
X74922Y-75222D02*
X75197Y-74622D01*
X75322Y-75222D01*
X76008Y-74994D02*
X76465Y-74994D01*
X77530Y-75165D02*
X77497Y-75194D01*
X77408Y-75222D01*
X77351Y-75222D01*
X77269Y-75194D01*
X77219Y-75137D01*
X77197Y-75080D01*
X77183Y-74965D01*
X77194Y-74880D01*
X77237Y-74765D01*
X77272Y-74708D01*
X77337Y-74651D01*
X77426Y-74622D01*
X77483Y-74622D01*
X77565Y-74651D01*
X77590Y-74680D01*
X77865Y-75222D02*
X77812Y-75194D01*
X77787Y-75165D01*
X77765Y-75108D01*
X77787Y-74937D01*
X77822Y-74880D01*
X77855Y-74851D01*
X77915Y-74822D01*
X78001Y-74822D01*
X78055Y-74851D01*
X78080Y-74880D01*
X78101Y-74937D01*
X78080Y-75108D01*
X78044Y-75165D01*
X78012Y-75194D01*
X77951Y-75222D01*
X77865Y-75222D01*
X78372Y-74822D02*
X78322Y-75222D01*
X78365Y-74880D02*
X78397Y-74851D01*
X78458Y-74822D01*
X78544Y-74822D01*
X78597Y-74851D01*
X78619Y-74908D01*
X78580Y-75222D01*
X78830Y-74822D02*
X79058Y-74822D01*
X78940Y-74622D02*
X78876Y-75137D01*
X78897Y-75194D01*
X78951Y-75222D01*
X79008Y-75222D01*
X79208Y-75222D02*
X79258Y-74822D01*
X79244Y-74937D02*
X79280Y-74880D01*
X79312Y-74851D01*
X79372Y-74822D01*
X79430Y-74822D01*
X79665Y-75222D02*
X79612Y-75194D01*
X79587Y-75165D01*
X79565Y-75108D01*
X79587Y-74937D01*
X79622Y-74880D01*
X79655Y-74851D01*
X79715Y-74822D01*
X79801Y-74822D01*
X79855Y-74851D01*
X79880Y-74880D01*
X79901Y-74937D01*
X79880Y-75108D01*
X79844Y-75165D01*
X79812Y-75194D01*
X79751Y-75222D01*
X79665Y-75222D01*
X80208Y-75222D02*
X80155Y-75194D01*
X80133Y-75137D01*
X80197Y-74622D01*
X80522Y-75222D02*
X80469Y-75194D01*
X80447Y-75137D01*
X80512Y-74622D01*
X80983Y-75194D02*
X80922Y-75222D01*
X80808Y-75222D01*
X80755Y-75194D01*
X80733Y-75137D01*
X80762Y-74908D01*
X80797Y-74851D01*
X80858Y-74822D01*
X80972Y-74822D01*
X81026Y-74851D01*
X81047Y-74908D01*
X81040Y-74965D01*
X80747Y-75022D01*
X81265Y-75222D02*
X81315Y-74822D01*
X81301Y-74937D02*
X81337Y-74880D01*
X81369Y-74851D01*
X81430Y-74822D01*
X81487Y-74822D01*
X82058Y-74822D02*
X82287Y-74822D01*
X82094Y-75222D02*
X82158Y-74708D01*
X82194Y-74651D01*
X82255Y-74622D01*
X82312Y-74622D01*
X82522Y-75222D02*
X82469Y-75194D01*
X82444Y-75165D01*
X82422Y-75108D01*
X82444Y-74937D01*
X82480Y-74880D01*
X82512Y-74851D01*
X82572Y-74822D01*
X82658Y-74822D01*
X82712Y-74851D01*
X82737Y-74880D01*
X82758Y-74937D01*
X82737Y-75108D01*
X82701Y-75165D01*
X82669Y-75194D01*
X82608Y-75222D01*
X82522Y-75222D01*
X82980Y-75222D02*
X83030Y-74822D01*
X83015Y-74937D02*
X83051Y-74880D01*
X83083Y-74851D01*
X83144Y-74822D01*
X83201Y-74822D01*
X83797Y-74622D02*
X84140Y-74622D01*
X83894Y-75222D02*
X83969Y-74622D01*
X84265Y-75222D02*
X84315Y-74822D01*
X84340Y-74622D02*
X84308Y-74651D01*
X84333Y-74680D01*
X84365Y-74651D01*
X84340Y-74622D01*
X84333Y-74680D01*
X84551Y-75222D02*
X84626Y-74622D01*
X84772Y-75051D01*
X85026Y-74622D01*
X84951Y-75222D01*
X71172Y-72508D02*
X70972Y-72508D01*
X70972Y-72822D02*
X70972Y-72222D01*
X71258Y-72222D01*
X71487Y-72822D02*
X71487Y-72422D01*
X71487Y-72222D02*
X71458Y-72251D01*
X71487Y-72280D01*
X71515Y-72251D01*
X71487Y-72222D01*
X71487Y-72280D01*
X71858Y-72822D02*
X71801Y-72794D01*
X71772Y-72737D01*
X71772Y-72222D01*
X72315Y-72794D02*
X72258Y-72822D01*
X72144Y-72822D01*
X72087Y-72794D01*
X72058Y-72737D01*
X72058Y-72508D01*
X72087Y-72451D01*
X72144Y-72422D01*
X72258Y-72422D01*
X72315Y-72451D01*
X72344Y-72508D01*
X72344Y-72565D01*
X72058Y-72622D01*
X72601Y-72765D02*
X72630Y-72794D01*
X72601Y-72822D01*
X72572Y-72794D01*
X72601Y-72765D01*
X72601Y-72822D01*
X72601Y-72451D02*
X72630Y-72480D01*
X72601Y-72508D01*
X72572Y-72480D01*
X72601Y-72451D01*
X72601Y-72508D01*
X73601Y-72422D02*
X73601Y-72822D01*
X73344Y-72422D02*
X73344Y-72737D01*
X73372Y-72794D01*
X73430Y-72822D01*
X73515Y-72822D01*
X73572Y-72794D01*
X73601Y-72765D01*
X74230Y-72765D02*
X74201Y-72794D01*
X74115Y-72822D01*
X74058Y-72822D01*
X73972Y-72794D01*
X73915Y-72737D01*
X73887Y-72680D01*
X73858Y-72565D01*
X73858Y-72480D01*
X73887Y-72365D01*
X73915Y-72308D01*
X73972Y-72251D01*
X74058Y-72222D01*
X74115Y-72222D01*
X74201Y-72251D01*
X74230Y-72280D01*
X74572Y-72822D02*
X74515Y-72794D01*
X74487Y-72765D01*
X74458Y-72708D01*
X74458Y-72537D01*
X74487Y-72480D01*
X74515Y-72451D01*
X74572Y-72422D01*
X74658Y-72422D01*
X74715Y-72451D01*
X74744Y-72480D01*
X74772Y-72537D01*
X74772Y-72708D01*
X74744Y-72765D01*
X74715Y-72794D01*
X74658Y-72822D01*
X74572Y-72822D01*
X75030Y-72422D02*
X75030Y-72822D01*
X75030Y-72480D02*
X75058Y-72451D01*
X75115Y-72422D01*
X75201Y-72422D01*
X75258Y-72451D01*
X75287Y-72508D01*
X75287Y-72822D01*
X75487Y-72422D02*
X75715Y-72422D01*
X75572Y-72222D02*
X75572Y-72737D01*
X75601Y-72794D01*
X75658Y-72822D01*
X75715Y-72822D01*
X75915Y-72822D02*
X75915Y-72422D01*
X75915Y-72537D02*
X75944Y-72480D01*
X75972Y-72451D01*
X76030Y-72422D01*
X76087Y-72422D01*
X76372Y-72822D02*
X76315Y-72794D01*
X76287Y-72765D01*
X76258Y-72708D01*
X76258Y-72537D01*
X76287Y-72480D01*
X76315Y-72451D01*
X76372Y-72422D01*
X76458Y-72422D01*
X76515Y-72451D01*
X76544Y-72480D01*
X76572Y-72537D01*
X76572Y-72708D01*
X76544Y-72765D01*
X76515Y-72794D01*
X76458Y-72822D01*
X76372Y-72822D01*
X76915Y-72822D02*
X76858Y-72794D01*
X76830Y-72737D01*
X76830Y-72222D01*
X77001Y-72880D02*
X77458Y-72880D01*
X77544Y-72422D02*
X77687Y-72822D01*
X77830Y-72422D01*
X78001Y-72222D02*
X78372Y-72222D01*
X78172Y-72451D01*
X78258Y-72451D01*
X78315Y-72480D01*
X78344Y-72508D01*
X78372Y-72565D01*
X78372Y-72708D01*
X78344Y-72765D01*
X78315Y-72794D01*
X78258Y-72822D01*
X78087Y-72822D01*
X78030Y-72794D01*
X78001Y-72765D01*
X78630Y-72765D02*
X78658Y-72794D01*
X78630Y-72822D01*
X78601Y-72794D01*
X78630Y-72765D01*
X78630Y-72822D01*
X78915Y-72822D02*
X78915Y-72222D01*
X78972Y-72594D02*
X79144Y-72822D01*
X79144Y-72422D02*
X78915Y-72651D01*
X79401Y-72822D02*
X79401Y-72422D01*
X79401Y-72222D02*
X79372Y-72251D01*
X79401Y-72280D01*
X79430Y-72251D01*
X79401Y-72222D01*
X79401Y-72280D01*
X79944Y-72794D02*
X79887Y-72822D01*
X79772Y-72822D01*
X79715Y-72794D01*
X79687Y-72765D01*
X79658Y-72708D01*
X79658Y-72537D01*
X79687Y-72480D01*
X79715Y-72451D01*
X79772Y-72422D01*
X79887Y-72422D01*
X79944Y-72451D01*
X80458Y-72822D02*
X80458Y-72508D01*
X80430Y-72451D01*
X80372Y-72422D01*
X80258Y-72422D01*
X80201Y-72451D01*
X80458Y-72794D02*
X80401Y-72822D01*
X80258Y-72822D01*
X80201Y-72794D01*
X80172Y-72737D01*
X80172Y-72680D01*
X80201Y-72622D01*
X80258Y-72594D01*
X80401Y-72594D01*
X80458Y-72565D01*
X81001Y-72822D02*
X81001Y-72222D01*
X81001Y-72794D02*
X80944Y-72822D01*
X80830Y-72822D01*
X80772Y-72794D01*
X80744Y-72765D01*
X80715Y-72708D01*
X80715Y-72537D01*
X80744Y-72480D01*
X80772Y-72451D01*
X80830Y-72422D01*
X80944Y-72422D01*
X81001Y-72451D01*
X81144Y-72880D02*
X81601Y-72880D01*
X81744Y-72422D02*
X81744Y-73022D01*
X81744Y-72451D02*
X81801Y-72422D01*
X81915Y-72422D01*
X81972Y-72451D01*
X82001Y-72480D01*
X82030Y-72537D01*
X82030Y-72708D01*
X82001Y-72765D01*
X81972Y-72794D01*
X81915Y-72822D01*
X81801Y-72822D01*
X81744Y-72794D01*
X82544Y-72794D02*
X82487Y-72822D01*
X82372Y-72822D01*
X82315Y-72794D01*
X82287Y-72765D01*
X82258Y-72708D01*
X82258Y-72537D01*
X82287Y-72480D01*
X82315Y-72451D01*
X82372Y-72422D01*
X82487Y-72422D01*
X82544Y-72451D01*
X82801Y-72822D02*
X82801Y-72222D01*
X82801Y-72451D02*
X82858Y-72422D01*
X82972Y-72422D01*
X83030Y-72451D01*
X83058Y-72480D01*
X83087Y-72537D01*
X83087Y-72708D01*
X83058Y-72765D01*
X83030Y-72794D01*
X82972Y-72822D01*
X82858Y-72822D01*
X82801Y-72794D01*
X70944Y-73994D02*
X71030Y-74022D01*
X71172Y-74022D01*
X71230Y-73994D01*
X71258Y-73965D01*
X71287Y-73908D01*
X71287Y-73851D01*
X71258Y-73794D01*
X71230Y-73765D01*
X71172Y-73737D01*
X71058Y-73708D01*
X71001Y-73680D01*
X70972Y-73651D01*
X70944Y-73594D01*
X70944Y-73537D01*
X70972Y-73480D01*
X71001Y-73451D01*
X71058Y-73422D01*
X71201Y-73422D01*
X71287Y-73451D01*
X71544Y-74022D02*
X71544Y-73422D01*
X71801Y-74022D02*
X71801Y-73708D01*
X71772Y-73651D01*
X71715Y-73622D01*
X71630Y-73622D01*
X71572Y-73651D01*
X71544Y-73680D01*
X72315Y-73994D02*
X72258Y-74022D01*
X72144Y-74022D01*
X72087Y-73994D01*
X72058Y-73937D01*
X72058Y-73708D01*
X72087Y-73651D01*
X72144Y-73622D01*
X72258Y-73622D01*
X72315Y-73651D01*
X72344Y-73708D01*
X72344Y-73765D01*
X72058Y-73822D01*
X72830Y-73994D02*
X72772Y-74022D01*
X72658Y-74022D01*
X72601Y-73994D01*
X72572Y-73937D01*
X72572Y-73708D01*
X72601Y-73651D01*
X72658Y-73622D01*
X72772Y-73622D01*
X72830Y-73651D01*
X72858Y-73708D01*
X72858Y-73765D01*
X72572Y-73822D01*
X73030Y-73622D02*
X73258Y-73622D01*
X73115Y-73422D02*
X73115Y-73937D01*
X73144Y-73994D01*
X73201Y-74022D01*
X73258Y-74022D01*
X73458Y-73965D02*
X73487Y-73994D01*
X73458Y-74022D01*
X73430Y-73994D01*
X73458Y-73965D01*
X73458Y-74022D01*
X73458Y-73651D02*
X73487Y-73680D01*
X73458Y-73708D01*
X73430Y-73680D01*
X73458Y-73651D01*
X73458Y-73708D01*
X70997Y-71022D02*
X71065Y-71622D01*
X71233Y-71194D01*
X71294Y-71622D01*
X71512Y-71022D01*
X71658Y-71222D02*
X71751Y-71622D01*
X71944Y-71222D02*
X71751Y-71622D01*
X71676Y-71765D01*
X71644Y-71794D01*
X71583Y-71822D01*
X72208Y-71622D02*
X72155Y-71594D01*
X72130Y-71565D01*
X72108Y-71508D01*
X72130Y-71337D01*
X72165Y-71280D01*
X72197Y-71251D01*
X72258Y-71222D01*
X72344Y-71222D01*
X72397Y-71251D01*
X72422Y-71280D01*
X72444Y-71337D01*
X72422Y-71508D01*
X72387Y-71565D01*
X72355Y-71594D01*
X72294Y-71622D01*
X72208Y-71622D01*
X72951Y-71622D02*
X72665Y-71622D01*
X72740Y-71022D01*
X73458Y-71222D02*
X73408Y-71622D01*
X73201Y-71222D02*
X73162Y-71537D01*
X73183Y-71594D01*
X73237Y-71622D01*
X73322Y-71622D01*
X73383Y-71594D01*
X73415Y-71565D01*
X73694Y-71622D02*
X73744Y-71222D01*
X73737Y-71280D02*
X73769Y-71251D01*
X73829Y-71222D01*
X73915Y-71222D01*
X73969Y-71251D01*
X73990Y-71308D01*
X73951Y-71622D01*
X73990Y-71308D02*
X74026Y-71251D01*
X74087Y-71222D01*
X74172Y-71222D01*
X74226Y-71251D01*
X74247Y-71308D01*
X74208Y-71622D01*
X70915Y-70022D02*
X71030Y-70422D01*
X71144Y-70137D01*
X71258Y-70422D01*
X71372Y-70022D01*
X71544Y-70022D02*
X71658Y-70422D01*
X71772Y-70137D01*
X71887Y-70422D01*
X72001Y-70022D01*
X72172Y-70022D02*
X72287Y-70422D01*
X72401Y-70137D01*
X72515Y-70422D01*
X72629Y-70022D01*
X72858Y-70365D02*
X72887Y-70394D01*
X72858Y-70422D01*
X72829Y-70394D01*
X72858Y-70365D01*
X72858Y-70422D01*
X73087Y-70022D02*
X73201Y-70422D01*
X73315Y-70137D01*
X73429Y-70422D01*
X73544Y-70022D01*
X73715Y-70022D02*
X73858Y-70422D01*
X74001Y-70022D02*
X73858Y-70422D01*
X73801Y-70565D01*
X73772Y-70594D01*
X73715Y-70622D01*
X74315Y-70422D02*
X74258Y-70394D01*
X74229Y-70365D01*
X74201Y-70308D01*
X74201Y-70137D01*
X74229Y-70080D01*
X74258Y-70051D01*
X74315Y-70022D01*
X74401Y-70022D01*
X74458Y-70051D01*
X74487Y-70080D01*
X74515Y-70137D01*
X74515Y-70308D01*
X74487Y-70365D01*
X74458Y-70394D01*
X74401Y-70422D01*
X74315Y-70422D01*
X74858Y-70422D02*
X74801Y-70394D01*
X74772Y-70337D01*
X74772Y-69822D01*
X75344Y-70022D02*
X75344Y-70422D01*
X75087Y-70022D02*
X75087Y-70337D01*
X75115Y-70394D01*
X75172Y-70422D01*
X75258Y-70422D01*
X75315Y-70394D01*
X75344Y-70365D01*
X75629Y-70422D02*
X75629Y-70022D01*
X75629Y-70080D02*
X75658Y-70051D01*
X75715Y-70022D01*
X75801Y-70022D01*
X75858Y-70051D01*
X75887Y-70108D01*
X75887Y-70422D01*
X75887Y-70108D02*
X75915Y-70051D01*
X75972Y-70022D01*
X76058Y-70022D01*
X76115Y-70051D01*
X76144Y-70108D01*
X76144Y-70422D01*
X76429Y-70365D02*
X76458Y-70394D01*
X76429Y-70422D01*
X76401Y-70394D01*
X76429Y-70365D01*
X76429Y-70422D01*
X76972Y-70394D02*
X76915Y-70422D01*
X76801Y-70422D01*
X76744Y-70394D01*
X76715Y-70365D01*
X76687Y-70308D01*
X76687Y-70137D01*
X76715Y-70080D01*
X76744Y-70051D01*
X76801Y-70022D01*
X76915Y-70022D01*
X76972Y-70051D01*
X77315Y-70422D02*
X77258Y-70394D01*
X77229Y-70365D01*
X77201Y-70308D01*
X77201Y-70137D01*
X77229Y-70080D01*
X77258Y-70051D01*
X77315Y-70022D01*
X77401Y-70022D01*
X77458Y-70051D01*
X77487Y-70080D01*
X77515Y-70137D01*
X77515Y-70308D01*
X77487Y-70365D01*
X77458Y-70394D01*
X77401Y-70422D01*
X77315Y-70422D01*
X77772Y-70422D02*
X77772Y-70022D01*
X77772Y-70080D02*
X77801Y-70051D01*
X77858Y-70022D01*
X77944Y-70022D01*
X78001Y-70051D01*
X78029Y-70108D01*
X78029Y-70422D01*
X78029Y-70108D02*
X78058Y-70051D01*
X78115Y-70022D01*
X78201Y-70022D01*
X78258Y-70051D01*
X78287Y-70108D01*
X78287Y-70422D01*
X70230Y-69580D02*
X70230Y-77980D01*
X70230Y-71980D02*
X112230Y-71980D01*
X70230Y-69580D02*
X112230Y-69580D01*
X70230Y-74380D02*
X112230Y-74380D01*
X103430Y-75580D02*
X103430Y-77980D01*
X70230Y-76780D02*
X112230Y-76780D01*
X70230Y-75580D02*
X112230Y-75580D01*
X76830Y-75580D02*
X76830Y-76780D01*
G54D11*
X82892Y-48133D02*
X81042Y-49825D01*
X82892Y-9274D02*
X82892Y-48133D01*
X81042Y-52385D02*
X81042Y-49825D01*
X81042Y-54944D02*
X81042Y-52385D01*
X82892Y-56597D02*
X81042Y-54944D01*
X82892Y-65967D02*
X82892Y-56597D01*
X9664Y-67542D02*
X81317Y-67542D01*
X8089Y-9274D02*
X8089Y-65967D01*
X81317Y-7700D02*
X9664Y-7700D01*
X82892Y-9274D02*
G75*
G03X81317Y-7700I-1574J0D01*
G74*
G01*
X81317Y-67542D02*
G75*
G03X82892Y-65967I0J1574D01*
G74*
G01*
X8089Y-65967D02*
G75*
G03X9664Y-67542I1574J0D01*
G74*
G01*
X9664Y-7700D02*
G75*
G03X8089Y-9274I0J-1574D01*
G74*
G01*
G54D12*
X64981Y-57650D03*
X65918Y-57650D03*
G54D13*
X59425Y-60450D03*
X59425Y-59350D03*
G54D14*
X61650Y-57100D03*
X61650Y-58200D03*
G54D15*
X63298Y-59109D03*
X63495Y-59109D03*
X63101Y-59109D03*
X62904Y-59109D03*
G54D16*
X62609Y-59404D03*
X62609Y-59601D03*
X62609Y-59798D03*
X62609Y-59995D03*
G54D15*
X62904Y-60290D03*
X63101Y-60290D03*
X63298Y-60290D03*
X63495Y-60290D03*
G54D16*
X63790Y-59995D03*
X63790Y-59798D03*
X63790Y-59601D03*
X63790Y-59404D03*
G54D17*
X63200Y-59700D03*
G54D18*
X63396Y-59867D03*
X63396Y-59532D03*
X63003Y-59532D03*
X63003Y-59867D03*
G54D19*
X61725Y-59506D03*
X61725Y-60293D03*
X62900Y-58043D03*
X62900Y-57256D03*
X60575Y-59506D03*
X60575Y-60293D03*
G54D20*
X62550Y-61675D03*
X62575Y-63475D03*
X60075Y-61675D03*
X60100Y-63475D03*
G54D21*
X63975Y-58025D03*
X63975Y-57275D03*
G54D22*
X59450Y-57250D03*
X59450Y-58250D03*
G54D23*
X50093Y-57542D03*
X51093Y-57542D03*
X52093Y-57542D03*
G54D24*
X53093Y-57542D03*
G54D23*
X50093Y-53605D03*
X51093Y-53605D03*
X52093Y-53605D03*
G54D24*
X53093Y-53605D03*
G54D25*
X9664Y-65967D03*
X45490Y-65967D03*
X81317Y-65967D03*
X81317Y-37621D03*
X9664Y-21085D03*
X81317Y-21085D03*
X81317Y-9274D03*
X45490Y-37621D03*
X9664Y-37621D03*
G54D26*
X78069Y-60534D03*
G54D27*
X75669Y-60534D03*
G54D28*
X76819Y-58534D03*
G54D29*
X72420Y-50473D03*
X72420Y-49973D03*
X72420Y-49473D03*
X72420Y-48973D03*
X72420Y-48473D03*
X72420Y-47973D03*
X72420Y-47473D03*
X72420Y-46973D03*
X68758Y-46973D03*
X68758Y-47473D03*
X68758Y-47973D03*
X68758Y-48473D03*
X68758Y-48973D03*
X68758Y-49473D03*
X68758Y-49973D03*
X68758Y-50473D03*
G54D30*
X51465Y-49825D03*
X51721Y-49825D03*
X51977Y-49825D03*
X52233Y-49825D03*
X50697Y-47621D03*
X50697Y-49825D03*
X50953Y-49825D03*
X51209Y-49825D03*
X52489Y-47621D03*
X52233Y-47621D03*
X51977Y-47621D03*
X51721Y-47621D03*
X51465Y-47621D03*
X51209Y-47621D03*
X52489Y-49825D03*
X50953Y-47621D03*
X50441Y-49825D03*
X52745Y-49825D03*
X52745Y-47621D03*
X50441Y-47621D03*
G54D31*
X63161Y-39652D03*
X63161Y-40652D03*
X63161Y-41652D03*
X68961Y-41652D03*
X68961Y-40652D03*
X68961Y-39652D03*
G54D32*
X52600Y-40955D03*
X52600Y-41455D03*
X52600Y-41955D03*
X54720Y-40955D03*
X52600Y-39455D03*
X52600Y-39955D03*
X52600Y-40455D03*
X54720Y-39955D03*
X54720Y-39455D03*
X54720Y-38955D03*
X54720Y-41455D03*
X52600Y-38955D03*
X54720Y-41955D03*
X54720Y-40455D03*
G54D33*
X79546Y-40869D03*
X79546Y-41869D03*
G54D22*
X79546Y-42869D03*
X79546Y-43869D03*
X79546Y-44869D03*
X79546Y-45869D03*
G54D23*
X80333Y-26134D03*
X80333Y-24384D03*
G54D34*
X79333Y-26634D03*
X79333Y-23884D03*
G54D23*
X77783Y-24384D03*
X77783Y-26134D03*
X78533Y-24759D03*
X78533Y-25759D03*
G54D35*
X78069Y-48235D03*
X78069Y-56535D03*
G54D36*
X78069Y-52385D03*
G54D23*
X80333Y-30071D03*
X80333Y-28321D03*
G54D34*
X79333Y-30571D03*
X79333Y-27821D03*
G54D23*
X77783Y-28321D03*
X77783Y-30071D03*
X78533Y-28696D03*
X78533Y-29696D03*
X80333Y-34008D03*
X80333Y-32258D03*
G54D34*
X79333Y-34508D03*
X79333Y-31758D03*
G54D23*
X77783Y-32258D03*
X77783Y-34008D03*
X78533Y-32633D03*
X78533Y-33633D03*
X47160Y-43064D03*
X44160Y-43064D03*
X45160Y-43064D03*
X48160Y-43064D03*
X46160Y-43064D03*
G54D37*
X74450Y-23800D03*
X76250Y-23775D03*
G54D38*
X74329Y-41637D03*
X73539Y-41637D03*
X72749Y-41637D03*
X71959Y-41637D03*
G54D39*
X75333Y-39471D03*
X70963Y-39471D03*
G54D40*
X49970Y-63150D03*
X49970Y-63950D03*
G54D22*
X31790Y-36490D03*
X32790Y-36490D03*
X33790Y-36490D03*
G54D41*
X59900Y-49825D03*
X59900Y-49510D03*
X59900Y-49195D03*
X59900Y-48880D03*
X59900Y-48566D03*
X59900Y-48251D03*
X59900Y-47936D03*
X59900Y-47621D03*
X63168Y-47621D03*
X63168Y-49825D03*
X63168Y-49510D03*
X63168Y-49195D03*
X63168Y-48880D03*
X63168Y-48566D03*
X63168Y-48251D03*
X63168Y-47936D03*
G54D42*
X60432Y-47089D03*
X60747Y-47089D03*
X61062Y-47089D03*
X61377Y-47089D03*
X61691Y-47089D03*
X62006Y-47089D03*
X62321Y-47089D03*
X62636Y-47089D03*
X60432Y-50357D03*
X60747Y-50357D03*
X61062Y-50357D03*
X61377Y-50357D03*
X61691Y-50357D03*
X62006Y-50357D03*
X62321Y-50357D03*
X62636Y-50357D03*
G54D43*
X58896Y-49707D03*
X58896Y-50416D03*
X56396Y-50416D03*
X56396Y-49707D03*
G54D40*
X51970Y-63150D03*
X51970Y-63950D03*
X50970Y-63150D03*
X50970Y-63950D03*
X52970Y-63150D03*
X52970Y-63950D03*
G54D44*
X20097Y-57138D03*
X19782Y-57138D03*
X18522Y-57138D03*
X18837Y-57138D03*
X19152Y-57138D03*
X19467Y-57138D03*
X19467Y-56272D03*
X19152Y-56272D03*
X18837Y-56272D03*
X18522Y-56272D03*
X19782Y-56272D03*
X20097Y-56272D03*
G54D45*
X20136Y-56705D03*
X18483Y-56705D03*
G54D20*
X22675Y-56711D03*
X22700Y-58511D03*
G54D22*
X23670Y-36490D03*
X22670Y-36490D03*
X21670Y-36490D03*
G54D33*
X57187Y-40955D03*
G54D22*
X57187Y-39955D03*
X58187Y-40955D03*
X58187Y-39955D03*
X59187Y-40955D03*
X59187Y-39955D03*
G54D46*
X44431Y-27477D03*
X43431Y-27477D03*
X42431Y-27477D03*
X41431Y-27477D03*
X41431Y-33277D03*
X42431Y-33277D03*
X43431Y-33277D03*
X44431Y-33277D03*
G54D47*
X58069Y-49786D03*
X57203Y-50416D03*
X58069Y-50416D03*
X57203Y-49786D03*
G54D10*
G36*
X19325Y-41600D02*
X19325Y-41500D01*
X19925Y-41300D01*
X19925Y-41800D01*
X19325Y-41600D01*
X19325Y-41600D01*
G37*
G36*
X20675Y-41800D02*
X20675Y-41300D01*
X21275Y-41500D01*
X21275Y-41600D01*
X20675Y-41800D01*
X20675Y-41800D01*
G37*
G54D48*
X20300Y-41550D03*
G54D10*
G36*
X24500Y-52975D02*
X24500Y-52875D01*
X25100Y-52675D01*
X25100Y-53175D01*
X24500Y-52975D01*
X24500Y-52975D01*
G37*
G36*
X25850Y-53175D02*
X25850Y-52675D01*
X26450Y-52875D01*
X26450Y-52975D01*
X25850Y-53175D01*
X25850Y-53175D01*
G37*
G54D48*
X25475Y-52925D03*
G54D10*
G36*
X19408Y-54903D02*
X19408Y-55003D01*
X18808Y-55203D01*
X18808Y-54703D01*
X19408Y-54903D01*
X19408Y-54903D01*
G37*
G36*
X18058Y-54703D02*
X18058Y-55203D01*
X17458Y-55003D01*
X17458Y-54903D01*
X18058Y-54703D01*
X18058Y-54703D01*
G37*
G54D48*
X18433Y-54953D03*
G54D10*
G36*
X20106Y-55003D02*
X20106Y-54903D01*
X20706Y-54703D01*
X20706Y-55203D01*
X20106Y-55003D01*
X20106Y-55003D01*
G37*
G36*
X21456Y-55203D02*
X21456Y-54703D01*
X22056Y-54903D01*
X22056Y-55003D01*
X21456Y-55203D01*
X21456Y-55203D01*
G37*
G54D48*
X21081Y-54953D03*
G54D10*
G36*
X18807Y-53566D02*
X18807Y-53466D01*
X19407Y-53266D01*
X19407Y-53766D01*
X18807Y-53566D01*
X18807Y-53566D01*
G37*
G36*
X20157Y-53766D02*
X20157Y-53266D01*
X20757Y-53466D01*
X20757Y-53566D01*
X20157Y-53766D01*
X20157Y-53766D01*
G37*
G54D48*
X19782Y-53516D03*
G54D49*
X41275Y-49600D03*
G54D50*
X43775Y-49600D03*
X43775Y-48700D03*
X43775Y-50500D03*
G54D49*
X16878Y-33920D03*
G54D50*
X19378Y-33920D03*
X19378Y-33020D03*
X19378Y-34820D03*
G54D49*
X73492Y-29422D03*
G54D50*
X75992Y-29422D03*
X75992Y-28522D03*
X75992Y-30322D03*
G54D49*
X27410Y-26961D03*
G54D50*
X29910Y-26961D03*
X29910Y-26061D03*
X29910Y-27861D03*
G54D51*
X61061Y-52138D03*
X74073Y-47906D03*
X74073Y-46912D03*
X74073Y-48881D03*
X64447Y-47739D03*
X64053Y-47247D03*
X64053Y-49196D03*
X64073Y-48251D03*
X61376Y-52670D03*
G54D22*
X73700Y-65700D03*
X74700Y-65700D03*
G54D25*
X9664Y-9274D03*
G54D10*
G36*
X65204Y-47906D02*
X65304Y-47906D01*
X65504Y-48506D01*
X65004Y-48506D01*
X65204Y-47906D01*
X65204Y-47906D01*
G37*
G36*
X65004Y-49256D02*
X65504Y-49256D01*
X65304Y-49856D01*
X65204Y-49856D01*
X65004Y-49256D01*
X65004Y-49256D01*
G37*
G54D48*
X65254Y-48881D03*
G54D52*
X32320Y-21339D03*
X32320Y-24139D03*
X25920Y-24319D03*
X25920Y-21159D03*
G54D53*
X24920Y-21951D03*
X24920Y-23526D03*
X23920Y-22239D03*
X23920Y-23239D03*
G54D52*
X14902Y-35021D03*
X12102Y-35021D03*
X11922Y-28621D03*
X15082Y-28621D03*
G54D53*
X14290Y-27621D03*
X12715Y-27621D03*
X14002Y-26621D03*
X13002Y-26621D03*
G54D54*
X29354Y-49050D03*
X28645Y-49050D03*
G54D22*
X68500Y-57250D03*
X68500Y-58250D03*
X22900Y-51250D03*
X21900Y-51250D03*
X22900Y-50250D03*
G54D33*
X21900Y-50250D03*
X18300Y-42700D03*
G54D22*
X18300Y-43700D03*
X23300Y-42700D03*
X19300Y-43700D03*
X24300Y-42700D03*
X20300Y-43700D03*
X25300Y-42700D03*
X21300Y-43700D03*
X26300Y-42700D03*
X22300Y-43700D03*
X27300Y-42700D03*
X23300Y-43700D03*
X28300Y-42700D03*
X24300Y-43700D03*
X29300Y-42700D03*
X25300Y-43700D03*
X30300Y-42700D03*
X26300Y-43700D03*
X31300Y-42700D03*
X27300Y-43700D03*
X32300Y-42700D03*
X28300Y-43700D03*
X33300Y-42700D03*
X29300Y-43700D03*
X30300Y-43700D03*
X34300Y-42700D03*
X31300Y-43700D03*
X33300Y-43700D03*
X34300Y-43700D03*
X35300Y-43700D03*
X36300Y-43700D03*
X35300Y-42700D03*
X36300Y-42700D03*
X19300Y-42700D03*
X20300Y-42700D03*
X21300Y-42700D03*
X22300Y-42700D03*
X37300Y-42700D03*
X37300Y-43700D03*
X32300Y-43700D03*
X38300Y-42700D03*
X38300Y-43700D03*
X39300Y-42700D03*
X39300Y-43700D03*
X40300Y-42700D03*
X40300Y-43700D03*
G54D33*
X18300Y-61700D03*
G54D22*
X18300Y-62700D03*
X23300Y-61700D03*
X19300Y-62700D03*
X24300Y-61700D03*
X20300Y-62700D03*
X25300Y-61700D03*
X21300Y-62700D03*
X26300Y-61700D03*
X22300Y-62700D03*
X27300Y-61700D03*
X23300Y-62700D03*
X28300Y-61700D03*
X24300Y-62700D03*
X29300Y-61700D03*
X25300Y-62700D03*
X30300Y-61700D03*
X26300Y-62700D03*
X31300Y-61700D03*
X27300Y-62700D03*
X32300Y-61700D03*
X28300Y-62700D03*
X33300Y-61700D03*
X29300Y-62700D03*
X30300Y-62700D03*
X34300Y-61700D03*
X31300Y-62700D03*
X33300Y-62700D03*
X34300Y-62700D03*
X35300Y-62700D03*
X36300Y-62700D03*
X35300Y-61700D03*
X36300Y-61700D03*
X19300Y-61700D03*
X20300Y-61700D03*
X21300Y-61700D03*
X22300Y-61700D03*
X37300Y-61700D03*
X37300Y-62700D03*
X32300Y-62700D03*
X38300Y-61700D03*
X38300Y-62700D03*
X39300Y-61700D03*
X39300Y-62700D03*
X40300Y-61700D03*
X40300Y-62700D03*
G54D55*
X24800Y-50100D03*
X25549Y-50100D03*
X24800Y-51000D03*
X25549Y-51000D03*
X24800Y-51900D03*
X25549Y-51900D03*
X29374Y-48050D03*
X28625Y-48050D03*
X29374Y-47150D03*
X28625Y-47150D03*
G54D56*
X42800Y-46450D03*
X16800Y-45200D03*
X16800Y-64200D03*
X42800Y-62950D03*
G54D57*
X18800Y-44700D03*
G54D58*
X18800Y-45700D03*
X19800Y-44700D03*
X19800Y-45700D03*
X20800Y-44700D03*
X20800Y-45700D03*
X21800Y-44700D03*
X21800Y-45700D03*
X22800Y-44700D03*
X22800Y-45700D03*
X23800Y-44700D03*
X23800Y-45700D03*
X24800Y-44700D03*
X24800Y-45700D03*
X25800Y-44700D03*
X25800Y-45700D03*
X26800Y-44700D03*
X26800Y-45700D03*
X27800Y-44700D03*
X27800Y-45700D03*
X28800Y-44700D03*
X28800Y-45700D03*
X29800Y-44700D03*
X29800Y-45700D03*
X30800Y-44700D03*
X30800Y-45700D03*
X31800Y-44700D03*
X31800Y-45700D03*
X32800Y-44700D03*
X32800Y-45700D03*
X33800Y-44700D03*
X33800Y-45700D03*
X34800Y-44700D03*
X34800Y-45700D03*
X35800Y-44700D03*
X35800Y-45700D03*
X36800Y-44700D03*
X36800Y-45700D03*
X37800Y-44700D03*
X37800Y-45700D03*
X38800Y-44700D03*
X38800Y-45700D03*
X39800Y-44700D03*
X39800Y-45700D03*
X40800Y-44700D03*
X40800Y-45700D03*
G54D57*
X18800Y-63700D03*
G54D58*
X18800Y-64700D03*
X19800Y-63700D03*
X19800Y-64700D03*
X20800Y-63700D03*
X20800Y-64700D03*
X21800Y-63700D03*
X21800Y-64700D03*
X22800Y-63700D03*
X22800Y-64700D03*
X23800Y-63700D03*
X23800Y-64700D03*
X24800Y-63700D03*
X24800Y-64700D03*
X25800Y-63700D03*
X25800Y-64700D03*
X26800Y-63700D03*
X26800Y-64700D03*
X27800Y-63700D03*
X27800Y-64700D03*
X28800Y-63700D03*
X28800Y-64700D03*
X29800Y-63700D03*
X29800Y-64700D03*
X30800Y-63700D03*
X30800Y-64700D03*
X31800Y-63700D03*
X31800Y-64700D03*
X32800Y-63700D03*
X32800Y-64700D03*
X33800Y-63700D03*
X33800Y-64700D03*
X34800Y-63700D03*
X34800Y-64700D03*
X35800Y-63700D03*
X35800Y-64700D03*
X36800Y-63700D03*
X36800Y-64700D03*
X37800Y-63700D03*
X37800Y-64700D03*
X38800Y-63700D03*
X38800Y-64700D03*
X39800Y-63700D03*
X39800Y-64700D03*
X40800Y-63700D03*
X40800Y-64700D03*
G54D57*
X13800Y-50450D03*
G54D58*
X13800Y-51450D03*
X14800Y-50450D03*
X14800Y-51450D03*
X15800Y-50450D03*
X15800Y-51450D03*
X16800Y-50450D03*
X16800Y-51450D03*
X17800Y-50450D03*
X17800Y-51450D03*
G54D59*
X66219Y-49550D03*
X66219Y-48841D03*
G54D54*
X78319Y-45870D03*
X77610Y-45870D03*
G54D59*
X61534Y-40298D03*
X61534Y-41007D03*
X54250Y-38251D03*
X54250Y-37542D03*
X53069Y-38251D03*
X53069Y-37542D03*
G54D54*
X51238Y-55150D03*
X51947Y-55150D03*
X44437Y-26164D03*
X43729Y-26164D03*
X51238Y-56450D03*
X51947Y-56450D03*
X72794Y-43014D03*
X73502Y-43014D03*
X30618Y-25072D03*
X29910Y-25072D03*
X46967Y-46518D03*
X47675Y-46518D03*
X74945Y-22000D03*
X75654Y-22000D03*
G54D59*
X67646Y-49550D03*
X67646Y-48841D03*
G54D54*
X57400Y-48251D03*
X58109Y-48251D03*
X74495Y-31450D03*
X75204Y-31450D03*
X20087Y-31951D03*
X19378Y-31951D03*
X51406Y-45820D03*
X50697Y-45820D03*
X48414Y-49825D03*
X49122Y-49825D03*
G54D59*
X18522Y-58054D03*
X18522Y-58762D03*
X20097Y-58054D03*
X20097Y-58762D03*
G54D60*
X70845Y-30888D03*
X70845Y-29904D03*
X70845Y-28920D03*
X70845Y-26951D03*
X70845Y-27936D03*
G54D61*
X56868Y-21833D03*
X56868Y-36007D03*
X51357Y-36007D03*
X51357Y-21833D03*
X62380Y-21833D03*
X67892Y-21833D03*
X62380Y-36007D03*
X67892Y-36007D03*
G54D62*
X61376Y-44570D03*
X61376Y-45318D03*
X52085Y-60278D03*
X52085Y-59530D03*
X51101Y-60278D03*
X51101Y-59530D03*
G54D55*
X53286Y-42818D03*
X54034Y-42818D03*
X75224Y-32650D03*
X74475Y-32650D03*
X46534Y-48881D03*
X45786Y-48881D03*
G54D62*
X51970Y-61675D03*
X51970Y-62424D03*
X50970Y-61675D03*
X50970Y-62424D03*
X52970Y-61675D03*
X52970Y-62424D03*
G54D55*
X70963Y-52030D03*
X70215Y-52030D03*
G54D62*
X49970Y-61675D03*
X49970Y-62424D03*
G54D55*
X25475Y-53925D03*
X26224Y-53925D03*
G54D62*
X60431Y-45327D03*
X60431Y-44579D03*
G54D55*
X57380Y-47414D03*
X58128Y-47414D03*
G54D63*
X26300Y-47150D03*
X26300Y-49050D03*
X26800Y-47150D03*
X27300Y-47150D03*
X27800Y-47150D03*
X26800Y-49050D03*
X27300Y-49050D03*
X27800Y-49050D03*
G54D21*
X73025Y-58025D03*
X73025Y-57275D03*
G54D20*
X69125Y-61675D03*
X69150Y-63475D03*
X71600Y-61675D03*
X71625Y-63475D03*
G54D19*
X69625Y-59506D03*
X69625Y-60293D03*
X71950Y-58043D03*
X71950Y-57256D03*
X70775Y-59506D03*
X70775Y-60293D03*
G54D15*
X72348Y-59109D03*
X72545Y-59109D03*
X72151Y-59109D03*
X71954Y-59109D03*
G54D16*
X71659Y-59404D03*
X71659Y-59601D03*
X71659Y-59798D03*
X71659Y-59995D03*
G54D15*
X71954Y-60290D03*
X72151Y-60290D03*
X72348Y-60290D03*
X72545Y-60290D03*
G54D16*
X72840Y-59995D03*
X72840Y-59798D03*
X72840Y-59601D03*
X72840Y-59404D03*
G54D17*
X72250Y-59700D03*
G54D18*
X72446Y-59867D03*
X72446Y-59532D03*
X72053Y-59532D03*
X72053Y-59867D03*
G54D14*
X70700Y-57100D03*
X70700Y-58200D03*
G54D13*
X68475Y-60450D03*
X68475Y-59350D03*
G54D12*
X74031Y-57650D03*
X74968Y-57650D03*
G54D55*
X16374Y-61000D03*
X15625Y-61000D03*
X16374Y-60000D03*
X15625Y-60000D03*
X14674Y-61000D03*
X13925Y-61000D03*
X14674Y-60000D03*
X13925Y-60000D03*
G54D23*
X10000Y-61125D03*
X10000Y-62875D03*
G54D34*
X11000Y-60625D03*
X11000Y-63375D03*
G54D23*
X12550Y-62875D03*
X12550Y-61125D03*
X11800Y-62500D03*
X11800Y-61500D03*
X10000Y-57125D03*
X10000Y-58875D03*
G54D34*
X11000Y-56625D03*
X11000Y-59375D03*
G54D23*
X12550Y-58875D03*
X12550Y-57125D03*
X11800Y-58500D03*
X11800Y-57500D03*
X10000Y-53125D03*
X10000Y-54875D03*
G54D34*
X11000Y-52625D03*
X11000Y-55375D03*
G54D23*
X12550Y-54875D03*
X12550Y-53125D03*
X11800Y-54500D03*
X11800Y-53500D03*
G54D51*
X36220Y-49862D03*
X36220Y-50866D03*
G54D62*
X32775Y-50866D03*
X32775Y-50118D03*
X33779Y-50866D03*
X33779Y-50118D03*
G54D64*
X14290Y-23477D03*
X12715Y-23477D03*
X46947Y-47700D03*
X45372Y-47700D03*
G54D65*
X22459Y-21951D03*
X22459Y-23526D03*
X74015Y-61811D03*
X74015Y-63385D03*
G54D66*
X35315Y-50767D03*
X34803Y-50767D03*
X35059Y-50019D03*
G54D67*
X70884Y-20298D03*
X62616Y-10062D03*
G54D68*
X65825Y-47675D03*
X49510Y-59960D03*
X65825Y-45810D03*
X63050Y-42739D03*
X21750Y-55623D03*
X55719Y-41955D03*
X53223Y-38955D03*
X49055Y-52342D03*
X19200Y-41550D03*
X71750Y-44501D03*
X72951Y-44501D03*
X65244Y-41656D03*
X74002Y-46345D03*
X60540Y-43780D03*
X58760Y-48730D03*
X73955Y-43014D03*
X49372Y-46420D03*
X26300Y-50100D03*
X26800Y-51000D03*
X24900Y-53925D03*
X27325Y-53925D03*
X17525Y-56275D03*
X25800Y-42175D03*
X18000Y-56275D03*
X27300Y-46375D03*
X54070Y-39650D03*
X55156Y-51951D03*
X55156Y-49924D03*
X52774Y-46036D03*
X61485Y-47847D03*
X52006Y-46194D03*
X61987Y-44245D03*
X61061Y-48093D03*
X50766Y-46450D03*
X61819Y-45839D03*
X61022Y-45839D03*
X54070Y-40240D03*
X54930Y-60020D03*
X52970Y-60020D03*
X53335Y-46381D03*
X55628Y-52070D03*
X54487Y-45219D03*
X55628Y-49451D03*
X68758Y-50898D03*
X50953Y-48221D03*
X67823Y-51322D03*
X50441Y-48329D03*
X67685Y-39648D03*
X67685Y-44442D03*
X32300Y-47650D03*
X32800Y-47225D03*
X33300Y-48050D03*
X53400Y-51150D03*
X53400Y-49450D03*
X62350Y-45860D03*
X60756Y-46351D03*
X51406Y-46814D03*
X60648Y-47837D03*
X30800Y-46825D03*
X16975Y-60500D03*
X24200Y-52925D03*
X27025Y-53475D03*
X53227Y-40957D03*
X52321Y-45327D03*
X55510Y-50278D03*
X55510Y-51282D03*
X46299Y-58267D03*
X33800Y-39500D03*
X64664Y-45426D03*
X64404Y-40656D03*
X58440Y-44190D03*
X62420Y-48221D03*
X29475Y-38875D03*
X58876Y-47906D03*
X73976Y-31437D03*
X75992Y-32690D03*
X61819Y-52985D03*
X59988Y-50800D03*
X29910Y-28812D03*
X55609Y-40455D03*
X62112Y-51511D03*
X59939Y-45306D03*
X60070Y-42150D03*
X69674Y-49471D03*
X61325Y-63475D03*
X70375Y-63475D03*
X44625Y-48700D03*
X59840Y-44600D03*
X43729Y-24737D03*
X20402Y-54186D03*
X19112Y-54186D03*
X62400Y-48969D03*
X48420Y-48873D03*
X56396Y-49196D03*
X51601Y-37936D03*
X51593Y-41955D03*
X72168Y-43014D03*
X48748Y-45918D03*
X19388Y-31420D03*
X29910Y-25524D03*
X68768Y-46302D03*
X72420Y-46302D03*
G54D69*
X63790Y-59798D02*
X65101Y-59798D01*
G54D70*
X65918Y-58981D02*
X65918Y-57650D01*
X65101Y-59798D02*
X65918Y-58981D01*
X62900Y-57256D02*
X62900Y-56600D01*
X62900Y-56600D02*
X63125Y-56375D01*
X61650Y-57100D02*
X60550Y-57100D01*
X60550Y-57100D02*
X60400Y-57250D01*
X60400Y-57250D02*
X59450Y-57250D01*
X50970Y-61695D02*
X50970Y-61200D01*
X50970Y-61200D02*
X50680Y-60910D01*
X50680Y-60910D02*
X49850Y-60910D01*
X49850Y-60910D02*
X49510Y-60570D01*
X49510Y-60570D02*
X49510Y-59960D01*
X65825Y-45810D02*
X65825Y-47675D01*
X55719Y-41955D02*
X55719Y-42455D01*
X56002Y-42739D02*
X63050Y-42739D01*
X55719Y-42455D02*
X56002Y-42739D01*
G54D71*
X20097Y-57138D02*
X20855Y-57138D01*
G54D70*
X20983Y-57011D02*
X20983Y-56705D01*
X20855Y-57138D02*
X20983Y-57011D01*
X18522Y-58054D02*
X17400Y-58054D01*
X17400Y-58054D02*
X17085Y-57739D01*
X21750Y-55623D02*
X21750Y-56705D01*
G54D71*
X20136Y-56705D02*
X20983Y-56705D01*
G54D70*
X20983Y-56705D02*
X21750Y-56705D01*
X21750Y-56705D02*
X22670Y-56705D01*
X22670Y-56705D02*
X22675Y-56711D01*
G54D71*
X18522Y-57138D02*
X17085Y-57138D01*
G54D70*
X17085Y-57138D02*
X17085Y-55101D01*
X17233Y-54953D02*
X17758Y-54953D01*
X17085Y-55101D02*
X17233Y-54953D01*
X21756Y-54953D02*
X21756Y-53749D01*
X21524Y-53516D02*
X20457Y-53516D01*
X21756Y-53749D02*
X21524Y-53516D01*
X65825Y-47675D02*
X65825Y-47700D01*
X65450Y-47700D02*
X65825Y-47700D01*
X65254Y-47895D02*
X65450Y-47700D01*
X65254Y-48206D02*
X65254Y-47895D01*
X21750Y-55623D02*
X21761Y-55623D01*
X52600Y-38955D02*
X50333Y-38955D01*
X46427Y-26164D02*
X44437Y-26164D01*
X49246Y-28983D02*
X46427Y-26164D01*
X49246Y-37869D02*
X49246Y-28983D01*
X50333Y-38955D02*
X49246Y-37869D01*
X53223Y-38955D02*
X52600Y-38955D01*
X54720Y-41955D02*
X55719Y-41955D01*
X54720Y-41955D02*
X54720Y-42486D01*
X54388Y-42818D02*
X54014Y-42818D01*
X54720Y-42486D02*
X54388Y-42818D01*
X52600Y-38955D02*
X52600Y-38445D01*
X52600Y-38445D02*
X52794Y-38251D01*
X52794Y-38251D02*
X53069Y-38251D01*
X44431Y-27477D02*
X44431Y-26170D01*
X44431Y-26170D02*
X44437Y-26164D01*
X17085Y-57739D02*
X17085Y-57138D01*
X21761Y-55623D02*
X21760Y-54958D01*
X21760Y-54958D02*
X21756Y-54953D01*
X20097Y-58054D02*
X18522Y-58054D01*
G54D71*
X20097Y-57138D02*
X20097Y-58054D01*
G54D70*
X62900Y-57256D02*
X63956Y-57256D01*
X63956Y-57256D02*
X63975Y-57275D01*
X61806Y-57256D02*
X61650Y-57100D01*
X62900Y-57256D02*
X61806Y-57256D01*
X65918Y-56643D02*
X65650Y-56375D01*
X65650Y-56375D02*
X63125Y-56375D01*
X65918Y-57650D02*
X65918Y-56643D01*
G54D69*
X20097Y-56272D02*
X20097Y-55770D01*
X20874Y-55544D02*
X21081Y-55337D01*
X20323Y-55544D02*
X20874Y-55544D01*
X20097Y-55770D02*
X20323Y-55544D01*
X21081Y-55337D02*
X21081Y-54953D01*
G54D71*
X19782Y-56272D02*
X19782Y-53516D01*
G54D69*
X18837Y-56272D02*
X18837Y-55780D01*
X18433Y-55377D02*
X18433Y-54953D01*
X18837Y-55780D02*
X18433Y-55377D01*
X63168Y-48880D02*
X63670Y-48880D01*
X64506Y-48881D02*
X65254Y-48881D01*
X64359Y-48733D02*
X64506Y-48881D01*
X63817Y-48733D02*
X64359Y-48733D01*
X63670Y-48880D02*
X63817Y-48733D01*
X33779Y-50118D02*
X34173Y-50118D01*
X35315Y-50472D02*
X35315Y-50767D01*
X35236Y-50393D02*
X35315Y-50472D01*
X34448Y-50393D02*
X35236Y-50393D01*
X34173Y-50118D02*
X34448Y-50393D01*
X35315Y-50767D02*
X35669Y-50767D01*
X35767Y-50866D02*
X36220Y-50866D01*
X35669Y-50767D02*
X35767Y-50866D01*
G54D70*
X70943Y-52992D02*
X70943Y-53012D01*
X70943Y-53012D02*
X70546Y-53410D01*
X70700Y-57100D02*
X70700Y-54892D01*
X69980Y-54173D02*
X69980Y-53410D01*
X70700Y-54892D02*
X69980Y-54173D01*
X32775Y-50866D02*
X32106Y-50866D01*
X48307Y-52342D02*
X49055Y-52342D01*
X47303Y-53346D02*
X48307Y-52342D01*
X37755Y-53346D02*
X47303Y-53346D01*
X37342Y-52933D02*
X37755Y-53346D01*
X37342Y-49330D02*
X37342Y-52933D01*
X37106Y-49094D02*
X37342Y-49330D01*
X32125Y-49094D02*
X37106Y-49094D01*
X31889Y-49330D02*
X32125Y-49094D01*
X31889Y-50649D02*
X31889Y-49330D01*
X32106Y-50866D02*
X31889Y-50649D01*
X19200Y-41550D02*
X19625Y-41550D01*
X74700Y-56375D02*
X72300Y-56375D01*
X72300Y-56375D02*
X71950Y-56725D01*
X71750Y-44501D02*
X72951Y-44501D01*
X65244Y-41656D02*
X65244Y-41652D01*
X70700Y-57100D02*
X69550Y-57100D01*
X69400Y-57250D02*
X68500Y-57250D01*
X69550Y-57100D02*
X69400Y-57250D01*
X75224Y-32650D02*
X75224Y-34459D01*
X75250Y-34450D02*
X75250Y-34459D01*
X75233Y-34450D02*
X75250Y-34450D01*
X75224Y-34459D02*
X75233Y-34450D01*
X74968Y-57650D02*
X74968Y-56643D01*
X74968Y-56643D02*
X74700Y-56375D01*
X74968Y-57650D02*
X74968Y-58906D01*
G54D72*
X74076Y-59798D02*
X72840Y-59798D01*
G54D70*
X74968Y-58906D02*
X74076Y-59798D01*
X71950Y-57256D02*
X70856Y-57256D01*
X70856Y-57256D02*
X70700Y-57100D01*
X71950Y-57256D02*
X71950Y-56725D01*
X73006Y-57256D02*
X73025Y-57275D01*
X71950Y-57256D02*
X73006Y-57256D01*
X74002Y-46345D02*
X74382Y-46345D01*
X74382Y-46345D02*
X74654Y-46617D01*
X74654Y-46617D02*
X74654Y-49097D01*
X74654Y-49097D02*
X73876Y-49875D01*
X73876Y-49875D02*
X73876Y-50111D01*
X73876Y-50111D02*
X71957Y-52030D01*
X71957Y-52030D02*
X70943Y-52030D01*
X66177Y-34264D02*
X65250Y-35192D01*
X69575Y-34264D02*
X66177Y-34264D01*
X69770Y-34459D02*
X69575Y-34264D01*
X61376Y-44589D02*
X61376Y-44036D01*
X61120Y-43780D02*
X60540Y-43780D01*
X61376Y-44036D02*
X61120Y-43780D01*
X51970Y-61695D02*
X51970Y-61340D01*
X51590Y-60960D02*
X51590Y-60259D01*
X51970Y-61340D02*
X51590Y-60960D01*
G54D71*
X58760Y-48730D02*
X57570Y-48730D01*
X57400Y-48560D02*
X57400Y-48251D01*
X57570Y-48730D02*
X57400Y-48560D01*
G54D70*
X70546Y-53410D02*
X69980Y-53410D01*
X70943Y-52030D02*
X70943Y-52992D01*
X69980Y-53410D02*
X66480Y-53410D01*
X66480Y-53410D02*
X66219Y-53149D01*
X66219Y-53149D02*
X66219Y-49550D01*
X31790Y-36490D02*
X23670Y-36490D01*
X65244Y-41652D02*
X65250Y-41652D01*
X65250Y-41652D02*
X65250Y-35192D01*
X69770Y-34459D02*
X75250Y-34459D01*
X75250Y-34459D02*
X76140Y-34459D01*
X76630Y-31364D02*
X76957Y-31036D01*
X76957Y-31036D02*
X76957Y-29147D01*
X76957Y-29147D02*
X77783Y-28321D01*
X76630Y-33970D02*
X76630Y-31364D01*
X76140Y-34459D02*
X76630Y-33970D01*
X63161Y-41652D02*
X65244Y-41652D01*
X50093Y-57542D02*
X50093Y-53605D01*
X51238Y-55150D02*
X50569Y-55150D01*
X50569Y-55150D02*
X50093Y-54674D01*
X50093Y-54674D02*
X50093Y-53605D01*
X50093Y-57542D02*
X50093Y-59822D01*
X50530Y-60259D02*
X51101Y-60259D01*
X50093Y-59822D02*
X50530Y-60259D01*
X51238Y-56450D02*
X50392Y-56450D01*
X50093Y-56749D02*
X50093Y-57542D01*
X50392Y-56450D02*
X50093Y-56749D01*
G54D69*
X50697Y-47621D02*
X50697Y-47178D01*
X50697Y-47178D02*
X50471Y-46951D01*
G54D70*
X50471Y-46951D02*
X49904Y-46951D01*
X49904Y-46951D02*
X49372Y-46420D01*
G54D71*
X59172Y-48733D02*
X57567Y-48733D01*
X57567Y-48733D02*
X57400Y-48566D01*
X57400Y-48566D02*
X57400Y-48251D01*
G54D70*
X50697Y-45820D02*
X49973Y-45820D01*
X49973Y-45820D02*
X49372Y-46420D01*
X73955Y-43014D02*
X73502Y-43014D01*
X48093Y-47700D02*
X46967Y-47700D01*
X49372Y-46420D02*
X48093Y-47700D01*
X80333Y-28321D02*
X80895Y-28321D01*
X80893Y-32258D02*
X80333Y-32258D01*
X81573Y-31577D02*
X80893Y-32258D01*
X81573Y-28999D02*
X81573Y-31577D01*
X80895Y-28321D02*
X81573Y-28999D01*
X60392Y-40955D02*
X60392Y-38881D01*
X60392Y-38881D02*
X59762Y-38251D01*
X61534Y-41007D02*
X60510Y-41007D01*
X60459Y-40955D02*
X60392Y-40955D01*
X60392Y-40955D02*
X59187Y-40955D01*
X60510Y-41007D02*
X60459Y-40955D01*
G54D71*
X63168Y-49510D02*
X63728Y-49510D01*
G54D69*
X64579Y-49556D02*
X65254Y-49556D01*
X64368Y-49766D02*
X64579Y-49556D01*
X63985Y-49766D02*
X64368Y-49766D01*
G54D71*
X63728Y-49510D02*
X63985Y-49766D01*
G54D70*
X66219Y-49550D02*
X65260Y-49550D01*
X65260Y-49550D02*
X65254Y-49556D01*
X51101Y-60259D02*
X51590Y-60259D01*
X51590Y-60259D02*
X52085Y-60259D01*
X72420Y-49973D02*
X71849Y-49973D01*
X71849Y-49973D02*
X70943Y-50879D01*
X70943Y-50879D02*
X70943Y-52030D01*
G54D71*
X63168Y-49510D02*
X60667Y-49510D01*
X60352Y-49195D02*
X59900Y-49195D01*
X60667Y-49510D02*
X60352Y-49195D01*
X59900Y-49195D02*
X59270Y-49195D01*
X59172Y-49097D02*
X59172Y-48733D01*
X59270Y-49195D02*
X59172Y-49097D01*
X59900Y-48566D02*
X59338Y-48566D01*
X59338Y-48566D02*
X59172Y-48733D01*
G54D70*
X46967Y-46518D02*
X46967Y-45318D01*
X48160Y-44125D02*
X48160Y-43064D01*
X46967Y-45318D02*
X48160Y-44125D01*
X46967Y-47700D02*
X46967Y-46518D01*
X46514Y-48881D02*
X46514Y-48585D01*
X46514Y-48585D02*
X46967Y-48133D01*
X46967Y-48133D02*
X46967Y-47700D01*
X48160Y-43064D02*
X47160Y-43064D01*
X63161Y-41652D02*
X61845Y-41652D01*
X61534Y-41341D02*
X61534Y-41007D01*
X61845Y-41652D02*
X61534Y-41341D01*
X73502Y-43014D02*
X73502Y-41673D01*
X73502Y-41673D02*
X73539Y-41637D01*
X78533Y-32633D02*
X78158Y-32633D01*
X78158Y-32633D02*
X77783Y-32258D01*
X78533Y-32633D02*
X79958Y-32633D01*
X79958Y-32633D02*
X80333Y-32258D01*
X78533Y-28696D02*
X78158Y-28696D01*
X78158Y-28696D02*
X77783Y-28321D01*
X78533Y-28696D02*
X79958Y-28696D01*
X79958Y-28696D02*
X80333Y-28321D01*
X54720Y-38955D02*
X54384Y-38955D01*
X54250Y-38822D02*
X54250Y-38251D01*
X54384Y-38955D02*
X54250Y-38822D01*
X59762Y-38251D02*
X54250Y-38251D01*
G54D69*
X32775Y-50118D02*
X32775Y-49685D01*
X35059Y-49704D02*
X35059Y-50019D01*
X34940Y-49586D02*
X35059Y-49704D01*
X32874Y-49586D02*
X34940Y-49586D01*
X32775Y-49685D02*
X32874Y-49586D01*
X35059Y-50019D02*
X35433Y-50019D01*
X35590Y-49862D02*
X36220Y-49862D01*
X35433Y-50019D02*
X35590Y-49862D01*
X25549Y-50100D02*
X26300Y-50100D01*
X26300Y-50100D02*
X26300Y-49050D01*
X25549Y-51000D02*
X26800Y-51000D01*
X26800Y-51000D02*
X26800Y-49050D01*
X27300Y-49050D02*
X27300Y-51450D01*
X26850Y-51900D02*
X25549Y-51900D01*
X27300Y-51450D02*
X26850Y-51900D01*
X37800Y-44700D02*
X37800Y-43200D01*
X37800Y-43200D02*
X37300Y-42700D01*
X37300Y-43700D02*
X37300Y-45200D01*
X37300Y-45200D02*
X37800Y-45700D01*
X36800Y-44700D02*
X36800Y-43200D01*
X36800Y-43200D02*
X36300Y-42700D01*
X36300Y-43700D02*
X36300Y-45200D01*
X36300Y-45200D02*
X36800Y-45700D01*
X34800Y-44700D02*
X34800Y-43200D01*
X34800Y-43200D02*
X34300Y-42700D01*
X35300Y-43700D02*
X35300Y-45200D01*
X35300Y-45200D02*
X35800Y-45700D01*
X35800Y-44700D02*
X35800Y-43200D01*
X35800Y-43200D02*
X35300Y-42700D01*
X27325Y-53925D02*
X48004Y-53925D01*
X48004Y-53925D02*
X49462Y-52466D01*
X52745Y-49825D02*
X52745Y-50554D01*
X24900Y-53925D02*
X25475Y-53925D01*
X50833Y-52466D02*
X49462Y-52466D01*
X52745Y-50554D02*
X50833Y-52466D01*
X25475Y-52925D02*
X25475Y-53924D01*
X25475Y-53924D02*
X25475Y-53925D01*
X38800Y-44700D02*
X38800Y-43200D01*
X38800Y-43200D02*
X38300Y-42700D01*
X18800Y-63700D02*
X18800Y-64700D01*
X18300Y-62700D02*
X18300Y-63200D01*
X18300Y-63200D02*
X18800Y-63700D01*
X18300Y-61700D02*
X18300Y-62700D01*
X39300Y-43700D02*
X39300Y-42700D01*
X40800Y-45700D02*
X40800Y-44700D01*
X39800Y-45700D02*
X40800Y-45700D01*
X39800Y-44700D02*
X39800Y-45700D01*
X40300Y-43700D02*
X40300Y-44200D01*
X40300Y-44200D02*
X39800Y-44700D01*
X40300Y-42700D02*
X40300Y-43700D01*
X39300Y-42700D02*
X40300Y-42700D01*
X24300Y-43700D02*
X24300Y-45200D01*
X24300Y-45200D02*
X24800Y-45700D01*
X25300Y-43700D02*
X25300Y-45200D01*
X25300Y-45200D02*
X25800Y-45700D01*
X27800Y-63700D02*
X27800Y-62200D01*
X27800Y-62200D02*
X27300Y-61700D01*
X24800Y-63700D02*
X24800Y-62200D01*
X24800Y-62200D02*
X24300Y-61700D01*
X34300Y-43700D02*
X34300Y-45200D01*
X34300Y-45200D02*
X34800Y-45700D01*
X24300Y-62700D02*
X24300Y-64200D01*
X24300Y-64200D02*
X24800Y-64700D01*
X26800Y-63700D02*
X26800Y-62200D01*
X26800Y-62200D02*
X26300Y-61700D01*
X38300Y-43700D02*
X38300Y-45200D01*
X38300Y-45200D02*
X38800Y-45700D01*
X30800Y-63700D02*
X30800Y-62200D01*
X30800Y-62200D02*
X30300Y-61700D01*
X29300Y-62700D02*
X29300Y-64200D01*
X29300Y-64200D02*
X29800Y-64700D01*
X23300Y-62700D02*
X23300Y-64200D01*
X23300Y-64200D02*
X23800Y-64700D01*
X23800Y-63700D02*
X23800Y-62200D01*
X23800Y-62200D02*
X23300Y-61700D01*
X25300Y-62700D02*
X25300Y-64200D01*
X25300Y-64200D02*
X25800Y-64700D01*
X25800Y-63700D02*
X25800Y-62200D01*
X25800Y-62200D02*
X25300Y-61700D01*
X25800Y-44700D02*
X25800Y-43200D01*
X25800Y-43200D02*
X25300Y-42700D01*
X29800Y-44700D02*
X29800Y-43200D01*
X29800Y-43200D02*
X29300Y-42700D01*
X20800Y-63700D02*
X20800Y-62200D01*
X20800Y-62200D02*
X20300Y-61700D01*
X23300Y-43700D02*
X23300Y-45200D01*
X23300Y-45200D02*
X23800Y-45700D01*
X29800Y-60925D02*
X29800Y-61875D01*
X15625Y-59499D02*
X15875Y-59250D01*
X15875Y-59250D02*
X16575Y-59250D01*
X16575Y-59250D02*
X17675Y-60350D01*
X17675Y-60350D02*
X29225Y-60350D01*
X29225Y-60350D02*
X29800Y-60925D01*
X15625Y-60000D02*
X15625Y-59499D01*
X30300Y-62375D02*
X30300Y-62700D01*
X29800Y-61875D02*
X30300Y-62375D01*
X14674Y-60000D02*
X15625Y-60000D01*
X30300Y-62700D02*
X30300Y-64200D01*
X30300Y-64200D02*
X30800Y-64700D01*
X20300Y-62700D02*
X20300Y-64200D01*
X20300Y-64200D02*
X20800Y-64700D01*
X28800Y-63700D02*
X28800Y-62200D01*
X28800Y-62200D02*
X28300Y-61700D01*
X27300Y-62700D02*
X27300Y-64200D01*
X27300Y-64200D02*
X27800Y-64700D01*
X29800Y-63700D02*
X29800Y-62550D01*
X29300Y-62050D02*
X29300Y-61700D01*
X29800Y-62550D02*
X29300Y-62050D01*
X28300Y-62700D02*
X28300Y-64200D01*
X28300Y-64200D02*
X28800Y-64700D01*
X19800Y-63700D02*
X19800Y-62200D01*
X19800Y-62200D02*
X19300Y-61700D01*
X19300Y-62700D02*
X19300Y-64200D01*
X19300Y-64200D02*
X19800Y-64700D01*
X26300Y-62700D02*
X26300Y-64200D01*
X26300Y-64200D02*
X26800Y-64700D01*
X38800Y-63700D02*
X38800Y-62200D01*
X38800Y-62200D02*
X38300Y-61700D01*
X38300Y-62700D02*
X38300Y-64200D01*
X38300Y-64200D02*
X38800Y-64700D01*
X37300Y-62700D02*
X37300Y-64200D01*
X37300Y-64200D02*
X37800Y-64700D01*
X31800Y-63700D02*
X31800Y-62200D01*
X31800Y-62200D02*
X31300Y-61700D01*
X32800Y-63700D02*
X32800Y-62200D01*
X32800Y-62200D02*
X32300Y-61700D01*
X31300Y-62700D02*
X31300Y-64200D01*
X31300Y-64200D02*
X31800Y-64700D01*
X32300Y-62700D02*
X32300Y-64200D01*
X32300Y-64200D02*
X32800Y-64700D01*
X40800Y-63700D02*
X40800Y-62200D01*
X40800Y-62200D02*
X40300Y-61700D01*
X40300Y-62700D02*
X40300Y-64200D01*
X40300Y-64200D02*
X40800Y-64700D01*
X39800Y-63700D02*
X39800Y-62200D01*
X39800Y-62200D02*
X39300Y-61700D01*
X39300Y-62700D02*
X39300Y-64200D01*
X39300Y-64200D02*
X39800Y-64700D01*
X31800Y-44700D02*
X31800Y-43200D01*
X31800Y-43200D02*
X31300Y-42700D01*
X30800Y-44700D02*
X30800Y-43200D01*
X30800Y-43200D02*
X30300Y-42700D01*
X37800Y-63700D02*
X37800Y-62200D01*
X37800Y-62200D02*
X37300Y-61700D01*
X40575Y-51525D02*
X46425Y-51525D01*
X47175Y-50775D02*
X50475Y-50775D01*
X46425Y-51525D02*
X47175Y-50775D01*
X50953Y-49825D02*
X50953Y-50296D01*
X50953Y-50296D02*
X50475Y-50775D01*
X26300Y-42000D02*
X26300Y-42700D01*
X26625Y-41675D02*
X26300Y-42000D01*
X41000Y-41675D02*
X26625Y-41675D01*
X41425Y-42100D02*
X41000Y-41675D01*
X41425Y-45975D02*
X41425Y-42100D01*
X39975Y-47425D02*
X41425Y-45975D01*
X39975Y-50925D02*
X39975Y-47425D01*
X40575Y-51525D02*
X39975Y-50925D01*
X18483Y-56705D02*
X17655Y-56705D01*
X17525Y-56575D02*
X17525Y-56275D01*
X17655Y-56705D02*
X17525Y-56575D01*
X26800Y-44700D02*
X26800Y-43200D01*
X26800Y-43200D02*
X26300Y-42700D01*
X40700Y-51275D02*
X46325Y-51275D01*
X47050Y-50550D02*
X50200Y-50550D01*
X46325Y-51275D02*
X47050Y-50550D01*
X41675Y-46150D02*
X41675Y-42025D01*
X41675Y-42025D02*
X41075Y-41425D01*
X50441Y-49825D02*
X50441Y-50308D01*
X50441Y-50308D02*
X50200Y-50550D01*
X25800Y-41825D02*
X25800Y-42175D01*
X26200Y-41425D02*
X25800Y-41825D01*
X41075Y-41425D02*
X26200Y-41425D01*
X40225Y-47600D02*
X41675Y-46150D01*
X40225Y-50800D02*
X40225Y-47600D01*
X40700Y-51275D02*
X40225Y-50800D01*
X18002Y-56272D02*
X18522Y-56272D01*
X18000Y-56275D02*
X18002Y-56272D01*
X26300Y-43700D02*
X26300Y-45200D01*
X26300Y-45200D02*
X26800Y-45700D01*
X27300Y-47150D02*
X27300Y-46375D01*
X28625Y-48050D02*
X27600Y-48050D01*
X27300Y-47750D02*
X27300Y-47150D01*
X27600Y-48050D02*
X27300Y-47750D01*
X27800Y-44700D02*
X27800Y-43200D01*
X27800Y-43200D02*
X27300Y-42700D01*
X27800Y-47150D02*
X27800Y-45700D01*
X28625Y-47150D02*
X27800Y-47150D01*
X27300Y-43700D02*
X27300Y-45200D01*
X27300Y-45200D02*
X27800Y-45700D01*
X54720Y-39455D02*
X54264Y-39455D01*
X54264Y-39455D02*
X54070Y-39650D01*
X58424Y-51637D02*
X55471Y-51637D01*
X55471Y-51637D02*
X55156Y-51951D01*
X55156Y-49924D02*
X55156Y-49333D01*
X55156Y-49333D02*
X54010Y-48188D01*
X62636Y-50357D02*
X62636Y-50884D01*
X52233Y-48005D02*
X52233Y-47621D01*
X54010Y-48188D02*
X52416Y-48188D01*
X52416Y-48188D02*
X52233Y-48005D01*
X60435Y-53648D02*
X58424Y-51637D01*
X62542Y-53648D02*
X60435Y-53648D01*
X62786Y-53404D02*
X62542Y-53648D01*
X62786Y-51034D02*
X62786Y-53404D01*
X62636Y-50884D02*
X62786Y-51034D01*
X52233Y-47621D02*
X52233Y-47128D01*
X52774Y-46587D02*
X52233Y-47128D01*
X52774Y-46036D02*
X52774Y-46587D01*
X59187Y-39103D02*
X59187Y-39955D01*
X58886Y-38802D02*
X59187Y-39103D01*
X56278Y-38802D02*
X58886Y-38802D01*
X54720Y-39455D02*
X55624Y-39455D01*
X55624Y-39455D02*
X56278Y-38802D01*
G54D70*
X11800Y-62500D02*
X12175Y-62500D01*
X12175Y-62500D02*
X12550Y-62875D01*
X11800Y-62500D02*
X10375Y-62500D01*
X10375Y-62500D02*
X10000Y-62875D01*
G54D69*
X22800Y-44700D02*
X22800Y-43200D01*
G54D70*
X22800Y-43200D02*
X22300Y-42700D01*
G54D69*
X70028Y-37424D02*
X79441Y-37424D01*
X77610Y-45870D02*
X77610Y-46455D01*
X80045Y-46640D02*
X80364Y-46320D01*
X77795Y-46640D02*
X80045Y-46640D01*
X77610Y-46455D02*
X77795Y-46640D01*
X82061Y-33735D02*
X82061Y-24930D01*
X79441Y-36355D02*
X82061Y-33735D01*
X79441Y-36355D02*
X79441Y-37424D01*
X82061Y-24930D02*
X81515Y-24384D01*
X81515Y-24384D02*
X80333Y-24384D01*
X67390Y-38359D02*
X69093Y-38359D01*
X69093Y-38359D02*
X70028Y-37424D01*
X79441Y-37424D02*
X79441Y-39101D01*
X79441Y-39101D02*
X80364Y-40024D01*
X80364Y-46320D02*
X80364Y-40024D01*
X61377Y-47739D02*
X61485Y-47847D01*
X61377Y-47089D02*
X61377Y-47739D01*
X51721Y-46922D02*
X51721Y-47621D01*
X51839Y-46804D02*
X51721Y-46922D01*
X51839Y-46361D02*
X51839Y-46804D01*
X52006Y-46194D02*
X51839Y-46361D01*
X66642Y-39107D02*
X66642Y-43133D01*
X61987Y-44058D02*
X62321Y-43723D01*
X62321Y-43723D02*
X66051Y-43723D01*
X66051Y-43723D02*
X66642Y-43133D01*
X61987Y-44245D02*
X61987Y-44058D01*
X67390Y-38359D02*
X66642Y-39107D01*
X61987Y-44245D02*
X61987Y-45052D01*
X61740Y-45298D02*
X61376Y-45298D01*
X61987Y-45052D02*
X61740Y-45298D01*
X61377Y-47089D02*
X61377Y-45298D01*
X61377Y-45298D02*
X61376Y-45298D01*
X78533Y-24759D02*
X79958Y-24759D01*
X79958Y-24759D02*
X80333Y-24384D01*
X78533Y-24759D02*
X78158Y-24759D01*
X78158Y-24759D02*
X77783Y-24384D01*
X51209Y-47621D02*
X51209Y-47095D01*
X50766Y-46652D02*
X50766Y-46450D01*
X51209Y-47095D02*
X50766Y-46652D01*
X67548Y-38753D02*
X69181Y-38753D01*
X69181Y-38753D02*
X70215Y-37719D01*
X61062Y-48093D02*
X61061Y-48093D01*
X61062Y-47089D02*
X61062Y-48093D01*
X77912Y-38940D02*
X77912Y-42235D01*
X76691Y-37719D02*
X70215Y-37719D01*
X77912Y-38940D02*
X76691Y-37719D01*
X77912Y-42235D02*
X79546Y-43869D01*
X61150Y-46026D02*
X61150Y-46410D01*
X61150Y-46410D02*
X61062Y-46498D01*
X61062Y-46498D02*
X61062Y-47089D01*
X66465Y-44284D02*
X63374Y-44284D01*
X63374Y-44284D02*
X61819Y-45839D01*
X61022Y-45839D02*
X61150Y-46026D01*
X66898Y-43851D02*
X66465Y-44284D01*
X66898Y-39402D02*
X66898Y-43851D01*
X67548Y-38753D02*
X66898Y-39402D01*
X54354Y-39955D02*
X54070Y-40240D01*
X54354Y-39955D02*
X54720Y-39955D01*
X52970Y-61695D02*
X52970Y-60020D01*
X55628Y-52071D02*
X55628Y-52070D01*
X54930Y-52770D02*
X55628Y-52071D01*
X54930Y-60020D02*
X54930Y-52770D01*
X60353Y-54038D02*
X62751Y-54038D01*
X62751Y-54038D02*
X63168Y-53621D01*
X52489Y-47621D02*
X52489Y-47178D01*
X52489Y-47178D02*
X53335Y-46381D01*
X60353Y-54038D02*
X58168Y-51853D01*
X58168Y-51853D02*
X55845Y-51853D01*
X55845Y-51853D02*
X55628Y-52070D01*
X54487Y-48310D02*
X54487Y-45219D01*
X55628Y-49451D02*
X54487Y-48310D01*
X63168Y-53621D02*
X63168Y-49825D01*
X54720Y-39955D02*
X55656Y-39955D01*
X55656Y-39955D02*
X56475Y-39137D01*
X56475Y-39137D02*
X57961Y-39137D01*
X57961Y-39137D02*
X58187Y-39363D01*
X58187Y-39363D02*
X58187Y-39955D01*
X71967Y-45180D02*
X72823Y-45180D01*
X72823Y-45180D02*
X75166Y-42837D01*
X68758Y-50898D02*
X68758Y-50898D01*
X68758Y-50473D02*
X68758Y-50898D01*
X50953Y-47621D02*
X50953Y-48221D01*
X50953Y-48221D02*
X50953Y-48221D01*
X66731Y-44766D02*
X63768Y-44766D01*
X61975Y-46234D02*
X61691Y-46519D01*
X63176Y-46234D02*
X61975Y-46234D01*
X63414Y-45997D02*
X63176Y-46234D01*
X63414Y-45121D02*
X63414Y-45997D01*
X63768Y-44766D02*
X63414Y-45121D01*
X68000Y-41843D02*
X68191Y-41652D01*
X68000Y-43497D02*
X68000Y-41843D01*
X66731Y-44766D02*
X68000Y-43497D01*
X68758Y-50473D02*
X69390Y-50473D01*
X74890Y-41637D02*
X74329Y-41637D01*
X75166Y-41912D02*
X74890Y-41637D01*
X75166Y-42837D02*
X75166Y-41912D01*
X70933Y-46213D02*
X71967Y-45180D01*
X70933Y-48930D02*
X70933Y-46213D01*
X69390Y-50473D02*
X70933Y-48930D01*
X61691Y-47089D02*
X61691Y-46519D01*
X68191Y-41652D02*
X68961Y-41652D01*
X74329Y-41637D02*
X74329Y-43192D01*
X70024Y-41652D02*
X68961Y-41652D01*
X71987Y-43615D02*
X70024Y-41652D01*
X73906Y-43615D02*
X71987Y-43615D01*
X74329Y-43192D02*
X73906Y-43615D01*
X51093Y-57542D02*
X51093Y-59542D01*
X51093Y-59542D02*
X51101Y-59550D01*
X50441Y-48329D02*
X50441Y-48329D01*
X50441Y-48329D02*
X50441Y-47621D01*
X67823Y-51322D02*
X67823Y-50406D01*
X67823Y-50406D02*
X68256Y-49973D01*
X67449Y-45012D02*
X63876Y-45012D01*
X62192Y-46460D02*
X62006Y-46647D01*
X63314Y-46460D02*
X62192Y-46460D01*
X63650Y-46125D02*
X63314Y-46460D01*
X63650Y-45239D02*
X63650Y-46125D01*
X63876Y-45012D02*
X63650Y-45239D01*
X67685Y-44442D02*
X67685Y-44776D01*
X67685Y-44776D02*
X67449Y-45012D01*
X68758Y-49973D02*
X68256Y-49973D01*
X71959Y-40690D02*
X71959Y-41637D01*
X72203Y-40446D02*
X71959Y-40690D01*
X74447Y-40446D02*
X72203Y-40446D01*
X75677Y-41676D02*
X74447Y-40446D01*
X75677Y-42818D02*
X75677Y-41676D01*
X72941Y-45554D02*
X75677Y-42818D01*
X72105Y-45554D02*
X72941Y-45554D01*
X71317Y-46341D02*
X72105Y-45554D01*
X71317Y-49166D02*
X71317Y-46341D01*
X69162Y-51322D02*
X71317Y-49166D01*
X67823Y-51322D02*
X69162Y-51322D01*
X62006Y-47089D02*
X62006Y-46647D01*
X71959Y-41637D02*
X70835Y-41637D01*
X70835Y-41637D02*
X70077Y-40879D01*
X52093Y-57542D02*
X52093Y-59542D01*
X52093Y-59542D02*
X52085Y-59550D01*
X67689Y-39652D02*
X68961Y-39652D01*
X67685Y-39648D02*
X67689Y-39652D01*
X69855Y-39652D02*
X68961Y-39652D01*
X70077Y-39875D02*
X69855Y-39652D01*
X70077Y-40879D02*
X70077Y-39875D01*
X31300Y-43700D02*
X31300Y-45200D01*
X31300Y-45200D02*
X31800Y-45700D01*
X38900Y-51575D02*
X39850Y-52525D01*
X38900Y-48475D02*
X38900Y-51575D01*
X38075Y-47650D02*
X38900Y-48475D01*
X32300Y-47650D02*
X38075Y-47650D01*
X39850Y-52525D02*
X46775Y-52525D01*
X47550Y-51750D02*
X50850Y-51750D01*
X46775Y-52525D02*
X47550Y-51750D01*
X52233Y-49825D02*
X52233Y-50366D01*
X52233Y-50366D02*
X50850Y-51750D01*
X32800Y-44700D02*
X32800Y-43200D01*
X32800Y-43200D02*
X32300Y-42700D01*
X39150Y-51400D02*
X40025Y-52275D01*
X39150Y-48375D02*
X39150Y-51400D01*
X38000Y-47225D02*
X39150Y-48375D01*
X32800Y-47225D02*
X38000Y-47225D01*
X40025Y-52275D02*
X46675Y-52275D01*
X51977Y-50297D02*
X50775Y-51500D01*
X51977Y-49825D02*
X51977Y-50297D01*
X46675Y-52275D02*
X47450Y-51500D01*
X47450Y-51500D02*
X50775Y-51500D01*
X32300Y-43700D02*
X32300Y-45200D01*
X32300Y-45200D02*
X32800Y-45700D01*
X38650Y-51750D02*
X39675Y-52775D01*
X38650Y-48575D02*
X38650Y-51750D01*
X38125Y-48050D02*
X38650Y-48575D01*
X33300Y-48050D02*
X38125Y-48050D01*
X52489Y-49825D02*
X52489Y-50460D01*
X52489Y-50460D02*
X50950Y-52000D01*
X50950Y-52000D02*
X47650Y-52000D01*
X47650Y-52000D02*
X46875Y-52775D01*
X46875Y-52775D02*
X39675Y-52775D01*
X33800Y-44700D02*
X33800Y-43200D01*
X33800Y-43200D02*
X33300Y-42700D01*
X21800Y-44700D02*
X21800Y-45700D01*
X21300Y-43700D02*
X21300Y-44200D01*
X21300Y-44200D02*
X21800Y-44700D01*
X21300Y-42700D02*
X21300Y-43700D01*
X22300Y-43700D02*
X22300Y-45200D01*
X22300Y-45200D02*
X22800Y-45700D01*
X21800Y-63700D02*
X21800Y-62200D01*
X21800Y-62200D02*
X21300Y-61700D01*
X17625Y-60925D02*
X21525Y-60925D01*
X15625Y-61450D02*
X15900Y-61725D01*
X15900Y-61725D02*
X16825Y-61725D01*
X16825Y-61725D02*
X17625Y-60925D01*
X15625Y-61000D02*
X15625Y-61450D01*
X21525Y-60925D02*
X22300Y-61700D01*
X14674Y-61000D02*
X15625Y-61000D01*
X22800Y-63700D02*
X22800Y-62200D01*
X22800Y-62200D02*
X22300Y-61700D01*
X41500Y-61594D02*
X41500Y-54858D01*
X41500Y-54858D02*
X41933Y-54425D01*
X22800Y-64700D02*
X22800Y-65350D01*
X22800Y-65350D02*
X23150Y-65700D01*
X51721Y-49825D02*
X51721Y-49428D01*
X48288Y-54425D02*
X41933Y-54425D01*
X49726Y-52986D02*
X48288Y-54425D01*
X51563Y-52986D02*
X49726Y-52986D01*
X53400Y-51150D02*
X51563Y-52986D01*
X53175Y-49225D02*
X53400Y-49450D01*
X51925Y-49225D02*
X53175Y-49225D01*
X51721Y-49428D02*
X51925Y-49225D01*
X41500Y-61594D02*
X41500Y-65212D01*
X41500Y-65212D02*
X41012Y-65700D01*
X41012Y-65700D02*
X23150Y-65700D01*
X22300Y-62700D02*
X22300Y-64200D01*
X22300Y-64200D02*
X22800Y-64700D01*
X21300Y-62700D02*
X21300Y-64200D01*
X21300Y-64200D02*
X21800Y-64700D01*
X66603Y-44540D02*
X63669Y-44540D01*
X63669Y-44540D02*
X62350Y-45860D01*
X60756Y-46351D02*
X60756Y-47080D01*
X60756Y-47080D02*
X60747Y-47089D01*
X67646Y-39166D02*
X69300Y-39166D01*
X69300Y-39166D02*
X70441Y-38024D01*
X77646Y-39127D02*
X77646Y-42969D01*
X76544Y-38024D02*
X70441Y-38024D01*
X77646Y-39127D02*
X76544Y-38024D01*
X77646Y-42969D02*
X79546Y-44869D01*
X51465Y-47621D02*
X51465Y-46873D01*
X51465Y-46873D02*
X51406Y-46814D01*
X60747Y-47089D02*
X60747Y-47738D01*
X60747Y-47738D02*
X60648Y-47837D01*
X67174Y-43969D02*
X66603Y-44540D01*
X67174Y-39638D02*
X67174Y-43969D01*
X67646Y-39166D02*
X67174Y-39638D01*
X30800Y-46825D02*
X37925Y-46825D01*
X39400Y-51225D02*
X40200Y-52025D01*
X39400Y-48300D02*
X39400Y-51225D01*
X37925Y-46825D02*
X39400Y-48300D01*
X40200Y-52025D02*
X46600Y-52025D01*
X51465Y-50434D02*
X50650Y-51250D01*
X51465Y-49825D02*
X51465Y-50434D01*
X46600Y-52025D02*
X47375Y-51250D01*
X47375Y-51250D02*
X50650Y-51250D01*
X30300Y-43700D02*
X30300Y-45200D01*
X30300Y-45200D02*
X30800Y-45700D01*
X30450Y-46350D02*
X37800Y-46350D01*
X39650Y-51075D02*
X40350Y-51775D01*
X39650Y-48200D02*
X39650Y-51075D01*
X37800Y-46350D02*
X39650Y-48200D01*
X40350Y-51775D02*
X46525Y-51775D01*
X51209Y-50390D02*
X50600Y-51000D01*
X51209Y-49825D02*
X51209Y-50390D01*
X46525Y-51775D02*
X47300Y-51000D01*
X47300Y-51000D02*
X50600Y-51000D01*
X30450Y-46350D02*
X29800Y-45700D01*
X29300Y-43700D02*
X29300Y-45200D01*
X29300Y-45200D02*
X29800Y-45700D01*
X28300Y-43700D02*
X28300Y-45200D01*
X28300Y-45200D02*
X28800Y-45700D01*
X28800Y-44700D02*
X28800Y-43200D01*
X28800Y-43200D02*
X28300Y-42700D01*
X35300Y-62700D02*
X35300Y-64200D01*
X35300Y-64200D02*
X35800Y-64700D01*
X34300Y-62700D02*
X34300Y-64200D01*
X34300Y-64200D02*
X34800Y-64700D01*
X35800Y-63700D02*
X35800Y-62200D01*
X35800Y-62200D02*
X35300Y-61700D01*
X34800Y-63700D02*
X34800Y-62200D01*
X34800Y-62200D02*
X34300Y-61700D01*
X23800Y-44700D02*
X23800Y-43200D01*
X23800Y-43200D02*
X23300Y-42700D01*
X24800Y-44700D02*
X24800Y-43200D01*
X24800Y-43200D02*
X24300Y-42700D01*
X33800Y-63700D02*
X33800Y-62200D01*
X33800Y-62200D02*
X33300Y-61700D01*
X33300Y-62700D02*
X33300Y-64200D01*
X33300Y-64200D02*
X33800Y-64700D01*
X36300Y-62700D02*
X36300Y-64200D01*
X36300Y-64200D02*
X36800Y-64700D01*
X36800Y-63700D02*
X36800Y-62200D01*
X36800Y-62200D02*
X36300Y-61700D01*
G54D70*
X34803Y-50767D02*
X34409Y-50767D01*
X34311Y-50866D02*
X33779Y-50866D01*
X34409Y-50767D02*
X34311Y-50866D01*
X33779Y-50866D02*
X33779Y-51692D01*
X30152Y-49050D02*
X29354Y-49050D01*
X30492Y-49389D02*
X30152Y-49050D01*
X30492Y-51574D02*
X30492Y-49389D01*
X30885Y-51968D02*
X30492Y-51574D01*
X33503Y-51968D02*
X30885Y-51968D01*
X33779Y-51692D02*
X33503Y-51968D01*
G54D69*
X50697Y-49825D02*
X50697Y-48950D01*
X50697Y-48950D02*
X50700Y-48950D01*
G54D70*
X16975Y-60500D02*
X16374Y-60500D01*
X16374Y-60000D02*
X16374Y-60500D01*
X16374Y-60500D02*
X16374Y-61000D01*
G54D69*
X49625Y-48950D02*
X50700Y-48950D01*
X50700Y-48950D02*
X53675Y-48950D01*
G54D70*
X24200Y-52925D02*
X24800Y-52925D01*
X26900Y-53600D02*
X27025Y-53475D01*
X26900Y-54225D02*
X26900Y-53600D01*
X27100Y-54425D02*
X26900Y-54225D01*
X27600Y-54425D02*
X27100Y-54425D01*
G54D69*
X27850Y-54175D02*
X27600Y-54425D01*
X48143Y-54175D02*
X27850Y-54175D01*
X49582Y-52736D02*
X48143Y-54175D01*
X50938Y-52736D02*
X49582Y-52736D01*
X53950Y-49725D02*
X50938Y-52736D01*
X53950Y-49225D02*
X53950Y-49725D01*
X53675Y-48950D02*
X53950Y-49225D01*
X49122Y-49452D02*
X49122Y-49825D01*
X49625Y-48950D02*
X49122Y-49452D01*
G54D70*
X24800Y-50100D02*
X24800Y-47150D01*
X24800Y-47150D02*
X24800Y-47150D01*
X26300Y-47150D02*
X24800Y-47150D01*
X24800Y-47150D02*
X20400Y-47150D01*
X19800Y-46550D02*
X19800Y-45700D01*
X20400Y-47150D02*
X19800Y-46550D01*
X26300Y-47150D02*
X26300Y-47975D01*
G54D69*
X26300Y-47975D02*
X26650Y-48325D01*
X26650Y-48325D02*
X27950Y-48325D01*
X27950Y-48325D02*
X28150Y-48525D01*
X28150Y-48525D02*
X29374Y-48525D01*
G54D70*
X29374Y-48050D02*
X29374Y-48525D01*
X29374Y-48525D02*
X29374Y-49030D01*
X29374Y-49030D02*
X29354Y-49050D01*
X24800Y-52925D02*
X24800Y-51900D01*
X24800Y-51900D02*
X24800Y-51900D01*
X29374Y-47150D02*
X29374Y-48050D01*
X24800Y-51000D02*
X24800Y-50100D01*
X24800Y-51900D02*
X24800Y-51000D01*
X19800Y-44700D02*
X19800Y-45700D01*
X19300Y-43700D02*
X19300Y-44200D01*
X19300Y-44200D02*
X19800Y-44700D01*
X19300Y-42700D02*
X19300Y-43700D01*
X20300Y-42700D02*
X20300Y-41550D01*
X20800Y-44700D02*
X20800Y-45700D01*
X20300Y-43700D02*
X20300Y-44200D01*
X20300Y-44200D02*
X20800Y-44700D01*
X20300Y-42700D02*
X20300Y-43700D01*
G54D69*
X33300Y-43700D02*
X33300Y-45200D01*
X33300Y-45200D02*
X33800Y-45700D01*
X51977Y-47621D02*
X51977Y-46991D01*
X52410Y-45416D02*
X52321Y-45327D01*
X52410Y-46558D02*
X52410Y-45416D01*
X51977Y-46991D02*
X52410Y-46558D01*
X53227Y-40957D02*
X53229Y-40955D01*
X53229Y-40955D02*
X54720Y-40955D01*
X55510Y-51282D02*
X56927Y-51282D01*
X56927Y-51282D02*
X57064Y-51419D01*
X55510Y-50278D02*
X54920Y-50278D01*
X54920Y-50278D02*
X54782Y-50140D01*
X54782Y-49325D02*
X54782Y-50140D01*
X54782Y-49325D02*
X53880Y-48424D01*
X53880Y-48424D02*
X52132Y-48424D01*
X52132Y-48424D02*
X51977Y-48269D01*
X51977Y-48269D02*
X51977Y-47621D01*
X62321Y-50357D02*
X62321Y-50927D01*
X62321Y-50927D02*
X62498Y-51105D01*
X62498Y-51105D02*
X62498Y-53133D01*
X62498Y-53133D02*
X62242Y-53388D01*
X62242Y-53388D02*
X60550Y-53388D01*
X60550Y-53388D02*
X58582Y-51421D01*
X58582Y-51421D02*
X57064Y-51419D01*
X54720Y-40955D02*
X55479Y-40955D01*
X58187Y-41499D02*
X58187Y-40955D01*
X58010Y-41676D02*
X58187Y-41499D01*
X56199Y-41676D02*
X58010Y-41676D01*
X55479Y-40955D02*
X56199Y-41676D01*
G54D70*
X30618Y-25072D02*
X30618Y-20157D01*
X30618Y-20157D02*
X30629Y-20157D01*
X24920Y-21951D02*
X24920Y-20690D01*
X24920Y-20690D02*
X25452Y-20157D01*
X25452Y-20157D02*
X30629Y-20157D01*
X36550Y-20762D02*
X36550Y-35010D01*
X36160Y-35400D02*
X36550Y-35010D01*
X33050Y-35400D02*
X36160Y-35400D01*
X32790Y-35660D02*
X33050Y-35400D01*
X32790Y-36490D02*
X32790Y-35660D01*
X30629Y-20157D02*
X35944Y-20157D01*
X35944Y-20157D02*
X36550Y-20762D01*
X24920Y-21951D02*
X24207Y-21951D01*
X24207Y-21951D02*
X23920Y-22239D01*
X22459Y-21932D02*
X23612Y-21932D01*
X23612Y-21932D02*
X23920Y-22239D01*
X22670Y-36490D02*
X22670Y-35750D01*
X20835Y-35095D02*
X20835Y-31951D01*
X21270Y-35530D02*
X20835Y-35095D01*
X22450Y-35530D02*
X21270Y-35530D01*
X22670Y-35750D02*
X22450Y-35530D01*
X14290Y-27621D02*
X14290Y-26908D01*
X14290Y-26908D02*
X14002Y-26621D01*
X14309Y-23477D02*
X14309Y-26314D01*
X14309Y-26314D02*
X14002Y-26621D01*
X20835Y-31951D02*
X20835Y-28160D01*
X20296Y-27621D02*
X14290Y-27621D01*
X20835Y-28160D02*
X20296Y-27621D01*
X20087Y-31951D02*
X20835Y-31951D01*
X27410Y-26961D02*
X25825Y-26961D01*
X24920Y-26056D02*
X24920Y-23526D01*
X25825Y-26961D02*
X24920Y-26056D01*
X29910Y-26961D02*
X27410Y-26961D01*
X22459Y-23546D02*
X23612Y-23546D01*
X23612Y-23546D02*
X23920Y-23239D01*
X24920Y-23526D02*
X24207Y-23526D01*
X24207Y-23526D02*
X23920Y-23239D01*
X13492Y-31725D02*
X13492Y-28398D01*
X13492Y-28398D02*
X12715Y-27621D01*
X12715Y-27621D02*
X12715Y-26908D01*
X12715Y-26908D02*
X13002Y-26621D01*
X12695Y-23477D02*
X12695Y-26314D01*
X12695Y-26314D02*
X13002Y-26621D01*
X16878Y-33920D02*
X15687Y-33920D01*
X15687Y-33920D02*
X13492Y-31725D01*
X19378Y-33920D02*
X16878Y-33920D01*
X46299Y-58267D02*
X46300Y-58267D01*
X46300Y-58267D02*
X46299Y-58267D01*
X46299Y-58267D02*
X46300Y-58267D01*
X72550Y-61675D02*
X72895Y-61675D01*
X73011Y-61791D02*
X74015Y-61791D01*
X72895Y-61675D02*
X73011Y-61791D01*
X46300Y-60335D02*
X46300Y-58267D01*
X47640Y-61675D02*
X46300Y-60335D01*
X49970Y-61675D02*
X47640Y-61675D01*
X22075Y-37450D02*
X33790Y-37450D01*
X21670Y-36490D02*
X21670Y-37045D01*
X22075Y-37450D02*
X21670Y-37045D01*
X33779Y-37460D02*
X33790Y-37460D01*
X33779Y-37460D02*
X33779Y-37460D01*
X33790Y-37450D02*
X33779Y-37460D01*
X70845Y-27936D02*
X73067Y-27936D01*
X74450Y-26553D02*
X74450Y-23800D01*
X73067Y-27936D02*
X74450Y-26553D01*
X33790Y-39490D02*
X33790Y-37460D01*
X33790Y-37460D02*
X33790Y-36490D01*
X33800Y-39500D02*
X33790Y-39490D01*
X60075Y-61675D02*
X58450Y-61675D01*
X49050Y-64650D02*
X49050Y-61675D01*
X49375Y-64975D02*
X49050Y-64650D01*
X57000Y-64975D02*
X49375Y-64975D01*
X57900Y-64075D02*
X57000Y-64975D01*
X57900Y-62225D02*
X57900Y-64075D01*
X58450Y-61675D02*
X57900Y-62225D01*
X49970Y-61675D02*
X49050Y-61675D01*
X63500Y-61675D02*
X69125Y-61675D01*
G54D71*
X63500Y-60725D02*
X63300Y-60725D01*
X63625Y-60725D02*
X63500Y-60725D01*
X63300Y-60725D02*
X63100Y-60725D01*
X63100Y-60725D02*
X63101Y-60723D01*
G54D69*
X63101Y-60723D02*
X63101Y-60290D01*
G54D71*
X63790Y-60559D02*
X63625Y-60725D01*
G54D69*
X63790Y-59995D02*
X63790Y-60559D01*
G54D71*
X63298Y-60725D02*
X63300Y-60725D01*
X63298Y-60290D02*
X63298Y-60725D01*
X63495Y-60725D02*
X63500Y-60720D01*
X63500Y-60720D02*
X63500Y-60725D01*
X63495Y-60290D02*
X63495Y-60725D01*
G54D70*
X60900Y-61675D02*
X62550Y-61675D01*
X60075Y-61675D02*
X60900Y-61675D01*
G54D71*
X63500Y-60850D02*
X63625Y-60725D01*
G54D70*
X63500Y-60850D02*
X63500Y-61675D01*
X62550Y-61675D02*
X63500Y-61675D01*
X60575Y-60725D02*
X60900Y-61050D01*
X60900Y-61050D02*
X60900Y-61675D01*
X60575Y-60293D02*
X60575Y-60725D01*
X59581Y-60293D02*
X59425Y-60450D01*
X60575Y-60293D02*
X59581Y-60293D01*
X74945Y-22000D02*
X74945Y-22604D01*
X74945Y-22604D02*
X74450Y-23100D01*
X74450Y-23100D02*
X74450Y-23800D01*
X41517Y-23792D02*
X74442Y-23792D01*
X38880Y-35580D02*
X38880Y-26430D01*
X38880Y-26430D02*
X41517Y-23792D01*
X37970Y-36490D02*
X38880Y-35580D01*
X33790Y-36490D02*
X37970Y-36490D01*
X74442Y-23792D02*
X74450Y-23800D01*
X69625Y-60293D02*
X68631Y-60293D01*
X68631Y-60293D02*
X68475Y-60450D01*
X69625Y-60293D02*
X69625Y-60725D01*
X69950Y-61050D02*
X69950Y-61675D01*
X69625Y-60725D02*
X69950Y-61050D01*
X71600Y-61675D02*
X72550Y-61675D01*
G54D71*
X72550Y-61675D02*
X72550Y-60850D01*
X72550Y-60850D02*
X72675Y-60725D01*
G54D70*
X69125Y-61675D02*
X69950Y-61675D01*
X69950Y-61675D02*
X71600Y-61675D01*
G54D71*
X72545Y-60290D02*
X72545Y-60725D01*
X72550Y-60720D02*
X72550Y-60725D01*
X72545Y-60725D02*
X72550Y-60720D01*
X72348Y-60290D02*
X72348Y-60725D01*
X72348Y-60725D02*
X72350Y-60725D01*
G54D69*
X72840Y-59995D02*
X72840Y-60559D01*
G54D71*
X72840Y-60559D02*
X72675Y-60725D01*
X72151Y-60723D02*
X72151Y-60290D01*
X72150Y-60725D02*
X72151Y-60723D01*
X72350Y-60725D02*
X72150Y-60725D01*
X72675Y-60725D02*
X72550Y-60725D01*
X72550Y-60725D02*
X72350Y-60725D01*
G54D69*
X64664Y-45426D02*
X64664Y-45613D01*
X64664Y-45613D02*
X63187Y-47089D01*
X62636Y-47089D02*
X63187Y-47089D01*
X64400Y-40652D02*
X63161Y-40652D01*
X64404Y-40656D02*
X64400Y-40652D01*
X55628Y-43644D02*
X57894Y-43644D01*
X57894Y-43644D02*
X58440Y-44190D01*
X62321Y-47089D02*
X62321Y-47620D01*
X62420Y-47719D02*
X62420Y-48221D01*
X62321Y-47620D02*
X62420Y-47719D01*
X42431Y-26412D02*
X42124Y-26105D01*
X42431Y-27477D02*
X42431Y-26412D01*
X55235Y-44038D02*
X55628Y-43644D01*
X51366Y-44038D02*
X55235Y-44038D01*
X48876Y-41548D02*
X51366Y-44038D01*
X43670Y-41548D02*
X48876Y-41548D01*
X40294Y-38172D02*
X43670Y-41548D01*
X40294Y-26568D02*
X40294Y-38172D01*
X40756Y-26105D02*
X40294Y-26568D01*
X42124Y-26105D02*
X40756Y-26105D01*
X19380Y-37150D02*
X19380Y-38530D01*
X19725Y-38875D02*
X29475Y-38875D01*
X19380Y-38530D02*
X19725Y-38875D01*
X59900Y-47936D02*
X58906Y-47936D01*
X58906Y-47936D02*
X58876Y-47906D01*
X19380Y-37150D02*
X19378Y-34820D01*
X52600Y-39455D02*
X50238Y-39455D01*
X41431Y-30383D02*
X41431Y-27477D01*
X41790Y-30741D02*
X41431Y-30383D01*
X48128Y-30741D02*
X41790Y-30741D01*
X48817Y-31430D02*
X48128Y-30741D01*
X48817Y-38034D02*
X48817Y-31430D01*
X50238Y-39455D02*
X48817Y-38034D01*
X52600Y-40955D02*
X50095Y-40955D01*
X44431Y-32164D02*
X44431Y-33277D01*
X44742Y-31853D02*
X44431Y-32164D01*
X47479Y-31853D02*
X44742Y-31853D01*
X47784Y-32158D02*
X47479Y-31853D01*
X47784Y-38644D02*
X47784Y-32158D01*
X50095Y-40955D02*
X47784Y-38644D01*
X52600Y-39955D02*
X50158Y-39955D01*
X48040Y-31125D02*
X41800Y-31125D01*
X48502Y-31587D02*
X48040Y-31125D01*
X48502Y-38300D02*
X48502Y-31587D01*
X50158Y-39955D02*
X48502Y-38300D01*
X41431Y-31493D02*
X41431Y-33277D01*
X41800Y-31125D02*
X41431Y-31493D01*
X52600Y-40455D02*
X50126Y-40455D01*
X47794Y-31499D02*
X42735Y-31499D01*
X48168Y-31873D02*
X47794Y-31499D01*
X48168Y-38497D02*
X48168Y-31873D01*
X50126Y-40455D02*
X48168Y-38497D01*
X42431Y-31802D02*
X42431Y-33277D01*
X42735Y-31499D02*
X42431Y-31802D01*
X73989Y-31450D02*
X74495Y-31450D01*
X73976Y-31437D02*
X73989Y-31450D01*
X74475Y-32650D02*
X74475Y-31469D01*
X74475Y-31469D02*
X74495Y-31450D01*
X43775Y-49600D02*
X41275Y-49600D01*
X45353Y-47700D02*
X45353Y-48003D01*
X45786Y-48436D02*
X45786Y-48881D01*
X45353Y-48003D02*
X45786Y-48436D01*
X43775Y-49600D02*
X45550Y-49600D01*
X45550Y-49600D02*
X45786Y-49363D01*
X45786Y-49363D02*
X45786Y-48881D01*
X45353Y-47700D02*
X44614Y-47700D01*
X44160Y-47245D02*
X44160Y-43064D01*
X44614Y-47700D02*
X44160Y-47245D01*
X45160Y-43064D02*
X44160Y-43064D01*
X46160Y-43064D02*
X45160Y-43064D01*
X75992Y-30322D02*
X75992Y-32690D01*
X61987Y-51981D02*
X61987Y-52818D01*
X61691Y-51685D02*
X61987Y-51981D01*
X61691Y-50357D02*
X61691Y-51685D01*
X61987Y-52818D02*
X61819Y-52985D01*
X60432Y-50357D02*
X60431Y-50357D01*
X60431Y-50357D02*
X59988Y-50800D01*
X29910Y-28812D02*
X29910Y-27861D01*
X43775Y-50500D02*
X46650Y-50500D01*
X47036Y-50113D02*
X47036Y-48723D01*
X46650Y-50500D02*
X47036Y-50113D01*
X47339Y-48420D02*
X48534Y-48420D01*
X47036Y-48723D02*
X47339Y-48420D01*
X53760Y-48660D02*
X48774Y-48660D01*
X48774Y-48660D02*
X48534Y-48420D01*
X56967Y-50888D02*
X54931Y-50888D01*
X54537Y-50495D02*
X54546Y-50495D01*
X54931Y-50888D02*
X54537Y-50495D01*
X60471Y-51164D02*
X57242Y-51164D01*
X57242Y-51164D02*
X56967Y-50888D01*
X60747Y-50357D02*
X60747Y-50888D01*
X54546Y-49446D02*
X53760Y-48660D01*
X54546Y-50495D02*
X54546Y-49446D01*
X60747Y-50888D02*
X60471Y-51164D01*
X55609Y-40455D02*
X54720Y-40455D01*
X62006Y-51404D02*
X62112Y-51511D01*
X62006Y-50357D02*
X62006Y-51404D01*
X61377Y-50357D02*
X61377Y-51804D01*
X61377Y-51804D02*
X61534Y-51961D01*
X61534Y-51961D02*
X61534Y-52512D01*
X61534Y-52512D02*
X61376Y-52670D01*
X58896Y-49707D02*
X59132Y-49707D01*
X59329Y-49510D02*
X59900Y-49510D01*
X59132Y-49707D02*
X59329Y-49510D01*
X58069Y-49786D02*
X58453Y-49786D01*
X58532Y-49707D02*
X58896Y-49707D01*
X58453Y-49786D02*
X58532Y-49707D01*
X57203Y-50416D02*
X57203Y-50761D01*
X59900Y-50180D02*
X59900Y-49825D01*
X59191Y-50888D02*
X59900Y-50180D01*
X57331Y-50888D02*
X59191Y-50888D01*
X57203Y-50761D02*
X57331Y-50888D01*
X56396Y-50416D02*
X57203Y-50416D01*
X63168Y-47936D02*
X63709Y-47936D01*
X63906Y-47739D02*
X64447Y-47739D01*
X63709Y-47936D02*
X63906Y-47739D01*
X64053Y-47247D02*
X63374Y-47247D01*
X63168Y-47453D02*
X63168Y-47621D01*
X63374Y-47247D02*
X63168Y-47453D01*
X63168Y-49195D02*
X64053Y-49195D01*
X64053Y-49195D02*
X64053Y-49196D01*
X63168Y-48251D02*
X64073Y-48251D01*
X64073Y-48251D02*
X64073Y-48251D01*
X67095Y-37621D02*
X68837Y-37621D01*
X68837Y-37621D02*
X69644Y-36814D01*
X77783Y-30071D02*
X77783Y-31155D01*
X74447Y-36814D02*
X69644Y-36814D01*
X77095Y-34166D02*
X74447Y-36814D01*
X77095Y-34166D02*
X77095Y-31843D01*
X77783Y-31155D02*
X77095Y-31843D01*
X59941Y-45308D02*
X60431Y-45308D01*
X59939Y-45306D02*
X59941Y-45308D01*
X60432Y-47089D02*
X60432Y-46568D01*
X60431Y-45879D02*
X60431Y-45308D01*
X60343Y-45967D02*
X60431Y-45879D01*
X60343Y-46479D02*
X60343Y-45967D01*
X60432Y-46568D02*
X60343Y-46479D01*
X78533Y-29696D02*
X78158Y-29696D01*
X78158Y-29696D02*
X77783Y-30071D01*
X78533Y-29696D02*
X79958Y-29696D01*
X79958Y-29696D02*
X80333Y-30071D01*
X60070Y-42150D02*
X65805Y-42148D01*
X65805Y-42148D02*
X66120Y-41833D01*
X66120Y-38595D02*
X66120Y-41833D01*
X67095Y-37621D02*
X66120Y-38595D01*
X61062Y-50357D02*
X61062Y-52138D01*
X61062Y-52138D02*
X61061Y-52138D01*
G54D70*
X73700Y-65700D02*
X73700Y-64685D01*
X74015Y-64370D02*
X74015Y-63405D01*
X73700Y-64685D02*
X74015Y-64370D01*
X75669Y-60534D02*
X75669Y-63109D01*
X75374Y-63405D02*
X74015Y-63405D01*
X75669Y-63109D02*
X75374Y-63405D01*
G54D69*
X72420Y-50473D02*
X72943Y-50473D01*
X73394Y-49560D02*
X74073Y-48881D01*
X73394Y-50022D02*
X73394Y-49560D01*
X72943Y-50473D02*
X73394Y-50022D01*
X69672Y-49473D02*
X68758Y-49473D01*
X69674Y-49471D02*
X69672Y-49473D01*
X67646Y-49550D02*
X67941Y-49550D01*
X68018Y-49473D02*
X68758Y-49473D01*
X67941Y-49550D02*
X68018Y-49473D01*
X72420Y-48973D02*
X72947Y-48973D01*
X73522Y-46912D02*
X74073Y-46912D01*
X73256Y-47178D02*
X73522Y-46912D01*
X73256Y-48664D02*
X73256Y-47178D01*
X72947Y-48973D02*
X73256Y-48664D01*
X72420Y-49473D02*
X71748Y-49473D01*
X70235Y-50987D02*
X70235Y-52030D01*
X71748Y-49473D02*
X70235Y-50987D01*
X72420Y-49473D02*
X73038Y-49473D01*
X73807Y-47906D02*
X74073Y-47906D01*
X73601Y-48113D02*
X73807Y-47906D01*
X73601Y-48910D02*
X73601Y-48113D01*
X73038Y-49473D02*
X73601Y-48910D01*
X67242Y-37995D02*
X68975Y-37995D01*
X68975Y-37995D02*
X69851Y-37119D01*
X69851Y-37119D02*
X74672Y-37119D01*
X74672Y-37119D02*
X77783Y-34008D01*
X57390Y-47079D02*
X57400Y-47414D01*
X57508Y-46961D02*
X57390Y-47079D01*
X67242Y-37995D02*
X66406Y-38831D01*
X57508Y-46961D02*
X59319Y-46961D01*
X59319Y-47552D02*
X59319Y-46961D01*
X59319Y-46961D02*
X59319Y-43979D01*
X59319Y-43979D02*
X59969Y-43329D01*
X59969Y-43329D02*
X66042Y-43329D01*
X66042Y-43329D02*
X66406Y-42965D01*
X66406Y-42965D02*
X66406Y-38831D01*
X59900Y-47621D02*
X59388Y-47621D01*
X59388Y-47621D02*
X59319Y-47552D01*
X78533Y-33633D02*
X78158Y-33633D01*
X78158Y-33633D02*
X77783Y-34008D01*
X78533Y-33633D02*
X79958Y-33633D01*
X79958Y-33633D02*
X80333Y-34008D01*
X79546Y-45869D02*
X78320Y-45869D01*
X78320Y-45869D02*
X78319Y-45870D01*
G54D70*
X21900Y-51250D02*
X21900Y-52700D01*
X21900Y-52700D02*
X23950Y-54750D01*
X18800Y-47725D02*
X10525Y-47725D01*
X10000Y-48250D02*
X10525Y-47725D01*
X10000Y-48250D02*
X10000Y-53125D01*
X21900Y-50250D02*
X19825Y-50250D01*
X18800Y-49225D02*
X18800Y-47725D01*
X18800Y-47725D02*
X18800Y-45700D01*
X19825Y-50250D02*
X18800Y-49225D01*
X10000Y-57125D02*
X8525Y-57125D01*
X10000Y-61125D02*
X8925Y-61125D01*
X8925Y-61125D02*
X8525Y-60725D01*
X8525Y-60725D02*
X8525Y-57125D01*
X8975Y-53125D02*
X10000Y-53125D01*
X8525Y-53575D02*
X8975Y-53125D01*
X8525Y-57125D02*
X8525Y-53575D01*
X11800Y-61500D02*
X12175Y-61500D01*
X12175Y-61500D02*
X12550Y-61125D01*
X11800Y-61500D02*
X10375Y-61500D01*
X10375Y-61500D02*
X10000Y-61125D01*
X11800Y-53500D02*
X12175Y-53500D01*
X12175Y-53500D02*
X12550Y-53125D01*
X11800Y-53500D02*
X10375Y-53500D01*
X10375Y-53500D02*
X10000Y-53125D01*
X11800Y-57500D02*
X10375Y-57500D01*
X10375Y-57500D02*
X10000Y-57125D01*
X11800Y-57500D02*
X12175Y-57500D01*
X12175Y-57500D02*
X12550Y-57125D01*
G54D69*
X72840Y-59601D02*
X72515Y-59601D01*
G54D71*
X72515Y-59601D02*
X72446Y-59532D01*
G54D69*
X72840Y-59404D02*
X72574Y-59404D01*
X72574Y-59404D02*
X72446Y-59532D01*
G54D70*
X44625Y-48700D02*
X43775Y-48700D01*
X53093Y-57542D02*
X53967Y-57542D01*
X53625Y-63950D02*
X52970Y-63950D01*
X54250Y-63325D02*
X53625Y-63950D01*
X54250Y-57825D02*
X54250Y-63325D01*
X53967Y-57542D02*
X54250Y-57825D01*
X18522Y-58762D02*
X16862Y-58762D01*
X16862Y-58762D02*
X16337Y-58237D01*
X26224Y-53925D02*
X26224Y-54500D01*
X25975Y-54750D02*
X23950Y-54750D01*
X26224Y-54500D02*
X25975Y-54750D01*
X28645Y-49050D02*
X27800Y-49050D01*
X26150Y-52925D02*
X27625Y-52925D01*
X28645Y-51904D02*
X28645Y-49050D01*
X27625Y-52925D02*
X28645Y-51904D01*
X26224Y-53925D02*
X26224Y-52999D01*
X26224Y-52999D02*
X26150Y-52925D01*
X59450Y-58250D02*
X59450Y-59325D01*
X59450Y-59325D02*
X59425Y-59350D01*
X69150Y-63475D02*
X62575Y-63475D01*
X68500Y-58250D02*
X68500Y-59325D01*
X68500Y-59325D02*
X68475Y-59350D01*
G54D71*
X62609Y-59798D02*
X62275Y-59798D01*
X62275Y-59798D02*
X62275Y-59800D01*
G54D70*
X63003Y-59867D02*
X63032Y-59867D01*
X63032Y-59867D02*
X63200Y-59700D01*
X63396Y-59867D02*
X63367Y-59867D01*
X63367Y-59867D02*
X63200Y-59700D01*
X63396Y-59532D02*
X63367Y-59532D01*
X63367Y-59532D02*
X63200Y-59700D01*
X63003Y-59532D02*
X63032Y-59532D01*
X63032Y-59532D02*
X63200Y-59700D01*
G54D72*
X62609Y-59995D02*
X62875Y-59995D01*
X62875Y-59995D02*
X63003Y-59867D01*
G54D71*
X62609Y-59798D02*
X62934Y-59798D01*
X62934Y-59798D02*
X63003Y-59867D01*
G54D72*
X62609Y-59404D02*
X62875Y-59404D01*
X62875Y-59404D02*
X63003Y-59532D01*
G54D71*
X62609Y-59601D02*
X62934Y-59601D01*
X62934Y-59601D02*
X63003Y-59532D01*
X62609Y-59601D02*
X62275Y-59601D01*
X62275Y-59601D02*
X62275Y-59600D01*
X62609Y-59995D02*
X62345Y-59995D01*
X62345Y-59995D02*
X62275Y-59925D01*
X62275Y-59925D02*
X62275Y-59800D01*
X62275Y-59600D02*
X62275Y-59479D01*
X62350Y-59404D02*
X62609Y-59404D01*
X62275Y-59479D02*
X62350Y-59404D01*
X62275Y-59800D02*
X62275Y-59600D01*
G54D72*
X63780Y-59404D02*
X63524Y-59404D01*
X63524Y-59404D02*
X63396Y-59532D01*
X63780Y-59601D02*
X63465Y-59601D01*
G54D71*
X63465Y-59601D02*
X63396Y-59532D01*
G54D70*
X60575Y-59506D02*
X61725Y-59506D01*
X61325Y-63475D02*
X60100Y-63475D01*
X62575Y-63475D02*
X61325Y-63475D01*
G54D71*
X62181Y-59506D02*
X62275Y-59600D01*
G54D70*
X61725Y-59506D02*
X62181Y-59506D01*
X61806Y-58043D02*
X61650Y-58200D01*
X62900Y-58043D02*
X61806Y-58043D01*
X61650Y-59431D02*
X61725Y-59506D01*
X61650Y-58200D02*
X61650Y-59431D01*
X59581Y-59506D02*
X59425Y-59350D01*
X60575Y-59506D02*
X59581Y-59506D01*
X77783Y-26134D02*
X77783Y-26966D01*
X75992Y-27957D02*
X75992Y-28522D01*
X76300Y-27650D02*
X75992Y-27957D01*
X77100Y-27650D02*
X76300Y-27650D01*
X77783Y-26966D02*
X77100Y-27650D01*
X69625Y-59506D02*
X68631Y-59506D01*
X68631Y-59506D02*
X68475Y-59350D01*
X70700Y-58200D02*
X70700Y-59431D01*
X70700Y-59431D02*
X70775Y-59506D01*
X71950Y-58043D02*
X70856Y-58043D01*
X70856Y-58043D02*
X70700Y-58200D01*
X70775Y-59506D02*
X71231Y-59506D01*
G54D71*
X71231Y-59506D02*
X71325Y-59600D01*
G54D70*
X71625Y-63475D02*
X70375Y-63475D01*
X70375Y-63475D02*
X69150Y-63475D01*
X69625Y-59506D02*
X70775Y-59506D01*
G54D71*
X71325Y-59800D02*
X71325Y-59600D01*
X71325Y-59479D02*
X71400Y-59404D01*
X71400Y-59404D02*
X71659Y-59404D01*
X71325Y-59600D02*
X71325Y-59479D01*
X71325Y-59925D02*
X71325Y-59800D01*
X71395Y-59995D02*
X71325Y-59925D01*
X71659Y-59995D02*
X71395Y-59995D01*
X71325Y-59601D02*
X71325Y-59600D01*
X71659Y-59601D02*
X71325Y-59601D01*
X71984Y-59601D02*
X72053Y-59532D01*
X71659Y-59601D02*
X71984Y-59601D01*
G54D72*
X71925Y-59404D02*
X72053Y-59532D01*
X71659Y-59404D02*
X71925Y-59404D01*
G54D71*
X71984Y-59798D02*
X72053Y-59867D01*
X71659Y-59798D02*
X71984Y-59798D01*
G54D72*
X71925Y-59995D02*
X72053Y-59867D01*
X71659Y-59995D02*
X71925Y-59995D01*
G54D70*
X72082Y-59532D02*
X72250Y-59700D01*
X72053Y-59532D02*
X72082Y-59532D01*
X72417Y-59532D02*
X72250Y-59700D01*
X72446Y-59532D02*
X72417Y-59532D01*
X72417Y-59867D02*
X72250Y-59700D01*
X72446Y-59867D02*
X72417Y-59867D01*
X72082Y-59867D02*
X72250Y-59700D01*
X72053Y-59867D02*
X72082Y-59867D01*
G54D71*
X71325Y-59798D02*
X71325Y-59800D01*
X71659Y-59798D02*
X71325Y-59798D01*
G54D70*
X60431Y-44599D02*
X59840Y-44599D01*
X59840Y-44599D02*
X59840Y-44600D01*
X50970Y-63950D02*
X49970Y-63950D01*
X51970Y-63950D02*
X50970Y-63950D01*
X52970Y-63950D02*
X51970Y-63950D01*
X51601Y-37936D02*
X52095Y-37936D01*
X52095Y-37936D02*
X52488Y-37542D01*
X54250Y-37542D02*
X55402Y-37542D01*
X58551Y-37788D02*
X58798Y-37542D01*
X55648Y-37788D02*
X58551Y-37788D01*
X55402Y-37542D02*
X55648Y-37788D01*
X43729Y-24737D02*
X51114Y-24737D01*
X20097Y-58762D02*
X21140Y-58762D01*
X21392Y-58511D02*
X22700Y-58511D01*
X21140Y-58762D02*
X21392Y-58511D01*
G54D71*
X18837Y-57138D02*
X18837Y-57532D01*
X19467Y-57503D02*
X19467Y-57138D01*
X19349Y-57621D02*
X19467Y-57503D01*
X18925Y-57621D02*
X19349Y-57621D01*
X18837Y-57532D02*
X18925Y-57621D01*
G54D70*
X20402Y-54186D02*
X20402Y-54949D01*
X20402Y-54949D02*
X20406Y-54953D01*
X19108Y-54186D02*
X19112Y-54186D01*
X19107Y-53516D02*
X16652Y-53516D01*
X16652Y-53516D02*
X16337Y-53831D01*
X16337Y-53831D02*
X16337Y-58237D01*
X51947Y-55150D02*
X52646Y-55150D01*
X52646Y-55150D02*
X53093Y-54703D01*
X53093Y-54703D02*
X53093Y-53605D01*
X51947Y-56450D02*
X52813Y-56450D01*
X53093Y-56729D02*
X53093Y-57542D01*
X52813Y-56450D02*
X53093Y-56729D01*
X56396Y-47827D02*
X56662Y-47827D01*
G54D69*
X58109Y-47827D02*
X56662Y-47827D01*
G54D70*
X58950Y-43730D02*
X58950Y-46254D01*
X58950Y-43730D02*
X58520Y-43300D01*
X58520Y-43300D02*
X55350Y-43300D01*
X55350Y-43300D02*
X55050Y-43600D01*
X55050Y-43600D02*
X53550Y-43600D01*
X53550Y-43600D02*
X53305Y-43355D01*
X53305Y-42818D02*
X53305Y-43355D01*
X56396Y-46883D02*
X56396Y-47827D01*
X56396Y-47827D02*
X56396Y-49196D01*
X56672Y-46607D02*
X56396Y-46883D01*
X58596Y-46607D02*
X56672Y-46607D01*
X58950Y-46254D02*
X58596Y-46607D01*
X58109Y-47414D02*
X58109Y-47827D01*
X58109Y-47827D02*
X58109Y-48251D01*
G54D71*
X62400Y-48969D02*
X60599Y-48969D01*
X60599Y-48969D02*
X60510Y-48880D01*
X59900Y-48251D02*
X60432Y-48251D01*
X60432Y-48251D02*
X60510Y-48329D01*
X60510Y-48329D02*
X60510Y-48880D01*
X63168Y-48566D02*
X62636Y-48566D01*
X62636Y-48566D02*
X62400Y-48802D01*
X60510Y-48880D02*
X59900Y-48880D01*
X62400Y-48969D02*
X62400Y-48802D01*
G54D70*
X48420Y-48873D02*
X48420Y-49820D01*
X48420Y-49820D02*
X48414Y-49825D01*
X51406Y-45820D02*
X51406Y-44491D01*
X53551Y-44491D02*
X51406Y-44491D01*
X51406Y-44491D02*
X49053Y-44491D01*
X49053Y-44491D02*
X48748Y-44796D01*
X48748Y-44796D02*
X48748Y-45918D01*
G54D69*
X53581Y-47621D02*
X52745Y-47621D01*
G54D70*
X53778Y-47424D02*
X53581Y-47621D01*
X53778Y-44717D02*
X53778Y-47424D01*
X53551Y-44491D02*
X53778Y-44717D01*
X43729Y-26164D02*
X43729Y-24737D01*
X58798Y-37542D02*
X61514Y-37542D01*
X63161Y-39189D02*
X63161Y-39652D01*
X61514Y-37542D02*
X63161Y-39189D01*
X52600Y-41955D02*
X51593Y-41955D01*
X52488Y-37542D02*
X53069Y-37542D01*
X72168Y-43014D02*
X72794Y-43014D01*
X56396Y-49196D02*
X56396Y-49707D01*
X19378Y-31430D02*
X19378Y-31951D01*
X19388Y-31420D02*
X19378Y-31430D01*
X47675Y-46056D02*
X47675Y-46518D01*
X48748Y-45918D02*
X47813Y-45918D01*
X47813Y-45918D02*
X47675Y-46056D01*
X72420Y-46973D02*
X72420Y-46302D01*
X68758Y-46312D02*
X68758Y-46973D01*
X68768Y-46302D02*
X68758Y-46312D01*
X72420Y-46302D02*
X72420Y-46302D01*
X52600Y-41955D02*
X52600Y-42555D01*
X52600Y-42555D02*
X52862Y-42818D01*
X52862Y-42818D02*
X53305Y-42818D01*
X53069Y-37542D02*
X53656Y-37542D01*
X53656Y-37542D02*
X54250Y-37542D01*
X43431Y-27477D02*
X43431Y-26786D01*
X43431Y-26786D02*
X43729Y-26489D01*
X43729Y-26489D02*
X43729Y-26164D01*
X78069Y-60534D02*
X79595Y-60534D01*
X79595Y-60534D02*
X80461Y-59668D01*
X80461Y-59668D02*
X80461Y-54776D01*
X80461Y-54776D02*
X78069Y-52385D01*
X72420Y-47973D02*
X72420Y-48473D01*
X72420Y-47473D02*
X72420Y-47973D01*
X72420Y-46973D02*
X72420Y-47473D01*
X68758Y-47473D02*
X68758Y-46973D01*
X68758Y-47973D02*
X68758Y-47473D01*
X68758Y-48473D02*
X68758Y-47973D01*
X68758Y-48973D02*
X68758Y-48473D01*
X68758Y-48973D02*
X68191Y-48973D01*
X68059Y-48841D02*
X67646Y-48841D01*
X68191Y-48973D02*
X68059Y-48841D01*
X66219Y-48841D02*
X67646Y-48841D01*
G54D69*
X58109Y-48251D02*
X59899Y-48251D01*
G54D73*
X59899Y-48251D02*
X59900Y-48251D01*
G54D70*
X58069Y-50416D02*
X58896Y-50416D01*
X57203Y-49786D02*
X56849Y-49786D01*
X56849Y-49786D02*
X56770Y-49707D01*
X56770Y-49707D02*
X56396Y-49707D01*
G54D71*
X57203Y-49786D02*
X57479Y-49786D01*
X57764Y-50416D02*
X58069Y-50416D01*
G54D69*
X57636Y-50288D02*
X57764Y-50416D01*
X57636Y-49944D02*
X57636Y-50288D01*
X57479Y-49786D02*
X57636Y-49944D01*
G54D70*
X63161Y-39652D02*
X61786Y-39652D01*
X61786Y-39652D02*
X61534Y-39904D01*
X61534Y-39904D02*
X61534Y-40298D01*
X72794Y-43014D02*
X72794Y-41681D01*
X72794Y-41681D02*
X72749Y-41637D01*
X19108Y-54953D02*
X19108Y-54186D01*
X19108Y-54186D02*
X19108Y-53518D01*
X19108Y-53518D02*
X19107Y-53516D01*
G54D71*
X19467Y-56272D02*
X19467Y-55656D01*
G54D70*
X19108Y-55298D02*
X19108Y-54953D01*
X19467Y-55656D02*
X19108Y-55298D01*
X18522Y-58762D02*
X20097Y-58762D01*
G54D71*
X19467Y-57138D02*
X19467Y-56272D01*
X19467Y-57138D02*
X19782Y-57138D01*
G54D70*
X29910Y-25072D02*
X29910Y-25524D01*
X29910Y-25524D02*
X29910Y-26061D01*
X19378Y-33020D02*
X19378Y-31951D01*
X53656Y-27278D02*
X51114Y-24737D01*
X53656Y-37542D02*
X53656Y-27278D01*
G54D69*
X11800Y-58500D02*
X10375Y-58500D01*
X10375Y-58500D02*
X10000Y-58875D01*
X11800Y-58500D02*
X12175Y-58500D01*
X12175Y-58500D02*
X12550Y-58875D01*
X13925Y-61000D02*
X13575Y-61000D01*
X13275Y-59600D02*
X12550Y-58875D01*
X13275Y-60700D02*
X13275Y-59600D01*
X13575Y-61000D02*
X13275Y-60700D01*
X13925Y-60000D02*
X13925Y-55150D01*
X13650Y-54875D02*
X12550Y-54875D01*
X13925Y-55150D02*
X13650Y-54875D01*
X11800Y-54500D02*
X12175Y-54500D01*
X12175Y-54500D02*
X12550Y-54875D01*
X11800Y-54500D02*
X10375Y-54500D01*
X10375Y-54500D02*
X10000Y-54875D01*
X71954Y-60290D02*
X70778Y-60290D01*
X70778Y-60290D02*
X70775Y-60293D01*
X74031Y-57650D02*
X74031Y-58668D01*
X73590Y-59109D02*
X72545Y-59109D01*
X74031Y-58668D02*
X73590Y-59109D01*
X72348Y-59109D02*
X72151Y-59109D01*
X72545Y-59109D02*
X72348Y-59109D01*
X71954Y-59109D02*
X71954Y-58795D01*
X73025Y-58475D02*
X73025Y-58025D01*
X72850Y-58650D02*
X73025Y-58475D01*
X72100Y-58650D02*
X72850Y-58650D01*
X71954Y-58795D02*
X72100Y-58650D01*
X52970Y-63150D02*
X52970Y-62404D01*
X49970Y-63150D02*
X49970Y-62404D01*
X50970Y-63150D02*
X50970Y-62404D01*
X51970Y-63150D02*
X51970Y-62404D01*
X62904Y-60290D02*
X61728Y-60290D01*
X61728Y-60290D02*
X61725Y-60293D01*
X63495Y-59109D02*
X64715Y-59109D01*
X64981Y-58843D02*
X64981Y-57650D01*
X64715Y-59109D02*
X64981Y-58843D01*
X63298Y-59109D02*
X63495Y-59109D01*
X63101Y-59109D02*
X63298Y-59109D01*
X62904Y-59109D02*
X62904Y-58845D01*
X63975Y-58425D02*
X63975Y-58025D01*
X63725Y-58675D02*
X63975Y-58425D01*
X63075Y-58675D02*
X63725Y-58675D01*
X62904Y-58845D02*
X63075Y-58675D01*
X71948Y-29783D02*
X71948Y-31476D01*
X71948Y-31476D02*
X71437Y-31988D01*
X73492Y-29422D02*
X72309Y-29422D01*
X72309Y-29422D02*
X71948Y-29783D01*
X70845Y-26951D02*
X69957Y-26951D01*
X69957Y-26951D02*
X69507Y-27401D01*
X69507Y-27401D02*
X69507Y-31496D01*
X69507Y-31496D02*
X70000Y-31988D01*
X70000Y-31988D02*
X71437Y-31988D01*
X74750Y-29422D02*
X74750Y-27200D01*
X76250Y-25700D02*
X76250Y-23775D01*
X74750Y-27200D02*
X76250Y-25700D01*
X75204Y-31450D02*
X75204Y-31004D01*
X74750Y-30550D02*
X74750Y-29422D01*
X75204Y-31004D02*
X74750Y-30550D01*
X73492Y-29422D02*
X74750Y-29422D01*
X74750Y-29422D02*
X75992Y-29422D01*
X75654Y-22000D02*
X75654Y-22554D01*
X75654Y-22554D02*
X76250Y-23150D01*
X76250Y-23150D02*
X76250Y-23775D01*
G54D10*
G36*
X75322Y-30720D02*
X74192Y-30720D01*
X74192Y-30231D01*
X74192Y-28613D01*
X74147Y-28502D01*
X74063Y-28418D01*
X73952Y-28372D01*
X73833Y-28372D01*
X73622Y-28372D01*
X73547Y-28447D01*
X73547Y-29367D01*
X74117Y-29367D01*
X74192Y-29292D01*
X74192Y-28613D01*
X74192Y-30231D01*
X74192Y-29552D01*
X74117Y-29477D01*
X73547Y-29477D01*
X73547Y-30397D01*
X73622Y-30472D01*
X73833Y-30472D01*
X73952Y-30472D01*
X74063Y-30426D01*
X74147Y-30342D01*
X74192Y-30231D01*
X74192Y-30720D01*
X73437Y-30720D01*
X73437Y-30397D01*
X73437Y-29477D01*
X73437Y-29367D01*
X73437Y-28447D01*
X73362Y-28372D01*
X73152Y-28372D01*
X73032Y-28372D01*
X72922Y-28418D01*
X72838Y-28502D01*
X72792Y-28613D01*
X72792Y-29292D01*
X72867Y-29367D01*
X73437Y-29367D01*
X73437Y-29477D01*
X72867Y-29477D01*
X72792Y-29552D01*
X72792Y-30231D01*
X72838Y-30342D01*
X72922Y-30426D01*
X73032Y-30472D01*
X73152Y-30472D01*
X73362Y-30472D01*
X73437Y-30397D01*
X73437Y-30720D01*
X72950Y-30720D01*
X72950Y-33634D01*
X54792Y-33634D01*
X54792Y-24364D01*
X72949Y-24360D01*
X72949Y-27488D01*
X72902Y-27536D01*
X71543Y-27536D01*
X71543Y-27063D01*
X71533Y-26787D01*
X71448Y-26581D01*
X71329Y-26545D01*
X71251Y-26623D01*
X71251Y-26467D01*
X71215Y-26349D01*
X70956Y-26253D01*
X70680Y-26264D01*
X70475Y-26349D01*
X70438Y-26467D01*
X70845Y-26874D01*
X71251Y-26467D01*
X71251Y-26623D01*
X70923Y-26951D01*
X71329Y-27358D01*
X71448Y-27321D01*
X71543Y-27063D01*
X71543Y-27536D01*
X71355Y-27536D01*
X71210Y-27390D01*
X71203Y-27387D01*
X70845Y-27029D01*
X70767Y-27107D01*
X70767Y-26951D01*
X70360Y-26545D01*
X70242Y-26581D01*
X70146Y-26840D01*
X70157Y-27116D01*
X70242Y-27321D01*
X70360Y-27358D01*
X70767Y-26951D01*
X70767Y-27107D01*
X70487Y-27387D01*
X70481Y-27390D01*
X70299Y-27571D01*
X70201Y-27807D01*
X70201Y-28063D01*
X70299Y-28300D01*
X70427Y-28428D01*
X70299Y-28555D01*
X70201Y-28791D01*
X70201Y-29047D01*
X70299Y-29284D01*
X70427Y-29412D01*
X70299Y-29539D01*
X70201Y-29776D01*
X70201Y-30032D01*
X70299Y-30268D01*
X70427Y-30396D01*
X70299Y-30523D01*
X70201Y-30760D01*
X70201Y-31016D01*
X70299Y-31253D01*
X70480Y-31434D01*
X70716Y-31532D01*
X70972Y-31532D01*
X71209Y-31434D01*
X71390Y-31254D01*
X71488Y-31017D01*
X71489Y-30761D01*
X71391Y-30524D01*
X71263Y-30396D01*
X71390Y-30269D01*
X71488Y-30033D01*
X71489Y-29777D01*
X71391Y-29540D01*
X71263Y-29412D01*
X71390Y-29285D01*
X71488Y-29049D01*
X71489Y-28792D01*
X71391Y-28556D01*
X71263Y-28428D01*
X71355Y-28336D01*
X73067Y-28336D01*
X73067Y-28336D01*
X73195Y-28310D01*
X73220Y-28305D01*
X73220Y-28305D01*
X73350Y-28219D01*
X73428Y-28140D01*
X75322Y-28143D01*
X75322Y-28990D01*
X75292Y-29063D01*
X75292Y-29292D01*
X75322Y-29322D01*
X75322Y-29522D01*
X75292Y-29552D01*
X75292Y-29781D01*
X75322Y-29854D01*
X75322Y-30720D01*
X75322Y-30720D01*
G37*
G54D69*
X75322Y-30720D02*
X74192Y-30720D01*
X74192Y-30231D01*
X74192Y-28613D01*
X74147Y-28502D01*
X74063Y-28418D01*
X73952Y-28372D01*
X73833Y-28372D01*
X73622Y-28372D01*
X73547Y-28447D01*
X73547Y-29367D01*
X74117Y-29367D01*
X74192Y-29292D01*
X74192Y-28613D01*
X74192Y-30231D01*
X74192Y-29552D01*
X74117Y-29477D01*
X73547Y-29477D01*
X73547Y-30397D01*
X73622Y-30472D01*
X73833Y-30472D01*
X73952Y-30472D01*
X74063Y-30426D01*
X74147Y-30342D01*
X74192Y-30231D01*
X74192Y-30720D01*
X73437Y-30720D01*
X73437Y-30397D01*
X73437Y-29477D01*
X73437Y-29367D01*
X73437Y-28447D01*
X73362Y-28372D01*
X73152Y-28372D01*
X73032Y-28372D01*
X72922Y-28418D01*
X72838Y-28502D01*
X72792Y-28613D01*
X72792Y-29292D01*
X72867Y-29367D01*
X73437Y-29367D01*
X73437Y-29477D01*
X72867Y-29477D01*
X72792Y-29552D01*
X72792Y-30231D01*
X72838Y-30342D01*
X72922Y-30426D01*
X73032Y-30472D01*
X73152Y-30472D01*
X73362Y-30472D01*
X73437Y-30397D01*
X73437Y-30720D01*
X72950Y-30720D01*
X72950Y-33634D01*
X54792Y-33634D01*
X54792Y-24364D01*
X72949Y-24360D01*
X72949Y-27488D01*
X72902Y-27536D01*
X71543Y-27536D01*
X71543Y-27063D01*
X71533Y-26787D01*
X71448Y-26581D01*
X71329Y-26545D01*
X71251Y-26623D01*
X71251Y-26467D01*
X71215Y-26349D01*
X70956Y-26253D01*
X70680Y-26264D01*
X70475Y-26349D01*
X70438Y-26467D01*
X70845Y-26874D01*
X71251Y-26467D01*
X71251Y-26623D01*
X70923Y-26951D01*
X71329Y-27358D01*
X71448Y-27321D01*
X71543Y-27063D01*
X71543Y-27536D01*
X71355Y-27536D01*
X71210Y-27390D01*
X71203Y-27387D01*
X70845Y-27029D01*
X70767Y-27107D01*
X70767Y-26951D01*
X70360Y-26545D01*
X70242Y-26581D01*
X70146Y-26840D01*
X70157Y-27116D01*
X70242Y-27321D01*
X70360Y-27358D01*
X70767Y-26951D01*
X70767Y-27107D01*
X70487Y-27387D01*
X70481Y-27390D01*
X70299Y-27571D01*
X70201Y-27807D01*
X70201Y-28063D01*
X70299Y-28300D01*
X70427Y-28428D01*
X70299Y-28555D01*
X70201Y-28791D01*
X70201Y-29047D01*
X70299Y-29284D01*
X70427Y-29412D01*
X70299Y-29539D01*
X70201Y-29776D01*
X70201Y-30032D01*
X70299Y-30268D01*
X70427Y-30396D01*
X70299Y-30523D01*
X70201Y-30760D01*
X70201Y-31016D01*
X70299Y-31253D01*
X70480Y-31434D01*
X70716Y-31532D01*
X70972Y-31532D01*
X71209Y-31434D01*
X71390Y-31254D01*
X71488Y-31017D01*
X71489Y-30761D01*
X71391Y-30524D01*
X71263Y-30396D01*
X71390Y-30269D01*
X71488Y-30033D01*
X71489Y-29777D01*
X71391Y-29540D01*
X71263Y-29412D01*
X71390Y-29285D01*
X71488Y-29049D01*
X71489Y-28792D01*
X71391Y-28556D01*
X71263Y-28428D01*
X71355Y-28336D01*
X73067Y-28336D01*
X73067Y-28336D01*
X73195Y-28310D01*
X73220Y-28305D01*
X73220Y-28305D01*
X73350Y-28219D01*
X73428Y-28140D01*
X75322Y-28143D01*
X75322Y-28990D01*
X75292Y-29063D01*
X75292Y-29292D01*
X75322Y-29322D01*
X75322Y-29522D01*
X75292Y-29552D01*
X75292Y-29781D01*
X75322Y-29854D01*
X75322Y-30720D01*
G54D10*
G36*
X35930Y-34550D02*
X33070Y-34550D01*
X33070Y-23990D01*
X32956Y-23715D01*
X32745Y-23503D01*
X32469Y-23389D01*
X32171Y-23389D01*
X31895Y-23503D01*
X31684Y-23713D01*
X31570Y-23989D01*
X31569Y-24287D01*
X31683Y-24563D01*
X31894Y-24774D01*
X32170Y-24889D01*
X32468Y-24889D01*
X32744Y-24775D01*
X32955Y-24564D01*
X33069Y-24289D01*
X33070Y-23990D01*
X33070Y-34550D01*
X30610Y-34550D01*
X30610Y-27321D01*
X30610Y-27091D01*
X30535Y-27016D01*
X29965Y-27016D01*
X29965Y-27024D01*
X29855Y-27024D01*
X29855Y-27016D01*
X29285Y-27016D01*
X29210Y-27091D01*
X29210Y-27321D01*
X29255Y-27431D01*
X29282Y-27458D01*
X29260Y-27511D01*
X29260Y-27611D01*
X29260Y-28211D01*
X29298Y-28303D01*
X29368Y-28373D01*
X29460Y-28411D01*
X29559Y-28411D01*
X29610Y-28411D01*
X29610Y-28511D01*
X29550Y-28571D01*
X29485Y-28727D01*
X29485Y-28896D01*
X29549Y-29052D01*
X29669Y-29172D01*
X29825Y-29237D01*
X29994Y-29237D01*
X30150Y-29172D01*
X30270Y-29053D01*
X30335Y-28897D01*
X30335Y-28728D01*
X30270Y-28571D01*
X30210Y-28511D01*
X30210Y-28411D01*
X30359Y-28411D01*
X30451Y-28373D01*
X30522Y-28303D01*
X30560Y-28211D01*
X30560Y-28112D01*
X30560Y-27512D01*
X30537Y-27458D01*
X30564Y-27431D01*
X30610Y-27321D01*
X30610Y-34550D01*
X28110Y-34550D01*
X28110Y-27771D01*
X28110Y-26152D01*
X28064Y-26042D01*
X27980Y-25957D01*
X27870Y-25911D01*
X27750Y-25911D01*
X27540Y-25911D01*
X27465Y-25986D01*
X27465Y-26906D01*
X28035Y-26906D01*
X28110Y-26831D01*
X28110Y-26152D01*
X28110Y-27771D01*
X28110Y-27091D01*
X28035Y-27016D01*
X27465Y-27016D01*
X27465Y-27936D01*
X27540Y-28011D01*
X27750Y-28011D01*
X27870Y-28011D01*
X27980Y-27965D01*
X28064Y-27881D01*
X28110Y-27771D01*
X28110Y-34550D01*
X27355Y-34550D01*
X27355Y-27936D01*
X27355Y-27016D01*
X27355Y-26906D01*
X27355Y-25986D01*
X27280Y-25911D01*
X27069Y-25911D01*
X26950Y-25911D01*
X26840Y-25957D01*
X26755Y-26042D01*
X26710Y-26152D01*
X26710Y-26831D01*
X26785Y-26906D01*
X27355Y-26906D01*
X27355Y-27016D01*
X26785Y-27016D01*
X26710Y-27091D01*
X26710Y-27771D01*
X26755Y-27881D01*
X26840Y-27965D01*
X26950Y-28011D01*
X27069Y-28011D01*
X27280Y-28011D01*
X27355Y-27936D01*
X27355Y-34550D01*
X26670Y-34550D01*
X26670Y-24170D01*
X26556Y-23895D01*
X26345Y-23683D01*
X26069Y-23569D01*
X25771Y-23569D01*
X25570Y-23652D01*
X25579Y-23628D01*
X25568Y-23368D01*
X25490Y-23180D01*
X25375Y-23148D01*
X25298Y-23226D01*
X24997Y-23526D01*
X25003Y-23532D01*
X24925Y-23610D01*
X24920Y-23604D01*
X24542Y-23982D01*
X24573Y-24096D01*
X24818Y-24186D01*
X25078Y-24174D01*
X25186Y-24130D01*
X25170Y-24169D01*
X25169Y-24467D01*
X25283Y-24743D01*
X25494Y-24954D01*
X25770Y-25069D01*
X26068Y-25069D01*
X26344Y-24955D01*
X26555Y-24744D01*
X26669Y-24469D01*
X26670Y-24170D01*
X26670Y-34550D01*
X23094Y-34550D01*
X23094Y-24078D01*
X23094Y-23656D01*
X23019Y-23581D01*
X22514Y-23581D01*
X22514Y-24243D01*
X22589Y-24318D01*
X22734Y-24318D01*
X22854Y-24318D01*
X22964Y-24273D01*
X23048Y-24188D01*
X23094Y-24078D01*
X23094Y-34550D01*
X22040Y-34550D01*
X22040Y-24308D01*
X22064Y-24318D01*
X22184Y-24318D01*
X22329Y-24318D01*
X22404Y-24243D01*
X22404Y-23581D01*
X22396Y-23581D01*
X22396Y-23471D01*
X22404Y-23471D01*
X22404Y-23463D01*
X22514Y-23463D01*
X22514Y-23471D01*
X23019Y-23471D01*
X23094Y-23396D01*
X23094Y-22975D01*
X23048Y-22864D01*
X22973Y-22790D01*
X23427Y-22790D01*
X23410Y-22807D01*
X23464Y-22861D01*
X23349Y-22893D01*
X23260Y-23137D01*
X23271Y-23397D01*
X23349Y-23585D01*
X23464Y-23617D01*
X23842Y-23239D01*
X23836Y-23233D01*
X23914Y-23156D01*
X23920Y-23161D01*
X23925Y-23156D01*
X24003Y-23233D01*
X23997Y-23239D01*
X24003Y-23244D01*
X23925Y-23322D01*
X23920Y-23317D01*
X23842Y-23394D01*
X23542Y-23695D01*
X23573Y-23809D01*
X23818Y-23898D01*
X24078Y-23887D01*
X24266Y-23809D01*
X24289Y-23726D01*
X24349Y-23873D01*
X24464Y-23904D01*
X24842Y-23526D01*
X24836Y-23521D01*
X24914Y-23443D01*
X24920Y-23448D01*
X25298Y-23070D01*
X25266Y-22956D01*
X25021Y-22867D01*
X24761Y-22878D01*
X24573Y-22956D01*
X24550Y-23039D01*
X24490Y-22893D01*
X24375Y-22861D01*
X24430Y-22807D01*
X24412Y-22790D01*
X29243Y-22790D01*
X29244Y-22789D01*
X30218Y-22789D01*
X30218Y-24550D01*
X30186Y-24536D01*
X30087Y-24536D01*
X29634Y-24536D01*
X29542Y-24574D01*
X29472Y-24644D01*
X29433Y-24736D01*
X29433Y-24836D01*
X29433Y-25406D01*
X29471Y-25498D01*
X29484Y-25511D01*
X29460Y-25511D01*
X29368Y-25549D01*
X29298Y-25620D01*
X29260Y-25711D01*
X29260Y-25811D01*
X29260Y-26411D01*
X29282Y-26465D01*
X29255Y-26492D01*
X29210Y-26602D01*
X29210Y-26831D01*
X29285Y-26906D01*
X29855Y-26906D01*
X29855Y-26898D01*
X29965Y-26898D01*
X29965Y-26906D01*
X30535Y-26906D01*
X30610Y-26831D01*
X30610Y-26602D01*
X30564Y-26492D01*
X30537Y-26465D01*
X30560Y-26411D01*
X30560Y-26312D01*
X30560Y-25712D01*
X30522Y-25620D01*
X30509Y-25607D01*
X30894Y-25607D01*
X30986Y-25569D01*
X31057Y-25499D01*
X31095Y-25407D01*
X31095Y-25307D01*
X31095Y-24737D01*
X31057Y-24645D01*
X31018Y-24606D01*
X31018Y-22788D01*
X35930Y-22787D01*
X35930Y-34550D01*
X35930Y-34550D01*
G37*
G54D69*
X35930Y-34550D02*
X33070Y-34550D01*
X33070Y-23990D01*
X32956Y-23715D01*
X32745Y-23503D01*
X32469Y-23389D01*
X32171Y-23389D01*
X31895Y-23503D01*
X31684Y-23713D01*
X31570Y-23989D01*
X31569Y-24287D01*
X31683Y-24563D01*
X31894Y-24774D01*
X32170Y-24889D01*
X32468Y-24889D01*
X32744Y-24775D01*
X32955Y-24564D01*
X33069Y-24289D01*
X33070Y-23990D01*
X33070Y-34550D01*
X30610Y-34550D01*
X30610Y-27321D01*
X30610Y-27091D01*
X30535Y-27016D01*
X29965Y-27016D01*
X29965Y-27024D01*
X29855Y-27024D01*
X29855Y-27016D01*
X29285Y-27016D01*
X29210Y-27091D01*
X29210Y-27321D01*
X29255Y-27431D01*
X29282Y-27458D01*
X29260Y-27511D01*
X29260Y-27611D01*
X29260Y-28211D01*
X29298Y-28303D01*
X29368Y-28373D01*
X29460Y-28411D01*
X29559Y-28411D01*
X29610Y-28411D01*
X29610Y-28511D01*
X29550Y-28571D01*
X29485Y-28727D01*
X29485Y-28896D01*
X29549Y-29052D01*
X29669Y-29172D01*
X29825Y-29237D01*
X29994Y-29237D01*
X30150Y-29172D01*
X30270Y-29053D01*
X30335Y-28897D01*
X30335Y-28728D01*
X30270Y-28571D01*
X30210Y-28511D01*
X30210Y-28411D01*
X30359Y-28411D01*
X30451Y-28373D01*
X30522Y-28303D01*
X30560Y-28211D01*
X30560Y-28112D01*
X30560Y-27512D01*
X30537Y-27458D01*
X30564Y-27431D01*
X30610Y-27321D01*
X30610Y-34550D01*
X28110Y-34550D01*
X28110Y-27771D01*
X28110Y-26152D01*
X28064Y-26042D01*
X27980Y-25957D01*
X27870Y-25911D01*
X27750Y-25911D01*
X27540Y-25911D01*
X27465Y-25986D01*
X27465Y-26906D01*
X28035Y-26906D01*
X28110Y-26831D01*
X28110Y-26152D01*
X28110Y-27771D01*
X28110Y-27091D01*
X28035Y-27016D01*
X27465Y-27016D01*
X27465Y-27936D01*
X27540Y-28011D01*
X27750Y-28011D01*
X27870Y-28011D01*
X27980Y-27965D01*
X28064Y-27881D01*
X28110Y-27771D01*
X28110Y-34550D01*
X27355Y-34550D01*
X27355Y-27936D01*
X27355Y-27016D01*
X27355Y-26906D01*
X27355Y-25986D01*
X27280Y-25911D01*
X27069Y-25911D01*
X26950Y-25911D01*
X26840Y-25957D01*
X26755Y-26042D01*
X26710Y-26152D01*
X26710Y-26831D01*
X26785Y-26906D01*
X27355Y-26906D01*
X27355Y-27016D01*
X26785Y-27016D01*
X26710Y-27091D01*
X26710Y-27771D01*
X26755Y-27881D01*
X26840Y-27965D01*
X26950Y-28011D01*
X27069Y-28011D01*
X27280Y-28011D01*
X27355Y-27936D01*
X27355Y-34550D01*
X26670Y-34550D01*
X26670Y-24170D01*
X26556Y-23895D01*
X26345Y-23683D01*
X26069Y-23569D01*
X25771Y-23569D01*
X25570Y-23652D01*
X25579Y-23628D01*
X25568Y-23368D01*
X25490Y-23180D01*
X25375Y-23148D01*
X25298Y-23226D01*
X24997Y-23526D01*
X25003Y-23532D01*
X24925Y-23610D01*
X24920Y-23604D01*
X24542Y-23982D01*
X24573Y-24096D01*
X24818Y-24186D01*
X25078Y-24174D01*
X25186Y-24130D01*
X25170Y-24169D01*
X25169Y-24467D01*
X25283Y-24743D01*
X25494Y-24954D01*
X25770Y-25069D01*
X26068Y-25069D01*
X26344Y-24955D01*
X26555Y-24744D01*
X26669Y-24469D01*
X26670Y-24170D01*
X26670Y-34550D01*
X23094Y-34550D01*
X23094Y-24078D01*
X23094Y-23656D01*
X23019Y-23581D01*
X22514Y-23581D01*
X22514Y-24243D01*
X22589Y-24318D01*
X22734Y-24318D01*
X22854Y-24318D01*
X22964Y-24273D01*
X23048Y-24188D01*
X23094Y-24078D01*
X23094Y-34550D01*
X22040Y-34550D01*
X22040Y-24308D01*
X22064Y-24318D01*
X22184Y-24318D01*
X22329Y-24318D01*
X22404Y-24243D01*
X22404Y-23581D01*
X22396Y-23581D01*
X22396Y-23471D01*
X22404Y-23471D01*
X22404Y-23463D01*
X22514Y-23463D01*
X22514Y-23471D01*
X23019Y-23471D01*
X23094Y-23396D01*
X23094Y-22975D01*
X23048Y-22864D01*
X22973Y-22790D01*
X23427Y-22790D01*
X23410Y-22807D01*
X23464Y-22861D01*
X23349Y-22893D01*
X23260Y-23137D01*
X23271Y-23397D01*
X23349Y-23585D01*
X23464Y-23617D01*
X23842Y-23239D01*
X23836Y-23233D01*
X23914Y-23156D01*
X23920Y-23161D01*
X23925Y-23156D01*
X24003Y-23233D01*
X23997Y-23239D01*
X24003Y-23244D01*
X23925Y-23322D01*
X23920Y-23317D01*
X23842Y-23394D01*
X23542Y-23695D01*
X23573Y-23809D01*
X23818Y-23898D01*
X24078Y-23887D01*
X24266Y-23809D01*
X24289Y-23726D01*
X24349Y-23873D01*
X24464Y-23904D01*
X24842Y-23526D01*
X24836Y-23521D01*
X24914Y-23443D01*
X24920Y-23448D01*
X25298Y-23070D01*
X25266Y-22956D01*
X25021Y-22867D01*
X24761Y-22878D01*
X24573Y-22956D01*
X24550Y-23039D01*
X24490Y-22893D01*
X24375Y-22861D01*
X24430Y-22807D01*
X24412Y-22790D01*
X29243Y-22790D01*
X29244Y-22789D01*
X30218Y-22789D01*
X30218Y-24550D01*
X30186Y-24536D01*
X30087Y-24536D01*
X29634Y-24536D01*
X29542Y-24574D01*
X29472Y-24644D01*
X29433Y-24736D01*
X29433Y-24836D01*
X29433Y-25406D01*
X29471Y-25498D01*
X29484Y-25511D01*
X29460Y-25511D01*
X29368Y-25549D01*
X29298Y-25620D01*
X29260Y-25711D01*
X29260Y-25811D01*
X29260Y-26411D01*
X29282Y-26465D01*
X29255Y-26492D01*
X29210Y-26602D01*
X29210Y-26831D01*
X29285Y-26906D01*
X29855Y-26906D01*
X29855Y-26898D01*
X29965Y-26898D01*
X29965Y-26906D01*
X30535Y-26906D01*
X30610Y-26831D01*
X30610Y-26602D01*
X30564Y-26492D01*
X30537Y-26465D01*
X30560Y-26411D01*
X30560Y-26312D01*
X30560Y-25712D01*
X30522Y-25620D01*
X30509Y-25607D01*
X30894Y-25607D01*
X30986Y-25569D01*
X31057Y-25499D01*
X31095Y-25407D01*
X31095Y-25307D01*
X31095Y-24737D01*
X31057Y-24645D01*
X31018Y-24606D01*
X31018Y-22788D01*
X35930Y-22787D01*
X35930Y-34550D01*
G54D10*
G36*
X18709Y-19872D02*
X18709Y-27221D01*
X14744Y-27221D01*
X14690Y-27166D01*
X14690Y-26908D01*
X14690Y-26908D01*
X14659Y-26755D01*
X14659Y-26755D01*
X14607Y-26676D01*
X14607Y-26676D01*
X14607Y-26575D01*
X14607Y-26575D01*
X14650Y-26510D01*
X14679Y-26467D01*
X14679Y-26467D01*
X14709Y-26314D01*
X14709Y-26314D01*
X14709Y-24062D01*
X14831Y-24062D01*
X14923Y-24024D01*
X14994Y-23954D01*
X15032Y-23862D01*
X15032Y-23762D01*
X15032Y-23093D01*
X14994Y-23001D01*
X14924Y-22931D01*
X14832Y-22892D01*
X14732Y-22892D01*
X13748Y-22892D01*
X13656Y-22930D01*
X13586Y-23001D01*
X13548Y-23092D01*
X13547Y-23192D01*
X13547Y-23861D01*
X13585Y-23953D01*
X13656Y-24024D01*
X13748Y-24062D01*
X13847Y-24062D01*
X13909Y-24062D01*
X13909Y-26016D01*
X13883Y-26016D01*
X13660Y-26108D01*
X13511Y-26257D01*
X13507Y-26256D01*
X13507Y-23752D01*
X13507Y-23202D01*
X13507Y-23082D01*
X13461Y-22972D01*
X13377Y-22888D01*
X13266Y-22842D01*
X12845Y-22842D01*
X12770Y-22917D01*
X12770Y-23422D01*
X13432Y-23422D01*
X13507Y-23347D01*
X13507Y-23202D01*
X13507Y-23752D01*
X13507Y-23607D01*
X13432Y-23532D01*
X12770Y-23532D01*
X12770Y-24037D01*
X12845Y-24112D01*
X13266Y-24112D01*
X13377Y-24066D01*
X13461Y-23982D01*
X13507Y-23872D01*
X13507Y-23752D01*
X13507Y-26256D01*
X13458Y-26243D01*
X13380Y-26321D01*
X13380Y-26165D01*
X13349Y-26051D01*
X13104Y-25961D01*
X12844Y-25973D01*
X12660Y-26049D01*
X12660Y-24037D01*
X12660Y-23532D01*
X12660Y-23422D01*
X12660Y-22917D01*
X12585Y-22842D01*
X12163Y-22842D01*
X12053Y-22888D01*
X11969Y-22972D01*
X11923Y-23082D01*
X11923Y-23202D01*
X11923Y-23347D01*
X11998Y-23422D01*
X12660Y-23422D01*
X12660Y-23532D01*
X11998Y-23532D01*
X11923Y-23607D01*
X11923Y-23752D01*
X11923Y-23872D01*
X11969Y-23982D01*
X12053Y-24066D01*
X12163Y-24112D01*
X12585Y-24112D01*
X12660Y-24037D01*
X12660Y-26049D01*
X12656Y-26051D01*
X12624Y-26165D01*
X13002Y-26543D01*
X13380Y-26165D01*
X13380Y-26321D01*
X13080Y-26621D01*
X13458Y-26999D01*
X13511Y-26984D01*
X13659Y-27133D01*
X13846Y-27210D01*
X13778Y-27278D01*
X13685Y-27500D01*
X13685Y-27740D01*
X13777Y-27963D01*
X13947Y-28133D01*
X14169Y-28225D01*
X14409Y-28225D01*
X14440Y-28213D01*
X14332Y-28471D01*
X14332Y-28769D01*
X14446Y-29045D01*
X14657Y-29256D01*
X14932Y-29371D01*
X15231Y-29371D01*
X15507Y-29257D01*
X15718Y-29046D01*
X15832Y-28771D01*
X15832Y-28472D01*
X15718Y-28196D01*
X15543Y-28021D01*
X18709Y-28021D01*
X18708Y-33488D01*
X18678Y-33561D01*
X18678Y-33790D01*
X18708Y-33820D01*
X18708Y-33920D01*
X18708Y-34020D01*
X18678Y-34050D01*
X18678Y-34279D01*
X18708Y-34352D01*
X18709Y-41131D01*
X17578Y-41131D01*
X17578Y-34729D01*
X17578Y-33111D01*
X17533Y-33000D01*
X17448Y-32916D01*
X17338Y-32870D01*
X17219Y-32870D01*
X17008Y-32870D01*
X16933Y-32945D01*
X16933Y-33865D01*
X17503Y-33865D01*
X17578Y-33790D01*
X17578Y-33111D01*
X17578Y-34729D01*
X17578Y-34050D01*
X17503Y-33975D01*
X16933Y-33975D01*
X16933Y-34895D01*
X17008Y-34970D01*
X17219Y-34970D01*
X17338Y-34970D01*
X17448Y-34924D01*
X17533Y-34840D01*
X17578Y-34729D01*
X17578Y-41131D01*
X16823Y-41131D01*
X16823Y-34895D01*
X16823Y-33975D01*
X16823Y-33865D01*
X16823Y-32945D01*
X16748Y-32870D01*
X16538Y-32870D01*
X16418Y-32870D01*
X16308Y-32916D01*
X16224Y-33000D01*
X16178Y-33111D01*
X16178Y-33790D01*
X16253Y-33865D01*
X16823Y-33865D01*
X16823Y-33975D01*
X16253Y-33975D01*
X16178Y-34050D01*
X16178Y-34729D01*
X16224Y-34840D01*
X16308Y-34924D01*
X16418Y-34970D01*
X16538Y-34970D01*
X16748Y-34970D01*
X16823Y-34895D01*
X16823Y-41131D01*
X15652Y-41131D01*
X15652Y-34872D01*
X15538Y-34596D01*
X15328Y-34385D01*
X15052Y-34271D01*
X14754Y-34271D01*
X14478Y-34385D01*
X14267Y-34595D01*
X14152Y-34871D01*
X14152Y-35169D01*
X14266Y-35445D01*
X14477Y-35656D01*
X14752Y-35771D01*
X15051Y-35771D01*
X15327Y-35657D01*
X15538Y-35446D01*
X15652Y-35171D01*
X15652Y-34872D01*
X15652Y-41131D01*
X13380Y-41131D01*
X13380Y-27077D01*
X13002Y-26699D01*
X12997Y-26704D01*
X12919Y-26626D01*
X12924Y-26621D01*
X12546Y-26243D01*
X12432Y-26274D01*
X12343Y-26519D01*
X12354Y-26779D01*
X12432Y-26967D01*
X12515Y-26990D01*
X12369Y-27051D01*
X12337Y-27165D01*
X12715Y-27543D01*
X12720Y-27537D01*
X12798Y-27615D01*
X12793Y-27621D01*
X13171Y-27999D01*
X13285Y-27967D01*
X13374Y-27722D01*
X13363Y-27462D01*
X13285Y-27274D01*
X13202Y-27252D01*
X13349Y-27191D01*
X13380Y-27077D01*
X13380Y-41131D01*
X13093Y-41131D01*
X13093Y-28077D01*
X12715Y-27699D01*
X12709Y-27704D01*
X12632Y-27626D01*
X12637Y-27621D01*
X12259Y-27243D01*
X12145Y-27274D01*
X12056Y-27519D01*
X12067Y-27779D01*
X12112Y-27887D01*
X12072Y-27871D01*
X11774Y-27871D01*
X11498Y-27985D01*
X11287Y-28195D01*
X11172Y-28471D01*
X11172Y-28769D01*
X11286Y-29045D01*
X11497Y-29256D01*
X11772Y-29371D01*
X12071Y-29371D01*
X12347Y-29257D01*
X12558Y-29046D01*
X12672Y-28771D01*
X12672Y-28472D01*
X12589Y-28271D01*
X12613Y-28280D01*
X12873Y-28269D01*
X13061Y-28191D01*
X13093Y-28077D01*
X13093Y-41131D01*
X12852Y-41131D01*
X12852Y-34872D01*
X12738Y-34596D01*
X12528Y-34385D01*
X12252Y-34271D01*
X11954Y-34271D01*
X11678Y-34385D01*
X11467Y-34595D01*
X11352Y-34871D01*
X11352Y-35169D01*
X11466Y-35445D01*
X11677Y-35656D01*
X11952Y-35771D01*
X12251Y-35771D01*
X12527Y-35657D01*
X12738Y-35446D01*
X12852Y-35171D01*
X12852Y-34872D01*
X12852Y-41131D01*
X12077Y-41131D01*
X12077Y-37280D01*
X8364Y-34000D01*
X8364Y-21737D01*
X8434Y-21906D01*
X8841Y-22314D01*
X9374Y-22535D01*
X9951Y-22536D01*
X10484Y-22315D01*
X10892Y-21908D01*
X11113Y-21375D01*
X11114Y-20798D01*
X10894Y-20265D01*
X10502Y-19872D01*
X18709Y-19872D01*
X18709Y-19872D01*
G37*
G54D69*
X18709Y-19872D02*
X18709Y-27221D01*
X14744Y-27221D01*
X14690Y-27166D01*
X14690Y-26908D01*
X14690Y-26908D01*
X14659Y-26755D01*
X14659Y-26755D01*
X14607Y-26676D01*
X14607Y-26676D01*
X14607Y-26575D01*
X14607Y-26575D01*
X14650Y-26510D01*
X14679Y-26467D01*
X14679Y-26467D01*
X14709Y-26314D01*
X14709Y-26314D01*
X14709Y-24062D01*
X14831Y-24062D01*
X14923Y-24024D01*
X14994Y-23954D01*
X15032Y-23862D01*
X15032Y-23762D01*
X15032Y-23093D01*
X14994Y-23001D01*
X14924Y-22931D01*
X14832Y-22892D01*
X14732Y-22892D01*
X13748Y-22892D01*
X13656Y-22930D01*
X13586Y-23001D01*
X13548Y-23092D01*
X13547Y-23192D01*
X13547Y-23861D01*
X13585Y-23953D01*
X13656Y-24024D01*
X13748Y-24062D01*
X13847Y-24062D01*
X13909Y-24062D01*
X13909Y-26016D01*
X13883Y-26016D01*
X13660Y-26108D01*
X13511Y-26257D01*
X13507Y-26256D01*
X13507Y-23752D01*
X13507Y-23202D01*
X13507Y-23082D01*
X13461Y-22972D01*
X13377Y-22888D01*
X13266Y-22842D01*
X12845Y-22842D01*
X12770Y-22917D01*
X12770Y-23422D01*
X13432Y-23422D01*
X13507Y-23347D01*
X13507Y-23202D01*
X13507Y-23752D01*
X13507Y-23607D01*
X13432Y-23532D01*
X12770Y-23532D01*
X12770Y-24037D01*
X12845Y-24112D01*
X13266Y-24112D01*
X13377Y-24066D01*
X13461Y-23982D01*
X13507Y-23872D01*
X13507Y-23752D01*
X13507Y-26256D01*
X13458Y-26243D01*
X13380Y-26321D01*
X13380Y-26165D01*
X13349Y-26051D01*
X13104Y-25961D01*
X12844Y-25973D01*
X12660Y-26049D01*
X12660Y-24037D01*
X12660Y-23532D01*
X12660Y-23422D01*
X12660Y-22917D01*
X12585Y-22842D01*
X12163Y-22842D01*
X12053Y-22888D01*
X11969Y-22972D01*
X11923Y-23082D01*
X11923Y-23202D01*
X11923Y-23347D01*
X11998Y-23422D01*
X12660Y-23422D01*
X12660Y-23532D01*
X11998Y-23532D01*
X11923Y-23607D01*
X11923Y-23752D01*
X11923Y-23872D01*
X11969Y-23982D01*
X12053Y-24066D01*
X12163Y-24112D01*
X12585Y-24112D01*
X12660Y-24037D01*
X12660Y-26049D01*
X12656Y-26051D01*
X12624Y-26165D01*
X13002Y-26543D01*
X13380Y-26165D01*
X13380Y-26321D01*
X13080Y-26621D01*
X13458Y-26999D01*
X13511Y-26984D01*
X13659Y-27133D01*
X13846Y-27210D01*
X13778Y-27278D01*
X13685Y-27500D01*
X13685Y-27740D01*
X13777Y-27963D01*
X13947Y-28133D01*
X14169Y-28225D01*
X14409Y-28225D01*
X14440Y-28213D01*
X14332Y-28471D01*
X14332Y-28769D01*
X14446Y-29045D01*
X14657Y-29256D01*
X14932Y-29371D01*
X15231Y-29371D01*
X15507Y-29257D01*
X15718Y-29046D01*
X15832Y-28771D01*
X15832Y-28472D01*
X15718Y-28196D01*
X15543Y-28021D01*
X18709Y-28021D01*
X18708Y-33488D01*
X18678Y-33561D01*
X18678Y-33790D01*
X18708Y-33820D01*
X18708Y-33920D01*
X18708Y-34020D01*
X18678Y-34050D01*
X18678Y-34279D01*
X18708Y-34352D01*
X18709Y-41131D01*
X17578Y-41131D01*
X17578Y-34729D01*
X17578Y-33111D01*
X17533Y-33000D01*
X17448Y-32916D01*
X17338Y-32870D01*
X17219Y-32870D01*
X17008Y-32870D01*
X16933Y-32945D01*
X16933Y-33865D01*
X17503Y-33865D01*
X17578Y-33790D01*
X17578Y-33111D01*
X17578Y-34729D01*
X17578Y-34050D01*
X17503Y-33975D01*
X16933Y-33975D01*
X16933Y-34895D01*
X17008Y-34970D01*
X17219Y-34970D01*
X17338Y-34970D01*
X17448Y-34924D01*
X17533Y-34840D01*
X17578Y-34729D01*
X17578Y-41131D01*
X16823Y-41131D01*
X16823Y-34895D01*
X16823Y-33975D01*
X16823Y-33865D01*
X16823Y-32945D01*
X16748Y-32870D01*
X16538Y-32870D01*
X16418Y-32870D01*
X16308Y-32916D01*
X16224Y-33000D01*
X16178Y-33111D01*
X16178Y-33790D01*
X16253Y-33865D01*
X16823Y-33865D01*
X16823Y-33975D01*
X16253Y-33975D01*
X16178Y-34050D01*
X16178Y-34729D01*
X16224Y-34840D01*
X16308Y-34924D01*
X16418Y-34970D01*
X16538Y-34970D01*
X16748Y-34970D01*
X16823Y-34895D01*
X16823Y-41131D01*
X15652Y-41131D01*
X15652Y-34872D01*
X15538Y-34596D01*
X15328Y-34385D01*
X15052Y-34271D01*
X14754Y-34271D01*
X14478Y-34385D01*
X14267Y-34595D01*
X14152Y-34871D01*
X14152Y-35169D01*
X14266Y-35445D01*
X14477Y-35656D01*
X14752Y-35771D01*
X15051Y-35771D01*
X15327Y-35657D01*
X15538Y-35446D01*
X15652Y-35171D01*
X15652Y-34872D01*
X15652Y-41131D01*
X13380Y-41131D01*
X13380Y-27077D01*
X13002Y-26699D01*
X12997Y-26704D01*
X12919Y-26626D01*
X12924Y-26621D01*
X12546Y-26243D01*
X12432Y-26274D01*
X12343Y-26519D01*
X12354Y-26779D01*
X12432Y-26967D01*
X12515Y-26990D01*
X12369Y-27051D01*
X12337Y-27165D01*
X12715Y-27543D01*
X12720Y-27537D01*
X12798Y-27615D01*
X12793Y-27621D01*
X13171Y-27999D01*
X13285Y-27967D01*
X13374Y-27722D01*
X13363Y-27462D01*
X13285Y-27274D01*
X13202Y-27252D01*
X13349Y-27191D01*
X13380Y-27077D01*
X13380Y-41131D01*
X13093Y-41131D01*
X13093Y-28077D01*
X12715Y-27699D01*
X12709Y-27704D01*
X12632Y-27626D01*
X12637Y-27621D01*
X12259Y-27243D01*
X12145Y-27274D01*
X12056Y-27519D01*
X12067Y-27779D01*
X12112Y-27887D01*
X12072Y-27871D01*
X11774Y-27871D01*
X11498Y-27985D01*
X11287Y-28195D01*
X11172Y-28471D01*
X11172Y-28769D01*
X11286Y-29045D01*
X11497Y-29256D01*
X11772Y-29371D01*
X12071Y-29371D01*
X12347Y-29257D01*
X12558Y-29046D01*
X12672Y-28771D01*
X12672Y-28472D01*
X12589Y-28271D01*
X12613Y-28280D01*
X12873Y-28269D01*
X13061Y-28191D01*
X13093Y-28077D01*
X13093Y-41131D01*
X12852Y-41131D01*
X12852Y-34872D01*
X12738Y-34596D01*
X12528Y-34385D01*
X12252Y-34271D01*
X11954Y-34271D01*
X11678Y-34385D01*
X11467Y-34595D01*
X11352Y-34871D01*
X11352Y-35169D01*
X11466Y-35445D01*
X11677Y-35656D01*
X11952Y-35771D01*
X12251Y-35771D01*
X12527Y-35657D01*
X12738Y-35446D01*
X12852Y-35171D01*
X12852Y-34872D01*
X12852Y-41131D01*
X12077Y-41131D01*
X12077Y-37280D01*
X8364Y-34000D01*
X8364Y-21737D01*
X8434Y-21906D01*
X8841Y-22314D01*
X9374Y-22535D01*
X9951Y-22536D01*
X10484Y-22315D01*
X10892Y-21908D01*
X11113Y-21375D01*
X11114Y-20798D01*
X10894Y-20265D01*
X10502Y-19872D01*
X18709Y-19872D01*
M02*
