G04 (created by PCBNEW (2013-07-07 BZR 4022)-stable) date 01-Jan-14 7:39:55 PM*
%MOIN*%
G04 Gerber Fmt 3.4, Leading zero omitted, Abs format*
%FSLAX34Y34*%
G01*
G70*
G90*
G04 APERTURE LIST*
%ADD10C,0.001*%
%ADD11C,0.1*%
%ADD12C,0.005*%
%ADD13C,0.012*%
%ADD14C,0.006*%
%ADD15C,0.0001*%
%ADD16C,0.015*%
G04 APERTURE END LIST*
G54D10*
X4000Y-4000D02*
X112930Y-4000D01*
X112930Y-78680D01*
X4000Y-78680D01*
X4000Y-4000D01*
X4700Y-4700D02*
X112230Y-4700D01*
X112230Y-77980D01*
X4700Y-77980D01*
X4700Y-4700D01*
X25780Y-4000D02*
X25780Y-4700D01*
X15032Y-4552D02*
X14747Y-4552D01*
X14890Y-4552D02*
X14890Y-4052D01*
X14842Y-4123D01*
X14794Y-4171D01*
X14747Y-4195D01*
X25780Y-78680D02*
X25780Y-77980D01*
X15032Y-78532D02*
X14747Y-78532D01*
X14890Y-78532D02*
X14890Y-78032D01*
X14842Y-78103D01*
X14794Y-78151D01*
X14747Y-78175D01*
X47560Y-4000D02*
X47560Y-4700D01*
X36527Y-4100D02*
X36550Y-4076D01*
X36598Y-4052D01*
X36717Y-4052D01*
X36765Y-4076D01*
X36789Y-4100D01*
X36812Y-4147D01*
X36812Y-4195D01*
X36789Y-4266D01*
X36503Y-4552D01*
X36812Y-4552D01*
X47560Y-78680D02*
X47560Y-77980D01*
X36527Y-78080D02*
X36550Y-78056D01*
X36598Y-78032D01*
X36717Y-78032D01*
X36765Y-78056D01*
X36789Y-78080D01*
X36812Y-78127D01*
X36812Y-78175D01*
X36789Y-78246D01*
X36503Y-78532D01*
X36812Y-78532D01*
X69340Y-4000D02*
X69340Y-4700D01*
X58283Y-4052D02*
X58592Y-4052D01*
X58426Y-4242D01*
X58497Y-4242D01*
X58545Y-4266D01*
X58569Y-4290D01*
X58592Y-4338D01*
X58592Y-4457D01*
X58569Y-4504D01*
X58545Y-4528D01*
X58497Y-4552D01*
X58354Y-4552D01*
X58307Y-4528D01*
X58283Y-4504D01*
X69340Y-78680D02*
X69340Y-77980D01*
X58283Y-78032D02*
X58592Y-78032D01*
X58426Y-78222D01*
X58497Y-78222D01*
X58545Y-78246D01*
X58569Y-78270D01*
X58592Y-78318D01*
X58592Y-78437D01*
X58569Y-78484D01*
X58545Y-78508D01*
X58497Y-78532D01*
X58354Y-78532D01*
X58307Y-78508D01*
X58283Y-78484D01*
X91120Y-4000D02*
X91120Y-4700D01*
X80325Y-4219D02*
X80325Y-4552D01*
X80206Y-4028D02*
X80087Y-4385D01*
X80396Y-4385D01*
X91120Y-78680D02*
X91120Y-77980D01*
X80325Y-78199D02*
X80325Y-78532D01*
X80206Y-78008D02*
X80087Y-78365D01*
X80396Y-78365D01*
X102129Y-4052D02*
X101890Y-4052D01*
X101867Y-4290D01*
X101890Y-4266D01*
X101938Y-4242D01*
X102057Y-4242D01*
X102105Y-4266D01*
X102129Y-4290D01*
X102152Y-4338D01*
X102152Y-4457D01*
X102129Y-4504D01*
X102105Y-4528D01*
X102057Y-4552D01*
X101938Y-4552D01*
X101890Y-4528D01*
X101867Y-4504D01*
X102129Y-78032D02*
X101890Y-78032D01*
X101867Y-78270D01*
X101890Y-78246D01*
X101938Y-78222D01*
X102057Y-78222D01*
X102105Y-78246D01*
X102129Y-78270D01*
X102152Y-78318D01*
X102152Y-78437D01*
X102129Y-78484D01*
X102105Y-78508D01*
X102057Y-78532D01*
X101938Y-78532D01*
X101890Y-78508D01*
X101867Y-78484D01*
X4000Y-28890D02*
X4700Y-28890D01*
X4230Y-16509D02*
X4469Y-16509D01*
X4183Y-16652D02*
X4350Y-16152D01*
X4516Y-16652D01*
X112930Y-28890D02*
X112230Y-28890D01*
X112460Y-16509D02*
X112699Y-16509D01*
X112413Y-16652D02*
X112580Y-16152D01*
X112746Y-16652D01*
X4000Y-53780D02*
X4700Y-53780D01*
X4385Y-41280D02*
X4457Y-41304D01*
X4480Y-41328D01*
X4504Y-41375D01*
X4504Y-41447D01*
X4480Y-41494D01*
X4457Y-41518D01*
X4409Y-41542D01*
X4219Y-41542D01*
X4219Y-41042D01*
X4385Y-41042D01*
X4433Y-41066D01*
X4457Y-41090D01*
X4480Y-41137D01*
X4480Y-41185D01*
X4457Y-41232D01*
X4433Y-41256D01*
X4385Y-41280D01*
X4219Y-41280D01*
X112930Y-53780D02*
X112230Y-53780D01*
X112615Y-41280D02*
X112687Y-41304D01*
X112710Y-41328D01*
X112734Y-41375D01*
X112734Y-41447D01*
X112710Y-41494D01*
X112687Y-41518D01*
X112639Y-41542D01*
X112449Y-41542D01*
X112449Y-41042D01*
X112615Y-41042D01*
X112663Y-41066D01*
X112687Y-41090D01*
X112710Y-41137D01*
X112710Y-41185D01*
X112687Y-41232D01*
X112663Y-41256D01*
X112615Y-41280D01*
X112449Y-41280D01*
X4504Y-66384D02*
X4480Y-66408D01*
X4409Y-66432D01*
X4361Y-66432D01*
X4290Y-66408D01*
X4242Y-66360D01*
X4219Y-66313D01*
X4195Y-66218D01*
X4195Y-66146D01*
X4219Y-66051D01*
X4242Y-66003D01*
X4290Y-65956D01*
X4361Y-65932D01*
X4409Y-65932D01*
X4480Y-65956D01*
X4504Y-65980D01*
X112734Y-66384D02*
X112710Y-66408D01*
X112639Y-66432D01*
X112591Y-66432D01*
X112520Y-66408D01*
X112472Y-66360D01*
X112449Y-66313D01*
X112425Y-66218D01*
X112425Y-66146D01*
X112449Y-66051D01*
X112472Y-66003D01*
X112520Y-65956D01*
X112591Y-65932D01*
X112639Y-65932D01*
X112710Y-65956D01*
X112734Y-65980D01*
X79380Y-76422D02*
X79455Y-75822D01*
X79597Y-75822D01*
X79680Y-75851D01*
X79730Y-75908D01*
X79751Y-75965D01*
X79765Y-76080D01*
X79755Y-76165D01*
X79712Y-76280D01*
X79676Y-76337D01*
X79612Y-76394D01*
X79522Y-76422D01*
X79380Y-76422D01*
X80237Y-76422D02*
X80276Y-76108D01*
X80255Y-76051D01*
X80201Y-76022D01*
X80087Y-76022D01*
X80026Y-76051D01*
X80240Y-76394D02*
X80180Y-76422D01*
X80037Y-76422D01*
X79983Y-76394D01*
X79962Y-76337D01*
X79969Y-76280D01*
X80005Y-76222D01*
X80065Y-76194D01*
X80208Y-76194D01*
X80269Y-76165D01*
X80487Y-76022D02*
X80715Y-76022D01*
X80597Y-75822D02*
X80533Y-76337D01*
X80555Y-76394D01*
X80608Y-76422D01*
X80665Y-76422D01*
X81097Y-76394D02*
X81037Y-76422D01*
X80922Y-76422D01*
X80869Y-76394D01*
X80847Y-76337D01*
X80876Y-76108D01*
X80912Y-76051D01*
X80972Y-76022D01*
X81087Y-76022D01*
X81140Y-76051D01*
X81162Y-76108D01*
X81155Y-76165D01*
X80862Y-76222D01*
X81387Y-76365D02*
X81412Y-76394D01*
X81380Y-76422D01*
X81355Y-76394D01*
X81387Y-76365D01*
X81380Y-76422D01*
X81426Y-76051D02*
X81451Y-76080D01*
X81419Y-76108D01*
X81394Y-76080D01*
X81426Y-76051D01*
X81419Y-76108D01*
X82437Y-76422D02*
X82094Y-76422D01*
X82265Y-76422D02*
X82340Y-75822D01*
X82272Y-75908D01*
X82208Y-75965D01*
X82147Y-75994D01*
X83201Y-76022D02*
X83137Y-76537D01*
X83101Y-76594D01*
X83040Y-76622D01*
X83012Y-76622D01*
X83226Y-75822D02*
X83194Y-75851D01*
X83219Y-75880D01*
X83251Y-75851D01*
X83226Y-75822D01*
X83219Y-75880D01*
X83694Y-76422D02*
X83733Y-76108D01*
X83712Y-76051D01*
X83658Y-76022D01*
X83544Y-76022D01*
X83483Y-76051D01*
X83697Y-76394D02*
X83637Y-76422D01*
X83494Y-76422D01*
X83440Y-76394D01*
X83419Y-76337D01*
X83426Y-76280D01*
X83462Y-76222D01*
X83522Y-76194D01*
X83665Y-76194D01*
X83726Y-76165D01*
X84030Y-76022D02*
X83980Y-76422D01*
X84022Y-76080D02*
X84055Y-76051D01*
X84115Y-76022D01*
X84201Y-76022D01*
X84255Y-76051D01*
X84276Y-76108D01*
X84237Y-76422D01*
X85019Y-75880D02*
X85051Y-75851D01*
X85112Y-75822D01*
X85255Y-75822D01*
X85308Y-75851D01*
X85333Y-75880D01*
X85355Y-75937D01*
X85347Y-75994D01*
X85308Y-76080D01*
X84922Y-76422D01*
X85294Y-76422D01*
X85740Y-75822D02*
X85797Y-75822D01*
X85851Y-75851D01*
X85876Y-75880D01*
X85897Y-75937D01*
X85912Y-76051D01*
X85894Y-76194D01*
X85851Y-76308D01*
X85815Y-76365D01*
X85783Y-76394D01*
X85722Y-76422D01*
X85665Y-76422D01*
X85612Y-76394D01*
X85587Y-76365D01*
X85565Y-76308D01*
X85551Y-76194D01*
X85569Y-76051D01*
X85612Y-75937D01*
X85647Y-75880D01*
X85680Y-75851D01*
X85740Y-75822D01*
X86437Y-76422D02*
X86094Y-76422D01*
X86265Y-76422D02*
X86340Y-75822D01*
X86272Y-75908D01*
X86208Y-75965D01*
X86147Y-75994D01*
X87001Y-76022D02*
X86951Y-76422D01*
X86887Y-75794D02*
X86690Y-76222D01*
X87062Y-76222D01*
X70972Y-77622D02*
X70972Y-77022D01*
X71315Y-77622D02*
X71058Y-77280D01*
X71315Y-77022D02*
X70972Y-77365D01*
X71572Y-77622D02*
X71572Y-77222D01*
X71572Y-77022D02*
X71544Y-77051D01*
X71572Y-77080D01*
X71601Y-77051D01*
X71572Y-77022D01*
X71572Y-77080D01*
X72201Y-77565D02*
X72172Y-77594D01*
X72087Y-77622D01*
X72030Y-77622D01*
X71944Y-77594D01*
X71887Y-77537D01*
X71858Y-77480D01*
X71830Y-77365D01*
X71830Y-77280D01*
X71858Y-77165D01*
X71887Y-77108D01*
X71944Y-77051D01*
X72030Y-77022D01*
X72087Y-77022D01*
X72172Y-77051D01*
X72201Y-77080D01*
X72715Y-77622D02*
X72715Y-77308D01*
X72687Y-77251D01*
X72630Y-77222D01*
X72515Y-77222D01*
X72458Y-77251D01*
X72715Y-77594D02*
X72658Y-77622D01*
X72515Y-77622D01*
X72458Y-77594D01*
X72430Y-77537D01*
X72430Y-77480D01*
X72458Y-77422D01*
X72515Y-77394D01*
X72658Y-77394D01*
X72715Y-77365D01*
X73258Y-77622D02*
X73258Y-77022D01*
X73258Y-77594D02*
X73201Y-77622D01*
X73087Y-77622D01*
X73030Y-77594D01*
X73001Y-77565D01*
X72972Y-77508D01*
X72972Y-77337D01*
X73001Y-77280D01*
X73030Y-77251D01*
X73087Y-77222D01*
X73201Y-77222D01*
X73258Y-77251D01*
X74001Y-77308D02*
X74201Y-77308D01*
X74287Y-77622D02*
X74001Y-77622D01*
X74001Y-77022D01*
X74287Y-77022D01*
X74544Y-77565D02*
X74572Y-77594D01*
X74544Y-77622D01*
X74515Y-77594D01*
X74544Y-77565D01*
X74544Y-77622D01*
X74829Y-77622D02*
X74829Y-77022D01*
X74972Y-77022D01*
X75058Y-77051D01*
X75115Y-77108D01*
X75144Y-77165D01*
X75172Y-77280D01*
X75172Y-77365D01*
X75144Y-77480D01*
X75115Y-77537D01*
X75058Y-77594D01*
X74972Y-77622D01*
X74829Y-77622D01*
X75429Y-77565D02*
X75458Y-77594D01*
X75429Y-77622D01*
X75401Y-77594D01*
X75429Y-77565D01*
X75429Y-77622D01*
X75687Y-77451D02*
X75972Y-77451D01*
X75629Y-77622D02*
X75829Y-77022D01*
X76029Y-77622D01*
X76229Y-77565D02*
X76258Y-77594D01*
X76229Y-77622D01*
X76201Y-77594D01*
X76229Y-77565D01*
X76229Y-77622D01*
X104522Y-76422D02*
X104358Y-76137D01*
X104180Y-76422D02*
X104255Y-75822D01*
X104483Y-75822D01*
X104537Y-75851D01*
X104562Y-75880D01*
X104583Y-75937D01*
X104572Y-76022D01*
X104537Y-76080D01*
X104505Y-76108D01*
X104444Y-76137D01*
X104215Y-76137D01*
X105012Y-76394D02*
X104951Y-76422D01*
X104837Y-76422D01*
X104783Y-76394D01*
X104762Y-76337D01*
X104790Y-76108D01*
X104826Y-76051D01*
X104887Y-76022D01*
X105001Y-76022D01*
X105055Y-76051D01*
X105076Y-76108D01*
X105069Y-76165D01*
X104776Y-76222D01*
X105287Y-76022D02*
X105380Y-76422D01*
X105572Y-76022D01*
X105758Y-76365D02*
X105783Y-76394D01*
X105751Y-76422D01*
X105726Y-76394D01*
X105758Y-76365D01*
X105751Y-76422D01*
X105797Y-76051D02*
X105822Y-76080D01*
X105790Y-76108D01*
X105765Y-76080D01*
X105797Y-76051D01*
X105790Y-76108D01*
X70944Y-76394D02*
X71030Y-76422D01*
X71172Y-76422D01*
X71230Y-76394D01*
X71258Y-76365D01*
X71287Y-76308D01*
X71287Y-76251D01*
X71258Y-76194D01*
X71230Y-76165D01*
X71172Y-76137D01*
X71058Y-76108D01*
X71001Y-76080D01*
X70972Y-76051D01*
X70944Y-75994D01*
X70944Y-75937D01*
X70972Y-75880D01*
X71001Y-75851D01*
X71058Y-75822D01*
X71201Y-75822D01*
X71287Y-75851D01*
X71544Y-76422D02*
X71544Y-76022D01*
X71544Y-75822D02*
X71515Y-75851D01*
X71544Y-75880D01*
X71572Y-75851D01*
X71544Y-75822D01*
X71544Y-75880D01*
X71772Y-76022D02*
X72087Y-76022D01*
X71772Y-76422D01*
X72087Y-76422D01*
X72544Y-76394D02*
X72487Y-76422D01*
X72372Y-76422D01*
X72315Y-76394D01*
X72287Y-76337D01*
X72287Y-76108D01*
X72315Y-76051D01*
X72372Y-76022D01*
X72487Y-76022D01*
X72544Y-76051D01*
X72572Y-76108D01*
X72572Y-76165D01*
X72287Y-76222D01*
X72830Y-76365D02*
X72858Y-76394D01*
X72830Y-76422D01*
X72801Y-76394D01*
X72830Y-76365D01*
X72830Y-76422D01*
X72830Y-76051D02*
X72858Y-76080D01*
X72830Y-76108D01*
X72801Y-76080D01*
X72830Y-76051D01*
X72830Y-76108D01*
X73544Y-76251D02*
X73830Y-76251D01*
X73487Y-76422D02*
X73687Y-75822D01*
X73887Y-76422D01*
X74344Y-76022D02*
X74344Y-76422D01*
X74201Y-75794D02*
X74058Y-76222D01*
X74430Y-76222D01*
X104172Y-77622D02*
X104172Y-77022D01*
X104715Y-77622D02*
X104715Y-77022D01*
X104715Y-77594D02*
X104658Y-77622D01*
X104544Y-77622D01*
X104487Y-77594D01*
X104458Y-77565D01*
X104430Y-77508D01*
X104430Y-77337D01*
X104458Y-77280D01*
X104487Y-77251D01*
X104544Y-77222D01*
X104658Y-77222D01*
X104715Y-77251D01*
X105001Y-77565D02*
X105030Y-77594D01*
X105001Y-77622D01*
X104972Y-77594D01*
X105001Y-77565D01*
X105001Y-77622D01*
X105001Y-77251D02*
X105030Y-77280D01*
X105001Y-77308D01*
X104972Y-77280D01*
X105001Y-77251D01*
X105001Y-77308D01*
X106058Y-77622D02*
X105715Y-77622D01*
X105887Y-77622D02*
X105887Y-77022D01*
X105829Y-77108D01*
X105772Y-77165D01*
X105715Y-77194D01*
X106744Y-76994D02*
X106230Y-77765D01*
X107258Y-77622D02*
X106915Y-77622D01*
X107087Y-77622D02*
X107087Y-77022D01*
X107029Y-77108D01*
X106972Y-77165D01*
X106915Y-77194D01*
X70969Y-74622D02*
X71312Y-74622D01*
X71065Y-75222D02*
X71140Y-74622D01*
X71437Y-75222D02*
X71487Y-74822D01*
X71512Y-74622D02*
X71480Y-74651D01*
X71505Y-74680D01*
X71537Y-74651D01*
X71512Y-74622D01*
X71505Y-74680D01*
X71687Y-74822D02*
X71915Y-74822D01*
X71797Y-74622D02*
X71733Y-75137D01*
X71755Y-75194D01*
X71808Y-75222D01*
X71865Y-75222D01*
X72151Y-75222D02*
X72097Y-75194D01*
X72076Y-75137D01*
X72140Y-74622D01*
X72612Y-75194D02*
X72551Y-75222D01*
X72437Y-75222D01*
X72383Y-75194D01*
X72362Y-75137D01*
X72390Y-74908D01*
X72426Y-74851D01*
X72487Y-74822D01*
X72601Y-74822D01*
X72655Y-74851D01*
X72676Y-74908D01*
X72669Y-74965D01*
X72376Y-75022D01*
X72901Y-75165D02*
X72926Y-75194D01*
X72894Y-75222D01*
X72869Y-75194D01*
X72901Y-75165D01*
X72894Y-75222D01*
X72940Y-74851D02*
X72965Y-74880D01*
X72933Y-74908D01*
X72908Y-74880D01*
X72940Y-74851D01*
X72933Y-74908D01*
X73626Y-74622D02*
X73969Y-74622D01*
X73722Y-75222D02*
X73797Y-74622D01*
X74094Y-75222D02*
X74144Y-74822D01*
X74169Y-74622D02*
X74137Y-74651D01*
X74162Y-74680D01*
X74194Y-74651D01*
X74169Y-74622D01*
X74162Y-74680D01*
X74380Y-75222D02*
X74455Y-74622D01*
X74722Y-75222D01*
X74797Y-74622D01*
X75001Y-75051D02*
X75287Y-75051D01*
X74922Y-75222D02*
X75197Y-74622D01*
X75322Y-75222D01*
X76008Y-74994D02*
X76465Y-74994D01*
X77530Y-75165D02*
X77497Y-75194D01*
X77408Y-75222D01*
X77351Y-75222D01*
X77269Y-75194D01*
X77219Y-75137D01*
X77197Y-75080D01*
X77183Y-74965D01*
X77194Y-74880D01*
X77237Y-74765D01*
X77272Y-74708D01*
X77337Y-74651D01*
X77426Y-74622D01*
X77483Y-74622D01*
X77565Y-74651D01*
X77590Y-74680D01*
X77865Y-75222D02*
X77812Y-75194D01*
X77787Y-75165D01*
X77765Y-75108D01*
X77787Y-74937D01*
X77822Y-74880D01*
X77855Y-74851D01*
X77915Y-74822D01*
X78001Y-74822D01*
X78055Y-74851D01*
X78080Y-74880D01*
X78101Y-74937D01*
X78080Y-75108D01*
X78044Y-75165D01*
X78012Y-75194D01*
X77951Y-75222D01*
X77865Y-75222D01*
X78372Y-74822D02*
X78322Y-75222D01*
X78365Y-74880D02*
X78397Y-74851D01*
X78458Y-74822D01*
X78544Y-74822D01*
X78597Y-74851D01*
X78619Y-74908D01*
X78580Y-75222D01*
X78830Y-74822D02*
X79058Y-74822D01*
X78940Y-74622D02*
X78876Y-75137D01*
X78897Y-75194D01*
X78951Y-75222D01*
X79008Y-75222D01*
X79208Y-75222D02*
X79258Y-74822D01*
X79244Y-74937D02*
X79280Y-74880D01*
X79312Y-74851D01*
X79372Y-74822D01*
X79430Y-74822D01*
X79665Y-75222D02*
X79612Y-75194D01*
X79587Y-75165D01*
X79565Y-75108D01*
X79587Y-74937D01*
X79622Y-74880D01*
X79655Y-74851D01*
X79715Y-74822D01*
X79801Y-74822D01*
X79855Y-74851D01*
X79880Y-74880D01*
X79901Y-74937D01*
X79880Y-75108D01*
X79844Y-75165D01*
X79812Y-75194D01*
X79751Y-75222D01*
X79665Y-75222D01*
X80208Y-75222D02*
X80155Y-75194D01*
X80133Y-75137D01*
X80197Y-74622D01*
X80522Y-75222D02*
X80469Y-75194D01*
X80447Y-75137D01*
X80512Y-74622D01*
X80983Y-75194D02*
X80922Y-75222D01*
X80808Y-75222D01*
X80755Y-75194D01*
X80733Y-75137D01*
X80762Y-74908D01*
X80797Y-74851D01*
X80858Y-74822D01*
X80972Y-74822D01*
X81026Y-74851D01*
X81047Y-74908D01*
X81040Y-74965D01*
X80747Y-75022D01*
X81265Y-75222D02*
X81315Y-74822D01*
X81301Y-74937D02*
X81337Y-74880D01*
X81369Y-74851D01*
X81430Y-74822D01*
X81487Y-74822D01*
X82058Y-74822D02*
X82287Y-74822D01*
X82094Y-75222D02*
X82158Y-74708D01*
X82194Y-74651D01*
X82255Y-74622D01*
X82312Y-74622D01*
X82522Y-75222D02*
X82469Y-75194D01*
X82444Y-75165D01*
X82422Y-75108D01*
X82444Y-74937D01*
X82480Y-74880D01*
X82512Y-74851D01*
X82572Y-74822D01*
X82658Y-74822D01*
X82712Y-74851D01*
X82737Y-74880D01*
X82758Y-74937D01*
X82737Y-75108D01*
X82701Y-75165D01*
X82669Y-75194D01*
X82608Y-75222D01*
X82522Y-75222D01*
X82980Y-75222D02*
X83030Y-74822D01*
X83015Y-74937D02*
X83051Y-74880D01*
X83083Y-74851D01*
X83144Y-74822D01*
X83201Y-74822D01*
X83797Y-74622D02*
X84140Y-74622D01*
X83894Y-75222D02*
X83969Y-74622D01*
X84265Y-75222D02*
X84315Y-74822D01*
X84340Y-74622D02*
X84308Y-74651D01*
X84333Y-74680D01*
X84365Y-74651D01*
X84340Y-74622D01*
X84333Y-74680D01*
X84551Y-75222D02*
X84626Y-74622D01*
X84772Y-75051D01*
X85026Y-74622D01*
X84951Y-75222D01*
X71172Y-72508D02*
X70972Y-72508D01*
X70972Y-72822D02*
X70972Y-72222D01*
X71258Y-72222D01*
X71487Y-72822D02*
X71487Y-72422D01*
X71487Y-72222D02*
X71458Y-72251D01*
X71487Y-72280D01*
X71515Y-72251D01*
X71487Y-72222D01*
X71487Y-72280D01*
X71858Y-72822D02*
X71801Y-72794D01*
X71772Y-72737D01*
X71772Y-72222D01*
X72315Y-72794D02*
X72258Y-72822D01*
X72144Y-72822D01*
X72087Y-72794D01*
X72058Y-72737D01*
X72058Y-72508D01*
X72087Y-72451D01*
X72144Y-72422D01*
X72258Y-72422D01*
X72315Y-72451D01*
X72344Y-72508D01*
X72344Y-72565D01*
X72058Y-72622D01*
X72601Y-72765D02*
X72630Y-72794D01*
X72601Y-72822D01*
X72572Y-72794D01*
X72601Y-72765D01*
X72601Y-72822D01*
X72601Y-72451D02*
X72630Y-72480D01*
X72601Y-72508D01*
X72572Y-72480D01*
X72601Y-72451D01*
X72601Y-72508D01*
X73601Y-72422D02*
X73601Y-72822D01*
X73344Y-72422D02*
X73344Y-72737D01*
X73372Y-72794D01*
X73430Y-72822D01*
X73515Y-72822D01*
X73572Y-72794D01*
X73601Y-72765D01*
X74230Y-72765D02*
X74201Y-72794D01*
X74115Y-72822D01*
X74058Y-72822D01*
X73972Y-72794D01*
X73915Y-72737D01*
X73887Y-72680D01*
X73858Y-72565D01*
X73858Y-72480D01*
X73887Y-72365D01*
X73915Y-72308D01*
X73972Y-72251D01*
X74058Y-72222D01*
X74115Y-72222D01*
X74201Y-72251D01*
X74230Y-72280D01*
X74572Y-72822D02*
X74515Y-72794D01*
X74487Y-72765D01*
X74458Y-72708D01*
X74458Y-72537D01*
X74487Y-72480D01*
X74515Y-72451D01*
X74572Y-72422D01*
X74658Y-72422D01*
X74715Y-72451D01*
X74744Y-72480D01*
X74772Y-72537D01*
X74772Y-72708D01*
X74744Y-72765D01*
X74715Y-72794D01*
X74658Y-72822D01*
X74572Y-72822D01*
X75030Y-72422D02*
X75030Y-72822D01*
X75030Y-72480D02*
X75058Y-72451D01*
X75115Y-72422D01*
X75201Y-72422D01*
X75258Y-72451D01*
X75287Y-72508D01*
X75287Y-72822D01*
X75487Y-72422D02*
X75715Y-72422D01*
X75572Y-72222D02*
X75572Y-72737D01*
X75601Y-72794D01*
X75658Y-72822D01*
X75715Y-72822D01*
X75915Y-72822D02*
X75915Y-72422D01*
X75915Y-72537D02*
X75944Y-72480D01*
X75972Y-72451D01*
X76030Y-72422D01*
X76087Y-72422D01*
X76372Y-72822D02*
X76315Y-72794D01*
X76287Y-72765D01*
X76258Y-72708D01*
X76258Y-72537D01*
X76287Y-72480D01*
X76315Y-72451D01*
X76372Y-72422D01*
X76458Y-72422D01*
X76515Y-72451D01*
X76544Y-72480D01*
X76572Y-72537D01*
X76572Y-72708D01*
X76544Y-72765D01*
X76515Y-72794D01*
X76458Y-72822D01*
X76372Y-72822D01*
X76915Y-72822D02*
X76858Y-72794D01*
X76830Y-72737D01*
X76830Y-72222D01*
X77001Y-72880D02*
X77458Y-72880D01*
X77544Y-72422D02*
X77687Y-72822D01*
X77830Y-72422D01*
X78001Y-72222D02*
X78372Y-72222D01*
X78172Y-72451D01*
X78258Y-72451D01*
X78315Y-72480D01*
X78344Y-72508D01*
X78372Y-72565D01*
X78372Y-72708D01*
X78344Y-72765D01*
X78315Y-72794D01*
X78258Y-72822D01*
X78087Y-72822D01*
X78030Y-72794D01*
X78001Y-72765D01*
X78630Y-72765D02*
X78658Y-72794D01*
X78630Y-72822D01*
X78601Y-72794D01*
X78630Y-72765D01*
X78630Y-72822D01*
X78915Y-72822D02*
X78915Y-72222D01*
X78972Y-72594D02*
X79144Y-72822D01*
X79144Y-72422D02*
X78915Y-72651D01*
X79401Y-72822D02*
X79401Y-72422D01*
X79401Y-72222D02*
X79372Y-72251D01*
X79401Y-72280D01*
X79430Y-72251D01*
X79401Y-72222D01*
X79401Y-72280D01*
X79944Y-72794D02*
X79887Y-72822D01*
X79772Y-72822D01*
X79715Y-72794D01*
X79687Y-72765D01*
X79658Y-72708D01*
X79658Y-72537D01*
X79687Y-72480D01*
X79715Y-72451D01*
X79772Y-72422D01*
X79887Y-72422D01*
X79944Y-72451D01*
X80458Y-72822D02*
X80458Y-72508D01*
X80430Y-72451D01*
X80372Y-72422D01*
X80258Y-72422D01*
X80201Y-72451D01*
X80458Y-72794D02*
X80401Y-72822D01*
X80258Y-72822D01*
X80201Y-72794D01*
X80172Y-72737D01*
X80172Y-72680D01*
X80201Y-72622D01*
X80258Y-72594D01*
X80401Y-72594D01*
X80458Y-72565D01*
X81001Y-72822D02*
X81001Y-72222D01*
X81001Y-72794D02*
X80944Y-72822D01*
X80830Y-72822D01*
X80772Y-72794D01*
X80744Y-72765D01*
X80715Y-72708D01*
X80715Y-72537D01*
X80744Y-72480D01*
X80772Y-72451D01*
X80830Y-72422D01*
X80944Y-72422D01*
X81001Y-72451D01*
X81144Y-72880D02*
X81601Y-72880D01*
X81744Y-72422D02*
X81744Y-73022D01*
X81744Y-72451D02*
X81801Y-72422D01*
X81915Y-72422D01*
X81972Y-72451D01*
X82001Y-72480D01*
X82030Y-72537D01*
X82030Y-72708D01*
X82001Y-72765D01*
X81972Y-72794D01*
X81915Y-72822D01*
X81801Y-72822D01*
X81744Y-72794D01*
X82544Y-72794D02*
X82487Y-72822D01*
X82372Y-72822D01*
X82315Y-72794D01*
X82287Y-72765D01*
X82258Y-72708D01*
X82258Y-72537D01*
X82287Y-72480D01*
X82315Y-72451D01*
X82372Y-72422D01*
X82487Y-72422D01*
X82544Y-72451D01*
X82801Y-72822D02*
X82801Y-72222D01*
X82801Y-72451D02*
X82858Y-72422D01*
X82972Y-72422D01*
X83030Y-72451D01*
X83058Y-72480D01*
X83087Y-72537D01*
X83087Y-72708D01*
X83058Y-72765D01*
X83030Y-72794D01*
X82972Y-72822D01*
X82858Y-72822D01*
X82801Y-72794D01*
X70944Y-73994D02*
X71030Y-74022D01*
X71172Y-74022D01*
X71230Y-73994D01*
X71258Y-73965D01*
X71287Y-73908D01*
X71287Y-73851D01*
X71258Y-73794D01*
X71230Y-73765D01*
X71172Y-73737D01*
X71058Y-73708D01*
X71001Y-73680D01*
X70972Y-73651D01*
X70944Y-73594D01*
X70944Y-73537D01*
X70972Y-73480D01*
X71001Y-73451D01*
X71058Y-73422D01*
X71201Y-73422D01*
X71287Y-73451D01*
X71544Y-74022D02*
X71544Y-73422D01*
X71801Y-74022D02*
X71801Y-73708D01*
X71772Y-73651D01*
X71715Y-73622D01*
X71630Y-73622D01*
X71572Y-73651D01*
X71544Y-73680D01*
X72315Y-73994D02*
X72258Y-74022D01*
X72144Y-74022D01*
X72087Y-73994D01*
X72058Y-73937D01*
X72058Y-73708D01*
X72087Y-73651D01*
X72144Y-73622D01*
X72258Y-73622D01*
X72315Y-73651D01*
X72344Y-73708D01*
X72344Y-73765D01*
X72058Y-73822D01*
X72830Y-73994D02*
X72772Y-74022D01*
X72658Y-74022D01*
X72601Y-73994D01*
X72572Y-73937D01*
X72572Y-73708D01*
X72601Y-73651D01*
X72658Y-73622D01*
X72772Y-73622D01*
X72830Y-73651D01*
X72858Y-73708D01*
X72858Y-73765D01*
X72572Y-73822D01*
X73030Y-73622D02*
X73258Y-73622D01*
X73115Y-73422D02*
X73115Y-73937D01*
X73144Y-73994D01*
X73201Y-74022D01*
X73258Y-74022D01*
X73458Y-73965D02*
X73487Y-73994D01*
X73458Y-74022D01*
X73430Y-73994D01*
X73458Y-73965D01*
X73458Y-74022D01*
X73458Y-73651D02*
X73487Y-73680D01*
X73458Y-73708D01*
X73430Y-73680D01*
X73458Y-73651D01*
X73458Y-73708D01*
X70997Y-71022D02*
X71065Y-71622D01*
X71233Y-71194D01*
X71294Y-71622D01*
X71512Y-71022D01*
X71658Y-71222D02*
X71751Y-71622D01*
X71944Y-71222D02*
X71751Y-71622D01*
X71676Y-71765D01*
X71644Y-71794D01*
X71583Y-71822D01*
X72208Y-71622D02*
X72155Y-71594D01*
X72130Y-71565D01*
X72108Y-71508D01*
X72130Y-71337D01*
X72165Y-71280D01*
X72197Y-71251D01*
X72258Y-71222D01*
X72344Y-71222D01*
X72397Y-71251D01*
X72422Y-71280D01*
X72444Y-71337D01*
X72422Y-71508D01*
X72387Y-71565D01*
X72355Y-71594D01*
X72294Y-71622D01*
X72208Y-71622D01*
X72951Y-71622D02*
X72665Y-71622D01*
X72740Y-71022D01*
X73458Y-71222D02*
X73408Y-71622D01*
X73201Y-71222D02*
X73162Y-71537D01*
X73183Y-71594D01*
X73237Y-71622D01*
X73322Y-71622D01*
X73383Y-71594D01*
X73415Y-71565D01*
X73694Y-71622D02*
X73744Y-71222D01*
X73737Y-71280D02*
X73769Y-71251D01*
X73829Y-71222D01*
X73915Y-71222D01*
X73969Y-71251D01*
X73990Y-71308D01*
X73951Y-71622D01*
X73990Y-71308D02*
X74026Y-71251D01*
X74087Y-71222D01*
X74172Y-71222D01*
X74226Y-71251D01*
X74247Y-71308D01*
X74208Y-71622D01*
X70915Y-70022D02*
X71030Y-70422D01*
X71144Y-70137D01*
X71258Y-70422D01*
X71372Y-70022D01*
X71544Y-70022D02*
X71658Y-70422D01*
X71772Y-70137D01*
X71887Y-70422D01*
X72001Y-70022D01*
X72172Y-70022D02*
X72287Y-70422D01*
X72401Y-70137D01*
X72515Y-70422D01*
X72629Y-70022D01*
X72858Y-70365D02*
X72887Y-70394D01*
X72858Y-70422D01*
X72829Y-70394D01*
X72858Y-70365D01*
X72858Y-70422D01*
X73087Y-70022D02*
X73201Y-70422D01*
X73315Y-70137D01*
X73429Y-70422D01*
X73544Y-70022D01*
X73715Y-70022D02*
X73858Y-70422D01*
X74001Y-70022D02*
X73858Y-70422D01*
X73801Y-70565D01*
X73772Y-70594D01*
X73715Y-70622D01*
X74315Y-70422D02*
X74258Y-70394D01*
X74229Y-70365D01*
X74201Y-70308D01*
X74201Y-70137D01*
X74229Y-70080D01*
X74258Y-70051D01*
X74315Y-70022D01*
X74401Y-70022D01*
X74458Y-70051D01*
X74487Y-70080D01*
X74515Y-70137D01*
X74515Y-70308D01*
X74487Y-70365D01*
X74458Y-70394D01*
X74401Y-70422D01*
X74315Y-70422D01*
X74858Y-70422D02*
X74801Y-70394D01*
X74772Y-70337D01*
X74772Y-69822D01*
X75344Y-70022D02*
X75344Y-70422D01*
X75087Y-70022D02*
X75087Y-70337D01*
X75115Y-70394D01*
X75172Y-70422D01*
X75258Y-70422D01*
X75315Y-70394D01*
X75344Y-70365D01*
X75629Y-70422D02*
X75629Y-70022D01*
X75629Y-70080D02*
X75658Y-70051D01*
X75715Y-70022D01*
X75801Y-70022D01*
X75858Y-70051D01*
X75887Y-70108D01*
X75887Y-70422D01*
X75887Y-70108D02*
X75915Y-70051D01*
X75972Y-70022D01*
X76058Y-70022D01*
X76115Y-70051D01*
X76144Y-70108D01*
X76144Y-70422D01*
X76429Y-70365D02*
X76458Y-70394D01*
X76429Y-70422D01*
X76401Y-70394D01*
X76429Y-70365D01*
X76429Y-70422D01*
X76972Y-70394D02*
X76915Y-70422D01*
X76801Y-70422D01*
X76744Y-70394D01*
X76715Y-70365D01*
X76687Y-70308D01*
X76687Y-70137D01*
X76715Y-70080D01*
X76744Y-70051D01*
X76801Y-70022D01*
X76915Y-70022D01*
X76972Y-70051D01*
X77315Y-70422D02*
X77258Y-70394D01*
X77229Y-70365D01*
X77201Y-70308D01*
X77201Y-70137D01*
X77229Y-70080D01*
X77258Y-70051D01*
X77315Y-70022D01*
X77401Y-70022D01*
X77458Y-70051D01*
X77487Y-70080D01*
X77515Y-70137D01*
X77515Y-70308D01*
X77487Y-70365D01*
X77458Y-70394D01*
X77401Y-70422D01*
X77315Y-70422D01*
X77772Y-70422D02*
X77772Y-70022D01*
X77772Y-70080D02*
X77801Y-70051D01*
X77858Y-70022D01*
X77944Y-70022D01*
X78001Y-70051D01*
X78029Y-70108D01*
X78029Y-70422D01*
X78029Y-70108D02*
X78058Y-70051D01*
X78115Y-70022D01*
X78201Y-70022D01*
X78258Y-70051D01*
X78287Y-70108D01*
X78287Y-70422D01*
X70230Y-69580D02*
X70230Y-77980D01*
X70230Y-71980D02*
X112230Y-71980D01*
X70230Y-69580D02*
X112230Y-69580D01*
X70230Y-74380D02*
X112230Y-74380D01*
X103430Y-75580D02*
X103430Y-77980D01*
X70230Y-76780D02*
X112230Y-76780D01*
X70230Y-75580D02*
X112230Y-75580D01*
X76830Y-75580D02*
X76830Y-76780D01*
G54D11*
X64180Y-27430D02*
X64180Y-30763D01*
X66323Y-27430D02*
X66323Y-30049D01*
X66085Y-30525D01*
X65609Y-30763D01*
X64894Y-30763D01*
X64418Y-30525D01*
X64180Y-30287D01*
X58942Y-30287D02*
X59180Y-30525D01*
X59894Y-30763D01*
X60370Y-30763D01*
X61085Y-30525D01*
X61561Y-30049D01*
X61799Y-29573D01*
X62037Y-28620D01*
X62037Y-27906D01*
X61799Y-26954D01*
X61561Y-26478D01*
X61085Y-26001D01*
X60370Y-25763D01*
X59894Y-25763D01*
X59180Y-26001D01*
X58942Y-26240D01*
X56085Y-30763D02*
X56561Y-30525D01*
X56799Y-30287D01*
X57037Y-29811D01*
X57037Y-28382D01*
X56799Y-27906D01*
X56561Y-27668D01*
X56085Y-27430D01*
X55370Y-27430D01*
X54894Y-27668D01*
X54656Y-27906D01*
X54418Y-28382D01*
X54418Y-29811D01*
X54656Y-30287D01*
X54894Y-30525D01*
X55370Y-30763D01*
X56085Y-30763D01*
X52275Y-27430D02*
X52275Y-30763D01*
X52275Y-27906D02*
X52037Y-27668D01*
X51561Y-27430D01*
X50847Y-27430D01*
X50370Y-27668D01*
X50132Y-28144D01*
X50132Y-30763D01*
X48466Y-27430D02*
X46561Y-27430D01*
X47751Y-25763D02*
X47751Y-30049D01*
X47513Y-30525D01*
X47037Y-30763D01*
X46561Y-30763D01*
X44894Y-30763D02*
X44894Y-27430D01*
X44894Y-28382D02*
X44656Y-27906D01*
X44418Y-27668D01*
X43942Y-27430D01*
X43466Y-27430D01*
X41085Y-30763D02*
X41561Y-30525D01*
X41799Y-30287D01*
X42037Y-29811D01*
X42037Y-28382D01*
X41799Y-27906D01*
X41561Y-27668D01*
X41085Y-27430D01*
X40370Y-27430D01*
X39894Y-27668D01*
X39656Y-27906D01*
X39418Y-28382D01*
X39418Y-29811D01*
X39656Y-30287D01*
X39894Y-30525D01*
X40370Y-30763D01*
X41085Y-30763D01*
X36561Y-30763D02*
X37037Y-30525D01*
X37275Y-30049D01*
X37275Y-25763D01*
X35847Y-31240D02*
X32037Y-31240D01*
X31323Y-27430D02*
X30132Y-30763D01*
X28942Y-27430D01*
X27513Y-25763D02*
X24418Y-25763D01*
X26085Y-27668D01*
X25370Y-27668D01*
X24894Y-27906D01*
X24656Y-28144D01*
X24418Y-28620D01*
X24418Y-29811D01*
X24656Y-30287D01*
X24894Y-30525D01*
X25370Y-30763D01*
X26799Y-30763D01*
X27275Y-30525D01*
X27513Y-30287D01*
G54D12*
X82892Y-48133D02*
X81042Y-49825D01*
X82892Y-9274D02*
X82892Y-48133D01*
X81042Y-52385D02*
X81042Y-49825D01*
X81042Y-54944D02*
X81042Y-52385D01*
X82892Y-56597D02*
X81042Y-54944D01*
X82892Y-65967D02*
X82892Y-56597D01*
X9664Y-67542D02*
X81317Y-67542D01*
X8089Y-9274D02*
X8089Y-65967D01*
X81317Y-7700D02*
X9664Y-7700D01*
X82892Y-9274D02*
G75*
G03X81317Y-7700I-1574J0D01*
G74*
G01*
X81317Y-67542D02*
G75*
G03X82892Y-65967I0J1574D01*
G74*
G01*
X8089Y-65967D02*
G75*
G03X9664Y-67542I1574J0D01*
G74*
G01*
X9664Y-7700D02*
G75*
G03X8089Y-9274I0J-1574D01*
G74*
G01*
G54D13*
X38590Y-56990D02*
X38590Y-57523D01*
X38933Y-56990D02*
X38933Y-57409D01*
X38895Y-57485D01*
X38819Y-57523D01*
X38704Y-57523D01*
X38628Y-57485D01*
X38590Y-57447D01*
X37752Y-57447D02*
X37790Y-57485D01*
X37904Y-57523D01*
X37980Y-57523D01*
X38095Y-57485D01*
X38171Y-57409D01*
X38209Y-57333D01*
X38247Y-57180D01*
X38247Y-57066D01*
X38209Y-56914D01*
X38171Y-56838D01*
X38095Y-56761D01*
X37980Y-56723D01*
X37904Y-56723D01*
X37790Y-56761D01*
X37752Y-56800D01*
X37295Y-57523D02*
X37371Y-57485D01*
X37409Y-57447D01*
X37447Y-57371D01*
X37447Y-57142D01*
X37409Y-57066D01*
X37371Y-57028D01*
X37295Y-56990D01*
X37180Y-56990D01*
X37104Y-57028D01*
X37066Y-57066D01*
X37028Y-57142D01*
X37028Y-57371D01*
X37066Y-57447D01*
X37104Y-57485D01*
X37180Y-57523D01*
X37295Y-57523D01*
X36685Y-56990D02*
X36685Y-57523D01*
X36685Y-57066D02*
X36647Y-57028D01*
X36571Y-56990D01*
X36457Y-56990D01*
X36380Y-57028D01*
X36342Y-57104D01*
X36342Y-57523D01*
X36076Y-56990D02*
X35771Y-56990D01*
X35961Y-56723D02*
X35961Y-57409D01*
X35923Y-57485D01*
X35847Y-57523D01*
X35771Y-57523D01*
X35504Y-57523D02*
X35504Y-56990D01*
X35504Y-57142D02*
X35466Y-57066D01*
X35428Y-57028D01*
X35352Y-56990D01*
X35276Y-56990D01*
X34895Y-57523D02*
X34971Y-57485D01*
X35009Y-57447D01*
X35047Y-57371D01*
X35047Y-57142D01*
X35009Y-57066D01*
X34971Y-57028D01*
X34895Y-56990D01*
X34780Y-56990D01*
X34704Y-57028D01*
X34666Y-57066D01*
X34628Y-57142D01*
X34628Y-57371D01*
X34666Y-57447D01*
X34704Y-57485D01*
X34780Y-57523D01*
X34895Y-57523D01*
X34171Y-57523D02*
X34247Y-57485D01*
X34285Y-57409D01*
X34285Y-56723D01*
X34057Y-57600D02*
X33447Y-57600D01*
X33333Y-56990D02*
X33142Y-57523D01*
X32952Y-56990D01*
X32723Y-56723D02*
X32228Y-56723D01*
X32495Y-57028D01*
X32380Y-57028D01*
X32304Y-57066D01*
X32266Y-57104D01*
X32228Y-57180D01*
X32228Y-57371D01*
X32266Y-57447D01*
X32304Y-57485D01*
X32380Y-57523D01*
X32609Y-57523D01*
X32685Y-57485D01*
X32723Y-57447D01*
G54D14*
X37352Y-58195D02*
X37276Y-58461D01*
X37200Y-58271D01*
X37123Y-58461D01*
X37047Y-58195D01*
X36933Y-58195D02*
X36838Y-58461D01*
X36742Y-58195D02*
X36838Y-58461D01*
X36876Y-58557D01*
X36895Y-58576D01*
X36933Y-58595D01*
X36533Y-58461D02*
X36571Y-58442D01*
X36590Y-58423D01*
X36609Y-58385D01*
X36609Y-58271D01*
X36590Y-58233D01*
X36571Y-58214D01*
X36533Y-58195D01*
X36476Y-58195D01*
X36438Y-58214D01*
X36419Y-58233D01*
X36400Y-58271D01*
X36400Y-58385D01*
X36419Y-58423D01*
X36438Y-58442D01*
X36476Y-58461D01*
X36533Y-58461D01*
X36171Y-58461D02*
X36209Y-58442D01*
X36228Y-58404D01*
X36228Y-58061D01*
X35847Y-58195D02*
X35847Y-58461D01*
X36019Y-58195D02*
X36019Y-58404D01*
X36000Y-58442D01*
X35961Y-58461D01*
X35904Y-58461D01*
X35866Y-58442D01*
X35847Y-58423D01*
X35657Y-58461D02*
X35657Y-58195D01*
X35657Y-58233D02*
X35638Y-58214D01*
X35600Y-58195D01*
X35542Y-58195D01*
X35504Y-58214D01*
X35485Y-58252D01*
X35485Y-58461D01*
X35485Y-58252D02*
X35466Y-58214D01*
X35428Y-58195D01*
X35371Y-58195D01*
X35333Y-58214D01*
X35314Y-58252D01*
X35314Y-58461D01*
X35123Y-58423D02*
X35104Y-58442D01*
X35123Y-58461D01*
X35142Y-58442D01*
X35123Y-58423D01*
X35123Y-58461D01*
X34761Y-58442D02*
X34800Y-58461D01*
X34876Y-58461D01*
X34914Y-58442D01*
X34933Y-58423D01*
X34952Y-58385D01*
X34952Y-58271D01*
X34933Y-58233D01*
X34914Y-58214D01*
X34876Y-58195D01*
X34800Y-58195D01*
X34761Y-58214D01*
X34533Y-58461D02*
X34571Y-58442D01*
X34590Y-58423D01*
X34609Y-58385D01*
X34609Y-58271D01*
X34590Y-58233D01*
X34571Y-58214D01*
X34533Y-58195D01*
X34476Y-58195D01*
X34438Y-58214D01*
X34419Y-58233D01*
X34400Y-58271D01*
X34400Y-58385D01*
X34419Y-58423D01*
X34438Y-58442D01*
X34476Y-58461D01*
X34533Y-58461D01*
X34228Y-58461D02*
X34228Y-58195D01*
X34228Y-58233D02*
X34209Y-58214D01*
X34171Y-58195D01*
X34114Y-58195D01*
X34076Y-58214D01*
X34057Y-58252D01*
X34057Y-58461D01*
X34057Y-58252D02*
X34038Y-58214D01*
X34000Y-58195D01*
X33942Y-58195D01*
X33904Y-58214D01*
X33885Y-58252D01*
X33885Y-58461D01*
G54D13*
X69660Y-64532D02*
X69775Y-64132D01*
X69889Y-64417D01*
X70003Y-64132D01*
X70117Y-64532D01*
X70289Y-64532D02*
X70403Y-64132D01*
X70517Y-64417D01*
X70632Y-64132D01*
X70746Y-64532D01*
X70917Y-64532D02*
X71032Y-64132D01*
X71146Y-64417D01*
X71260Y-64132D01*
X71375Y-64532D01*
X71603Y-64189D02*
X71632Y-64160D01*
X71603Y-64132D01*
X71575Y-64160D01*
X71603Y-64189D01*
X71603Y-64132D01*
X71832Y-64532D02*
X71946Y-64132D01*
X72060Y-64417D01*
X72174Y-64132D01*
X72289Y-64532D01*
X72460Y-64532D02*
X72603Y-64132D01*
X72746Y-64532D02*
X72603Y-64132D01*
X72546Y-63989D01*
X72517Y-63960D01*
X72460Y-63932D01*
X73060Y-64132D02*
X73003Y-64160D01*
X72974Y-64189D01*
X72946Y-64246D01*
X72946Y-64417D01*
X72974Y-64475D01*
X73003Y-64503D01*
X73060Y-64532D01*
X73146Y-64532D01*
X73203Y-64503D01*
X73232Y-64475D01*
X73260Y-64417D01*
X73260Y-64246D01*
X73232Y-64189D01*
X73203Y-64160D01*
X73146Y-64132D01*
X73060Y-64132D01*
X73603Y-64132D02*
X73546Y-64160D01*
X73517Y-64217D01*
X73517Y-64732D01*
X74089Y-64532D02*
X74089Y-64132D01*
X73832Y-64532D02*
X73832Y-64217D01*
X73860Y-64160D01*
X73917Y-64132D01*
X74003Y-64132D01*
X74060Y-64160D01*
X74089Y-64189D01*
X74374Y-64132D02*
X74374Y-64532D01*
X74374Y-64475D02*
X74403Y-64503D01*
X74460Y-64532D01*
X74546Y-64532D01*
X74603Y-64503D01*
X74632Y-64446D01*
X74632Y-64132D01*
X74632Y-64446D02*
X74660Y-64503D01*
X74717Y-64532D01*
X74803Y-64532D01*
X74860Y-64503D01*
X74889Y-64446D01*
X74889Y-64132D01*
X75174Y-64189D02*
X75203Y-64160D01*
X75174Y-64132D01*
X75146Y-64160D01*
X75174Y-64189D01*
X75174Y-64132D01*
X75717Y-64160D02*
X75660Y-64132D01*
X75546Y-64132D01*
X75489Y-64160D01*
X75460Y-64189D01*
X75432Y-64246D01*
X75432Y-64417D01*
X75460Y-64475D01*
X75489Y-64503D01*
X75546Y-64532D01*
X75660Y-64532D01*
X75717Y-64503D01*
X76060Y-64132D02*
X76003Y-64160D01*
X75974Y-64189D01*
X75946Y-64246D01*
X75946Y-64417D01*
X75974Y-64475D01*
X76003Y-64503D01*
X76060Y-64532D01*
X76146Y-64532D01*
X76203Y-64503D01*
X76232Y-64475D01*
X76260Y-64417D01*
X76260Y-64246D01*
X76232Y-64189D01*
X76203Y-64160D01*
X76146Y-64132D01*
X76060Y-64132D01*
X76517Y-64132D02*
X76517Y-64532D01*
X76517Y-64475D02*
X76546Y-64503D01*
X76603Y-64532D01*
X76689Y-64532D01*
X76746Y-64503D01*
X76774Y-64446D01*
X76774Y-64132D01*
X76774Y-64446D02*
X76803Y-64503D01*
X76860Y-64532D01*
X76946Y-64532D01*
X77003Y-64503D01*
X77032Y-64446D01*
X77032Y-64132D01*
G54D15*
G36*
X34803Y-56181D02*
X34817Y-56173D01*
X34848Y-56154D01*
X34892Y-56125D01*
X34944Y-56091D01*
X34996Y-56055D01*
X35039Y-56027D01*
X35069Y-56007D01*
X35081Y-56000D01*
X35088Y-56003D01*
X35113Y-56015D01*
X35148Y-56033D01*
X35169Y-56044D01*
X35202Y-56058D01*
X35219Y-56061D01*
X35221Y-56057D01*
X35233Y-56032D01*
X35252Y-55989D01*
X35277Y-55932D01*
X35306Y-55865D01*
X35336Y-55793D01*
X35367Y-55720D01*
X35396Y-55650D01*
X35421Y-55587D01*
X35442Y-55535D01*
X35456Y-55500D01*
X35461Y-55485D01*
X35459Y-55481D01*
X35443Y-55465D01*
X35414Y-55444D01*
X35352Y-55393D01*
X35290Y-55317D01*
X35253Y-55230D01*
X35240Y-55133D01*
X35251Y-55043D01*
X35286Y-54957D01*
X35346Y-54880D01*
X35419Y-54822D01*
X35504Y-54786D01*
X35600Y-54774D01*
X35691Y-54784D01*
X35779Y-54819D01*
X35857Y-54878D01*
X35890Y-54916D01*
X35935Y-54994D01*
X35960Y-55078D01*
X35963Y-55100D01*
X35959Y-55192D01*
X35932Y-55280D01*
X35883Y-55359D01*
X35816Y-55424D01*
X35807Y-55430D01*
X35776Y-55454D01*
X35755Y-55470D01*
X35738Y-55483D01*
X35856Y-55766D01*
X35875Y-55811D01*
X35907Y-55889D01*
X35935Y-55955D01*
X35958Y-56008D01*
X35974Y-56044D01*
X35981Y-56058D01*
X35981Y-56059D01*
X35992Y-56061D01*
X36013Y-56053D01*
X36053Y-56034D01*
X36079Y-56020D01*
X36109Y-56006D01*
X36123Y-56000D01*
X36134Y-56007D01*
X36163Y-56025D01*
X36205Y-56053D01*
X36256Y-56088D01*
X36304Y-56121D01*
X36348Y-56150D01*
X36380Y-56171D01*
X36396Y-56179D01*
X36398Y-56179D01*
X36412Y-56171D01*
X36438Y-56150D01*
X36476Y-56114D01*
X36531Y-56060D01*
X36539Y-56051D01*
X36584Y-56006D01*
X36620Y-55968D01*
X36645Y-55940D01*
X36654Y-55928D01*
X36654Y-55928D01*
X36646Y-55913D01*
X36625Y-55880D01*
X36596Y-55835D01*
X36560Y-55783D01*
X36466Y-55647D01*
X36518Y-55518D01*
X36534Y-55479D01*
X36554Y-55431D01*
X36569Y-55397D01*
X36576Y-55382D01*
X36590Y-55377D01*
X36625Y-55369D01*
X36676Y-55358D01*
X36737Y-55347D01*
X36795Y-55336D01*
X36847Y-55326D01*
X36885Y-55319D01*
X36902Y-55316D01*
X36906Y-55313D01*
X36910Y-55305D01*
X36912Y-55287D01*
X36913Y-55255D01*
X36914Y-55205D01*
X36914Y-55133D01*
X36914Y-55125D01*
X36913Y-55056D01*
X36912Y-55001D01*
X36910Y-54965D01*
X36908Y-54951D01*
X36908Y-54951D01*
X36891Y-54947D01*
X36854Y-54939D01*
X36802Y-54929D01*
X36740Y-54917D01*
X36736Y-54916D01*
X36674Y-54904D01*
X36621Y-54893D01*
X36585Y-54885D01*
X36570Y-54880D01*
X36566Y-54876D01*
X36554Y-54851D01*
X36536Y-54813D01*
X36515Y-54766D01*
X36495Y-54717D01*
X36478Y-54673D01*
X36466Y-54640D01*
X36462Y-54625D01*
X36462Y-54625D01*
X36472Y-54610D01*
X36493Y-54578D01*
X36523Y-54533D01*
X36560Y-54480D01*
X36562Y-54476D01*
X36598Y-54424D01*
X36627Y-54379D01*
X36646Y-54347D01*
X36654Y-54333D01*
X36653Y-54332D01*
X36642Y-54317D01*
X36615Y-54287D01*
X36577Y-54247D01*
X36531Y-54200D01*
X36516Y-54186D01*
X36465Y-54136D01*
X36429Y-54103D01*
X36407Y-54086D01*
X36397Y-54082D01*
X36396Y-54082D01*
X36380Y-54092D01*
X36347Y-54114D01*
X36302Y-54144D01*
X36249Y-54180D01*
X36245Y-54183D01*
X36193Y-54219D01*
X36149Y-54248D01*
X36118Y-54269D01*
X36104Y-54277D01*
X36102Y-54277D01*
X36080Y-54271D01*
X36043Y-54258D01*
X35997Y-54240D01*
X35948Y-54220D01*
X35904Y-54202D01*
X35871Y-54187D01*
X35856Y-54178D01*
X35855Y-54177D01*
X35850Y-54158D01*
X35841Y-54119D01*
X35829Y-54065D01*
X35817Y-54000D01*
X35815Y-53990D01*
X35803Y-53927D01*
X35793Y-53876D01*
X35786Y-53840D01*
X35782Y-53825D01*
X35773Y-53823D01*
X35743Y-53821D01*
X35696Y-53820D01*
X35640Y-53819D01*
X35580Y-53819D01*
X35522Y-53821D01*
X35473Y-53822D01*
X35437Y-53825D01*
X35422Y-53828D01*
X35422Y-53829D01*
X35416Y-53848D01*
X35408Y-53887D01*
X35397Y-53942D01*
X35384Y-54006D01*
X35382Y-54018D01*
X35370Y-54080D01*
X35360Y-54131D01*
X35352Y-54167D01*
X35348Y-54181D01*
X35343Y-54184D01*
X35317Y-54195D01*
X35275Y-54212D01*
X35223Y-54233D01*
X35103Y-54282D01*
X34955Y-54181D01*
X34942Y-54172D01*
X34889Y-54135D01*
X34845Y-54106D01*
X34815Y-54087D01*
X34802Y-54080D01*
X34801Y-54080D01*
X34786Y-54093D01*
X34757Y-54120D01*
X34717Y-54159D01*
X34671Y-54206D01*
X34636Y-54240D01*
X34596Y-54281D01*
X34570Y-54309D01*
X34556Y-54327D01*
X34551Y-54338D01*
X34552Y-54345D01*
X34562Y-54360D01*
X34583Y-54393D01*
X34614Y-54437D01*
X34650Y-54490D01*
X34679Y-54533D01*
X34711Y-54583D01*
X34732Y-54618D01*
X34739Y-54635D01*
X34737Y-54643D01*
X34727Y-54671D01*
X34710Y-54715D01*
X34687Y-54767D01*
X34636Y-54884D01*
X34560Y-54899D01*
X34513Y-54907D01*
X34448Y-54920D01*
X34386Y-54932D01*
X34289Y-54951D01*
X34286Y-55307D01*
X34301Y-55313D01*
X34315Y-55317D01*
X34351Y-55325D01*
X34402Y-55335D01*
X34463Y-55346D01*
X34514Y-55356D01*
X34566Y-55366D01*
X34604Y-55373D01*
X34620Y-55377D01*
X34624Y-55382D01*
X34637Y-55407D01*
X34656Y-55447D01*
X34676Y-55495D01*
X34697Y-55545D01*
X34715Y-55591D01*
X34728Y-55626D01*
X34733Y-55645D01*
X34726Y-55658D01*
X34706Y-55689D01*
X34678Y-55732D01*
X34642Y-55784D01*
X34607Y-55835D01*
X34577Y-55880D01*
X34557Y-55911D01*
X34548Y-55926D01*
X34552Y-55936D01*
X34573Y-55961D01*
X34612Y-56001D01*
X34670Y-56058D01*
X34679Y-56067D01*
X34725Y-56112D01*
X34764Y-56148D01*
X34791Y-56172D01*
X34803Y-56181D01*
X34803Y-56181D01*
G37*
G54D16*
X40800Y-44200D02*
X40800Y-42200D01*
X40800Y-42200D02*
X37700Y-42200D01*
X37800Y-44200D02*
X40800Y-44200D01*
X37800Y-42200D02*
X17800Y-42200D01*
X37800Y-44200D02*
X17800Y-44200D01*
X17800Y-44200D02*
X17800Y-42200D01*
X40800Y-63200D02*
X40800Y-61200D01*
X40800Y-61200D02*
X37700Y-61200D01*
X37800Y-63200D02*
X40800Y-63200D01*
X37800Y-61200D02*
X17800Y-61200D01*
X37800Y-63200D02*
X17800Y-63200D01*
X17800Y-63200D02*
X17800Y-61200D01*
X40050Y-65450D02*
X13800Y-65450D01*
X13800Y-59350D02*
X19100Y-59350D01*
X13800Y-65450D02*
X13800Y-59350D01*
X11050Y-52050D02*
X11050Y-46950D01*
X11050Y-52050D02*
X19100Y-52050D01*
X19100Y-52050D02*
X19100Y-59350D01*
X11050Y-46450D02*
X11050Y-46950D01*
X40050Y-43950D02*
X13550Y-43950D01*
X45050Y-48950D02*
X45050Y-60450D01*
X40050Y-43950D02*
G75*
G02X45050Y-48950I0J-5000D01*
G74*
G01*
X45050Y-60450D02*
G75*
G02X40050Y-65450I-5000J0D01*
G74*
G01*
X11050Y-46450D02*
G75*
G02X13550Y-43950I2500J0D01*
G74*
G01*
G54D12*
X36771Y-53171D02*
X36725Y-53171D01*
X36702Y-53185D01*
X36680Y-53214D01*
X36668Y-53271D01*
X36668Y-53371D01*
X36680Y-53428D01*
X36702Y-53457D01*
X36725Y-53471D01*
X36771Y-53471D01*
X36794Y-53457D01*
X36817Y-53428D01*
X36828Y-53371D01*
X36828Y-53271D01*
X36817Y-53214D01*
X36794Y-53185D01*
X36771Y-53171D01*
X36565Y-53271D02*
X36565Y-53571D01*
X36565Y-53285D02*
X36542Y-53271D01*
X36497Y-53271D01*
X36474Y-53285D01*
X36462Y-53300D01*
X36451Y-53328D01*
X36451Y-53414D01*
X36462Y-53442D01*
X36474Y-53457D01*
X36497Y-53471D01*
X36542Y-53471D01*
X36565Y-53457D01*
X36257Y-53457D02*
X36280Y-53471D01*
X36325Y-53471D01*
X36348Y-53457D01*
X36360Y-53428D01*
X36360Y-53314D01*
X36348Y-53285D01*
X36325Y-53271D01*
X36280Y-53271D01*
X36257Y-53285D01*
X36245Y-53314D01*
X36245Y-53342D01*
X36360Y-53371D01*
X36142Y-53271D02*
X36142Y-53471D01*
X36142Y-53300D02*
X36131Y-53285D01*
X36108Y-53271D01*
X36074Y-53271D01*
X36051Y-53285D01*
X36040Y-53314D01*
X36040Y-53471D01*
X35925Y-53471D02*
X35925Y-53171D01*
X35925Y-53314D02*
X35788Y-53314D01*
X35788Y-53471D02*
X35788Y-53171D01*
X35571Y-53471D02*
X35571Y-53314D01*
X35582Y-53285D01*
X35605Y-53271D01*
X35651Y-53271D01*
X35674Y-53285D01*
X35571Y-53457D02*
X35594Y-53471D01*
X35651Y-53471D01*
X35674Y-53457D01*
X35685Y-53428D01*
X35685Y-53400D01*
X35674Y-53371D01*
X35651Y-53357D01*
X35594Y-53357D01*
X35571Y-53342D01*
X35457Y-53471D02*
X35457Y-53271D01*
X35457Y-53328D02*
X35445Y-53300D01*
X35434Y-53285D01*
X35411Y-53271D01*
X35388Y-53271D01*
X35205Y-53471D02*
X35205Y-53171D01*
X35205Y-53457D02*
X35228Y-53471D01*
X35274Y-53471D01*
X35297Y-53457D01*
X35308Y-53442D01*
X35320Y-53414D01*
X35320Y-53328D01*
X35308Y-53300D01*
X35297Y-53285D01*
X35274Y-53271D01*
X35228Y-53271D01*
X35205Y-53285D01*
X35114Y-53271D02*
X35068Y-53471D01*
X35022Y-53328D01*
X34977Y-53471D01*
X34931Y-53271D01*
X34737Y-53471D02*
X34737Y-53314D01*
X34748Y-53285D01*
X34771Y-53271D01*
X34817Y-53271D01*
X34839Y-53285D01*
X34737Y-53457D02*
X34759Y-53471D01*
X34817Y-53471D01*
X34839Y-53457D01*
X34851Y-53428D01*
X34851Y-53400D01*
X34839Y-53371D01*
X34817Y-53357D01*
X34759Y-53357D01*
X34737Y-53342D01*
X34622Y-53471D02*
X34622Y-53271D01*
X34622Y-53328D02*
X34611Y-53300D01*
X34599Y-53285D01*
X34577Y-53271D01*
X34554Y-53271D01*
X34382Y-53457D02*
X34405Y-53471D01*
X34451Y-53471D01*
X34474Y-53457D01*
X34485Y-53428D01*
X34485Y-53314D01*
X34474Y-53285D01*
X34451Y-53271D01*
X34405Y-53271D01*
X34382Y-53285D01*
X34371Y-53314D01*
X34371Y-53342D01*
X34485Y-53371D01*
M02*
