solid OpenSCAD_Model
  facet normal 0 0 -1
    outer loop
      vertex -1.095 0 32
      vertex -0.522051 1.76336 32
      vertex -0.522051 -1.76336 32
    endloop
  endfacet
  facet normal 0 0 -1
    outer loop
      vertex 0 0 32
      vertex -0.522051 1.76336 32
      vertex 0.977949 2.85317 32
    endloop
  endfacet
  facet normal 0 0 -1
    outer loop
      vertex -0.522051 -1.76336 32
      vertex -0.522051 1.76336 32
      vertex 0 0 32
    endloop
  endfacet
  facet normal 0 0 -1
    outer loop
      vertex 2.84428 -2.84428 32
      vertex -0.522051 -1.76336 32
      vertex 0 0 32
    endloop
  endfacet
  facet normal 0 0 -1
    outer loop
      vertex -0.522051 -1.76336 32
      vertex 2.84428 -2.84428 32
      vertex 2.83205 -2.85317 32
    endloop
  endfacet
  facet normal 0 0 -1
    outer loop
      vertex -0.522051 -1.76336 32
      vertex 2.83205 -2.85317 32
      vertex 0.977949 -2.85317 32
    endloop
  endfacet
  facet normal 0 0 -1
    outer loop
      vertex 0 0 32
      vertex 0.977949 2.85317 32
      vertex 2.83205 2.85317 32
    endloop
  endfacet
  facet normal 0 0 -1
    outer loop
      vertex 0 0 32
      vertex 2.83205 2.85317 32
      vertex 2.84428 2.84428 32
    endloop
  endfacet
  facet normal -0.951057 0.309017 0
    outer loop
      vertex -1.095 0 32
      vertex -1.095 0 47
      vertex -0.522051 1.76336 32
    endloop
  endfacet
  facet normal -0.951057 0.309017 0
    outer loop
      vertex -0.522051 1.76336 32
      vertex -1.095 0 47
      vertex -0.522051 1.76336 47
    endloop
  endfacet
  facet normal -0.951057 -0.309017 0
    outer loop
      vertex -1.095 0 32
      vertex -0.522051 -1.76336 32
      vertex -1.095 0 47
    endloop
  endfacet
  facet normal -0.951057 -0.309017 0
    outer loop
      vertex -1.095 0 47
      vertex -0.522051 -1.76336 32
      vertex -0.522051 -1.76336 47
    endloop
  endfacet
  facet normal -0.587785 -0.809017 0
    outer loop
      vertex -0.522051 -1.76336 47
      vertex -0.522051 -1.76336 32
      vertex 0.977949 -2.85317 32
    endloop
  endfacet
  facet normal -0.587785 -0.809017 0
    outer loop
      vertex 0.977949 -2.85317 47
      vertex -0.522051 -1.76336 47
      vertex 0.977949 -2.85317 32
    endloop
  endfacet
  facet normal 0 -1 0
    outer loop
      vertex 0.977949 -2.85317 47
      vertex 0.977949 -2.85317 32
      vertex 2.83205 -2.85317 32
    endloop
  endfacet
  facet normal 0 -1 0
    outer loop
      vertex 2.83205 -2.85317 47
      vertex 0.977949 -2.85317 47
      vertex 2.83205 -2.85317 32
    endloop
  endfacet
  facet normal 0.587785 -0.809017 0
    outer loop
      vertex 2.83205 -2.85317 47
      vertex 2.83205 -2.85317 32
      vertex 2.84428 -2.84428 32
    endloop
  endfacet
  facet normal 0.587785 -0.809017 0
    outer loop
      vertex 2.84428 -2.84428 47
      vertex 2.83205 -2.85317 47
      vertex 2.84428 -2.84428 32
    endloop
  endfacet
  facet normal -0.707107 -0.707107 0
    outer loop
      vertex 3.53553 -3.53553 -2
      vertex 0 0 -6
      vertex 4 -4 -6
    endloop
  endfacet
  facet normal -0.707107 -0.707107 0
    outer loop
      vertex 2.84428 -2.84428 47
      vertex 2.84428 -2.84428 32
      vertex 3.53553 -3.53553 47
    endloop
  endfacet
  facet normal -0.707107 -0.707107 0
    outer loop
      vertex 3.53553 -3.53553 -2
      vertex 2.84428 -2.84428 32
      vertex 0 0 32
    endloop
  endfacet
  facet normal -0.707107 -0.707107 0
    outer loop
      vertex 0 0 32
      vertex 0 0 -6
      vertex 3.53553 -3.53553 -2
    endloop
  endfacet
  facet normal -0.707107 -0.707107 0
    outer loop
      vertex 4 -4 -2
      vertex 3.53553 -3.53553 -2
      vertex 4 -4 -6
    endloop
  endfacet
  facet normal -0.707107 -0.707107 0
    outer loop
      vertex 3.53553 -3.53553 -2
      vertex 3.53553 -3.53553 47
      vertex 2.84428 -2.84428 32
    endloop
  endfacet
  facet normal -0.707107 0.707107 0
    outer loop
      vertex 4 4 -2
      vertex 4 4 -6
      vertex 3.53553 3.53553 -2
    endloop
  endfacet
  facet normal -0.707107 0.707107 0
    outer loop
      vertex 0 0 -6
      vertex 0 0 32
      vertex 3.53553 3.53553 -2
    endloop
  endfacet
  facet normal -0.707107 0.707107 0
    outer loop
      vertex 0 0 -6
      vertex 3.53553 3.53553 -2
      vertex 4 4 -6
    endloop
  endfacet
  facet normal -0.707107 0.707107 0
    outer loop
      vertex 3.53553 3.53553 -2
      vertex 0 0 32
      vertex 2.84428 2.84428 32
    endloop
  endfacet
  facet normal -0.707107 0.707107 0
    outer loop
      vertex 3.53553 3.53553 -2
      vertex 2.84428 2.84428 32
      vertex 2.84428 2.84428 47
    endloop
  endfacet
  facet normal -0.707107 0.707107 0
    outer loop
      vertex 3.53553 3.53553 -2
      vertex 2.84428 2.84428 47
      vertex 3.53553 3.53553 47
    endloop
  endfacet
  facet normal 0.587785 0.809017 0
    outer loop
      vertex 2.83205 2.85317 32
      vertex 2.83205 2.85317 47
      vertex 2.84428 2.84428 32
    endloop
  endfacet
  facet normal 0.587785 0.809017 0
    outer loop
      vertex 2.84428 2.84428 32
      vertex 2.83205 2.85317 47
      vertex 2.84428 2.84428 47
    endloop
  endfacet
  facet normal 0 1 0
    outer loop
      vertex 0.977949 2.85317 32
      vertex 0.977949 2.85317 47
      vertex 2.83205 2.85317 32
    endloop
  endfacet
  facet normal 0 1 0
    outer loop
      vertex 2.83205 2.85317 32
      vertex 0.977949 2.85317 47
      vertex 2.83205 2.85317 47
    endloop
  endfacet
  facet normal -0.587785 0.809017 0
    outer loop
      vertex -0.522051 1.76336 32
      vertex -0.522051 1.76336 47
      vertex 0.977949 2.85317 32
    endloop
  endfacet
  facet normal -0.587785 0.809017 0
    outer loop
      vertex 0.977949 2.85317 32
      vertex -0.522051 1.76336 47
      vertex 0.977949 2.85317 47
    endloop
  endfacet
  facet normal 0 0 1
    outer loop
      vertex -0.522051 1.76336 47
      vertex -1.095 0 47
      vertex -0.522051 -1.76336 47
    endloop
  endfacet
  facet normal 0 0 1
    outer loop
      vertex 2.22045e-16 0 47
      vertex -0.522051 1.76336 47
      vertex -0.522051 -1.76336 47
    endloop
  endfacet
  facet normal 0 0 1
    outer loop
      vertex 0.9525 -1.64978 47
      vertex 2.22045e-16 0 47
      vertex 0.977949 -2.85317 47
    endloop
  endfacet
  facet normal 0 0 1
    outer loop
      vertex 2.84428 2.84428 47
      vertex -0.522051 1.76336 47
      vertex 4.6194 1.91342 47
    endloop
  endfacet
  facet normal 0 0 1
    outer loop
      vertex 3.53553 3.53553 47
      vertex 2.84428 2.84428 47
      vertex 4.6194 1.91342 47
    endloop
  endfacet
  facet normal 0 0 1
    outer loop
      vertex 2.83205 2.85317 47
      vertex -0.522051 1.76336 47
      vertex 2.84428 2.84428 47
    endloop
  endfacet
  facet normal 0 0 1
    outer loop
      vertex 2.8575 -1.64978 47
      vertex 2.84428 -2.84428 47
      vertex 3.53553 -3.53553 47
    endloop
  endfacet
  facet normal 0 0 1
    outer loop
      vertex 2.83205 -2.85317 47
      vertex 0.9525 -1.64978 47
      vertex 0.977949 -2.85317 47
    endloop
  endfacet
  facet normal 0 0 1
    outer loop
      vertex 0.977949 -2.85317 47
      vertex 2.22045e-16 0 47
      vertex -0.522051 -1.76336 47
    endloop
  endfacet
  facet normal 0 0 1
    outer loop
      vertex 3.81 0 47
      vertex 2.8575 -1.64978 47
      vertex 4.6194 -1.91342 47
    endloop
  endfacet
  facet normal 0 0 1
    outer loop
      vertex 4.6194 1.91342 47
      vertex -0.522051 1.76336 47
      vertex 0.9525 1.64978 47
    endloop
  endfacet
  facet normal 0 0 1
    outer loop
      vertex 4.6194 1.91342 47
      vertex 2.8575 1.64978 47
      vertex 5 3.92523e-16 47
    endloop
  endfacet
  facet normal 0 0 1
    outer loop
      vertex 4.6194 1.91342 47
      vertex 0.9525 1.64978 47
      vertex 2.8575 1.64978 47
    endloop
  endfacet
  facet normal 0 0 1
    outer loop
      vertex 5 3.92523e-16 47
      vertex 3.81 0 47
      vertex 4.6194 -1.91342 47
    endloop
  endfacet
  facet normal 0 0 1
    outer loop
      vertex 2.8575 1.64978 47
      vertex 3.81 0 47
      vertex 5 3.92523e-16 47
    endloop
  endfacet
  facet normal 0 0 1
    outer loop
      vertex 4.6194 -1.91342 47
      vertex 2.8575 -1.64978 47
      vertex 3.53553 -3.53553 47
    endloop
  endfacet
  facet normal 0 0 1
    outer loop
      vertex 2.83205 2.85317 47
      vertex 0.977949 2.85317 47
      vertex -0.522051 1.76336 47
    endloop
  endfacet
  facet normal 0 0 1
    outer loop
      vertex 2.8575 -1.64978 47
      vertex 2.83205 -2.85317 47
      vertex 2.84428 -2.84428 47
    endloop
  endfacet
  facet normal 0 0 1
    outer loop
      vertex 2.8575 -1.64978 47
      vertex 0.9525 -1.64978 47
      vertex 2.83205 -2.85317 47
    endloop
  endfacet
  facet normal 0 0 1
    outer loop
      vertex 2.22045e-16 0 47
      vertex 0.9525 1.64978 47
      vertex -0.522051 1.76336 47
    endloop
  endfacet
  facet normal 0.83147 -0.55557 0
    outer loop
      vertex 3.53553 -3.53553 47
      vertex 3.53553 -3.53553 -2
      vertex 4.6194 -1.91342 -2
    endloop
  endfacet
  facet normal 0.83147 -0.55557 0
    outer loop
      vertex 4.6194 -1.91342 47
      vertex 3.53553 -3.53553 47
      vertex 4.6194 -1.91342 -2
    endloop
  endfacet
  facet normal 0 0 1
    outer loop
      vertex 12.85 -4 -2
      vertex 5 3.92523e-16 -2
      vertex 4.6194 -1.91342 -2
    endloop
  endfacet
  facet normal 0 0 1
    outer loop
      vertex 4.6194 1.91342 -2
      vertex 5 3.92523e-16 -2
      vertex 12.85 -4 -2
    endloop
  endfacet
  facet normal 0 0 1
    outer loop
      vertex 3.53553 -3.53553 -2
      vertex 4 -4 -2
      vertex 4.6194 -1.91342 -2
    endloop
  endfacet
  facet normal 0 0 1
    outer loop
      vertex 4 -4 -2
      vertex 12.85 -4 -2
      vertex 4.6194 -1.91342 -2
    endloop
  endfacet
  facet normal 0 0 1
    outer loop
      vertex 12.85 -4 -2
      vertex 12.85 4 -2
      vertex 4.6194 1.91342 -2
    endloop
  endfacet
  facet normal 0 0 1
    outer loop
      vertex 12.85 4 -2
      vertex 4 4 -2
      vertex 4.6194 1.91342 -2
    endloop
  endfacet
  facet normal 0 0 1
    outer loop
      vertex 3.53553 3.53553 -2
      vertex 4.6194 1.91342 -2
      vertex 4 4 -2
    endloop
  endfacet
  facet normal 0 -1 0
    outer loop
      vertex 4 -4 -2
      vertex 4 -4 -6
      vertex 15 -4 -6
    endloop
  endfacet
  facet normal 0 -1 0
    outer loop
      vertex 12.85 -4 -2
      vertex 4 -4 -2
      vertex 15 -4 -6
    endloop
  endfacet
  facet normal 0 -1 0
    outer loop
      vertex 7.47406 -4 4
      vertex 7.47406 -4 0
      vertex 15 -4 4
    endloop
  endfacet
  facet normal 0 -1 0
    outer loop
      vertex 15 -4 4
      vertex 12.85 -4 0
      vertex 15 -4 -6
    endloop
  endfacet
  facet normal 0 -1 0
    outer loop
      vertex 12.85 -4 0
      vertex 12.85 -4 -2
      vertex 15 -4 -6
    endloop
  endfacet
  facet normal 0 -1 0
    outer loop
      vertex 7.47406 -4 0
      vertex 12.85 -4 0
      vertex 15 -4 4
    endloop
  endfacet
  facet normal 0 0 -1
    outer loop
      vertex 0 0 -6
      vertex 4 4 -6
      vertex 4 -4 -6
    endloop
  endfacet
  facet normal 0 0 -1
    outer loop
      vertex 4 -4 -6
      vertex 4 4 -6
      vertex 15 4 -6
    endloop
  endfacet
  facet normal 0 0 -1
    outer loop
      vertex 4 -4 -6
      vertex 15 4 -6
      vertex 15 -4 -6
    endloop
  endfacet
  facet normal 0 1 0
    outer loop
      vertex 4 4 -6
      vertex 4 4 -2
      vertex 15 4 -6
    endloop
  endfacet
  facet normal 0 1 0
    outer loop
      vertex 15 4 -6
      vertex 4 4 -2
      vertex 12.85 4 -2
    endloop
  endfacet
  facet normal 0 1 0
    outer loop
      vertex 15 4 -6
      vertex 12.85 4 -2
      vertex 12.85 4 0
    endloop
  endfacet
  facet normal 0 1 0
    outer loop
      vertex 12.85 4 0
      vertex 7.47406 4 0
      vertex 7.47406 4 4
    endloop
  endfacet
  facet normal 0 1 0
    outer loop
      vertex 12.85 4 0
      vertex 7.47406 4 4
      vertex 15 4 4
    endloop
  endfacet
  facet normal 0 1 0
    outer loop
      vertex 12.85 4 0
      vertex 15 4 4
      vertex 15 4 -6
    endloop
  endfacet
  facet normal 0.83147 0.55557 0
    outer loop
      vertex 4.6194 1.91342 -2
      vertex 3.53553 3.53553 -2
      vertex 3.53553 3.53553 47
    endloop
  endfacet
  facet normal 0.83147 0.55557 0
    outer loop
      vertex 4.6194 1.91342 47
      vertex 4.6194 1.91342 -2
      vertex 3.53553 3.53553 47
    endloop
  endfacet
  facet normal 0.980785 0.19509 0
    outer loop
      vertex 5 3.92523e-16 -2
      vertex 4.6194 1.91342 -2
      vertex 4.6194 1.91342 47
    endloop
  endfacet
  facet normal 0.980785 0.19509 0
    outer loop
      vertex 5 3.92523e-16 47
      vertex 5 3.92523e-16 -2
      vertex 4.6194 1.91342 47
    endloop
  endfacet
  facet normal 0.980785 -0.19509 0
    outer loop
      vertex 4.6194 -1.91342 47
      vertex 4.6194 -1.91342 -2
      vertex 5 3.92523e-16 -2
    endloop
  endfacet
  facet normal 0.980785 -0.19509 0
    outer loop
      vertex 5 3.92523e-16 47
      vertex 4.6194 -1.91342 47
      vertex 5 3.92523e-16 -2
    endloop
  endfacet
  facet normal -0.866025 -0.5 0
    outer loop
      vertex 2.22045e-16 0 47
      vertex 0.9525 -1.64978 47
      vertex 2.22045e-16 0 62
    endloop
  endfacet
  facet normal -0.866025 -0.5 0
    outer loop
      vertex 2.22045e-16 0 62
      vertex 0.9525 -1.64978 47
      vertex 0.9525 -1.64978 62
    endloop
  endfacet
  facet normal 0 -1 0
    outer loop
      vertex 0.9525 -1.64978 62
      vertex 0.9525 -1.64978 47
      vertex 2.8575 -1.64978 47
    endloop
  endfacet
  facet normal 0 -1 0
    outer loop
      vertex 2.8575 -1.64978 62
      vertex 0.9525 -1.64978 62
      vertex 2.8575 -1.64978 47
    endloop
  endfacet
  facet normal 0.866025 -0.5 0
    outer loop
      vertex 2.8575 -1.64978 62
      vertex 2.8575 -1.64978 47
      vertex 3.81 0 47
    endloop
  endfacet
  facet normal 0.866025 -0.5 0
    outer loop
      vertex 3.81 0 62
      vertex 2.8575 -1.64978 62
      vertex 3.81 0 47
    endloop
  endfacet
  facet normal 0.866025 0.5 0
    outer loop
      vertex 3.81 0 47
      vertex 2.8575 1.64978 47
      vertex 2.8575 1.64978 62
    endloop
  endfacet
  facet normal 0.866025 0.5 0
    outer loop
      vertex 3.81 0 62
      vertex 3.81 0 47
      vertex 2.8575 1.64978 62
    endloop
  endfacet
  facet normal 0 1 0
    outer loop
      vertex 0.9525 1.64978 47
      vertex 0.9525 1.64978 62
      vertex 2.8575 1.64978 47
    endloop
  endfacet
  facet normal 0 1 0
    outer loop
      vertex 2.8575 1.64978 47
      vertex 0.9525 1.64978 62
      vertex 2.8575 1.64978 62
    endloop
  endfacet
  facet normal -0.866025 0.5 0
    outer loop
      vertex 2.22045e-16 0 47
      vertex 2.22045e-16 0 62
      vertex 0.9525 1.64978 47
    endloop
  endfacet
  facet normal -0.866025 0.5 0
    outer loop
      vertex 0.9525 1.64978 47
      vertex 2.22045e-16 0 62
      vertex 0.9525 1.64978 62
    endloop
  endfacet
  facet normal -1 0 0
    outer loop
      vertex 12.85 4 0
      vertex 12.85 4 -2
      vertex 12.85 -4 0
    endloop
  endfacet
  facet normal -1 0 0
    outer loop
      vertex 12.85 -4 0
      vertex 12.85 4 -2
      vertex 12.85 -4 -2
    endloop
  endfacet
  facet normal 0 0 -1
    outer loop
      vertex 8.27088 -1.96023 0
      vertex 12.85 4 0
      vertex 7.59588 -3.81479 0
    endloop
  endfacet
  facet normal 0 0 -1
    outer loop
      vertex 8.27088 -1.96023 0
      vertex 8.5 0 0
      vertex 12.85 4 0
    endloop
  endfacet
  facet normal 0 0 -1
    outer loop
      vertex 12.85 4 0
      vertex 8.27088 1.96023 0
      vertex 7.59588 3.81479 0
    endloop
  endfacet
  facet normal 0 0 -1
    outer loop
      vertex 12.85 4 0
      vertex 7.59588 3.81479 0
      vertex 7.47406 4 0
    endloop
  endfacet
  facet normal 0 0 -1
    outer loop
      vertex 8.5 0 0
      vertex 8.27088 1.96023 0
      vertex 12.85 4 0
    endloop
  endfacet
  facet normal 0 0 -1
    outer loop
      vertex 12.85 4 0
      vertex 12.85 -4 0
      vertex 7.59588 -3.81479 0
    endloop
  endfacet
  facet normal 0 0 -1
    outer loop
      vertex 12.85 -4 0
      vertex 7.47406 -4 0
      vertex 7.59588 -3.81479 0
    endloop
  endfacet
  facet normal -0.835488 0.549509 0
    outer loop
      vertex 7.59588 -3.81479 4
      vertex 7.59588 -3.81479 0
      vertex 7.47406 -4 4
    endloop
  endfacet
  facet normal -0.835488 0.549509 0
    outer loop
      vertex 7.47406 -4 4
      vertex 7.59588 -3.81479 0
      vertex 7.47406 -4 0
    endloop
  endfacet
  facet normal 0 0 1
    outer loop
      vertex 7.59588 -3.81479 4
      vertex 7.47406 -4 4
      vertex 15 -4 4
    endloop
  endfacet
  facet normal 0 0 1
    outer loop
      vertex 8.27088 -1.96023 4
      vertex 7.59588 -3.81479 4
      vertex 15 4 4
    endloop
  endfacet
  facet normal 0 0 1
    outer loop
      vertex 15 4 4
      vertex 7.59588 -3.81479 4
      vertex 15 -4 4
    endloop
  endfacet
  facet normal 0 0 1
    outer loop
      vertex 7.47406 4 4
      vertex 7.59588 3.81479 4
      vertex 15 4 4
    endloop
  endfacet
  facet normal 0 0 1
    outer loop
      vertex 7.59588 3.81479 4
      vertex 8.27088 1.96023 4
      vertex 15 4 4
    endloop
  endfacet
  facet normal 0 0 1
    outer loop
      vertex 8.27088 1.96023 4
      vertex 8.5 0 4
      vertex 15 4 4
    endloop
  endfacet
  facet normal 0 0 1
    outer loop
      vertex 8.5 0 4
      vertex 8.27088 -1.96023 4
      vertex 15 4 4
    endloop
  endfacet
  facet normal 1 0 0
    outer loop
      vertex 15 -4 4
      vertex 15 -4 -6
      vertex 15 4 -6
    endloop
  endfacet
  facet normal 1 0 0
    outer loop
      vertex 15 4 4
      vertex 15 -4 4
      vertex 15 4 -6
    endloop
  endfacet
  facet normal -0.835488 -0.549509 0
    outer loop
      vertex 7.59588 3.81479 4
      vertex 7.47406 4 4
      vertex 7.59588 3.81479 0
    endloop
  endfacet
  facet normal -0.835488 -0.549509 0
    outer loop
      vertex 7.59588 3.81479 0
      vertex 7.47406 4 4
      vertex 7.47406 4 0
    endloop
  endfacet
  facet normal 0 0 1
    outer loop
      vertex 0.9525 1.64978 62
      vertex 2.22045e-16 0 62
      vertex 0.9525 -1.64978 62
    endloop
  endfacet
  facet normal 0 0 1
    outer loop
      vertex 3.81 0 62
      vertex 0.9525 1.64978 62
      vertex 2.8575 -1.64978 62
    endloop
  endfacet
  facet normal 0 0 1
    outer loop
      vertex 2.8575 -1.64978 62
      vertex 0.9525 1.64978 62
      vertex 0.9525 -1.64978 62
    endloop
  endfacet
  facet normal 0 0 1
    outer loop
      vertex 2.8575 1.64978 62
      vertex 0.9525 1.64978 62
      vertex 3.81 0 62
    endloop
  endfacet
  facet normal -0.939693 0.34202 0
    outer loop
      vertex 8.27088 -1.96023 4
      vertex 8.27088 -1.96023 0
      vertex 7.59588 -3.81479 4
    endloop
  endfacet
  facet normal -0.939693 0.34202 0
    outer loop
      vertex 7.59588 -3.81479 4
      vertex 8.27088 -1.96023 0
      vertex 7.59588 -3.81479 0
    endloop
  endfacet
  facet normal -0.939693 -0.34202 0
    outer loop
      vertex 8.27088 1.96023 4
      vertex 7.59588 3.81479 4
      vertex 8.27088 1.96023 0
    endloop
  endfacet
  facet normal -0.939693 -0.34202 0
    outer loop
      vertex 8.27088 1.96023 0
      vertex 7.59588 3.81479 4
      vertex 7.59588 3.81479 0
    endloop
  endfacet
  facet normal -0.993238 -0.116093 0
    outer loop
      vertex 8.5 0 4
      vertex 8.27088 1.96023 4
      vertex 8.5 0 0
    endloop
  endfacet
  facet normal -0.993238 -0.116093 0
    outer loop
      vertex 8.5 0 0
      vertex 8.27088 1.96023 4
      vertex 8.27088 1.96023 0
    endloop
  endfacet
  facet normal -0.993238 0.116093 0
    outer loop
      vertex 8.5 0 4
      vertex 8.5 0 0
      vertex 8.27088 -1.96023 4
    endloop
  endfacet
  facet normal -0.993238 0.116093 0
    outer loop
      vertex 8.27088 -1.96023 4
      vertex 8.5 0 0
      vertex 8.27088 -1.96023 0
    endloop
  endfacet
endsolid OpenSCAD_Model
